<svg width="55" height="55" viewBox="0 0 55 55" fill="none" xmlns="http://www.w3.org/2000/svg">
<path d="M30.4254 23.3486C30.0353 23.0143 29.5895 22.7914 29.088 22.6242C28.5865 22.5128 28.0292 22.457 27.3605 22.457H24.7972C24.3514 22.457 24.0728 22.5685 23.8499 22.7357C23.6827 22.9028 23.5713 23.2372 23.5713 23.683V30.8714C23.5713 31.2058 23.5713 31.4287 23.6827 31.6516C23.7385 31.8745 23.8499 31.9859 24.0171 32.0974C24.1843 32.2088 24.4629 32.2645 24.8529 32.2645H27.4163C27.8621 32.2645 28.2521 32.2088 28.6422 32.1531C28.9766 32.0974 29.3109 31.9859 29.6453 31.8745C29.9796 31.7073 30.2582 31.5401 30.4811 31.3172C30.8155 30.9829 31.0941 30.6485 31.317 30.2584C31.5399 29.8684 31.7071 29.4226 31.8185 28.9211C31.9299 28.4195 31.9857 27.918 31.9857 27.3051C31.9857 25.5776 31.4842 24.2402 30.4254 23.3486ZM28.9766 30.2584C28.8094 30.3699 28.6422 30.4813 28.475 30.5371C28.2521 30.5928 28.085 30.6485 27.9178 30.6485C27.7506 30.6485 27.472 30.6485 27.1377 30.6485H25.6331V23.9616H26.9705C27.5834 23.9616 28.085 24.0173 28.5308 24.1845C28.9766 24.2959 29.3109 24.6303 29.5895 25.1318C29.8681 25.6333 30.0353 26.3577 30.0353 27.3051C29.9796 28.7539 29.6452 29.7012 28.9766 30.2584Z" fill="#FDBA61"/>
<path d="M48.1454 10.9777L48.0897 10.922V10.8663L37.5021 0.278622L37.4463 0.222898C37.4463 0.222898 37.3906 0.222898 37.3906 0.167173C37.3906 0.167173 37.3349 0.167173 37.3349 0.111449C37.1677 0 37.0005 0 36.7776 0H10.5314C9.52841 0 8.58109 0.390071 7.9124 1.05876L7.85668 1.11449C7.18798 1.78318 6.74219 2.78622 6.74219 3.78926V51.2107C6.74219 52.2695 7.18798 53.2168 7.85668 53.8855C8.52537 54.5542 9.52841 55 10.5314 55H44.4676C45.5264 55 46.4737 54.5542 47.1424 53.8855C47.8111 53.2168 48.2569 52.2138 48.2569 51.2107V11.535C48.2569 11.3121 48.2012 11.1449 48.1454 10.9777ZM37.8364 4.01216L44.1333 10.309H39.5081C39.0624 10.309 38.6166 10.1418 38.3379 9.8075C38.0593 9.52888 37.8364 9.08308 37.8364 8.63729V4.01216ZM45.8607 51.2107C45.8607 51.6008 45.6936 51.9352 45.4149 52.2138C45.1363 52.4924 44.802 52.6596 44.4119 52.6596H10.5314C10.1414 52.6596 9.80703 52.4924 9.52841 52.2695C9.24979 51.9909 9.13834 51.6565 9.13834 51.2665V3.73354C9.13834 3.34347 9.30551 3.00912 9.58413 2.7305L9.63986 2.67477C9.91848 2.45187 10.2528 2.2847 10.5872 2.2847H35.5517V8.58156C35.5517 9.69605 35.9975 10.6991 36.7776 11.4792C37.5021 12.2036 38.5608 12.6494 39.6753 12.6494H45.8607V51.2107Z" fill="#FDBA61"/>
<path d="M21.0081 23.2371C20.7295 22.9585 20.3951 22.7913 19.9493 22.6799C19.5593 22.5684 18.9463 22.5127 18.2219 22.5127H15.6586C15.2128 22.5127 14.8784 22.6241 14.7112 22.7913C14.4883 22.9585 14.4326 23.2928 14.4326 23.7386V31.3172C14.4326 31.7072 14.5441 31.9858 14.7112 32.2087C14.8784 32.4316 15.157 32.4874 15.4357 32.4874C15.7143 32.4874 15.9372 32.3759 16.1601 32.153C16.3272 31.9301 16.4387 31.6515 16.4387 31.2614V28.4752H18.2776C19.5035 28.4752 20.3951 28.1966 21.0081 27.6951C21.6211 27.1935 21.9554 26.4134 21.9554 25.4104C21.9554 24.9646 21.8997 24.5188 21.7325 24.1287C21.5096 23.7944 21.2867 23.46 21.0081 23.2371ZM19.6707 26.3577C19.5035 26.5806 19.2806 26.7478 18.9463 26.8592C18.6119 26.9706 18.2219 27.0264 17.7761 27.0264H16.4387V24.0173H17.7761C18.6677 24.0173 19.2249 24.1844 19.5593 24.4631C19.8379 24.7417 19.9493 25.076 19.9493 25.5218C19.8936 25.8562 19.8379 26.1348 19.6707 26.3577Z" fill="#FDBA61"/>
<path d="M34.9388 22.4014C34.6045 22.4571 34.3816 22.5128 34.2144 22.6243C34.0472 22.68 33.8801 22.8472 33.8243 23.0143C33.7129 23.1815 33.7129 23.4044 33.7129 23.7388V31.2616C33.7129 31.6516 33.8243 31.986 33.9915 32.1531C34.1587 32.376 34.4373 32.4318 34.7159 32.4318C34.9946 32.4318 35.2174 32.3203 35.4403 32.1531C35.6075 31.9303 35.719 31.6516 35.719 31.2616V28.0295H39.0067C39.2853 28.0295 39.5082 27.9738 39.6754 27.8066C39.8426 27.6952 39.8983 27.4723 39.8983 27.2494C39.8983 27.0265 39.8426 26.8593 39.6754 26.6922C39.5082 26.5807 39.2853 26.4693 39.0067 26.4693H35.719V23.9617H39.6197C39.954 23.9617 40.1769 23.9059 40.3441 23.7388C40.5113 23.5716 40.567 23.4044 40.567 23.1815C40.567 22.9586 40.5113 22.7914 40.3441 22.6243C40.1769 22.4571 39.954 22.4014 39.6197 22.4014H34.9388Z" fill="#FDBA61"/>
</svg>
