<svg width="55" height="55" fill="none" xmlns="http://www.w3.org/2000/svg"><path d="M30.425 23.349c-.39-.335-.835-.558-1.337-.725a7.895 7.895 0 00-1.728-.167h-2.563c-.446 0-.724.111-.947.279-.167.167-.279.501-.279.947v7.188c0 .335 0 .558.112.78.055.224.167.335.334.446.167.112.446.167.836.167h2.563c.446 0 .836-.055 1.226-.11.335-.057.669-.168 1.003-.28.335-.167.613-.334.836-.557a4.99 4.99 0 00.836-1.059c.223-.39.39-.835.502-1.337a7.204 7.204 0 00.167-1.616c0-1.727-.502-3.065-1.56-3.956zm-1.448 6.91c-.168.11-.335.222-.502.278-.223.056-.39.111-.557.111h-2.285v-6.686h1.338c.612 0 1.114.055 1.56.223.446.11.78.445 1.059.947.278.501.445 1.226.445 2.173-.055 1.449-.39 2.396-1.058 2.953z" fill="#FDBA61"/><path d="M48.145 10.978l-.055-.056v-.056L37.502.28l-.056-.056s-.055 0-.055-.056c0 0-.056 0-.056-.056C37.168 0 37 0 36.778 0H10.53C9.527 0 8.58.39 7.911 1.059l-.055.055A3.892 3.892 0 006.742 3.79v47.422a3.79 3.79 0 001.115 2.675A3.892 3.892 0 0010.53 55h33.937a3.79 3.79 0 002.674-1.114 3.892 3.892 0 001.115-2.675V11.535c0-.223-.056-.39-.112-.557zM37.836 4.012l6.297 6.297h-4.625c-.446 0-.891-.167-1.17-.502-.279-.278-.502-.724-.502-1.17V4.012zm8.025 47.199c0 .39-.167.724-.446 1.003-.279.278-.613.446-1.003.446h-33.88c-.39 0-.725-.168-1.004-.39-.278-.28-.39-.614-.39-1.004V3.735c0-.39.168-.725.446-1.003l.056-.056c.278-.223.613-.39.947-.39h24.965v6.297c0 1.114.446 2.117 1.226 2.897.724.725 1.783 1.17 2.897 1.17h6.186v38.562z" fill="#FDBA61"/><path d="M21.008 23.237c-.278-.278-.613-.446-1.059-.557-.39-.112-1.003-.167-1.727-.167h-2.563c-.446 0-.78.111-.948.278-.223.168-.278.502-.278.948v7.578c0 .39.111.669.278.892.167.223.446.278.725.278.278 0 .501-.111.724-.334.167-.223.279-.502.279-.892v-2.786h1.839c1.226 0 2.117-.278 2.73-.78s.947-1.282.947-2.285c0-.445-.055-.891-.222-1.281-.223-.335-.446-.669-.725-.892zm-1.337 3.12c-.168.224-.39.39-.725.502a3.706 3.706 0 01-1.17.167H16.44v-3.009h1.337c.892 0 1.449.167 1.783.446.279.279.39.613.39 1.059-.055.334-.111.613-.278.836zm15.268-3.956c-.334.056-.557.112-.725.223a.673.673 0 00-.39.39c-.111.168-.111.39-.111.725v7.523c0 .39.111.724.279.891.167.223.445.279.724.279.279 0 .501-.112.724-.279.168-.223.279-.501.279-.891v-3.233h3.288c.278 0 .501-.055.668-.222.168-.112.223-.335.223-.558a.715.715 0 00-.223-.557 1.195 1.195 0 00-.668-.223h-3.288v-2.507h3.9c.335 0 .558-.056.725-.223a.715.715 0 00.223-.558.715.715 0 00-.223-.557c-.167-.167-.39-.223-.724-.223h-4.681z" fill="#FDBA61"/></svg>