<svg width="158" height="65" fill="none" xmlns="http://www.w3.org/2000/svg"><path d="M81.708 43.237c14.229-.009 25.292-.079 25.292-.164 0-.055-4.54-.214-11.542-.335-.23-.014-.461-.028-.69-.054-.656-.07-.936-.34-.953-.918-.016-.577-.01-.531-.03-1.118-.012-.366-.028-.723.41-1.002l-.395-.04v-1.51c.305-.149.584-.306.945-.196a.602.602 0 00.25-.038l.625-.128c.085-.235.145-.48.179-.727l.23.283.532.03c.015-.04.031-.095.057-.17l.373.098.461-.297a6.194 6.194 0 00-.72-.187c-.212-.031-.496.062-.633-.031-.161-.107-.215-.353-.28-.546a1.382 1.382 0 01-.007-.403c.48.116.771-.059 1.044-.392-.415.057-.772.2-1.18.077.195-.094.387-.19.644-.312l-.565-.274c.428-.209.628.09.83.18l.65-.414-1.233-.4-.091-.478.32-.075-.03-.331c.128.018.245.042.36.048.071 0 .15-.044.216-.033.32.052.32.056.564-.127l-.506-.09.347-.473c-.415.145-.568-.233-.956-.368l.356-.162-.07-.09c-.116.01-.233.016-.35.026-.183.017-.366-.01-.44-.167-.075-.156.045-.275.204-.365.183-.103.337-.25.446-.428-.23.056-.407.225-.595.009-.022-.025-.118-.01-.177 0-.15.021-.297.052-.462.081a3.224 3.224 0 01-.337-.47c-.086-.177.07-.312.264-.215.278.14.411-.044.584-.137a.578.578 0 00.235-.224c.129-.255.407-.43.432-.784a2.39 2.39 0 01-.358.149.485.485 0 01-.293.011.857.857 0 01-.374-.292c-.073-.14-.128-.4-.046-.467.257-.203.17-.612.59-.703a.256.256 0 00.152-.197c-.01-.171-.179-.075-.28-.096-.026-.007-.045-.037-.069-.059-.022-.2.363-.234.264-.536-.432.31-.815.652-1.395.536-.153-.306.265-.21.333-.399l-.287-.233c.495-.275.495-.275.36-.675l.25-.233a1.02 1.02 0 01-.295-.189c-.178-.235-.329-.487-.454-.68l.067-.797h-.313l-.458-1.08c-.088.337-.098.59-.22.792-.122.201-.356.344-.546.517.273.255-.105.466-.046.71l-.344.067c.089.163.422.201.296.475-.315.115-.621.028-.936-.069.077.085.166.158.263.218.095.07.257.097.2.27l-.367.02c.163.221.523.151.678.426h-.666c-.016.1 0 .204-.04.222-.063.03-.203.034-.236 0-.075-.1-.139-.21-.19-.325-.29.013-.29.013-.475-.195l.177-.093-.84-.377c.214-.24.385-.474.736-.51a.158.158 0 00.101-.127c-.027-.187.14-.223.27-.281.131-.059.293-.114.44-.17-.525-.062-1.029.176-1.562 0 .172-.404.643-.139.884-.382-.1-.098-.191-.186-.279-.274l.258-.354-.058-.04-.514.254c-.046-.127-.129-.233-.1-.304a5.06 5.06 0 01.306-.51 1.44 1.44 0 00.085-.224c-.087 0-.128 0-.153.01-.423.341-.957.494-1.483.651a1.276 1.276 0 01-.507.022c-.067-.008-.128-.112-.167-.185-.009-.02.102-.1.171-.127a1.94 1.94 0 01.314-.055c-.257-.078-.386-.207-.283-.42.097-.16.21-.31.338-.446l.273.286c.372-.013.078-.243.222-.363.257.139.48-.098.765-.032l.066-.471c-.62.097-1.087.452-1.672.493.043-.428.104-.48.792-.704-.242-.304-.242-.304.129-.716l-.358-.255c.386-.185.858-.213.956-.743-.27.074-.48.117-.675.189-.317.113-.63.182-.96.082.021-.18.337-.037.3-.27 0-.034.238-.098.366-.147a1.565 1.565 0 01-.027-.097l-1.343.135c.143-.24.375-.255.567-.331.191-.077.495-.027.604-.337l-.66.116c-.083-.295.206-.342.397-.48-.306-.308-.722-.034-1.029-.204 0-.053-.046-.127-.017-.164.179-.185.373-.358.562-.536-.285.07-.514-.018-.75-.148l.418-.483-.456.148c-.193-.29.108-.415.27-.62l-.482-.099c-.027-.156-.05-.294-.079-.454l-.182.175c-.235-.202-.184-.436-.233-.653-.049-.217-.177-.409-.302-.68a6.838 6.838 0 00-.12.256c-.082.197-.258.409-.22.592.047.268-.257.382-.242.609 0 .061-.129.127-.193.188-.412-.343.155-.5.128-.798a3.748 3.748 0 01-1.491.616c-.058-.232.192-.45-.043-.685-.109.242-.276.479-.537.404-.238-.069-.296.01-.407.127a.726.726 0 01-.215.097c-.048-.088-.083-.149-.117-.214-.167.127-.324.308-.554.018l.605-.475c-.306-.111-.61.332-.856-.045-.176-.27-.248-.543.02-.836h.418l.273.444c.176-.12.16-.324.395-.31a.676.676 0 00.689-.458c.103-.255.303-.383.564-.47a2.09 2.09 0 00.216-.092c-.083-.529-.083-.529.455-.51-.17-.291-.165-.341.058-.53.31-.254.31-.254-.074-.51-.476.18-.935.463-1.543.365.044-.167.082-.316.128-.51-.282.203-.308.2-.612-.044-.248-.199-.236-.262.12-.683l-.496-.448.63-.162c.128-.223-.287-.404-.04-.647l.496.107-.287-.554h.9c-.086-.111-.163-.213-.286-.37l.73-.086c-.154-.128-.486-.15-.318-.438l.273.047c-.117-.347.325-.352.419-.599-.377.327-1.035.172-1.286.661-.343-.233-.348-.285-.074-.455.052-.032.15-.076.145-.096-.063-.222.122-.286.284-.365.211-.1.15-.265.081-.418l.351-.025c-.44-.152-.771.023-1.04.281a2.466 2.466 0 01-1.174.682c-.4.068-.804.116-1.21.141-.023 0-.051-.034-.128-.089.182-.162.087-.373.07-.555l.75.067c.129-.297.225-.536.34-.812-.147.045-.299.09-.45.14-.33.11-.474.054-.602-.235l1.081-.209c-.015-.15-.028-.262-.04-.372l.3-.06a97.68 97.68 0 00-.493-.58l.29-.408.837-.201c-.258-.128-.567.105-.688-.199a.27.27 0 00-.19.006c-.102.074-.202.077-.249-.02a.324.324 0 01.04-.24c.098-.215.21-.427.342-.692l-.688.072a1.655 1.655 0 01-.317-.246 1.544 1.544 0 01-.129-.372c-.347-.22-.352-.254-.03-.51-.18-.365-.172-.381.22-.519.075-.028.13-.104.23-.196-.172-.045-.294-.116-.385-.092-.302.08-.298.092-.498-.163.093-.011.206 0 .23-.034.129-.195.246-.396.353-.603.009-.015-.056-.078-.094-.086a.153.153 0 00-.129.047.631.631 0 00-.03.177l-.838-.098c.047-.22.076-.43-.23-.56-.13-.053-.08-.208.052-.304.042-.032.053-.1.073-.144l-.41-.185C80.232.2 80.18.09 79.82 0c-.145.296-.378.586-.411.892-.042.327-.113.65-.212.964-.351-.066-.284-.29-.297-.516-.094.232-.3.382-.154.637.043.078-.087.255-.171.36-.115.147-.234-.016-.35-.017-.125.015-.246.05-.36.102.06.296.37.326.584.437l-.152.267.221.17a8.468 8.468 0 01-.24.169l-.634-.274c.034.136.141.187.202.265.042.077.072.16.087.246l.42.12c-.075.108-.106.215-.177.242a1.308 1.308 0 01-1.365-.204c0 .114.02.255.063.255.282.038.268.44.624.382.024 0 .063.098.106.141.045.048.1.087.16.113a.37.37 0 01.272.343.363.363 0 01-.028.152c-.06.174-.209.238-.453.149a.71.71 0 00-.472-.047c-.182.042-.412-.075-.623-.121-.242-.053-.362-.203-.377-.465-.144.188-.24.312-.342.45.103.101.202.202.293.295l.464-.15c-.08.174-.128.256-.16.349a.296.296 0 00.01.118l.361-.065c.129.09.017.348.302.296.01 0 .076.11.057.142-.034.056-.121.128-.172.128-.186-.027-.364-.084-.544-.128-.156-.037-.313-.07-.481-.107-.028.396.397.288.522.463.153.212.54.023.59.27l.362-.068.06.084-.28.34a5.044 5.044 0 00-1.436-.242l-.075.273.257.135.276-.186.044.485c.352-.063.352-.063.572.176-.451.08-.916.036-1.344-.127a3.99 3.99 0 00-1.4-.329c.083.117.154.24.215.368.042.143.074.289.094.436.411-.18.595.127.833.304l.386-.127c-.017.17-.028.292-.046.49-.208-.094-.334-.16-.466-.207a1.4 1.4 0 00-.337-.075c-.02 0-.051.112-.082.184l.335.055c.059.13.133.25.22.362a1.8 1.8 0 00.337.215c.17.345-.227.482-.34.785.434-.14.66.108.944.232.325.141.336.428.492.663-.481.067-1.294-.207-3.81-1.35l-.12.237c.256.228.587.413.654.755.082-.074.175-.136.276-.184.143-.046.296 0 .318.146.033.23.03.464.046.772.11-.133.226-.26.35-.382a.22.22 0 01.183-.015c.044.024.09.112.074.149-.052.11-.122.212-.207.3-.13.114-.264.22-.404.32.319.105.45-.064.582-.209.133-.145.233-.295.364-.431a.214.214 0 01.267-.063c.03.015.055.036.075.063-.052.486-.052.486.354.617.09-.2.175-.414.43-.51.07.123.157.233.26.328.283.185.23.43.183.665-.046.236-.302.204-.495.243-.017 0-.026.04-.037.062.207.079.367.254.642.133a.158.158 0 01.163.024.155.155 0 01.052.155 1.36 1.36 0 01-.11.265c-.654 0-1.275-.017-1.838-.34a1.808 1.808 0 00-.642-.255.605.605 0 01-.422-.202 1.362 1.362 0 00-.811-.406c.363.415.52.948 1.002 1.261-.056.07-.108.143-.157.218-.155.262-.214.279-.5.119-.128-.073-.257-.156-.385-.216-.036-.016-.129.024-.164.06-.02.017 0 .11.022.118.238.07.242.337.61.41l-.59.267.023.367c.15.016.335-.01.445.058.196.128.257-.11.385-.076l.444.323c-.097.197-.237.255-.46.218-.59-.086-1.185-.146-1.772-.237-.169-.026-.257 0-.322.147.278.1.546.214.825.29.172.047.371.08.385.245.01.127-.108.255-.17.382.346-.036.65.265 1.108.148l-.1.406.619.075c-.288.3-.621.32-.973.3l.199.339h-.373c-.033.156-.011.335-.101.405-.142.11-.386.114-.531.225-.146.111-.169.338-.439.404-.195.05-.393.085-.594.103a.073.073 0 01-.023-.036c-.048-.235-.28-.31-.44-.443l.558-.619h-.474c.036-.04.068-.079.097-.117a.56.56 0 01-.187-.16h-.008c-.067-.06-.195-.127-.193-.188.012-.232-.29-.341-.244-.609.033-.183-.136-.395-.219-.592a4.406 4.406 0 00-.12-.255c-.129.27-.258.468-.303.68-.045.21 0 .45-.232.653l-.183-.176-.078.454-.482.1c.162.204.462.329.27.619l-.456-.148c.161.188.278.324.417.483-.24.127-.464.218-.748.148.187.178.385.351.56.536.03.03-.01.11-.015.164-.313.17-.728-.104-1.029.204.19.138.48.185.398.48l-.662-.115c.11.31.403.254.604.336.2.081.425.092.567.331l-1.343-.135a3.721 3.721 0 01-.028.097c.129.05.372.113.367.146-.038.235.279.09.3.272-.331.099-.644.03-.959-.083-.196-.072-.406-.115-.676-.189.098.53.568.558.955.743l-.356.255c.364.413.364.413.129.716.688.224.75.276.793.704-.584-.04-1.05-.396-1.671-.493.025.181.042.308.067.471.285-.066.507.171.763.032.144.12-.15.35.223.363l.272-.286c.128.137.242.286.34.446.104.214-.027.342-.285.42.107.01.212.028.315.055.069.023.18.103.17.127-.033.073-.1.177-.167.185-.169.027-.34.02-.507-.022-.525-.157-1.06-.31-1.482-.65-.02-.016-.067 0-.154-.011.022.077.05.152.085.224.112.164.214.334.306.51.03.071-.054.177-.1.304l-.514-.255-.059.041.257.354-.28.274c.246.246.712-.019.885.382-.53.178-1.038-.06-1.563 0 .147.056.297.107.44.17.143.062.297.094.27.281a.157.157 0 00.103.128c.351.037.52.27.737.51l-.835.37.176.093c-.185.208-.185.208-.475.195a1.705 1.705 0 01-.19.325c-.033.037-.171.033-.236 0-.038-.018-.024-.128-.04-.222h-.664c.153-.275.514-.205.677-.427l-.369-.019c-.061-.173.106-.201.202-.27.095-.06.182-.134.257-.218-.315.097-.62.184-.936.07-.128-.275.209-.313.296-.476l-.345-.068c.06-.243-.319-.456-.045-.71-.19-.172-.424-.318-.546-.516-.122-.199-.129-.455-.219-.791l-.465 1.089h-.32l.065.797c-.128.193-.275.445-.453.68-.086.08-.186.143-.294.189.067.062.162.153.25.233-.136.4-.136.4.36.675l-.287.23c.07.19.486.094.333.4-.579.116-.963-.226-1.394-.537-.1.302.285.337.264.537-.025.021-.042.052-.07.058-.101.022-.27-.075-.278.097a.246.246 0 00.152.196c.42.092.336.5.59.703.083.068.028.328-.046.468a.873.873 0 01-.373.291.486.486 0 01-.293-.01 2.418 2.418 0 01-.358-.15c.025.354.308.536.432.785a.578.578 0 00.235.224c.172.093.307.276.584.136.194-.097.35.038.264.215a3.34 3.34 0 01-.338.47c-.164-.029-.312-.06-.461-.081-.06-.009-.156-.024-.178 0-.187.217-.365.047-.595-.009.11.178.263.325.446.428.161.09.284.203.205.366-.08.163-.257.183-.441.167-.116-.01-.232-.017-.349-.026l-.07.09.36.161c-.385.135-.542.51-.957.368l.347.473-.505.09c.245.182.244.179.563.128.068-.012.145.035.217.033.115 0 .23-.03.36-.049 0 .077-.018.203-.03.332l.32.075c-.03.159-.058.302-.09.477l-1.239.403.652.414c.2-.09.4-.389.828-.18l-.564.275c.257.128.449.218.643.313-.404.127-.764-.02-1.18-.078.27.334.564.51 1.045.392.017.134.015.27-.008.403-.064.193-.117.44-.279.546-.138.093-.42 0-.633.03a6.16 6.16 0 00-.72.178l.46.302.372-.098c.025.075.044.127.057.17l.533-.03.23-.283c.033.248.093.492.18.727l.623.128a.61.61 0 00.257.038c.361-.11.643.047.945.196v1.51l-.395.04c.437.28.422.637.41 1.002-.02.587-.013.53-.03 1.118-.018.589-.297.847-.953.919-.257.028-.503.043-.755.058-6.87.12-11.314.277-11.314.33 0 .092 12.76.166 28.5.166h3.214l-.006.002zm1.297-30.42c.14-.192.324-.192.563-.031l-.103.418a1.01 1.01 0 01-.343.042c-.154-.032-.219-.29-.117-.43zm9.047 18.782c.23-.065.479-.052.628-.273.033-.052.208-.031.346-.046-.11.526-.673.482-1.045.727-.16-.209-.105-.357.072-.408zm-3.529-5.07c.364-.266.643.014.954.092.013.05.037.088.025.107-.287.494-.283.485-.857.245-.385-.162-.798-.286-1.049-.707.342.072.698-.107.927.263zm.502 4.365c-.322.05-.58.217-.91.118-.01-.255.183-.255.366-.297.207-.046.39-.065.544.179zm-1.241 4.774c.3-.177.78-.266.79-.809.336.36.869.248 1.074.628.056.1.129.245.088.317-.041.073-.227.092-.353.102a4.186 4.186 0 01-.514-.02l.386.32c-.246.164-.466.298-.669.45-.203.15-.239.4-.257.598l.617.317.28-.15c.33.246-.043.362-.119.57.393.07.73.216 1.116-.089.266-.201.601-.29.933-.248.036.127.072.255.129.437.118-.08.219-.144.315-.21.098-.08.201-.154.31-.22a.789.789 0 01.958.128c.128.12.411.127.385.368-.025.24.066.498-.201.623.064.192.17.367.17.541 0 1.039-.034 1.432-.03 2.473 0 .306-.187.51-.386.702a.518.518 0 01-.328.088c-1.255-.026-2.51-.044-3.764-.097-.277 0-.546-.097-.759-.272a1.177 1.177 0 01-.409-.689c-.018-.087-.02-.18-.046-.267-.139-.464 0-.213.373-.536l-.065-.435-.362-.085a3.295 3.295 0 01-.044-.382c0-1.205 0-2.41-.008-3.614-.006-.264.123-.377.39-.539zm-3.417-17.949c.043-.223.217-.245.406-.316.395-.149.401-.184.438-.621.32-.01.395.21.583.414h-.477l.558.619c-.158.134-.392.207-.44.443-.014.073-.213.128-.34.166a4.794 4.794 0 01-.52.1.344.344 0 00-.29-.263.35.35 0 00-.137.007c-.064-.245.184-.367.219-.544v-.005zm.447 15.057c-.243.404-.604-.214-.886.21v-.522l.364.143.297-.247c.082.157.154.289.225.422v-.006zm-.657-10.41c-.108.157-.188.286-.281.405a.373.373 0 01-.177.14c-.276.078-.556.14-.835.208.118-.64.58-.92 1.293-.749v-.005zm-1.202 4.076c.086-.012.179-.048.207-.023.162.124.31.266.44.422.088.118.006.244-.144.283a.694.694 0 01-.724-.154l.359-.24a8.53 8.53 0 01-.138-.286v-.002zm-.473-5.718c.213-.11.434-.047.643.008.147.04.216.168.04.255-.233.117.104.136-.026.283h-.983c.213-.15.078-.417.326-.543v-.003zm-.69-10.318c.084.038.19.054.208.098.09.214.032.4-.171.604l-.269-.223c.077-.153.15-.298.233-.471v-.008zm-.48 14.14a.763.763 0 01.586.473c-.257.093-.491.09-.667-.088-.145-.135-.02-.258.08-.374v-.011zm-1.174 7.047a.614.614 0 01.045-.135l.578.07c.094-.12.199-.23.313-.331.112-.082.224-.063.368.015.182.084.379.132.58.144.156.018.278 0 .368.17.067.122.317.07.42-.114a.22.22 0 01.161-.139.224.224 0 01.205.06c.174.128 0 .199-.105.264.128.358.733.19.856.6l-1.582-.189c.346.536.726.686 1.363.493.018.288.224.543-.146.753-.073.042-.037.242-.039.368 0 .237-.243.461-.385.344-.297-.238-.587-.04-.862-.048s-.554.165-.868.272l.7.376.568-.14v.5c.257-.366.53-.301.785-.136.193-.159.04-.476.447-.516-.07.383-.096.765.245 1.116.062-.103.102-.173.166-.282.183.135.337.301.536.382.172.07.42 0 .486.255l.598-.105c.15.097.296.18.426.28.109.086.276.186.286.288a5.262 5.262 0 01-.128 1.72l-.5-.153c.069.172.08.296.155.37a1.298 1.298 0 01.394 1.122c-.084.96-.147 1.273-.206 2.238-.023.39-.342.62-.622.846-.135.108-.41.112-.621.114-.772.012-1.55-.021-2.322 0-.515.02-.984-.097-1.472-.165a.35.35 0 01-.187-.066c-.514-.537-1.046-.383-.987-1.194.074-1.005 0-2.017-.016-3.026v-.456c.236-.112.444-.214.65-.314.11-.036.214-.089.305-.158.09-.096.21-.247.178-.338a.541.541 0 00-.342-.28 4.23 4.23 0 00-.772-.05 2.175 2.175 0 01-.093-.414 37.274 37.274 0 01.073-4.4v-.011zM78.389 9.888c-.082.37-.201.475-.632.528.167-.491.25-.556.632-.528zm-2.117-.88c-.013-.16.094-.318.24-.194.147.123.29.1.448.104.035 0 .067.058.099.088-.304.236-.304.236-.787.003zm.55 4.862c.162-.087.319-.152.451 0 .057.062.084.227.036.267a3.347 3.347 0 01-.514.302c-.12-.088-.257-.136-.275-.211-.055-.205.139-.272.302-.358zm-.14 3.135c-.01.197-.017.318-.022.447.269-.128.269-.128.662-.052v-.467c.33 0 .671.15.935-.221l.189.298c-.073.058-.157.127-.246.192-.048.036-.154.06-.154.09 0 .314-.257.342-.514.39-.308.05-.599.173-.849.357-.257.198-.514.19-.9.162l.178-.591-.392.141-.129-.246 1.242-.5zm.66 7.388c-.434-.281-.434-.281-.881-.209-.112-.303.055-.52.386-.457.284.07.563.159.835.265.029.252-.173.313-.342.396l.002.005zm-2.35-6.82l.386.382c-.313.236-.59.329-.983.158l.598-.54zm-.58 7.6c-.03.224-.084.388-.316.432-.204.04-.422.056-.5-.285l.817-.147zm-1.928-3.675l.742.146c-.073.15-.129.255-.177.358l.385.168c-.082.088-.128.176-.183.188-.323.054-.616.245-.952.239a3.225 3.225 0 01-.051-.484c.128-.185.208-.398.235-.62l.001.005zm-.24 10.872l.297.247.364-.142v.518c-.282-.424-.643.194-.886-.21.07-.134.141-.267.224-.418v.005zm-2.057 3.857c.009-.102.176-.202.286-.288.111-.085.276-.183.425-.28l.598.105c.065-.255.313-.188.486-.255.199-.08.353-.247.536-.382l.165.282c.341-.351.316-.732.246-1.115.408.039.257.356.447.516.258-.166.525-.231.785.136v-.5l.568.14.7-.377c-.313-.107-.594-.28-.868-.272-.274.008-.565-.19-.862.048-.146.117-.385-.107-.385-.344 0-.127.034-.326-.04-.368-.37-.21-.164-.465-.146-.753.643.193 1.019.044 1.363-.493l-1.581.189c.128-.41.733-.242.856-.6-.105-.065-.278-.136-.105-.264a.224.224 0 01.367.08c.03.053.075.097.129.127v-.027a.052.052 0 01.015-.022c.092-.165.173-.335.245-.51l.024.04c-.446.806-.446.806-.4.991.169-.103.33-.255.526-.31.487-.127.74-.445.967-.8.032-.049.077-.092.128-.157.372.084.714.099.931-.255a.223.223 0 01.355 0c.129.168.297.21.514.232a.62.62 0 01.377.214.826.826 0 00.612.345c.309.027.378.12.386.382.017.391.02.784.014 1.176a1.353 1.353 0 01-.11.327l-1.146-.541c.108.255.144.437.25.58a5.5 5.5 0 00.625.705c.258.246.398.5.386.847-.092 2.21-.166 4.424-.247 6.636v-.554c-.01.625-.631.92-.97 1.368a.175.175 0 01-.092.035c-.419.076-.834.203-1.253.212-1.19.023-2.381.108-3.572.068-.734-.026-2.186.01-2.249-1.02-.059-.961-.12-1.273-.205-2.238a1.292 1.292 0 01.393-1.122c.076-.074.086-.197.154-.37l-.498.153a5.258 5.258 0 01-.132-1.722l.002.005zm-2.829-9.6c.31-.078.59-.359.954-.092.229-.371.585-.192.928-.264-.257.421-.663.545-1.05.707-.572.24-.57.255-.856-.245-.017-.024.009-.062.02-.11l.004.003zm1.364 4.39c-.329.1-.587-.069-.907-.118.15-.244.334-.225.543-.179.178.034.372.041.36.292l.004.005zm-4.566.314c.15.221.398.209.627.273.177.051.231.2.072.408-.373-.245-.936-.201-1.045-.727.133.01.308-.01.342.04l.004.006zm-.19 6.473a.786.786 0 01.957-.127c.109.065.212.139.31.219.098.066.197.127.315.21.053-.183.089-.308.129-.437.331-.042.667.047.933.249.386.304.722.159 1.117.089-.077-.21-.45-.325-.12-.57l.28.15.617-.318c-.016-.198-.039-.435-.257-.598-.219-.163-.423-.286-.669-.449l.386-.32a4.65 4.65 0 01-.514.02c-.13-.01-.31-.032-.352-.102-.04-.07.033-.218.087-.318.205-.382.738-.267 1.073-.628.012.543.49.637.79.81.268.156.398.27.396.542-.01 1.204 0 2.409-.008 3.614a3.03 3.03 0 01-.044.382l-.362.085-.063.435c.369.323.514.072.372.536-.027.087-.028.18-.047.268a1.18 1.18 0 01-.409.688c-.213.175-.48.271-.757.272-1.254.054-2.51.071-3.766.097a.517.517 0 01-.328-.088c-.2-.197-.386-.396-.386-.702 0-1.04-.032-1.434-.032-2.472 0-.175.108-.35.171-.542-.266-.127-.173-.393-.202-.623-.028-.229.242-.257.378-.377l.004.005zM9.635 52.178c.002.304-.037.606-.118.9a1.053 1.053 0 00-.624.41c-.256.381-.487.779-.69 1.19l-2.718 5.323a4.67 4.67 0 01-1.252 1.671 2.48 2.48 0 01-1.521.511 2.389 2.389 0 01-.932-.169 1.544 1.544 0 01-.61-.413 2.273 2.273 0 01-.045-.453c-.008-.306.037-.61.134-.9.478.135.973.204 1.47.203a2.29 2.29 0 001.11-.21c.295-.191.533-.455.69-.765a187.686 187.686 0 00-2.818-4.696c-.276-.45-.582-.883-.917-1.293a1.184 1.184 0 00-.69-.41 3.582 3.582 0 01-.104-.9c.446.03 1.158.045 2.136.045.938 0 1.663-.015 2.176-.044.009.302-.02.604-.086.9a1.53 1.53 0 00-.535.139.301.301 0 00-.162.27c.05.276.16.538.324.768a90.536 90.536 0 011.884 3.174c.545-.96 1.059-1.95 1.542-2.967.125-.24.2-.503.22-.772a.469.469 0 00-.175-.399 1.396 1.396 0 00-.58-.213 3.63 3.63 0 01-.103-.9c.386.03.883.044 1.497.044.614 0 1.141-.014 1.497-.044zm2.691 9.352a4.522 4.522 0 01-1.725-1.807 5.509 5.509 0 01-.621-2.653 5.042 5.042 0 01.69-2.707 4.474 4.474 0 011.845-1.691 5.51 5.51 0 012.498-.576 7.62 7.62 0 013.26.758c-.12.745-.174 1.5-.163 2.254a2.775 2.775 0 01-1.155.172c-.02-.832-.19-1.423-.507-1.773a1.755 1.755 0 00-1.363-.524 2.289 2.289 0 00-1.186.247c-.365.188-.67.47-.883.815a4.912 4.912 0 00-.67 2.663 5.279 5.279 0 00.856 3.13 2.78 2.78 0 001.065.92c.43.211.907.31 1.388.288.416-.002.83-.066 1.228-.19a5.63 5.63 0 001.245-.537c.09.08.163.177.217.284.057.106.099.22.124.338a5.426 5.426 0 01-3.587 1.239 5.025 5.025 0 01-2.556-.65zm16.802.565a31.896 31.896 0 00-2.046-.044 37.92 37.92 0 00-2.193.044 3.06 3.06 0 01.103-.904c.183-.028.36-.089.52-.18a.367.367 0 00.163-.314 1.983 1.983 0 00-.193-.622l-.345-.789c-1.316 0-2.52.035-3.615.105l-.193.477c-.085.204-.135.42-.149.64 0 .4.238.626.711.676.077.296.111.6.104.904-.346-.03-.866-.044-1.587-.044-.61 0-1.056 0-1.332.044-.008-.305.032-.61.117-.904a.9.9 0 00.604-.331 5.77 5.77 0 00.587-1.157l3.104-7.471c.14-.032.282-.051.424-.058h.466l3.394 7.444c.207.454.373.789.497 1.015.085.168.202.319.345.444a.763.763 0 00.386.152c.084.284.127.577.128.873zm-4.357-3.61l-.8-1.835a15.67 15.67 0 01-.69-1.86c-.2.642-.417 1.255-.652 1.847l-.748 1.847h2.89zm15.105 6.023c-.23.075-.471.11-.714.101a2.57 2.57 0 01-.755-.101c.02-.823-.04-1.645-.176-2.457H31.5c-.14.811-.2 1.634-.18 2.457a2.44 2.44 0 01-.755.101 2.198 2.198 0 01-.71-.101 14.053 14.053 0 00-.18-2.487 1.246 1.246 0 01.27-.83h.292c.783 0 1.38-.676 1.766-1.996.423-1.515.661-3.075.711-4.645v-.41a1.526 1.526 0 00-.097-.626.541.541 0 00-.345-.287 3.506 3.506 0 00-.748-.15 3.801 3.801 0 01-.103-.9c.46.03 1.75.045 3.87.045 1.998 0 3.278-.015 3.84-.044v.48a1.416 1.416 0 01-.09.42 1.73 1.73 0 00-.625.162.633.633 0 00-.286.406 3.496 3.496 0 00-.083.887v5.207c-.01.312.018.625.083.93a.592.592 0 00.286.413c.197.084.41.122.624.109h.742c.184.237.279.53.266.829-.133.822-.19 1.654-.173 2.487zM35.8 54.533a5.289 5.289 0 00-.052-.873.6.6 0 00-.245-.406 1.258 1.258 0 00-.755-.176 1.19 1.19 0 00-.8.19.522.522 0 00-.18.32 3.332 3.332 0 00-.059.508c0 .197-.01.342-.03.437a32.933 32.933 0 01-.466 4.151c-.214 1.128-.543 1.955-.987 2.48h2.225a2.8 2.8 0 00.883-.1.613.613 0 00.37-.4c.077-.312.11-.633.096-.954v-5.177zm13.104 2.537c.71.444 1.066 1.15 1.066 2.132.016.4-.067.8-.24 1.162a2.51 2.51 0 01-.76.922c-.666.511-1.725.765-3.15.765-1.88 0-3.408.015-4.58.044a3.391 3.391 0 01.089-.903c.218-.002.434-.054.628-.153a.662.662 0 00.297-.436c.065-.313.093-.632.082-.95v-5.12a3.42 3.42 0 00-.082-.88.677.677 0 00-.28-.406 1.592 1.592 0 00-.631-.17 3.63 3.63 0 01-.104-.9c.69.03 1.544.045 2.563.045 1.07 0 1.863 0 2.387-.044a2.88 2.88 0 01-.103.9 2.43 2.43 0 00-.89.2.91.91 0 00-.452.5 2.753 2.753 0 00-.141.988v1.692c.364-.044.73-.063 1.096-.057 1.425.01 2.491.23 3.205.67zm-1.914 3.645a1.84 1.84 0 00.43-1.296c0-.738-.195-1.263-.586-1.577a2.299 2.299 0 00-1.49-.474 7.47 7.47 0 00-.741.044v2.311c-.044.404.049.81.262 1.157a1.063 1.063 0 00.852.298 1.668 1.668 0 001.273-.463zm11.652-3.638c.69.451 1.035 1.16 1.035 2.125a2.486 2.486 0 01-.986 2.084c-.656.513-1.69.767-3.105.765-1.867 0-3.39.015-4.567.044a3.576 3.576 0 01.09-.903 1.45 1.45 0 00.631-.153.662.662 0 00.297-.436c.063-.313.091-.632.082-.95v-5.12a3.575 3.575 0 00-.082-.88.676.676 0 00-.283-.406 1.572 1.572 0 00-.628-.17 3.468 3.468 0 01-.107-.9c.704.03 1.816.045 3.336.045 2.07 0 3.45-.015 4.14-.044.034.826.137 1.647.31 2.456-.353.162-.74.237-1.128.22a2.203 2.203 0 00-.594-1.31c-.314-.307-.852-.466-1.614-.466h-1.097v3.383a8.17 8.17 0 011.083-.057c1.425.007 2.47.227 3.188.673zm-1.876 3.63c.3-.367.45-.831.42-1.302 0-.717-.189-1.235-.575-1.556a2.144 2.144 0 00-1.418-.48c-.228 0-.49.016-.786.043v2.311c-.015.313.027.626.124.924a.725.725 0 00.38.423c.22.08.454.118.689.108a1.49 1.49 0 001.152-.47h.014zm13.645 1.388a31.894 31.894 0 00-2.045-.044 37.92 37.92 0 00-2.194.044c-.01-.305.024-.61.103-.904.183-.028.358-.088.518-.18a.36.36 0 00.165-.314 1.982 1.982 0 00-.193-.622l-.345-.789c-1.314 0-2.518.034-3.618.105l-.194.477c-.082.205-.13.42-.144.64 0 .399.234.626.71.676.077.296.111.6.104.904-.345-.03-.866-.044-1.587-.044-.614 0-1.056 0-1.332.044-.008-.305.032-.61.118-.904a.92.92 0 00.6-.355c.239-.363.435-.751.586-1.157l3.105-7.471c.14-.032.281-.05.424-.058h.466l3.394 7.444c.207.454.373.789.497 1.015.085.168.202.319.345.444a.75.75 0 00.383.152c.09.29.135.593.134.897zm-4.36-3.61l-.797-1.835a15.913 15.913 0 01-.69-1.86c-.2.642-.417 1.255-.652 1.847l-.748 1.847h2.887zm10.446 3.045a4.522 4.522 0 01-1.725-1.807 5.51 5.51 0 01-.621-2.653 5.042 5.042 0 01.69-2.707 4.495 4.495 0 011.845-1.691 5.51 5.51 0 012.498-.576 7.62 7.62 0 013.26.758c-.118.746-.172 1.5-.163 2.254a2.775 2.775 0 01-1.155.172c-.02-.832-.19-1.423-.507-1.773a1.755 1.755 0 00-1.38-.524 2.288 2.288 0 00-1.186.247c-.365.188-.67.47-.884.815a4.912 4.912 0 00-.669 2.663 5.28 5.28 0 00.873 3.13c.268.391.635.708 1.064.92.43.211.908.31 1.388.288.42-.002.838-.067 1.239-.193a5.66 5.66 0 001.245-.538c.09.081.163.177.217.284.058.107.1.22.125.339a5.426 5.426 0 01-3.588 1.238 5.026 5.026 0 01-2.566-.646zm16.519-9.352c.003.304-.036.607-.117.9a1.053 1.053 0 00-.624.41c-.256.381-.487.78-.69 1.19l-2.711 5.323a4.667 4.667 0 01-1.253 1.671c-.433.335-.97.515-1.52.511a2.388 2.388 0 01-.932-.169 1.53 1.53 0 01-.607-.413 2.044 2.044 0 01-.045-.453 2.72 2.72 0 01.131-.9c.478.135.972.204 1.47.203a2.29 2.29 0 001.11-.21c.294-.191.532-.455.69-.765A174.406 174.406 0 0085.1 54.78a11.63 11.63 0 00-.918-1.292 1.173 1.173 0 00-.69-.41 3.582 3.582 0 01-.09-.9c.445.03 1.156.044 2.136.044.938 0 1.664-.014 2.177-.044.004.3-.028.6-.097.893a1.53 1.53 0 00-.535.14.302.302 0 00-.162.27c.05.276.16.538.325.768a90.574 90.574 0 011.883 3.174 45.882 45.882 0 001.542-2.968c.125-.24.2-.502.22-.771a.469.469 0 00-.175-.4 1.397 1.397 0 00-.58-.213 3.635 3.635 0 01-.103-.9c.386.03.883.044 1.497.044.614 0 1.131-.006 1.486-.037zm10.187 9.917c-.428-.03-1.208-.044-2.346-.044-.906 0-1.657.01-2.253.03a3.838 3.838 0 01.09-.89 1.52 1.52 0 00.431-.108.24.24 0 00.131-.24 1.384 1.384 0 00-.162-.538c-.107-.23-.283-.544-.517-.944l-.69-1.147-.876 1.249c-.414.612-.621 1.015-.621 1.252a.333.333 0 00.155.304c.154.086.322.145.497.173.066.296.096.6.09.903a30.005 30.005 0 00-1.767-.044c-.731 0-1.3 0-1.704.044-.02-.314.02-.63.117-.93a2.62 2.62 0 001.035-.501 5.83 5.83 0 001.035-1.157l1.528-2.122a143.804 143.804 0 00-1.724-2.632 13.75 13.75 0 00-.749-1.063 1.961 1.961 0 00-.438-.43 1.397 1.397 0 00-.459-.165 2.916 2.916 0 01-.117-.917 49.6 49.6 0 002.504.044c.732 0 1.404-.01 2.018-.03a4.757 4.757 0 01-.09.886 1.333 1.333 0 00-.458.155.301.301 0 00-.149.268c.084.38.25.737.487 1.049l.935 1.407.786-1.204a2.93 2.93 0 00.535-1.208.36.36 0 00-.149-.312 1.046 1.046 0 00-.458-.155c-.07-.295-.1-.598-.09-.9.483.03 1.035.044 1.687.044.652 0 1.221 0 1.587-.044.008.302-.022.605-.09.9-.22.055-.431.14-.628.25-.195.123-.37.275-.517.45a8.323 8.323 0 00-.69.93l-1.411 2.109c.317.494.793 1.252 1.425 2.267.365.602.654 1.043.865 1.323.153.22.342.414.559.575.175.11.371.18.576.21.079.294.106.6.08.903zm10.731 0a31.918 31.918 0 00-2.046-.044c-1.016 0-1.748.014-2.194.044-.01-.305.025-.61.104-.904.182-.028.358-.088.517-.18a.36.36 0 00.166-.314 2.007 2.007 0 00-.193-.622l-.345-.789c-1.316 0-2.522.035-3.619.105l-.193.477c-.082.205-.131.42-.145.64 0 .399.235.626.711.676.076.296.111.6.103.904-.345-.03-.866-.044-1.587-.044-.614 0-1.055 0-1.331.044a2.97 2.97 0 01.117-.904.921.921 0 00.6-.355c.239-.363.436-.751.587-1.157l3.104-7.471c.14-.032.282-.05.425-.058h.465l3.395 7.444c.207.454.372.789.496 1.015.084.17.202.32.345.444a.74.74 0 00.383.152c.088.291.134.593.135.897zm-4.36-3.61l-.801-1.835a16.707 16.707 0 01-.69-1.86c-.2.642-.417 1.255-.655 1.847l-.742 1.847h2.888zm14.536 2.135a.676.676 0 00.29.42c.191.098.404.15.621.152.081.294.116.599.103.903a34.878 34.878 0 00-2.104-.044c-.959 0-1.744.015-2.356.044-.009-.305.03-.61.117-.903.215 0 .426-.053.614-.153a.676.676 0 00.283-.42c.065-.294.093-.595.083-.896v-2.28a35.05 35.05 0 00-3.619.128v2.152c-.01.302.02.603.09.897a.676.676 0 00.297.42c.192.099.407.15.624.152.068.296.097.6.086.903a34.4 34.4 0 00-2.104-.044c-.947 0-1.728.015-2.342.044a3.482 3.482 0 01.103-.903c.218-.002.432-.054.625-.153a.669.669 0 00.286-.42c.065-.294.093-.595.083-.896v-5.19a3.425 3.425 0 00-.083-.88.655.655 0 00-.279-.406 1.592 1.592 0 00-.632-.17 3.038 3.038 0 01-.103-.9c.504.03 1.26.045 2.27.045.86 0 1.585-.015 2.176-.044v.48a1.343 1.343 0 01-.089.42 1.679 1.679 0 00-.621.162.639.639 0 00-.29.406 3.524 3.524 0 00-.083.887v1.993h3.612v-1.993a3.425 3.425 0 00-.083-.88.676.676 0 00-.283-.406 1.55 1.55 0 00-.628-.17 3.038 3.038 0 01-.103-.9c.524.03 1.28.045 2.266.045.869 0 1.601-.015 2.194-.044.013.304-.027.608-.117.9a1.6 1.6 0 00-.614.162.647.647 0 00-.283.406 3.524 3.524 0 00-.083.887v5.19a3.6 3.6 0 00.076.897zm4.505.91a4.443 4.443 0 01-1.749-1.807 5.511 5.511 0 01-.614-2.636 5.225 5.225 0 01.645-2.633 4.447 4.447 0 011.787-1.752 5.304 5.304 0 012.577-.62 5.456 5.456 0 012.625.613 4.443 4.443 0 011.78 1.722c.435.787.654 1.67.635 2.565a5.608 5.608 0 01-.628 2.676 4.626 4.626 0 01-1.78 1.848 5.124 5.124 0 01-2.632.677 5.255 5.255 0 01-2.646-.654zm4.671-1.354a5.497 5.497 0 00.645-2.835 6.274 6.274 0 00-.362-2.18 3.728 3.728 0 00-1.035-1.563 2.26 2.26 0 00-1.514-.575 2.03 2.03 0 00-1.013.265 1.98 1.98 0 00-.736.73 4.94 4.94 0 00-.652 2.727 7.453 7.453 0 00.327 2.254c.176.62.51 1.185.97 1.644a2.236 2.236 0 001.58.61 2.02 2.02 0 001.051-.288 1.96 1.96 0 00.739-.789zm12.9-.96c.016.4-.068.796-.243 1.157-.176.36-.438.674-.764.913-.669.511-1.725.765-3.17.765-1.87 0-3.392.015-4.567.044a3.522 3.522 0 01.09-.903c.219-.003.435-.055.631-.153a.69.69 0 00.296-.436c.063-.313.089-.632.08-.95v-5.12a3.613 3.613 0 00-.08-.88.674.674 0 00-.289-.406 1.652 1.652 0 00-.638-.17 3.684 3.684 0 01-.09-.9c.386.031.911.045 1.573.045h1.38l1.438-.017c1.283 0 2.222.172 2.815.517.295.173.534.422.692.722.157.299.226.635.198.97a2.13 2.13 0 01-.6 1.53 2.732 2.732 0 01-1.67.768c1.948.09 2.921.925 2.918 2.504zm-3.466-5.692a2.006 2.006 0 00-1.911-.315v3.317h.503a2.013 2.013 0 001.459-.464 1.707 1.707 0 00.466-1.265 1.569 1.569 0 00-.517-1.272zm.503 7.184c.315-.367.475-.838.445-1.316 0-.729-.23-1.241-.69-1.537a3.297 3.297 0 00-1.828-.443h-.345v2.311a2.63 2.63 0 00.124.924.722.722 0 00.38.423c.22.081.455.118.69.108a1.619 1.619 0 001.224-.47zm6.458.822a4.411 4.411 0 01-1.749-1.807 5.513 5.513 0 01-.617-2.636 5.248 5.248 0 01.645-2.633 4.441 4.441 0 011.787-1.752 5.327 5.327 0 012.58-.62 5.437 5.437 0 012.621.613 4.38 4.38 0 011.78 1.722c.436.786.656 1.67.638 2.565a5.561 5.561 0 01-.631 2.676 4.643 4.643 0 01-1.776 1.848 5.14 5.14 0 01-2.632.676 5.251 5.251 0 01-2.646-.653zm4.667-1.354c.468-.872.691-1.85.645-2.835a6.274 6.274 0 00-.362-2.18 3.679 3.679 0 00-1.035-1.563 2.254 2.254 0 00-1.511-.575 2.021 2.021 0 00-1.012.264 1.976 1.976 0 00-.737.731 4.948 4.948 0 00-.652 2.727 7.421 7.421 0 00.325 2.254c.175.62.51 1.186.972 1.644a2.21 2.21 0 001.577.61c.371.002.736-.097 1.052-.288.317-.19.572-.463.738-.789z" fill="#FDBA61"/></svg>