<svg width="20" height="20" fill="none" xmlns="http://www.w3.org/2000/svg"><path d="M10.834 15a.833.833 0 11-1.667 0 .833.833 0 011.667 0z" fill="#FDBA61"/><path d="M10 20C4.486 20 0 15.514 0 10S4.486 0 10 0s10 4.486 10 10-4.486 10-10 10zm0-18.75c-4.825 0-8.75 3.925-8.75 8.75s3.925 8.75 8.75 8.75 8.75-3.925 8.75-8.75S14.825 1.25 10 1.25z" fill="#FDBA61"/><path d="M10 12.292a.625.625 0 01-.625-.625v-.842c0-.793.503-1.504 1.251-1.768.996-.35 1.665-1.412 1.665-2.182A2.294 2.294 0 0010 4.583a2.294 2.294 0 00-2.292 2.292.625.625 0 01-1.25 0A3.546 3.546 0 0110 3.333a3.546 3.546 0 013.541 3.542c0 1.39-1.097 2.866-2.499 3.361a.625.625 0 00-.417.59v.84c0 .346-.28.626-.625.626z" fill="#FDBA61"/></svg>