<svg width="209" height="44" fill="none" xmlns="http://www.w3.org/2000/svg"><g clip-path="url(#clip0)" fill="#FDBA61"><path d="M61.267 21.099c.003.309-.037.617-.117.916a1.052 1.052 0 00-.625.416 10.65 10.65 0 00-.69 1.212l-2.718 5.417a4.745 4.745 0 01-1.252 1.7c-.434.34-.97.523-1.521.52a2.353 2.353 0 01-.931-.172 1.54 1.54 0 01-.611-.42 2.35 2.35 0 01-.045-.461c-.008-.31.038-.62.135-.916.477.138.972.207 1.47.207.382.024.764-.05 1.11-.214.294-.195.532-.463.69-.778a191.596 191.596 0 00-2.818-4.78 11.879 11.879 0 00-.918-1.315 1.18 1.18 0 00-.69-.416 3.704 3.704 0 01-.103-.916c.446.03 1.157.044 2.135.044.938 0 1.664-.015 2.176-.044a3.78 3.78 0 01-.086.916 1.51 1.51 0 00-.534.14.303.303 0 00-.163.276c.05.281.161.548.325.782a92.449 92.449 0 011.883 3.23 47.14 47.14 0 001.542-3.02c.126-.244.2-.511.22-.785a.484.484 0 00-.175-.407 1.38 1.38 0 00-.58-.216 3.758 3.758 0 01-.103-.916c.386.03.883.044 1.497.044.614 0 1.142-.013 1.497-.044zm2.691 9.517a4.57 4.57 0 01-1.725-1.839 5.687 5.687 0 01-.621-2.7 5.202 5.202 0 01.69-2.754 4.504 4.504 0 011.845-1.722 5.43 5.43 0 012.498-.585 7.51 7.51 0 013.26.771 13.4 13.4 0 00-.163 2.293 2.73 2.73 0 01-1.155.176c-.02-.847-.19-1.448-.507-1.804a1.724 1.724 0 00-1.363-.534 2.256 2.256 0 00-2.07 1.081 5.069 5.069 0 00-.669 2.71 5.444 5.444 0 00.856 3.185 2.792 2.792 0 002.452 1.23 4.19 4.19 0 001.228-.193 5.592 5.592 0 001.246-.548.99.99 0 01.217.29c.057.108.099.224.124.344a5.366 5.366 0 01-3.587 1.26 4.957 4.957 0 01-2.556-.661zm16.802.574a31.265 31.265 0 00-2.045-.045c-1.017 0-1.748.015-2.194.045-.01-.31.024-.62.103-.92.184-.029.36-.09.521-.182a.372.372 0 00.162-.32 2.041 2.041 0 00-.193-.634l-.345-.802c-1.315 0-2.52.035-3.615.106l-.193.486a2.065 2.065 0 00-.148.65c0 .407.238.638.71.69.077.3.112.609.104.919a19.567 19.567 0 00-1.587-.045c-.61 0-1.056 0-1.332.045-.007-.31.032-.62.118-.92a.89.89 0 00.603-.337c.24-.37.436-.765.587-1.178l3.104-7.603c.14-.031.282-.05.425-.058h.465l3.395 7.575c.207.462.372.803.496 1.033a1.5 1.5 0 00.345.451.76.76 0 00.387.155c.083.29.126.588.127.889zm-4.356-3.674l-.8-1.867c-.27-.616-.5-1.249-.69-1.893-.2.654-.418 1.277-.653 1.88l-.748 1.88h2.89zm15.105 6.13c-.23.077-.472.112-.714.103-.256.005-.51-.03-.755-.103.02-.837-.04-1.674-.176-2.5h-6.73c-.14.826-.2 1.663-.18 2.5-.244.074-.5.11-.755.103a2.162 2.162 0 01-.71-.103 14.549 14.549 0 00-.18-2.53 1.283 1.283 0 01.269-.844h.293c.783 0 1.38-.689 1.766-2.032.423-1.542.661-3.13.71-4.728v-.416a1.58 1.58 0 00-.096-.637.55.55 0 00-.345-.293 3.45 3.45 0 00-.748-.151c-.07-.3-.105-.608-.104-.916.46.03 1.75.044 3.87.044 2 0 3.279-.015 3.84-.044v.489c-.008.146-.039.29-.09.427a1.7 1.7 0 00-.624.165.637.637 0 00-.286.413c-.066.296-.093.6-.083.902v5.3c-.01.317.017.635.083.946a.608.608 0 00.286.42c.196.086.41.124.624.11h.742a1.3 1.3 0 01.266.844c-.133.837-.19 1.684-.173 2.531zm-4.077-10.15a5.477 5.477 0 00-.052-.89.618.618 0 00-.245-.412 1.24 1.24 0 00-.755-.18 1.174 1.174 0 00-.8.193.533.533 0 00-.18.328 3.44 3.44 0 00-.059.516c0 .2-.01.348-.03.444a34.086 34.086 0 01-.466 4.225c-.214 1.148-.543 1.99-.987 2.524h2.225c.298.014.596-.02.883-.103a.614.614 0 00.37-.406c.077-.318.11-.645.096-.971v-5.269zm13.104 2.582c.711.45 1.066 1.17 1.066 2.169a2.54 2.54 0 01-1.001 2.121c-.665.52-1.724.778-3.149.778-1.881 0-3.408.015-4.58.045a3.518 3.518 0 01.089-.92 1.39 1.39 0 00.628-.154.668.668 0 00.296-.444c.066-.319.094-.643.083-.968v-5.21c.01-.3-.017-.601-.083-.895a.689.689 0 00-.28-.413 1.571 1.571 0 00-.63-.172 3.758 3.758 0 01-.104-.916c.69.03 1.544.044 2.563.044 1.07 0 1.863 0 2.387-.044.013.308-.022.617-.103.916-.307.01-.61.08-.89.203a.92.92 0 00-.452.51 2.847 2.847 0 00-.142 1.005v1.721a8.04 8.04 0 011.097-.058c1.425.01 2.49.234 3.205.682zm-1.915 3.708a1.9 1.9 0 00.432-1.319c0-.75-.196-1.285-.587-1.604a2.272 2.272 0 00-1.49-.482 7.351 7.351 0 00-.742.044v2.352c-.043.41.05.824.263 1.178a1.059 1.059 0 00.852.303 1.642 1.642 0 001.272-.472zm11.653-3.701c.69.459 1.035 1.18 1.035 2.162a2.553 2.553 0 01-.986 2.121c-.656.521-1.691.78-3.105.778-1.867 0-3.39.015-4.567.045a3.645 3.645 0 01.09-.92 1.43 1.43 0 00.631-.154.663.663 0 00.296-.444 4.31 4.31 0 00.083-.968v-5.21a3.69 3.69 0 00-.083-.895.691.691 0 00-.282-.413 1.554 1.554 0 00-.628-.172 3.58 3.58 0 01-.107-.916c.704.03 1.815.044 3.336.044 2.069 0 3.449-.015 4.139-.044.034.84.138 1.676.31 2.5a2.416 2.416 0 01-1.128.223 2.258 2.258 0 00-.593-1.332c-.314-.314-.852-.475-1.614-.475h-1.097v3.443a7.885 7.885 0 011.083-.059c1.425.007 2.47.231 3.187.686zm-1.876 3.694c.299-.374.449-.847.421-1.325 0-.73-.19-1.257-.576-1.584a2.122 2.122 0 00-1.418-.49c-.228 0-.49.018-.787.046v2.351c-.014.319.028.637.124.94a.754.754 0 00.38.43c.22.083.455.12.69.11a1.466 1.466 0 001.152-.478h.014zm13.646 1.411a31.374 31.374 0 00-2.046-.044 37.27 37.27 0 00-2.193.044c-.011-.31.024-.62.103-.919a1.48 1.48 0 00.518-.183.366.366 0 00.165-.32 2.041 2.041 0 00-.193-.633l-.345-.803a55.74 55.74 0 00-3.619.107l-.193.486a2.14 2.14 0 00-.145.65c0 .407.235.637.711.69.077.3.111.609.103.918a19.538 19.538 0 00-1.586-.044c-.614 0-1.056 0-1.332.044a3.07 3.07 0 01.117-.919.904.904 0 00.601-.361c.238-.37.435-.765.586-1.178l3.105-7.603c.139-.032.281-.051.424-.058h.466l3.394 7.575c.207.461.372.802.497 1.033.085.17.202.324.345.45a.74.74 0 00.383.156c.089.296.135.603.134.912zm-4.36-3.674l-.797-1.866a16.336 16.336 0 01-.69-1.894c-.2.654-.417 1.278-.652 1.88l-.748 1.88h2.887zm10.445 3.1a4.573 4.573 0 01-1.725-1.839 5.7 5.7 0 01-.621-2.7 5.203 5.203 0 01.69-2.754 4.522 4.522 0 011.846-1.722 5.428 5.428 0 012.497-.585 7.512 7.512 0 013.26.771 13.754 13.754 0 00-.162 2.293 2.73 2.73 0 01-1.156.176c-.021-.847-.19-1.448-.507-1.804a1.724 1.724 0 00-1.38-.534 2.255 2.255 0 00-2.069 1.081 5.063 5.063 0 00-.67 2.71 5.443 5.443 0 00.873 3.185 2.79 2.79 0 002.453 1.23c.42-.003.838-.069 1.238-.197a5.588 5.588 0 001.245-.547.98.98 0 01.218.289c.057.108.099.224.124.344a5.367 5.367 0 01-3.588 1.26 4.956 4.956 0 01-2.566-.657zm16.519-9.518c.003.309-.036.617-.117.916a1.05 1.05 0 00-.624.416 10.5 10.5 0 00-.69 1.212l-2.712 5.417a4.743 4.743 0 01-1.252 1.7 2.43 2.43 0 01-1.521.52 2.35 2.35 0 01-.931-.171 1.519 1.519 0 01-.607-.42 2.104 2.104 0 01-.045-.462c-.007-.31.037-.62.131-.916a5.25 5.25 0 001.469.207c.383.024.765-.05 1.111-.214.294-.195.532-.463.69-.778a180.06 180.06 0 00-2.818-4.78 11.921 11.921 0 00-.918-1.315 1.17 1.17 0 00-.69-.416 3.663 3.663 0 01-.089-.916c.443.03 1.155.044 2.135.044.938 0 1.664-.014 2.176-.044a3.76 3.76 0 01-.096.909 1.509 1.509 0 00-.535.14.303.303 0 00-.162.276c.05.281.161.548.324.782a92.537 92.537 0 011.884 3.23 47.14 47.14 0 001.542-3.02c.125-.244.2-.511.22-.785a.486.486 0 00-.176-.406 1.377 1.377 0 00-.579-.217 3.768 3.768 0 01-.104-.916c.387.03.884.045 1.498.045s1.131-.007 1.486-.038zm10.187 10.093c-.428-.03-1.207-.045-2.346-.045-.906 0-1.657.01-2.252.031a3.994 3.994 0 01.089-.905 1.5 1.5 0 00.432-.11.25.25 0 00.131-.244 1.441 1.441 0 00-.162-.549 12.569 12.569 0 00-.518-.96l-.69-1.167-.876 1.27c-.414.623-.621 1.033-.621 1.274a.345.345 0 00.155.31c.154.087.322.147.497.176.066.302.096.61.09.92a29.437 29.437 0 00-1.766-.046c-.732 0-1.301 0-1.704.045-.02-.32.019-.641.117-.947a2.59 2.59 0 001.035-.51c.396-.344.744-.74 1.035-1.177l1.528-2.16a146.845 146.845 0 00-1.725-2.678 13.74 13.74 0 00-.749-1.081 1.977 1.977 0 00-.438-.438 1.379 1.379 0 00-.458-.168 3.005 3.005 0 01-.118-.933c.515.03 1.35.044 2.505.044.731 0 1.404-.01 2.018-.03a5.06 5.06 0 01-.09.902 1.314 1.314 0 00-.459.158.304.304 0 00-.148.272c.083.386.249.75.486 1.067l.935 1.433.786-1.226c.269-.364.452-.785.535-1.23a.371.371 0 00-.148-.316 1.037 1.037 0 00-.459-.158c-.07-.3-.1-.608-.09-.916.483.03 1.035.044 1.687.044.652 0 1.221 0 1.587-.044.008.308-.022.615-.09.916-.22.056-.431.142-.628.254-.195.125-.369.28-.517.458-.251.3-.482.616-.69.947l-1.411 2.146c.318.502.794 1.273 1.425 2.306.365.613.654 1.062.866 1.347.153.224.341.422.558.585.175.111.372.184.577.214.078.3.105.61.079.92zm10.731-.001a31.374 31.374 0 00-2.046-.044 37.27 37.27 0 00-2.193.044c-.011-.31.024-.62.103-.919.182-.028.358-.09.517-.183a.368.368 0 00.166-.32 2.041 2.041 0 00-.193-.633l-.345-.803c-1.315 0-2.522.036-3.619.107l-.193.486a2.14 2.14 0 00-.145.65c0 .407.235.637.711.69.076.3.111.609.103.918a19.555 19.555 0 00-1.586-.044c-.614 0-1.056 0-1.332.044a3.07 3.07 0 01.117-.919.904.904 0 00.601-.361c.238-.37.435-.765.586-1.178l3.105-7.603c.139-.032.281-.051.424-.058h.466l3.394 7.575c.207.461.372.802.497 1.033.084.171.201.325.345.45.11.088.243.142.382.156.089.296.134.603.135.912zm-4.36-3.674l-.8-1.866a16.792 16.792 0 01-.69-1.894c-.2.654-.418 1.278-.656 1.88l-.741 1.88h2.887zm14.536 2.174a.692.692 0 00.29.427c.192.1.405.153.621.155.082.299.117.61.104.92a34.244 34.244 0 00-2.105-.046c-.959 0-1.744.015-2.356.045a2.99 2.99 0 01.118-.92 1.3 1.3 0 00.614-.154.687.687 0 00.282-.427c.065-.3.093-.606.083-.913v-2.32a34.436 34.436 0 00-3.618.13v2.19c-.01.307.02.614.089.913.04.175.146.328.297.427.193.1.407.154.624.155.068.301.097.61.087.92a33.756 33.756 0 00-2.105-.046c-.947 0-1.728.015-2.342.045-.005-.31.03-.619.104-.92a1.38 1.38 0 00.624-.154.66.66 0 00.286-.427c.065-.3.093-.606.083-.913v-5.282a3.5 3.5 0 00-.083-.895.667.667 0 00-.279-.413 1.57 1.57 0 00-.631-.172 3.11 3.11 0 01-.104-.916c.504.03 1.26.044 2.27.044.86 0 1.586-.015 2.177-.044v.489c-.007.146-.038.29-.09.427-.216.014-.427.07-.621.165a.64.64 0 00-.29.413c-.065.296-.093.6-.082.902v2.028h3.611v-2.028a3.5 3.5 0 00-.083-.895.691.691 0 00-.282-.413 1.538 1.538 0 00-.628-.172 3.11 3.11 0 01-.104-.916c.525.03 1.28.044 2.267.044.869 0 1.6-.015 2.193-.044.013.31-.026.619-.117.916a1.58 1.58 0 00-.614.165.658.658 0 00-.283.413 3.65 3.65 0 00-.083.902v5.282c-.012.306.014.613.076.913zm4.506.925a4.474 4.474 0 01-1.749-1.839 5.678 5.678 0 01-.614-2.682 5.383 5.383 0 01.645-2.68 4.478 4.478 0 011.787-1.783 5.226 5.226 0 012.576-.63 5.376 5.376 0 012.625.623 4.48 4.48 0 011.78 1.753c.435.8.654 1.7.635 2.61a5.79 5.79 0 01-.628 2.724 4.673 4.673 0 01-1.78 1.88 5.052 5.052 0 01-2.632.688 5.18 5.18 0 01-2.645-.664zm4.67-1.377a5.665 5.665 0 00.645-2.886 6.486 6.486 0 00-.362-2.217 3.781 3.781 0 00-1.035-1.591 2.237 2.237 0 00-1.514-.586 1.996 1.996 0 00-1.749 1.013 5.098 5.098 0 00-.652 2.775c-.007.777.103 1.55.328 2.293.176.631.509 1.207.969 1.674a2.192 2.192 0 001.58.62 1.99 1.99 0 001.79-1.095zm12.901-.978a2.508 2.508 0 01-1.007 2.108c-.669.52-1.725.778-3.17.778-1.87 0-3.392.015-4.567.045a3.69 3.69 0 01.089-.92 1.43 1.43 0 00.632-.154.697.697 0 00.296-.444c.063-.319.089-.644.08-.968v-5.21a3.74 3.74 0 00-.08-.895.686.686 0 00-.289-.413 1.63 1.63 0 00-.639-.172 3.863 3.863 0 01-.089-.916c.386.03.91.044 1.573.044h1.379l1.439-.017c1.283 0 2.221.176 2.815.527a1.835 1.835 0 01.89 1.722 2.193 2.193 0 01-.6 1.556 2.711 2.711 0 01-1.67.782c1.948.091 2.921.94 2.918 2.548zm-3.467-5.79a1.972 1.972 0 00-1.911-.321v3.374h.504a1.982 1.982 0 001.459-.471 1.758 1.758 0 00.466-1.288 1.595 1.595 0 00-.518-1.295zm.504 7.31a1.9 1.9 0 00.445-1.34c0-.742-.23-1.263-.69-1.563a3.252 3.252 0 00-1.828-.451h-.345v2.351c-.014.319.028.637.124.94a.751.751 0 00.38.43c.22.083.454.12.69.11a1.596 1.596 0 001.224-.478zm6.458.835a4.455 4.455 0 01-1.749-1.839 5.68 5.68 0 01-.618-2.682 5.417 5.417 0 01.646-2.68 4.482 4.482 0 011.786-1.783 5.259 5.259 0 012.581-.63 5.364 5.364 0 012.621.623 4.42 4.42 0 011.78 1.753c.436.8.656 1.7.638 2.61.017.946-.2 1.881-.631 2.724a4.697 4.697 0 01-1.776 1.88 5.074 5.074 0 01-2.632.688 5.18 5.18 0 01-2.646-.664zm4.667-1.377a5.633 5.633 0 00.645-2.886 6.486 6.486 0 00-.362-2.217 3.75 3.75 0 00-1.035-1.591 2.234 2.234 0 00-1.511-.586 1.994 1.994 0 00-1.749 1.013 5.098 5.098 0 00-.652 2.775c-.008.776.101 1.55.325 2.293a3.83 3.83 0 00.972 1.674 2.197 2.197 0 001.577.62 1.988 1.988 0 001.79-1.095zM31.708 44C45.937 43.99 57 43.92 57 43.833c0-.056-4.54-.218-11.542-.341-.23-.014-.461-.029-.69-.055-.656-.072-.936-.347-.953-.934-.017-.587-.01-.54-.03-1.138-.012-.373-.028-.736.41-1.02l-.395-.04v-1.537c.305-.152.584-.311.945-.2a.595.595 0 00.25-.038l.625-.13c.085-.24.145-.488.179-.74l.23.287.532.032c.015-.04.031-.098.057-.174l.373.1.461-.302a6.109 6.109 0 00-.72-.19c-.212-.032-.496.063-.633-.032-.161-.109-.215-.36-.28-.556a1.43 1.43 0 01-.007-.41c.48.118.771-.06 1.044-.4-.415.06-.772.206-1.18.08.195-.096.387-.193.644-.318l-.565-.278c.428-.213.628.09.83.182l.65-.42-1.233-.408c-.033-.179-.062-.324-.091-.486l.32-.076-.03-.337c.128.018.245.042.36.049.071 0 .15-.046.216-.034.32.053.32.057.564-.13l-.506-.092.347-.48c-.415.147-.568-.238-.956-.375l.356-.165-.07-.09c-.116.008-.233.015-.35.025-.183.017-.365-.01-.44-.17-.075-.159.045-.28.204-.372.183-.104.337-.254.446-.435-.23.057-.407.23-.595.009-.022-.025-.118-.01-.177 0-.15.022-.297.053-.462.083a3.288 3.288 0 01-.337-.478c-.086-.18.07-.318.264-.22.278.143.411-.044.584-.138a.583.583 0 00.235-.228c.129-.26.407-.439.432-.799a2.45 2.45 0 01-.358.152.478.478 0 01-.293.011.86.86 0 01-.374-.296c-.073-.143-.128-.407-.046-.476.257-.206.17-.622.59-.716a.257.257 0 00.152-.2c-.01-.174-.179-.076-.28-.098-.026-.006-.046-.038-.069-.06-.021-.203.363-.238.264-.545-.432.316-.815.663-1.395.546-.153-.312.265-.214.333-.406l-.287-.238c.495-.28.495-.28.36-.687l.25-.237a1.016 1.016 0 01-.295-.192c-.178-.24-.329-.496-.454-.692l.067-.811h-.314c-.142-.344-.277-.668-.457-1.098-.088.342-.098.6-.22.805-.122.204-.356.35-.547.526.274.26-.104.474-.044.722l-.345.069c.089.166.422.205.296.483-.315.117-.621.029-.936-.07.077.086.166.16.263.222.095.07.257.098.2.275l-.367.02c.163.225.523.153.678.433h-.666c-.016.103 0 .208-.04.226-.063.031-.203.035-.236 0a1.694 1.694 0 01-.19-.33c-.29.012-.29.012-.475-.199l.177-.095-.84-.383c.214-.245.385-.482.736-.519a.158.158 0 00.101-.13c-.027-.19.14-.226.27-.286.132-.06.294-.115.44-.172-.525-.064-1.029.179-1.562 0 .172-.411.643-.142.885-.39-.1-.099-.192-.188-.28-.278l.258-.36-.058-.042-.514.26c-.046-.13-.129-.238-.1-.31.092-.18.194-.353.306-.519a1.42 1.42 0 00.085-.228c-.087 0-.128 0-.153.01-.423.348-.958.503-1.483.663-.166.042-.338.05-.507.022-.067-.008-.128-.114-.167-.188-.009-.02.102-.101.171-.13a1.91 1.91 0 01.314-.056c-.257-.079-.386-.21-.283-.427a2.83 2.83 0 01.338-.454l.273.292c.372-.013.078-.248.222-.37.257.142.48-.1.765-.032l.066-.48c-.62.099-1.087.46-1.672.502.043-.436.104-.489.792-.717-.242-.309-.242-.309.129-.729l-.358-.259c.386-.188.858-.216.956-.756-.27.076-.48.12-.675.192-.317.116-.63.186-.96.084.021-.184.337-.037.3-.276 0-.033.238-.098.366-.149a1.607 1.607 0 01-.027-.098l-1.343.137c.143-.244.375-.26.567-.337.191-.078.495-.027.604-.342l-.66.118c-.083-.3.206-.349.397-.489-.306-.314-.722-.035-1.029-.207 0-.055-.046-.13-.017-.168.179-.188.373-.364.562-.545-.285.071-.514-.018-.75-.15l.418-.492-.456.15c-.193-.295.108-.422.27-.63l-.482-.1c-.027-.16-.05-.3-.079-.463l-.182.178c-.235-.206-.184-.444-.233-.665-.049-.22-.177-.416-.302-.69-.062.13-.094.198-.12.259-.082.2-.258.416-.22.603.047.272-.257.388-.242.62 0 .061-.129.129-.193.191-.412-.35.155-.51.128-.813a3.704 3.704 0 01-1.491.628c-.058-.236.191-.458-.043-.698-.109.247-.276.488-.537.411-.238-.07-.296.01-.408.13a.718.718 0 01-.214.098c-.048-.09-.083-.151-.117-.217-.167.13-.324.313-.554.018l.605-.484c-.306-.113-.61.338-.856-.045-.176-.275-.248-.553.02-.85h.418l.273.45c.176-.121.16-.329.395-.315a.668.668 0 00.689-.466c.103-.26.303-.39.564-.477.074-.028.146-.06.216-.095-.083-.538-.083-.538.455-.518-.17-.297-.166-.348.058-.54.31-.259.31-.259-.074-.518-.476.181-.935.47-1.543.37.043-.17.082-.32.128-.518-.283.206-.308.202-.612-.045-.248-.203-.236-.267.12-.695l-.496-.457.63-.164c.128-.227-.287-.411-.04-.659l.496.11-.287-.565h.9c-.086-.112-.163-.216-.286-.376l.73-.088c-.154-.13-.486-.151-.318-.446l.273.048c-.117-.352.325-.358.419-.609-.377.333-1.035.175-1.286.673-.343-.237-.348-.29-.074-.463.053-.032.15-.078.145-.099-.063-.225.122-.29.284-.37.211-.103.15-.27.081-.425l.351-.026c-.44-.155-.771.023-1.04.286a2.457 2.457 0 01-1.174.694c-.4.07-.804.117-1.21.144-.023 0-.051-.035-.128-.091.182-.165.087-.38.07-.565l.75.068c.129-.302.225-.545.34-.827-.147.047-.299.092-.45.143-.33.111-.474.056-.602-.239l1.081-.212c-.015-.153-.028-.267-.04-.379l.3-.06a99.024 99.024 0 00-.493-.592l.29-.415.837-.205c-.258-.13-.567.108-.688-.202a.265.265 0 00-.19.007c-.102.075-.202.078-.249-.021a.334.334 0 01.04-.244c.098-.219.21-.435.342-.705l-.688.074a1.66 1.66 0 01-.317-.25 1.59 1.59 0 01-.129-.379c-.347-.224-.352-.259-.03-.518-.18-.372-.172-.39.22-.53.075-.028.13-.105.23-.199-.172-.045-.294-.118-.385-.093-.302.08-.298.093-.498-.166.093-.012.206 0 .23-.035.129-.198.246-.403.353-.613.009-.016-.055-.08-.094-.088a.15.15 0 00-.129.048.653.653 0 00-.03.18l-.837-.1c.046-.223.075-.437-.232-.57-.128-.054-.078-.212.053-.309.042-.032.052-.101.073-.146L30.21.82c.022-.617-.03-.73-.39-.821-.145.3-.378.596-.411.907a5.789 5.789 0 01-.212.982c-.351-.068-.284-.296-.297-.525-.094.236-.3.389-.154.648.043.079-.087.26-.171.367-.115.149-.234-.017-.35-.018a1.22 1.22 0 00-.36.103c.06.302.37.332.584.445l-.152.272.221.174c-.118.085-.206.149-.24.171l-.634-.279c.034.139.141.19.202.27a.8.8 0 01.087.25l.42.122c-.075.11-.106.22-.177.246a1.288 1.288 0 01-1.365-.207c0 .117.02.26.063.26.283.038.268.448.624.388.024 0 .063.1.106.144.045.049.1.088.16.115a.367.367 0 01.235.196.374.374 0 01.009.307c-.06.178-.209.243-.453.152a.7.7 0 00-.472-.048c-.182.043-.412-.076-.623-.123-.242-.053-.362-.206-.377-.473-.144.192-.24.317-.342.457.103.104.202.206.293.301l.464-.152c-.08.177-.128.26-.16.354a.307.307 0 00.01.12l.361-.065c.129.09.017.354.302.3.01 0 .076.113.057.146-.034.057-.121.13-.173.13-.185-.028-.363-.086-.543-.13-.156-.038-.313-.072-.481-.11-.028.404.397.294.522.471.153.217.54.024.59.275l.362-.069.06.086-.28.346a4.964 4.964 0 00-1.436-.246l-.075.277.257.138.276-.19.044.494c.352-.065.352-.065.572.18a2.485 2.485 0 01-1.344-.13 3.934 3.934 0 00-1.4-.335c.083.118.154.244.215.375.042.145.073.293.094.443.411-.184.595.13.833.31l.386-.13-.047.498c-.206-.095-.332-.162-.465-.21a1.38 1.38 0 00-.337-.076c-.02 0-.051.114-.082.188l.335.055c.059.132.133.255.22.368.104.086.217.16.337.22.17.35-.227.49-.34.798.434-.143.66.11.945.236.323.144.335.435.49.675-.48.068-1.293-.21-3.809-1.374l-.12.241c.256.232.587.42.654.77.082-.076.175-.14.276-.189.143-.046.296 0 .318.15.033.232.03.471.046.785a4.94 4.94 0 01.35-.39.216.216 0 01.183-.015c.044.025.09.114.074.152a1.133 1.133 0 01-.207.306 5.1 5.1 0 01-.404.325c.319.107.45-.065.583-.212.132-.148.232-.301.363-.44a.215.215 0 01.267-.063c.03.015.055.037.075.063-.052.495-.052.495.354.629.09-.204.175-.421.43-.519.07.124.157.237.26.334.283.188.23.436.183.676-.046.24-.302.208-.495.248-.017 0-.026.04-.037.062.207.08.367.26.643.136a.155.155 0 01.162.024.158.158 0 01.052.158 1.377 1.377 0 01-.11.27c-.653 0-1.274-.018-1.838-.347a1.79 1.79 0 00-.643-.259.597.597 0 01-.421-.205 1.354 1.354 0 00-.812-.413c.364.422.521.964 1.003 1.283a2.561 2.561 0 00-.157.222c-.155.267-.214.284-.5.12-.128-.074-.257-.158-.385-.219-.036-.017-.129.025-.164.061-.02.017 0 .113.022.12.238.072.242.343.61.417l-.59.272.023.373c.15.017.335-.01.445.06.196.13.257-.113.385-.078l.444.33c-.097.2-.237.259-.46.221-.59-.088-1.185-.149-1.772-.241-.169-.027-.257 0-.322.15.278.1.546.217.825.295.172.048.371.08.385.248.01.13-.108.26-.17.39.346-.037.65.269 1.107.15l-.1.413.62.077c-.288.304-.621.325-.973.304l.199.345h-.373c-.033.16-.012.341-.102.412-.14.112-.385.117-.53.23-.146.113-.169.343-.439.41a3.66 3.66 0 01-.594.106.075.075 0 01-.023-.036c-.048-.24-.28-.315-.44-.451l.558-.63h-.474c.036-.04.068-.08.098-.12a.56.56 0 01-.188-.162h-.008c-.067-.062-.195-.13-.193-.192.012-.236-.29-.347-.244-.62.033-.186-.136-.401-.219-.602a4.525 4.525 0 00-.12-.26c-.129.275-.258.476-.303.691-.045.216 0 .46-.232.665l-.183-.178-.078.462-.482.102c.162.207.462.334.27.63l-.456-.15c.161.19.278.329.417.49-.24.13-.464.222-.748.15.187.182.385.359.56.547.03.03-.01.112-.015.167-.313.172-.728-.106-1.029.207.19.14.48.188.398.489l-.663-.118c.111.315.404.26.605.342.2.083.425.094.567.337l-1.343-.137-.028.098c.129.051.372.116.367.15-.038.238.279.091.3.276-.331.1-.644.03-.959-.085-.196-.072-.406-.116-.676-.192.098.54.568.568.955.756l-.356.26c.364.42.364.42.129.728.688.228.75.281.793.717-.584-.042-1.05-.403-1.671-.502.025.184.042.314.066.48.286-.067.508.174.764.032.144.122-.15.357.223.37l.272-.292c.128.14.242.291.34.454.104.218-.027.349-.285.428.107.01.212.028.315.055.069.024.18.105.17.13-.033.074-.1.18-.167.188-.169.027-.34.02-.507-.022-.525-.16-1.06-.315-1.482-.663-.02-.015-.067 0-.154-.01.022.078.05.154.085.228.112.166.214.34.306.519.03.072-.054.18-.1.31l-.514-.26-.059.042.257.36-.28.279c.246.25.712-.02.885.389-.53.18-1.038-.062-1.562 0 .146.057.296.109.44.172.142.064.296.096.27.287a.161.161 0 00.102.13c.351.037.52.274.737.518l-.835.377.177.095c-.186.211-.186.211-.476.198a1.69 1.69 0 01-.19.33c-.033.038-.171.034-.236 0-.038-.018-.024-.129-.04-.225h-.664c.153-.28.514-.209.677-.434l-.369-.02c-.061-.176.106-.204.202-.274a1.25 1.25 0 00.257-.222c-.315.098-.62.186-.936.07-.128-.279.208-.318.296-.484l-.345-.068c.06-.248-.319-.465-.045-.722-.19-.177-.424-.325-.546-.527-.122-.202-.129-.462-.219-.805l-.465 1.109h-.32l.065.811c-.128.196-.275.453-.454.692a.985.985 0 01-.293.192c.067.064.162.156.25.237-.136.407-.136.407.36.688l-.287.234c.07.192.486.095.333.406-.579.118-.963-.23-1.394-.546-.1.307.284.342.264.546-.024.022-.043.053-.07.06-.101.021-.27-.077-.278.098a.254.254 0 00.152.2c.42.093.336.51.59.715.083.069.028.333-.046.476a.875.875 0 01-.372.297.478.478 0 01-.294-.012 2.398 2.398 0 01-.358-.151c.025.36.308.545.432.798a.582.582 0 00.235.228c.172.095.307.282.584.139.194-.099.35.039.264.219a3.395 3.395 0 01-.338.478c-.164-.03-.312-.06-.461-.083-.06-.009-.156-.024-.178 0-.187.22-.365.048-.595-.009.11.181.263.331.446.436.161.092.284.206.205.372-.08.166-.257.187-.441.17-.116-.01-.232-.017-.349-.026l-.07.09.36.165c-.385.138-.542.519-.957.375l.347.48-.505.093c.245.185.244.181.563.13.068-.012.145.036.217.033.115 0 .23-.031.36-.05 0 .079-.018.207-.03.338l.32.076-.09.486-1.239.41.652.422c.2-.093.4-.396.828-.183l-.564.28c.257.13.449.221.643.317-.404.13-.764-.02-1.18-.079.27.34.564.519 1.045.4.018.136.015.274-.008.41-.064.196-.117.446-.279.555-.138.095-.42 0-.633.031a6.09 6.09 0 00-.72.18l.46.308.372-.1c.025.076.044.13.057.174l.533-.031.23-.288c.033.252.093.5.18.74l.623.13c.082.031.17.045.257.038.361-.111.643.048.945.2V40.3l-.395.042c.437.284.422.648.41 1.019-.02.597-.012.539-.03 1.138-.018.599-.297.862-.953.934-.257.029-.503.045-.755.06C4.444 43.615 0 43.774 0 43.83c0 .093 12.76.168 28.5.168h3.214l-.006.003zm1.297-30.958c.14-.194.324-.194.563-.03l-.103.425a.993.993 0 01-.343.042c-.154-.032-.218-.295-.117-.437zm9.047 19.115c.23-.066.479-.053.628-.279.033-.052.208-.031.346-.047-.11.536-.673.492-1.046.74-.159-.212-.104-.362.073-.414zm-3.529-5.16c.364-.27.643.015.954.094.013.05.038.09.025.109-.287.503-.283.494-.857.248-.385-.164-.798-.29-1.049-.719.342.074.698-.109.927.268zm.502 4.442c-.322.05-.58.221-.91.12-.01-.26.183-.26.366-.302.207-.047.39-.066.544.182zm-1.241 4.858c.3-.18.78-.27.79-.823.336.367.869.253 1.074.64.055.1.129.248.088.322-.041.074-.227.093-.353.104a4.109 4.109 0 01-.514-.021l.386.327c-.246.166-.466.302-.669.456-.203.154-.239.407-.257.61l.617.322.28-.153c.33.25-.043.368-.119.58.393.072.73.22 1.116-.09a1.26 1.26 0 01.933-.253c.036.13.072.26.129.445.118-.082.219-.147.315-.214.098-.082.201-.157.31-.223a.777.777 0 01.958.13c.128.121.411.13.385.374-.025.245.066.507-.202.634.065.196.171.373.171.551 0 1.057-.034 1.457-.03 2.516 0 .311-.187.519-.386.715a.51.51 0 01-.328.089c-1.255-.026-2.51-.044-3.764-.099-.277 0-.545-.098-.759-.276a1.202 1.202 0 01-.409-.701c-.018-.09-.02-.184-.046-.272-.139-.472 0-.217.373-.546l-.065-.442-.362-.087a3.404 3.404 0 01-.044-.389c0-1.226 0-2.452-.008-3.677-.006-.269.123-.384.39-.549zm-3.417-18.265c.043-.227.217-.25.406-.322.395-.151.401-.188.438-.632.32-.01.395.214.583.421h-.477l.558.63c-.158.136-.392.211-.44.451-.014.074-.213.13-.34.169a4.729 4.729 0 01-.52.1.353.353 0 00-.29-.266.345.345 0 00-.137.008c-.064-.25.184-.374.219-.554v-.005zm.447 15.323c-.243.41-.604-.218-.886.213v-.531l.364.145.297-.251c.082.16.154.294.225.429v-.005zm-.657-10.595c-.108.16-.188.291-.281.413a.375.375 0 01-.177.142c-.276.08-.556.142-.835.212.118-.65.58-.936 1.293-.762v-.005zm-1.202 4.148c.086-.012.179-.048.207-.023.162.126.31.27.44.43.088.12.006.247-.144.288a.682.682 0 01-.724-.157l.358-.244c-.04-.08-.083-.174-.137-.292v-.002zm-.473-5.818c.213-.111.434-.048.643.008.148.04.216.17.04.259-.233.12.104.139-.026.288h-.983c.213-.153.078-.424.326-.552v-.003zm-.69-10.5c.084.039.19.054.208.1.09.217.032.407-.171.614l-.269-.227c.077-.155.15-.303.233-.48v-.007zm-.48 14.389a.757.757 0 01.586.48c-.257.096-.491.093-.667-.088-.146-.138-.02-.262.08-.38v-.012zm-1.174 7.171a.634.634 0 01.045-.137l.579.071c.093-.122.198-.234.312-.337.112-.083.224-.063.368.016.182.084.379.134.58.146.156.018.279 0 .369.174.066.123.316.07.419-.117a.224.224 0 01.271-.137c.036.01.069.03.095.057.174.13 0 .202-.105.268.128.364.733.193.856.61l-1.581-.191c.345.546.725.697 1.362.502.018.292.224.552-.146.766-.073.042-.037.246-.039.374 0 .241-.243.47-.386.35-.297-.242-.586-.041-.86-.049-.276-.008-.555.169-.869.278l.7.382.568-.143v.51c.257-.374.53-.307.785-.139.193-.162.04-.485.447-.525-.07.389-.096.778.245 1.136.062-.105.102-.177.166-.288.183.137.337.307.536.389.173.071.42 0 .486.259l.598-.106c.15.098.296.184.426.285.109.087.276.19.286.293a5.445 5.445 0 01-.128 1.75l-.5-.156c.069.175.08.301.155.376a1.323 1.323 0 01.394 1.142c-.084.978-.147 1.297-.206 2.278-.023.398-.342.631-.622.86-.135.11-.41.115-.621.117-.772.012-1.55-.022-2.322 0-.515.02-.984-.098-1.473-.168a.346.346 0 01-.186-.068c-.514-.545-1.046-.388-.987-1.214.074-1.023 0-2.052-.016-3.079v-.464c.236-.114.444-.218.65-.32.11-.036.214-.09.305-.161.09-.097.21-.252.178-.343a.55.55 0 00-.342-.286 4.152 4.152 0 00-.771-.05 2.25 2.25 0 01-.094-.422 38.6 38.6 0 01.073-4.477v-.012zm-1.749-22.088c-.082.376-.201.484-.632.538.167-.5.25-.566.632-.538zm-2.117-.894c-.013-.164.094-.324.24-.199.147.126.29.101.448.107.034 0 .067.058.099.09-.304.239-.304.239-.787.002zm.55 4.946c.162-.088.319-.154.451 0 .057.064.084.231.036.273-.162.117-.334.22-.514.307-.12-.09-.257-.139-.275-.215-.055-.209.139-.276.302-.365zm-.14 3.19c-.01.202-.017.325-.022.456.269-.13.269-.13.662-.053v-.475c.33 0 .671.152.935-.226l.189.304c-.073.06-.157.13-.246.196-.048.036-.154.06-.154.092 0 .319-.257.347-.514.395a1.948 1.948 0 00-.849.364c-.257.201-.514.194-.9.165l.178-.601-.392.143-.129-.25 1.242-.51zm.66 7.52c-.434-.287-.434-.287-.881-.213-.112-.309.055-.53.386-.466.284.072.563.162.835.27.029.257-.173.319-.342.403l.002.005zm-2.35-6.941l.386.389c-.313.24-.59.334-.983.16l.598-.55zm-.58 7.734c-.03.228-.084.395-.316.44-.204.04-.422.056-.5-.29l.817-.15zm-1.928-3.74l.742.149c-.073.153-.128.26-.177.364l.385.171c-.082.09-.128.18-.184.19-.322.057-.615.251-.95.245a3.338 3.338 0 01-.052-.493 1.42 1.42 0 00.235-.631l.001.005zm-.24 11.064l.297.252.364-.146v.528c-.282-.432-.643.197-.886-.214.07-.136.141-.27.224-.425v.005zm-2.057 3.925c.009-.103.176-.206.286-.293.111-.087.276-.186.425-.285l.598.106c.065-.259.313-.19.486-.259.199-.081.353-.251.536-.389l.165.288c.341-.358.316-.745.246-1.136.408.04.257.363.448.525.257-.168.524-.234.784.14v-.51l.568.142.7-.382c-.313-.109-.595-.285-.868-.278-.274.008-.565-.193-.862.05-.146.119-.386-.11-.386-.35 0-.13.035-.332-.038-.375-.37-.214-.165-.473-.147-.766.643.196 1.019.044 1.363-.502l-1.581.192c.128-.417.733-.246.856-.61-.105-.066-.278-.14-.105-.269a.224.224 0 01.205-.06.223.223 0 01.162.14c.03.055.075.1.129.13v-.027a.054.054 0 01.015-.022 4.92 4.92 0 00.245-.519l.024.04c-.446.821-.446.821-.4 1.01.169-.106.33-.26.526-.316.487-.13.74-.453.967-.814.032-.05.077-.095.129-.16.371.085.713.1.93-.26a.224.224 0 01.178-.089.221.221 0 01.177.09c.129.17.297.213.514.235a.62.62 0 01.377.218.832.832 0 00.612.351c.309.027.378.122.386.389.017.398.02.797.014 1.197a1.395 1.395 0 01-.11.333l-1.146-.551c.108.259.144.444.25.59.187.257.396.497.625.718.258.25.398.51.386.862-.092 2.249-.166 4.502-.247 6.752v-.564c-.01.637-.631.938-.97 1.393a.173.173 0 01-.092.036c-.419.077-.834.206-1.253.215-1.19.023-2.381.11-3.572.069-.734-.026-2.186.01-2.249-1.037-.059-.979-.12-1.296-.205-2.278a1.337 1.337 0 01.393-1.142c.076-.075.086-.2.154-.376l-.498.156a5.443 5.443 0 01-.132-1.753l.002.005zm-2.829-9.77c.31-.08.59-.364.954-.093.229-.378.585-.195.928-.269-.257.43-.663.555-1.05.72-.572.245-.57.259-.856-.25-.017-.024.009-.063.02-.11l.004.002zm1.364 4.468c-.329.101-.587-.07-.907-.12.15-.248.334-.228.543-.182.178.034.372.042.36.297l.004.005zm-4.567.32c.15.225.4.212.628.278.177.052.231.202.072.415-.373-.25-.936-.205-1.045-.74.133.01.308-.01.342.041l.004.005zm-.19 6.587a.78.78 0 01.958-.13c.109.067.212.142.31.224.098.067.197.13.315.213.053-.186.089-.313.129-.444a1.26 1.26 0 01.933.252c.386.31.723.163 1.117.091-.077-.212-.45-.33-.12-.58l.28.152.617-.322c-.016-.203-.039-.444-.257-.61-.219-.166-.423-.29-.669-.456l.386-.327a4.017 4.017 0 01-.514.021c-.13-.01-.31-.032-.351-.103-.042-.072.032-.222.086-.323.205-.39.738-.273 1.073-.64.012.553.49.649.79.824.268.16.398.275.396.552-.01 1.225 0 2.451-.008 3.678-.007.13-.021.26-.044.389l-.362.086-.063.443c.369.329.514.073.372.545-.027.088-.028.183-.047.273a1.203 1.203 0 01-.409.7c-.213.178-.48.276-.757.277-1.254.054-2.51.072-3.766.098a.51.51 0 01-.328-.089c-.2-.2-.386-.403-.386-.714 0-1.06-.032-1.46-.032-2.517 0-.177.108-.355.171-.55-.266-.13-.173-.401-.202-.634-.028-.234.242-.262.378-.384l.004.005z"/></g><defs><clipPath id="clip0"><path fill="#fff" d="M0 0h209v44H0z"/></clipPath></defs></svg>