<svg width="98" height="83" fill="none" xmlns="http://www.w3.org/2000/svg"><g clip-path="url(#clip0)" fill="#FDBA61"><path d="M6 75.06a2.14 2.14 0 01-.073.575.655.655 0 00-.389.262 6.77 6.77 0 00-.43.76l-1.692 3.4c-.177.41-.444.775-.78 1.067-.27.213-.604.328-.947.326a1.454 1.454 0 01-.58-.108.961.961 0 01-.38-.263 1.487 1.487 0 01-.029-.29 1.75 1.75 0 01.084-.575c.298.087.606.13.915.13.239.015.477-.03.692-.134.183-.122.331-.29.43-.488-.494-.878-1.08-1.877-1.755-3a7.45 7.45 0 00-.572-.825.734.734 0 00-.43-.262A2.342 2.342 0 010 75.06c.278.02.721.029 1.33.029.584 0 1.036-.01 1.355-.028a2.39 2.39 0 01-.053.574.937.937 0 00-.333.089.19.19 0 00-.101.173c.03.176.1.343.202.49a60.84 60.84 0 011.173 2.027c.339-.613.66-1.245.96-1.895.078-.153.125-.32.137-.493a.306.306 0 00-.11-.254.857.857 0 00-.36-.137 2.375 2.375 0 01-.065-.575c.241.02.55.029.933.029.382 0 .71-.009.932-.028zm1.676 5.974a2.859 2.859 0 01-1.074-1.154 3.592 3.592 0 01-.387-1.695 3.285 3.285 0 01.43-1.728 2.814 2.814 0 011.149-1.08 3.36 3.36 0 011.555-.368 4.65 4.65 0 012.03.484 8.477 8.477 0 00-.1 1.44 1.72 1.72 0 01-.72.11c-.013-.532-.119-.91-.316-1.133a1.075 1.075 0 00-.849-.335 1.396 1.396 0 00-1.289.679 3.2 3.2 0 00-.416 1.7 3.436 3.436 0 00.532 1.999 1.744 1.744 0 001.528.772c.26-.002.517-.043.764-.121.272-.083.532-.198.776-.344a.622.622 0 01.135.181.847.847 0 01.078.216 3.325 3.325 0 01-2.234.791 3.07 3.07 0 01-1.592-.414zm10.464.361c-.296-.02-.72-.03-1.275-.028-.633 0-1.088.009-1.366.028a2.008 2.008 0 01.065-.577.955.955 0 00.324-.115.233.233 0 00.101-.2 1.29 1.29 0 00-.12-.398l-.215-.504c-.82 0-1.57.023-2.251.067l-.12.305c-.053.13-.085.268-.093.408 0 .255.148.4.442.433.048.188.07.382.065.576-.215-.019-.54-.028-.988-.028-.38 0-.658 0-.83.028a1.93 1.93 0 01.074-.576.552.552 0 00.376-.212c.148-.232.27-.48.365-.74l1.933-4.77a1.53 1.53 0 01.264-.037h.29l2.114 4.754c.129.29.232.503.31.648a.943.943 0 00.214.283c.07.055.153.088.24.097.053.181.08.37.08.558zm-2.714-2.306l-.498-1.171a10.218 10.218 0 01-.43-1.189c-.124.411-.26.802-.406 1.18l-.466 1.18h1.8zm9.407 3.846a1.26 1.26 0 01-.445.065 1.588 1.588 0 01-.47-.065 8.47 8.47 0 00-.11-1.569h-4.19a8.318 8.318 0 00-.113 1.569 1.496 1.496 0 01-.47.065 1.35 1.35 0 01-.442-.065 9.2 9.2 0 00-.112-1.588.81.81 0 01.167-.53h.183c.488 0 .86-.432 1.1-1.275.263-.968.411-1.964.442-2.967v-.261a.997.997 0 00-.06-.4.345.345 0 00-.215-.184 2.143 2.143 0 00-.466-.095 2.487 2.487 0 01-.064-.575c.286.02 1.09.029 2.41.029 1.244 0 2.041-.01 2.39-.028v.306a.927.927 0 01-.055.268c-.135.01-.267.045-.389.104a.399.399 0 00-.178.26c-.04.185-.058.375-.052.566v3.325c-.006.2.011.4.052.594a.384.384 0 00.178.264.84.84 0 00.39.07h.46a.82.82 0 01.166.529 9.012 9.012 0 00-.107 1.588zm-2.54-6.37a3.454 3.454 0 00-.031-.558.387.387 0 00-.153-.26.768.768 0 00-.47-.112.727.727 0 00-.499.121.335.335 0 00-.111.206c-.02.107-.033.215-.037.324 0 .125-.007.218-.02.278a21.528 21.528 0 01-.29 2.652c-.133.72-.337 1.248-.614 1.584h1.386a1.69 1.69 0 00.55-.065.384.384 0 00.23-.255c.048-.2.068-.404.06-.61v-3.306zm8.162 1.62c.442.283.664.735.664 1.362a1.606 1.606 0 01-.623 1.33c-.415.327-1.075.49-1.962.49-1.171 0-2.122.008-2.853.027a2.234 2.234 0 01.056-.577.868.868 0 00.391-.097.418.418 0 00.185-.279c.04-.2.058-.403.052-.607v-3.27a2.238 2.238 0 00-.052-.561.432.432 0 00-.174-.26.974.974 0 00-.393-.108 2.376 2.376 0 01-.065-.575c.43.02.962.029 1.596.029.666 0 1.16 0 1.487-.028.008.193-.013.387-.064.574a1.5 1.5 0 00-.555.128.576.576 0 00-.281.32 1.798 1.798 0 00-.088.63v1.081c.227-.028.455-.04.683-.037.887.007 1.551.147 1.996.428zm-1.193 2.328c.19-.233.286-.528.269-.828 0-.471-.122-.807-.365-1.007a1.408 1.408 0 00-.928-.303 4.54 4.54 0 00-.462.028v1.476a1.2 1.2 0 00.163.74.66.66 0 00.53.19 1.013 1.013 0 00.793-.296zm7.258-2.323c.429.288.644.74.644 1.357a1.616 1.616 0 01-.614 1.33c-.409.328-1.053.49-1.934.49-1.163 0-2.11.008-2.844.027a2.336 2.336 0 01.056-.577.887.887 0 00.393-.097.418.418 0 00.185-.279c.04-.2.057-.403.051-.607v-3.27a2.341 2.341 0 00-.051-.561.432.432 0 00-.176-.26.96.96 0 00-.391-.108 2.271 2.271 0 01-.067-.575c.438.02 1.13.029 2.077.029 1.29 0 2.148-.01 2.578-.028.021.527.086 1.052.193 1.568a1.48 1.48 0 01-.702.14 1.423 1.423 0 00-.37-.835c-.195-.197-.53-.299-1.005-.299h-.683v2.161c.224-.028.45-.04.675-.037.887.005 1.538.145 1.984.43zm-1.17 2.318c.187-.235.28-.531.263-.832 0-.458-.118-.788-.359-.994a1.314 1.314 0 00-.883-.307c-.142 0-.305.011-.49.028v1.476c-.008.2.018.4.078.59a.464.464 0 00.236.27c.137.052.283.076.43.07a.907.907 0 00.717-.3h.009zm8.499.886c-.295-.02-.72-.03-1.274-.028-.633 0-1.089.01-1.366.028a2.008 2.008 0 01.064-.577.923.923 0 00.322-.114.23.23 0 00.104-.201 1.29 1.29 0 00-.12-.398l-.216-.503c-.818 0-1.568.021-2.253.067l-.12.304c-.052.13-.082.269-.09.409 0 .255.145.4.442.432.048.188.07.382.064.577a12.12 12.12 0 00-.988-.028c-.382 0-.657 0-.829.028-.005-.195.02-.39.073-.577a.562.562 0 00.374-.227 3.73 3.73 0 00.365-.739l1.933-4.771a1.58 1.58 0 01.265-.037h.29l2.113 4.754c.13.29.232.503.31.648a.943.943 0 00.215.283.46.46 0 00.238.098c.056.185.084.378.084.572zm-2.715-2.305l-.497-1.172c-.167-.386-.31-.784-.43-1.188-.124.41-.26.802-.405 1.18l-.466 1.18h1.797zm6.504 1.945a2.859 2.859 0 01-1.074-1.154 3.593 3.593 0 01-.387-1.695 3.285 3.285 0 01.43-1.728 2.827 2.827 0 011.15-1.08 3.36 3.36 0 011.555-.368c.704.005 1.398.17 2.03.484a8.71 8.71 0 00-.101 1.44c-.23.088-.475.125-.72.11-.013-.532-.118-.91-.316-1.133a1.075 1.075 0 00-.86-.335 1.395 1.395 0 00-1.288.679 3.2 3.2 0 00-.417 1.7 3.436 3.436 0 00.544 1.999 1.744 1.744 0 001.527.772c.262-.002.522-.043.771-.124.272-.082.532-.197.776-.343a.621.621 0 01.135.181.834.834 0 01.078.216 3.326 3.326 0 01-2.235.791 3.068 3.068 0 01-1.598-.412zm10.288-5.973a2.15 2.15 0 01-.073.575.655.655 0 00-.39.261 6.922 6.922 0 00-.429.76l-1.688 3.4c-.177.41-.444.775-.78 1.067a1.51 1.51 0 01-.947.327 1.454 1.454 0 01-.58-.108.952.952 0 01-.378-.264 1.335 1.335 0 01-.028-.29 1.777 1.777 0 01.081-.574 3.3 3.3 0 00.915.13c.239.015.477-.031.692-.135.183-.122.332-.29.43-.488a112.197 112.197 0 00-1.755-3 7.434 7.434 0 00-.572-.825.727.727 0 00-.43-.261 2.344 2.344 0 01-.055-.575c.276.019.72.028 1.33.028.584 0 1.036-.01 1.355-.028.003.192-.017.383-.06.57a.937.937 0 00-.333.089.19.19 0 00-.101.173c.031.176.1.344.202.49a60.84 60.84 0 011.173 2.027c.34-.613.66-1.245.96-1.895.078-.153.125-.32.137-.492a.307.307 0 00-.109-.255.856.856 0 00-.36-.137 2.371 2.371 0 01-.065-.574c.24.02.55.028.932.028s.705-.005.926-.024zm6.344 6.333c-.267-.02-.753-.028-1.462-.028-.564 0-1.031.007-1.402.02a2.512 2.512 0 01.056-.569.92.92 0 00.268-.069.155.155 0 00.082-.153.902.902 0 00-.101-.344 7.96 7.96 0 00-.322-.603l-.43-.732-.546.797c-.258.391-.386.648-.386.8a.217.217 0 00.096.194.92.92 0 00.31.11c.04.19.06.383.055.577a17.72 17.72 0 00-1.1-.028c-.455 0-.81 0-1.06.028a1.636 1.636 0 01.072-.594c.236-.057.456-.166.645-.32.246-.216.463-.465.644-.739l.952-1.355a91.57 91.57 0 00-1.074-1.681 8.753 8.753 0 00-.466-.678 1.236 1.236 0 00-.273-.275.857.857 0 00-.286-.106 1.906 1.906 0 01-.073-.585c.32.018.84.028 1.56.028.455 0 .874-.007 1.256-.02-.001.19-.02.38-.055.566a.816.816 0 00-.286.1.19.19 0 00-.093.17c.052.243.156.471.303.67l.582.9.49-.77c.167-.229.281-.492.333-.771a.237.237 0 00-.092-.2.642.642 0 00-.286-.099 2.204 2.204 0 01-.056-.575c.301.02.645.029 1.05.029.407 0 .761 0 .989-.028.005.193-.014.386-.056.574-.137.036-.268.09-.39.16a1.388 1.388 0 00-.323.288c-.157.188-.3.386-.43.594l-.878 1.346c.197.316.494.8.887 1.448.228.385.407.666.539.845.095.14.213.265.348.367a.91.91 0 00.359.134c.049.188.066.383.05.577zm6.682 0c-.295-.02-.72-.03-1.274-.028-.633 0-1.088.01-1.366.028a2.008 2.008 0 01.065-.577.923.923 0 00.322-.114.23.23 0 00.103-.201 1.29 1.29 0 00-.12-.398l-.215-.503c-.82 0-1.57.022-2.254.067l-.12.304a1.35 1.35 0 00-.09.409c0 .255.146.4.442.432.048.188.07.382.065.577a12.12 12.12 0 00-.988-.028c-.383 0-.658 0-.83.028-.004-.195.02-.39.074-.577a.562.562 0 00.373-.227c.149-.232.271-.48.365-.739l1.934-4.771c.087-.02.175-.032.264-.037h.29l2.114 4.754c.129.29.232.503.31.648a.907.907 0 00.214.283.454.454 0 00.239.098c.054.185.083.378.083.572zm-2.715-2.305l-.498-1.172c-.167-.387-.31-.784-.43-1.188-.125.41-.26.802-.408 1.18l-.462 1.18h1.798zm9.053 1.363a.43.43 0 00.18.268c.12.063.252.096.387.097a1.9 1.9 0 01.064.577 21.1 21.1 0 00-1.31-.028c-.597 0-1.086.01-1.467.028-.006-.195.019-.39.073-.577a.804.804 0 00.382-.097.432.432 0 00.176-.268c.04-.188.058-.38.052-.573v-1.456a21.322 21.322 0 00-2.254.082v1.374c-.006.193.013.385.056.573.025.11.091.206.185.268.12.063.253.097.389.097.042.19.06.383.053.577-.313-.02-.75-.03-1.31-.028-.59 0-1.076.01-1.459.028a2.269 2.269 0 01.065-.577.856.856 0 00.389-.097.42.42 0 00.178-.268c.04-.188.058-.38.052-.573v-3.315a2.238 2.238 0 00-.052-.561.42.42 0 00-.174-.26.974.974 0 00-.393-.108 1.982 1.982 0 01-.065-.575c.314.02.785.029 1.414.029.536 0 .987-.01 1.356-.028v.306a.868.868 0 01-.056.268 1.026 1.026 0 00-.387.104.4.4 0 00-.18.26 2.283 2.283 0 00-.052.566v1.272h2.25v-1.273a2.238 2.238 0 00-.052-.561.432.432 0 00-.177-.26.95.95 0 00-.39-.108 1.982 1.982 0 01-.065-.575c.327.02.797.029 1.411.029.542 0 .997-.01 1.367-.028.008.194-.017.388-.073.574a.98.98 0 00-.383.104.412.412 0 00-.176.26c-.04.185-.058.375-.051.566v3.314c-.008.192.008.385.047.573zm2.805.582a2.802 2.802 0 01-1.09-1.154 3.592 3.592 0 01-.382-1.683 3.4 3.4 0 01.402-1.681 2.8 2.8 0 011.113-1.12 3.237 3.237 0 011.605-.395 3.328 3.328 0 011.634.39 2.8 2.8 0 011.109 1.1c.27.503.407 1.067.395 1.639.01.593-.124 1.18-.39 1.709-.253.49-.637.9-1.11 1.18a3.129 3.129 0 01-1.638.432 3.208 3.208 0 01-1.648-.417zm2.909-.864c.29-.558.429-1.183.401-1.811a4.099 4.099 0 00-.225-1.392 2.379 2.379 0 00-.645-.998 1.387 1.387 0 00-.943-.368 1.24 1.24 0 00-1.089.636 3.22 3.22 0 00-.406 1.741c-.004.488.064.973.204 1.44.11.395.317.757.604 1.05a1.367 1.367 0 00.984.389 1.232 1.232 0 001.115-.687zm8.034-.615a1.585 1.585 0 01-.627 1.323c-.417.326-1.075.488-1.975.488-1.164 0-2.112.01-2.844.028a2.336 2.336 0 01.056-.577.887.887 0 00.393-.097.43.43 0 00.185-.279c.039-.2.055-.403.05-.607v-3.27a2.366 2.366 0 00-.05-.561.432.432 0 00-.18-.26 1.009 1.009 0 00-.398-.108 2.45 2.45 0 01-.056-.575c.24.02.567.029.98.029h.86l.895-.011c.799 0 1.383.11 1.753.33a1.147 1.147 0 01.554 1.08c.008.363-.126.714-.374.978-.279.28-.647.454-1.04.49 1.213.058 1.82.59 1.818 1.6zm-2.16-3.634a1.224 1.224 0 00-1.19-.201v2.117h.314a1.227 1.227 0 00.91-.296 1.11 1.11 0 00.29-.808 1.009 1.009 0 00-.323-.812zm.315 4.587c.196-.234.295-.535.277-.84 0-.466-.144-.793-.43-.982a2.014 2.014 0 00-1.139-.283h-.214v1.476c-.01.2.017.4.077.59a.467.467 0 00.236.27c.138.052.284.076.43.07a.984.984 0 00.763-.3zm4.021.526a2.785 2.785 0 01-1.089-1.154 3.59 3.59 0 01-.385-1.683 3.424 3.424 0 01.402-1.681 2.801 2.801 0 011.113-1.12 3.253 3.253 0 011.607-.395 3.32 3.32 0 011.632.39c.467.253.852.634 1.109 1.1.272.503.408 1.067.397 1.639a3.63 3.63 0 01-.393 1.709c-.251.49-.635.898-1.106 1.18a3.14 3.14 0 01-1.64.432 3.208 3.208 0 01-1.647-.417zm2.907-.864a3.56 3.56 0 00.401-1.811 4.099 4.099 0 00-.225-1.392 2.351 2.351 0 00-.645-.998 1.386 1.386 0 00-.94-.368 1.237 1.237 0 00-1.09.636 3.22 3.22 0 00-.406 1.741 4.87 4.87 0 00.202 1.44c.11.396.318.758.606 1.05a1.364 1.364 0 00.982.389 1.229 1.229 0 001.115-.687zm-41.538-6.825c23.774-.015 42.26-.134 42.26-.279 0-.093-7.586-.363-19.285-.568-.384-.024-.771-.047-1.153-.09-1.096-.122-1.564-.58-1.592-1.559-.028-.979-.017-.9-.052-1.897-.02-.62-.045-1.225.688-1.698l-.662-.07v-2.56c.51-.253.975-.519 1.579-.333a.995.995 0 00.419-.065l1.044-.216c.142-.4.242-.813.299-1.234l.384.48.89.052c.023-.067.05-.162.094-.29l.623.167.771-.504c-.394-.13-.796-.236-1.203-.318-.354-.051-.83.106-1.059-.051-.269-.182-.359-.599-.466-.927a2.375 2.375 0 01-.013-.683c.803.196 1.289-.1 1.744-.666-.694.097-1.289.342-1.97.132.325-.16.645-.322 1.075-.53l-.944-.464c.716-.354 1.049.151 1.386.305l1.087-.703-2.06-.678-.153-.81.535-.128c-.02-.216-.038-.432-.051-.562.215.03.41.072.601.082.12 0 .251-.075.363-.056.535.089.533.095.941-.216l-.844-.153.58-.802c-.694.246-.95-.396-1.598-.625l.595-.274c-.039-.052-.078-.1-.118-.151-.194.015-.39.026-.583.043-.307.028-.612-.017-.736-.283-.125-.266.075-.467.341-.62.306-.175.562-.425.746-.726-.385.095-.681.382-.995.015-.037-.041-.198-.015-.296 0-.25.036-.497.088-.772.138a5.56 5.56 0 01-.563-.797c-.143-.3.117-.53.44-.366.465.238.688-.073.976-.23a.971.971 0 00.393-.381c.215-.432.681-.73.722-1.331-.192.1-.392.185-.597.253a.798.798 0 01-.49.02 1.437 1.437 0 01-.625-.496c-.123-.237-.215-.678-.077-.793.43-.343.285-1.037.986-1.193a.43.43 0 00.253-.332c-.017-.292-.299-.128-.468-.165-.043-.01-.075-.062-.114-.099-.037-.34.606-.398.44-.91-.722.528-1.362 1.107-2.33.91-.256-.519.442-.357.556-.676l-.48-.396c.828-.467.828-.467.602-1.145l.417-.396a1.7 1.7 0 01-.492-.32c-.298-.4-.55-.827-.758-1.153.04-.515.077-.945.112-1.353H75.4a785.8 785.8 0 00-.764-1.83c-.146.57-.164 1-.368 1.342-.204.341-.595.583-.913.877.458.432-.174.79-.075 1.204l-.576.114c.149.277.705.341.495.806-.527.195-1.038.048-1.564-.117.129.143.277.268.44.37.159.117.43.164.335.458l-.614.032c.273.377.874.258 1.132.724h-1.113c-.026.171 0 .346-.067.376-.105.052-.339.059-.393 0a2.81 2.81 0 01-.317-.55c-.486.021-.486.021-.795-.331l.296-.158-1.405-.64c.359-.408.645-.803 1.231-.864a.264.264 0 00.17-.216c-.045-.318.232-.378.45-.478.22-.099.49-.192.736-.287-.877-.106-1.719.298-2.61 0 .287-.685 1.074-.236 1.478-.648-.168-.167-.32-.316-.467-.465.164-.227.297-.415.43-.6l-.097-.07-.859.432c-.075-.216-.215-.395-.165-.516a8.1 8.1 0 01.51-.864 2.48 2.48 0 00.143-.38c-.146 0-.215 0-.256.017-.707.579-1.6.838-2.479 1.104-.277.07-.565.082-.846.036-.112-.013-.215-.19-.28-.313-.015-.032.17-.168.286-.216.172-.045.347-.076.524-.093-.43-.132-.644-.35-.472-.713a4.68 4.68 0 01.565-.756l.455.486c.623-.022.131-.413.372-.616.43.236.801-.166 1.278-.054l.11-.8c-1.036.165-1.816.768-2.793.837.07-.726.174-.815 1.323-1.195-.404-.515-.404-.514.215-1.215l-.597-.432c.644-.313 1.433-.36 1.596-1.26-.45.126-.802.2-1.128.32-.528.193-1.05.31-1.603.14.035-.306.563-.062.501-.46 0-.056.397-.164.612-.248a2.692 2.692 0 01-.045-.164l-2.245.229c.239-.407.627-.432.948-.562.32-.13.827-.045 1.01-.57l-1.105.196c-.137-.501.346-.581.664-.815-.511-.523-1.205-.058-1.719-.345 0-.091-.077-.216-.028-.28.299-.312.623-.606.94-.909-.478.119-.86-.03-1.253-.25l.698-.82-.763.251c-.322-.492.18-.704.451-1.05l-.805-.168-.131-.772-.305.298c-.393-.343-.307-.74-.389-1.108-.082-.368-.297-.694-.505-1.152-.103.216-.157.33-.202.432-.135.335-.43.694-.365 1.005.077.454-.43.648-.406 1.033 0 .104-.215.216-.322.32-.688-.584.26-.85.215-1.355a6.21 6.21 0 01-2.492 1.046c-.097-.394.32-.763-.071-1.163-.183.41-.462.813-.898.685-.398-.117-.494.017-.681.216-.11.074-.231.13-.359.164-.08-.149-.137-.252-.195-.363-.28.216-.542.523-.926.03l1.012-.805c-.512-.188-1.02.564-1.431-.076-.294-.458-.415-.92.034-1.418h.698l.456.752c.294-.203.266-.548.66-.525a1.116 1.116 0 001.15-.778c.173-.432.508-.648.944-.795.123-.046.243-.098.36-.157-.139-.897-.139-.897.761-.865-.286-.495-.277-.579.097-.899.518-.432.518-.432-.125-.864-.795.302-1.561.784-2.578.618.073-.283.138-.536.215-.864-.472.343-.515.337-1.022-.076-.415-.337-.395-.445.2-1.158l-.83-.761 1.053-.274c.215-.379-.48-.685-.067-1.098l.83.181-.48-.94h1.504c-.144-.188-.273-.36-.479-.626l1.22-.147c-.258-.216-.812-.253-.53-.744l.455.08c-.195-.587.544-.596.7-1.015-.629.555-1.729.291-2.148 1.121-.573-.395-.582-.484-.124-.771.088-.054.251-.13.242-.165-.105-.376.205-.483.475-.617.352-.171.252-.45.136-.71l.586-.043c-.735-.257-1.289.04-1.738.478a4.107 4.107 0 01-1.961 1.156c-.67.116-1.344.196-2.022.24-.038 0-.086-.058-.215-.151.306-.275.147-.633.117-.942l1.254.114c.215-.503.376-.91.567-1.379-.245.078-.498.154-.752.238-.55.186-.79.093-1.005-.397l1.807-.355c-.026-.255-.048-.445-.067-.63l.5-.102c-.298-.361-.565-.679-.822-.986l.483-.691 1.399-.342c-.43-.216-.948.18-1.15-.337a.444.444 0 00-.316.011c-.171.125-.339.13-.416-.034a.556.556 0 01.066-.407c.164-.365.35-.726.572-1.175l-1.15.123a2.77 2.77 0 01-.53-.417c-.098-.2-.17-.413-.215-.631-.58-.374-.589-.432-.051-.864-.3-.62-.286-.649.369-.882.125-.048.215-.177.385-.333-.288-.076-.492-.197-.645-.155-.505.133-.498.155-.831-.277.154-.02.343 0 .384-.058a10.8 10.8 0 00.589-1.023c.015-.025-.093-.131-.157-.146a.252.252 0 00-.215.08 1.087 1.087 0 00-.051.3l-1.399-.167c.078-.371.127-.728-.386-.948-.215-.091-.131-.355.088-.517.07-.054.088-.168.122-.244l-.685-.313C52.117.339 52.029.15 51.428 0c-.24.501-.63.994-.685 1.513a9.63 9.63 0 01-.355 1.635c-.586-.112-.475-.492-.496-.875-.157.394-.5.649-.258 1.08.073.133-.144.433-.286.612-.19.249-.39-.028-.584-.03a2.044 2.044 0 00-.602.173c.102.503.62.553.976.741l-.254.454.37.29c-.198.142-.344.248-.4.285l-1.061-.465c.058.231.236.318.337.45.072.13.121.27.146.417l.703.203c-.127.183-.178.365-.297.41a2.156 2.156 0 01-2.281-.345c0 .194.034.432.105.432.473.065.45.747 1.044.648.039 0 .106.166.176.24a.819.819 0 00.269.192.614.614 0 01.454.581.622.622 0 01-.048.258c-.099.296-.348.404-.756.252a1.17 1.17 0 00-.789-.08c-.305.072-.69-.127-1.041-.205-.404-.088-.604-.343-.63-.789-.24.32-.4.53-.571.763.172.173.337.344.49.502l.775-.253c-.135.294-.215.432-.266.59a.507.507 0 00.015.2l.603-.11c.215.152.028.59.505.502.015 0 .127.188.095.242-.056.095-.202.216-.288.216-.31-.045-.608-.143-.909-.216-.26-.063-.522-.12-.803-.182-.048.672.663.489.872.785.255.36.902.039.986.458l.606-.115.1.143-.468.577a8.315 8.315 0 00-2.4-.41l-.126.462.43.229.461-.316c.03.34.05.58.074.823.588-.107.588-.107.956.299a4.16 4.16 0 01-2.245-.216 6.587 6.587 0 00-2.34-.558c.138.197.258.406.359.625.07.242.123.489.157.739.687-.307.995.216 1.392.516l.644-.216c-.028.29-.047.495-.077.83-.346-.158-.556-.27-.778-.35a2.309 2.309 0 00-.563-.128c-.034 0-.085.19-.137.314l.56.093c.098.218.221.424.368.613.174.143.362.265.563.365.283.586-.38.817-.57 1.331.727-.237 1.105.184 1.58.394.54.24.56.726.82 1.126-.803.112-2.16-.353-6.365-2.29l-.202.401c.43.387.982.7 1.094 1.281a1.96 1.96 0 01.461-.313c.239-.078.495 0 .531.249.056.389.05.786.077 1.31a8.25 8.25 0 01.585-.65.362.362 0 01.307-.025c.073.04.15.19.122.253a1.89 1.89 0 01-.346.51c-.215.192-.44.373-.674.542.533.177.752-.108.973-.354.221-.247.389-.502.608-.733a.36.36 0 01.445-.105.36.36 0 01.126.105c-.088.826-.088.826.591 1.048.15-.34.292-.702.72-.864.115.206.261.394.434.555.472.313.382.728.305 1.128-.078.4-.505.346-.827.413-.028 0-.043.067-.063.104.346.134.615.432 1.075.226a.26.26 0 01.352.16.266.266 0 01.006.143 2.3 2.3 0 01-.184.45c-1.092 0-2.13-.029-3.07-.578a2.999 2.999 0 00-1.074-.432 1 1 0 01-.705-.341 2.264 2.264 0 00-1.355-.69c.607.705.87 1.608 1.675 2.14a4.266 4.266 0 00-.262.37c-.26.444-.359.473-.836.2-.214-.123-.43-.263-.644-.365-.06-.028-.215.041-.273.102-.034.028 0 .188.037.2.397.12.404.571 1.02.694l-.986.454c.01.195.026.432.037.622.25.029.56-.017.743.1.329.216.43-.188.644-.13l.741.55c-.16.332-.395.431-.769.369-.983-.147-1.978-.249-2.96-.402-.281-.046-.43 0-.537.248.464.169.91.363 1.377.493.288.08.62.134.645.415.017.216-.18.432-.286.648.58-.06 1.087.45 1.852.25l-.168.69 1.035.128c-.48.507-1.037.542-1.626.507l.333.575h-.623c-.056.266-.02.568-.17.687-.236.186-.644.195-.887.383-.242.188-.281.572-.732.685a6.118 6.118 0 01-.993.175.126.126 0 01-.038-.06c-.08-.4-.469-.526-.735-.753l.932-1.05h-.792c.06-.067.114-.134.163-.199a.937.937 0 01-.314-.27h-.013c-.111-.104-.326-.216-.322-.32.02-.393-.485-.579-.408-1.032.056-.312-.228-.67-.365-1.005a7.494 7.494 0 00-.202-.433c-.215.459-.43.793-.505 1.152-.075.359 0 .765-.389 1.109l-.305-.298c-.047.272-.086.505-.13.771l-.806.169c.27.345.773.557.45 1.05l-.76-.25c.269.317.464.548.696.818-.401.216-.775.37-1.25.25.314.303.645.597.937.91.05.052-.017.188-.026.28-.522.287-1.216-.178-1.719.345.316.233.802.313.664.815l-1.106-.197c.184.525.674.432 1.01.57.335.139.71.156.947.562l-2.243-.229a6.35 6.35 0 01-.047.164c.215.085.62.193.612.249-.062.398.466.153.5.46-.552.169-1.073.052-1.6-.14-.329-.121-.679-.195-1.13-.32.164.899.95.946 1.596 1.26l-.595.432c.608.7.608.7.215 1.214 1.15.38 1.253.47 1.326 1.195-.976-.069-1.756-.672-2.793-.836.043.307.07.523.112.8.477-.113.848.29 1.276.054.24.203-.252.594.371.616l.456-.487c.213.233.403.486.567.757.174.363-.045.58-.475.713.178.016.354.047.526.093.114.038.299.175.284.216-.056.123-.168.3-.28.313a2.1 2.1 0 01-.846-.037c-.878-.266-1.772-.525-2.477-1.104-.032-.026-.111 0-.257-.017.037.13.085.257.141.38.188.277.36.566.512.864.05.121-.09.3-.166.517l-.859-.432-.099.069.43.6-.468.465c.41.417 1.19-.032 1.478.648-.886.3-1.734-.103-2.61 0 .244.096.496.182.734.288.239.106.496.16.451.477a.269.269 0 00.172.217c.587.062.87.458 1.231.864l-1.394.629.294.157c-.31.353-.31.353-.795.331-.085.195-.191.38-.318.551-.053.063-.285.056-.393 0-.064-.03-.04-.216-.066-.376h-1.111c.256-.467.86-.348 1.132-.724l-.616-.032c-.104-.294.176-.342.337-.458a2.09 2.09 0 00.43-.37c-.527.164-1.038.311-1.564.117-.215-.465.348-.53.494-.806l-.576-.115c.099-.412-.533-.773-.075-1.203-.318-.294-.71-.54-.913-.878-.204-.337-.215-.771-.365-1.342l-.778 1.848h-.535l.11 1.353c-.215.326-.46.754-.759 1.154a1.7 1.7 0 01-.49.32c.112.105.271.259.417.395-.227.678-.227.678.602 1.145l-.48.391c.117.32.813.158.557.677-.966.196-1.609-.383-2.329-.91-.167.512.475.57.44.91-.04.036-.07.088-.115.1-.17.036-.451-.128-.466.163a.421.421 0 00.255.333c.7.156.561.85.984 1.193.14.114.047.555-.075.793-.158.22-.374.39-.623.495a.799.799 0 01-.49-.02 3.999 3.999 0 01-.599-.252c.043.6.515.91.722 1.33a.972.972 0 00.393.38c.288.159.513.47.975.232.325-.164.584.065.443.365a5.678 5.678 0 01-.565.798c-.275-.05-.522-.102-.771-.139-.1-.015-.26-.04-.297 0-.314.368-.61.08-.995-.015.184.302.44.552.746.726.268.154.475.344.341.62-.133.277-.43.312-.736.284-.194-.018-.387-.029-.583-.044l-.118.152.604.274c-.645.23-.907.864-1.6.625l.58.801-.845.154c.41.309.408.302.941.216.114-.02.243.06.363.056.191 0 .383-.052.602-.082 0 .13-.03.343-.05.562l.535.127c-.051.27-.099.512-.152.81l-2.069.683 1.09.703c.334-.154.667-.66 1.383-.305l-.943.467c.43.216.75.37 1.074.53-.675.215-1.276-.035-1.97-.133.45.567.94.865 1.744.666a2.3 2.3 0 01-.013.683c-.107.328-.195.745-.466.927-.23.157-.703 0-1.057.052-.407.075-.81.175-1.205.3l.769.512.623-.166c.04.127.073.216.095.29l.891-.053.382-.48c.057.422.157.835.301 1.235l1.042.216a.995.995 0 00.43.064c.603-.185 1.074.08 1.578.333v2.56l-.659.07c.73.473.705 1.08.685 1.698-.034.997-.021.9-.051 1.898-.03.998-.496 1.437-1.592 1.558-.43.047-.84.073-1.261.1-11.478.202-18.904.468-18.904.559 0 .156 21.319.28 47.619.28h5.37l-.01.005zm2.168-51.604c.234-.324.541-.324.94-.052l-.171.709a1.69 1.69 0 01-.574.071c-.257-.054-.365-.493-.195-.728zm15.117 31.862c.382-.11.799-.088 1.048-.464.056-.087.348-.052.578-.078-.183.892-1.124.819-1.747 1.234-.266-.355-.174-.605.12-.692zm-5.897-8.6c.608-.452 1.074.024 1.594.155.021.085.062.15.04.182-.478.838-.472.823-1.43.415-.644-.275-1.334-.484-1.753-1.2.572.124 1.166-.181 1.549.448zm.838 7.403c-.537.084-.97.37-1.52.201-.018-.432.306-.432.611-.504.346-.077.65-.11.909.303zm-2.073 8.1c.502-.301 1.304-.453 1.32-1.373.562.611 1.45.421 1.795 1.065.092.169.214.415.146.538-.07.123-.378.156-.589.173a6.887 6.887 0 01-.86-.034l.645.544c-.41.277-.777.504-1.117.76-.34.258-.4.68-.43 1.016l1.032.538.468-.255c.55.417-.073.614-.2.968.657.12 1.22.366 1.865-.15a2.11 2.11 0 011.56-.422c.06.216.12.432.214.741.198-.136.365-.244.527-.356.163-.137.336-.261.517-.372a1.302 1.302 0 011.6.216c.215.203.688.216.645.625-.043.408.11.844-.337 1.056.107.326.285.622.285.918 0 1.762-.058 2.43-.051 4.195 0 .518-.311.864-.645 1.19a.856.856 0 01-.547.15c-2.097-.044-4.196-.074-6.29-.165a1.98 1.98 0 01-1.267-.461 2.004 2.004 0 01-.684-1.168c-.03-.15-.034-.307-.077-.454-.232-.786 0-.36.623-.91-.039-.252-.07-.48-.108-.736l-.605-.145a5.69 5.69 0 01-.073-.648c0-2.045 0-4.089-.013-6.13-.01-.448.204-.64.65-.915zm-5.71-30.448c.073-.378.363-.417.679-.536.66-.253.67-.313.732-1.054.535-.015.66.356.973.702h-.797l.933 1.05c-.265.227-.655.352-.735.752-.024.123-.357.216-.567.281a7.918 7.918 0 01-.87.169.589.589 0 00-.483-.445.58.58 0 00-.23.012c-.108-.417.307-.622.365-.922v-.009zm.747 25.542c-.406.685-1.01-.363-1.48.356v-.886l.608.242.496-.419c.138.266.258.49.376.715V55.6zm-1.097-17.661c-.18.268-.314.486-.47.69a.626.626 0 01-.295.235c-.462.134-.93.237-1.396.354.197-1.085.968-1.56 2.16-1.27v-.01zm-2.009 6.915c.144-.02.299-.08.346-.04.27.212.517.453.735.718.148.199.01.413-.24.48a1.143 1.143 0 01-1.21-.261l.599-.407a17.38 17.38 0 01-.23-.486v-.004zm-.79-9.698c.356-.186.726-.08 1.074.013.247.067.36.285.069.432-.392.199.171.231-.046.48h-1.64c.354-.256.128-.707.543-.921v-.004zm-1.152-17.504c.14.065.318.091.346.167.15.363.054.678-.286 1.024l-.449-.378c.13-.26.25-.506.39-.8v-.013zm-.803 23.986a1.266 1.266 0 01.98.802c-.43.158-.821.153-1.116-.15-.242-.228-.034-.436.134-.632l.002-.02zM51.96 53.592a1.05 1.05 0 01.075-.229l.966.12c.157-.204.332-.392.522-.563.187-.138.374-.106.615.026.305.142.633.225.969.244.262.03.466 0 .616.29.112.205.529.117.7-.194a.374.374 0 01.454-.23.37.37 0 01.159.096c.29.216 0 .337-.176.447.214.607 1.224.322 1.43 1.018l-2.642-.32c.578.91 1.212 1.162 2.277.836.03.488.374.92-.245 1.277-.122.072-.062.41-.064.625 0 .402-.406.782-.645.583-.496-.404-.98-.069-1.44-.082-.459-.013-.925.28-1.45.462l1.17.638.949-.238v.85c.43-.623.885-.513 1.313-.232.322-.27.064-.808.745-.875-.116.648-.159 1.297.41 1.893.103-.175.17-.294.277-.48.305.23.563.512.896.649.288.118.703 0 .812.432l1-.177c.25.164.493.306.71.475.183.145.462.315.48.488a9.06 9.06 0 01-.216 2.917l-.833-.259c.114.292.13.502.258.627a2.205 2.205 0 01.657 1.904c-.14 1.629-.245 2.16-.344 3.796-.038.664-.571 1.053-1.04 1.435-.225.184-.683.19-1.037.195-1.289.02-2.589-.037-3.88 0-.859.032-1.643-.165-2.46-.281a.58.58 0 01-.31-.113c-.86-.91-1.75-.648-1.65-2.024.124-1.705 0-3.421-.026-5.132v-.774c.393-.19.74-.363 1.087-.534.183-.06.355-.15.509-.268.15-.162.35-.42.296-.572a.915.915 0 00-.571-.476 6.961 6.961 0 00-1.29-.084 3.733 3.733 0 01-.156-.702 64.228 64.228 0 01.123-7.464v-.02zm-2.922-36.82c-.138.628-.337.807-1.057.898.28-.835.419-.945 1.057-.897zm-3.538-1.49c-.022-.272.157-.54.402-.33.245.209.483.168.747.176.058 0 .112.098.166.15-.507.4-.507.4-1.315.004zm.92 8.246c.27-.147.532-.257.753 0 .095.106.14.385.06.454-.27.196-.558.367-.859.512-.2-.15-.43-.232-.46-.359-.092-.348.233-.46.505-.607zm-.235 5.318c-.017.335-.028.54-.036.758.449-.216.449-.216 1.106-.088v-.791c.55 0 1.121.253 1.562-.376l.316.505c-.123.1-.263.216-.41.327-.082.06-.259.101-.259.153 0 .532-.43.58-.859.66a3.25 3.25 0 00-1.418.606c-.43.335-.859.322-1.503.275l.296-1.003-.655.24-.215-.417 2.075-.85zm1.102 12.533c-.724-.478-.724-.478-1.471-.354-.187-.515.092-.884.644-.776.475.12.941.27 1.397.45.047.427-.29.53-.572.671l.002.009zm-3.924-11.57l.644.649c-.524.4-.986.557-1.643.268l.998-.916zm-.97 12.893c-.05.38-.141.659-.528.732-.341.07-.707.095-.835-.482l1.364-.25zm-3.222-6.235l1.24.249c-.123.255-.215.432-.297.607l.645.285c-.138.15-.215.298-.307.318-.54.093-1.03.417-1.59.406a5.572 5.572 0 01-.086-.821c.214-.314.349-.675.393-1.052l.002.008zm-.401 18.444l.496.419.608-.242v.88c-.47-.72-1.074.328-1.48-.357.116-.227.236-.452.373-.71l.003.01zm-3.437 6.543c.015-.173.294-.344.479-.489.184-.144.46-.31.709-.475l.998.177c.11-.432.525-.318.812-.432.333-.136.591-.42.896-.648.108.183.176.304.277.48.57-.597.527-1.243.41-1.894.682.067.43.605.748.876.43-.281.877-.392 1.31.23v-.848l.95.237 1.17-.637c-.523-.182-.994-.475-1.451-.463-.458.013-.943-.322-1.44.083-.244.198-.644-.182-.644-.584 0-.216.058-.553-.065-.624-.618-.357-.275-.79-.244-1.277 1.074.326 1.701.073 2.277-.837l-2.643.32c.215-.696 1.225-.41 1.431-1.018-.176-.11-.464-.23-.176-.447a.373.373 0 01.614.134c.051.09.125.165.215.216v-.045a.09.09 0 01.026-.037 8.22 8.22 0 00.408-.864l.04.066c-.745 1.368-.745 1.368-.667 1.682.281-.175.552-.432.878-.525.815-.217 1.236-.757 1.616-1.357.054-.085.129-.158.215-.268.62.142 1.192.168 1.555-.433a.373.373 0 01.462-.109.373.373 0 01.13.11c.216.285.497.356.86.393.246.04.47.17.63.363a1.391 1.391 0 001.022.585c.516.046.632.203.644.649.029.663.033 1.329.024 1.994a2.323 2.323 0 01-.182.556l-1.917-.919c.18.432.241.741.417.983.314.43.664.83 1.046 1.198.43.416.664.849.645 1.437-.155 3.749-.277 7.504-.413 11.256v-.94c-.017 1.06-1.054 1.562-1.62 2.32a.29.29 0 01-.154.06c-.7.128-1.394.345-2.095.36-1.989.038-3.978.183-5.967.114-1.227-.043-3.652.017-3.757-1.729-.1-1.631-.202-2.16-.344-3.796a2.222 2.222 0 01.657-1.904c.127-.125.144-.335.258-.627l-.834.26a9.056 9.056 0 01-.219-2.922l.003.009zm-4.726-16.287c.517-.132.986-.607 1.594-.156.382-.628.977-.324 1.55-.447-.43.715-1.108.925-1.755 1.2-.956.408-.951.432-1.43-.415-.028-.041.015-.106.034-.186l.007.004zm2.279 7.449c-.55.168-.982-.117-1.517-.201.252-.413.559-.38.909-.303.296.056.62.07.601.495l.007.009zm-7.63.531c.25.376.665.355 1.048.465.296.086.386.337.12.691-.623-.415-1.564-.341-1.746-1.234.223.018.515-.017.571.07l.006.008zm-.319 10.982a1.306 1.306 0 011.6-.216c.182.11.355.235.519.371.163.113.328.217.526.357.088-.311.148-.523.215-.741a2.11 2.11 0 011.56.421c.644.517 1.207.27 1.866.151-.129-.354-.752-.55-.2-.968l.466.255 1.032-.538c-.026-.337-.065-.739-.43-1.015-.365-.277-.707-.484-1.117-.76l.644-.545c-.285.029-.572.04-.859.034-.215-.017-.518-.054-.586-.173-.07-.119.053-.37.144-.538.343-.648 1.233-.454 1.793-1.065.02.92.819 1.08 1.321 1.372.447.266.664.458.66.92-.015 2.043 0 4.087-.013 6.131-.01.217-.035.434-.073.648l-.606.145-.105.737c.616.549.86.123.623.91-.045.147-.047.304-.08.453a1.99 1.99 0 01-1.948 1.63c-2.094.09-4.193.12-6.292.164a.856.856 0 01-.548-.15c-.335-.334-.644-.671-.644-1.19 0-1.765-.054-2.433-.054-4.194 0-.296.18-.592.286-.918-.445-.216-.29-.668-.338-1.057-.047-.39.404-.437.632-.64l.007.009z"/></g><defs><clipPath id="clip0"><path fill="#fff" d="M0 0h98v83H0z"/></clipPath></defs></svg>