<svg width="60" height="60" fill="none" xmlns="http://www.w3.org/2000/svg"><circle cx="30" cy="30" r="30" fill="#FDBA61"/><g clip-path="url(#clip0)" fill="#333"><path d="M41.048 26.2H27.103a.44.44 0 000 .879h13.945a.44.44 0 100-.88zm0 3.36H27.103a.44.44 0 100 .878h13.945a.44.44 0 000-.879zm0 3.358H27.103a.44.44 0 000 .88h13.945a.44.44 0 000-.88z"/><path d="M42.444 22.356H25.707a2.559 2.559 0 00-2.556 2.556v10.525a2.559 2.559 0 002.556 2.556h11.731c.125 0 .242.056.32.155l3.788 4.796a.755.755 0 00.851.248.756.756 0 00.514-.722v-4.52A2.568 2.568 0 0045 35.436V24.912a2.559 2.559 0 00-2.556-2.556zm1.677 13.08c0 .914-.743 1.666-1.655 1.677a.44.44 0 00-.434.44v4.588l-3.584-4.538a1.279 1.279 0 00-1.01-.49H25.707a1.679 1.679 0 01-1.677-1.676V24.912a1.68 1.68 0 011.677-1.677h16.737a1.68 1.68 0 011.677 1.677v10.525z"/><path d="M21.474 29.623c-.3.042-.57.197-.758.435l-3.018 3.822v-3.83a.44.44 0 00-.434-.44 1.408 1.408 0 01-1.385-1.402v-9.162c0-.773.63-1.403 1.403-1.403h14.57c.774 0 1.403.63 1.403 1.403v1.695a.44.44 0 00.879 0v-1.695a2.285 2.285 0 00-2.282-2.282h-14.57A2.285 2.285 0 0015 19.046v9.162c0 1.094.784 2.018 1.819 2.234v3.889c0 .312.19.58.485.682a.714.714 0 00.804-.235l3.298-4.175c.048-.06.116-.1.192-.11a.44.44 0 10-.124-.87z"/></g><defs><clipPath id="clip0"><path fill="#fff" transform="translate(15 15)" d="M0 0h30v30H0z"/></clipPath></defs></svg>