<svg width="40" height="40" fill="none" xmlns="http://www.w3.org/2000/svg"><circle cx="20" cy="20" r="20" fill="#5D5D5D"/><g clip-path="url(#clip0)"><path d="M29.69 11.987c-.244-.299-.61-.463-1.03-.463-.229 0-.47.048-.72.143l-16.929 6.462c-.898.343-1.02.858-1.012 1.134.008.276.158.783 1.075 1.074l.016.005 3.512 1.005 1.899 5.43c.259.741.84 1.201 1.517 1.201.427 0 .846-.179 1.214-.517l2.172-2 3.15 2.537h.002l.03.025a.27.27 0 00.008.006c.35.272.732.415 1.106.416.73 0 1.31-.54 1.48-1.376l2.773-13.697c.112-.55.018-1.042-.263-1.385zm-13.914 9.17l6.776-3.462-4.22 4.483a.585.585 0 00-.141.26l-.814 3.296-1.6-4.578zm2.662 5.442a1.096 1.096 0 01-.085.07l.755-3.057 1.373 1.106-2.043 1.881zm10.367-13.46L26.03 26.837c-.027.13-.112.436-.331.436-.109 0-.245-.06-.384-.167l-3.57-2.874-.002-.001-2.124-1.71 6.1-6.483a.586.586 0 00-.693-.924L14.994 20.24l-3.56-1.018 16.925-6.46a.86.86 0 01.3-.067c.037 0 .1.005.124.034.031.038.07.167.022.41z" fill="#fff"/></g><defs><clipPath id="clip0"><path fill="#fff" transform="translate(10 10)" d="M0 0h20v20H0z"/></clipPath></defs></svg>