<svg width="16" height="16" fill="none" xmlns="http://www.w3.org/2000/svg"><g clip-path="url(#clip0)"><path d="M15.857 11.578c-.043-.072-.309-.65-1.589-1.838-1.34-1.244-1.16-1.042.454-3.193.983-1.31 1.376-2.11 1.253-2.452-.117-.326-.84-.24-.84-.24l-2.404.014s-.178-.024-.31.055c-.13.078-.213.258-.213.258s-.38 1.014-.889 1.876c-1.071 1.819-1.5 1.915-1.675 1.802-.407-.263-.305-1.058-.305-1.622 0-1.763.267-2.498-.521-2.688-.262-.063-.454-.105-1.123-.112-.858-.01-1.585.003-1.996.204-.274.134-.485.433-.356.45.159.02.519.097.71.357.247.335.238 1.089.238 1.089s.142 2.075-.331 2.333c-.325.177-.77-.184-1.725-1.835-.49-.845-.86-1.78-.86-1.78s-.07-.174-.198-.267c-.154-.113-.37-.15-.37-.15l-2.286.015s-.343.01-.469.159c-.112.133-.009.407-.009.407s1.79 4.187 3.817 6.298c1.859 1.935 3.969 1.808 3.969 1.808h.956s.289-.032.436-.19c.136-.147.13-.42.13-.42s-.018-1.284.578-1.473c.587-.186 1.341 1.24 2.14 1.79.604.414 1.063.323 1.063.323l2.137-.03s1.118-.069.588-.948z" fill="#FDBA61"/></g><defs><clipPath id="clip0"><path fill="#fff" d="M0 0h16v16H0z"/></clipPath></defs></svg>