<svg width="40" height="40" fill="none" xmlns="http://www.w3.org/2000/svg"><circle cx="20" cy="20" r="20" fill="#5D5D5D"/><g clip-path="url(#clip0)" fill="#fff"><path d="M24.59 21.922l-.008.062c-1.833-.913-2.024-1.035-2.261-.68-.164.246-.643.804-.787.969-.146.162-.29.175-.538.062-.25-.125-1.053-.387-2.003-1.237-.74-.663-1.236-1.475-1.383-1.725-.244-.422.267-.482.732-1.362.083-.175.04-.312-.021-.437-.063-.125-.56-1.35-.768-1.838-.2-.487-.406-.425-.56-.425-.48-.042-.831-.035-1.14.287-1.345 1.478-1.006 3.003.145 4.625 2.261 2.96 3.466 3.505 5.67 4.261.595.19 1.137.163 1.566.101.479-.076 1.473-.6 1.68-1.188.213-.588.213-1.075.15-1.188-.061-.112-.225-.175-.475-.287z"/><path d="M27.1 12.874c-6.408-6.195-17.012-1.702-17.016 7.036 0 1.747.458 3.45 1.33 4.954L10 30l5.28-1.376c6.587 3.558 14.717-1.167 14.72-8.708a9.828 9.828 0 00-2.913-7.009l.013-.032zm1.235 7.014c-.005 6.36-6.988 10.333-12.51 7.086l-.3-.178-3.125.813.838-3.038-.2-.312c-3.436-5.471.512-12.621 7.022-12.621 2.212 0 4.288.862 5.85 2.425a8.157 8.157 0 012.425 5.825z"/></g><defs><clipPath id="clip0"><path fill="#fff" transform="translate(10 10)" d="M0 0h20v20H0z"/></clipPath></defs></svg>