<svg width="158" height="65" viewBox="0 0 158 65" fill="none" xmlns="http://www.w3.org/2000/svg">
<path d="M81.7078 43.2373C95.9366 43.2284 107 43.1583 107 43.073C107 43.0182 102.46 42.859 95.4583 42.7379C95.2282 42.7239 94.9968 42.7099 94.7679 42.6844C94.1122 42.6131 93.8319 42.3431 93.8152 41.766C93.7985 41.1889 93.8049 41.2348 93.7843 40.6475C93.7728 40.2819 93.7573 39.9253 94.1958 39.6463L93.7998 39.6055V38.096C94.1045 37.947 94.3835 37.7903 94.7448 37.8998C94.8301 37.905 94.9156 37.892 94.9955 37.8616L95.6203 37.7342C95.7053 37.4986 95.7651 37.2548 95.799 37.0069L96.0292 37.2897L96.5614 37.3202C96.5756 37.2807 96.5923 37.2247 96.618 37.1495L96.9909 37.2476L97.4524 36.9508C97.2165 36.8741 96.976 36.8115 96.7324 36.7636C96.5203 36.733 96.2362 36.826 96.0986 36.733C95.9379 36.626 95.8839 36.3801 95.8196 36.1865C95.7974 36.0534 95.7948 35.9178 95.8119 35.784C96.2927 35.8999 96.5833 35.7254 96.8559 35.3916C96.4406 35.4489 96.0844 35.5929 95.6769 35.4693C95.871 35.375 96.0626 35.2795 96.3197 35.1572L95.7553 34.8833C96.1834 34.6744 96.3827 34.9725 96.5846 35.063L97.2351 34.6489L96.0022 34.249C95.9687 34.0732 95.9405 33.9305 95.9109 33.7713L96.231 33.6961C96.2194 33.5687 96.2079 33.4413 96.2002 33.3649C96.3287 33.3827 96.4457 33.4069 96.5602 33.4133C96.6322 33.4133 96.7106 33.3687 96.7774 33.3802C97.0976 33.4324 97.0963 33.4362 97.3406 33.2528L96.8353 33.1624L97.1824 32.6898C96.7672 32.835 96.6142 32.4566 96.2259 32.3216L96.582 32.1598C96.5589 32.1293 96.5357 32.1012 96.5113 32.0707C96.3956 32.0796 96.2786 32.0859 96.1629 32.0961C95.979 32.1127 95.7965 32.0859 95.7219 31.9293C95.6473 31.7726 95.7669 31.6541 95.9263 31.5637C96.1092 31.4607 96.2627 31.3134 96.3724 31.1356C96.1423 31.1917 95.9649 31.3611 95.7772 31.1446C95.7553 31.1204 95.6589 31.1356 95.5997 31.1446C95.4506 31.1662 95.3027 31.1968 95.1382 31.2261C95.012 31.0797 94.8992 30.9224 94.8013 30.756C94.7152 30.579 94.8708 30.4439 95.0649 30.5408C95.3426 30.6809 95.4763 30.4974 95.6486 30.4045C95.7471 30.3536 95.8287 30.2758 95.8839 30.1803C96.0125 29.9255 96.2914 29.7497 96.3159 29.3956C96.201 29.4547 96.0815 29.5046 95.9585 29.5446C95.8643 29.5786 95.7618 29.5826 95.6653 29.5561C95.5153 29.4957 95.3857 29.3946 95.2912 29.2643C95.2179 29.1242 95.1626 28.8644 95.2449 28.7968C95.502 28.5943 95.4159 28.1854 95.835 28.0937C95.875 28.0764 95.91 28.0494 95.9365 28.015C95.963 27.9807 95.9803 27.9403 95.9867 27.8975C95.9765 27.7255 95.808 27.8223 95.7065 27.8007C95.6807 27.7943 95.6615 27.7637 95.6383 27.7421C95.6165 27.5421 96.0009 27.5077 95.9019 27.2058C95.4699 27.5166 95.0868 27.858 94.5069 27.7421C94.3539 27.4364 94.7718 27.5319 94.8399 27.3434L94.5532 27.1103C95.0482 26.8351 95.0482 26.8351 94.9132 26.4351L95.1626 26.202C95.0542 26.1565 94.9546 26.0927 94.8682 26.0135C94.6895 25.7778 94.539 25.5256 94.4143 25.3332C94.4388 25.03 94.4606 24.7765 94.4812 24.5358H94.1675C94.0248 24.1982 93.8898 23.8797 93.7098 23.4568C93.6223 23.7931 93.6121 24.0466 93.4899 24.2479C93.3678 24.4492 93.1338 24.5918 92.9435 24.7651C93.2174 25.0199 92.8394 25.2313 92.8985 25.4746L92.5539 25.5421C92.6426 25.7052 92.9756 25.7434 92.8496 26.0173C92.5346 26.1319 92.2287 26.0453 91.9137 25.9485C91.991 26.0327 92.0797 26.106 92.1772 26.1663C92.2724 26.2351 92.4344 26.2631 92.3778 26.4364L92.0101 26.4555C92.1734 26.6771 92.5334 26.6071 92.6876 26.8822H92.0217C92.0062 26.9829 92.0217 27.0861 91.9818 27.1039C91.9188 27.1345 91.7787 27.1383 91.7465 27.1039C91.6709 27.0031 91.607 26.8941 91.5562 26.7791C91.2657 26.7918 91.2657 26.7918 91.0805 26.5842L91.2579 26.4912L90.4171 26.1141C90.6318 25.8733 90.8028 25.6402 91.1538 25.6046C91.1809 25.5945 91.2046 25.5774 91.2225 25.5549C91.2405 25.5325 91.2518 25.5056 91.2554 25.4772C91.2284 25.2899 91.3942 25.2542 91.5254 25.1956C91.6565 25.137 91.8185 25.0823 91.9651 25.0262C91.4405 24.9638 90.9365 25.202 90.403 25.0262C90.5752 24.6224 91.0458 24.8874 91.2875 24.6441C91.1872 24.546 91.096 24.4581 91.0085 24.3702C91.1062 24.2364 91.186 24.1256 91.2657 24.0161L91.2078 23.9753L90.6935 24.2301C90.6485 24.1027 90.565 23.9969 90.5945 23.9256C90.6858 23.7496 90.7879 23.5795 90.9005 23.4161C90.935 23.3438 90.9634 23.2688 90.9854 23.1919C90.898 23.1919 90.8568 23.1919 90.8324 23.2021C90.4094 23.5435 89.8745 23.6963 89.3487 23.853C89.1831 23.8941 89.0107 23.9014 88.8421 23.8747C88.7753 23.867 88.7136 23.7626 88.675 23.6899C88.666 23.6708 88.7766 23.5906 88.846 23.5626C88.9489 23.5358 89.0538 23.5174 89.1597 23.5078C88.9026 23.4301 88.774 23.3014 88.8768 23.0874C88.9742 22.928 89.0875 22.7786 89.215 22.6416L89.4876 22.9282C89.8604 22.9154 89.566 22.6849 89.71 22.5651C89.9671 22.704 90.1895 22.467 90.475 22.5333C90.4981 22.3702 90.5148 22.2428 90.5405 22.062C89.9208 22.1588 89.4541 22.5142 88.8691 22.5549C88.9116 22.1269 88.9733 22.0747 89.6611 21.8505C89.4194 21.5473 89.4194 21.5473 89.7897 21.1346L89.4323 20.8798C89.818 20.6951 90.2898 20.6671 90.3875 20.1372C90.1188 20.211 89.908 20.2543 89.7125 20.3257C89.3963 20.4391 89.0838 20.5078 88.7534 20.4085C88.774 20.2276 89.0903 20.3715 89.053 20.1372C89.053 20.104 89.2908 20.0403 89.4194 19.9907C89.4091 19.9575 89.4001 19.9257 89.3924 19.8938L88.0489 20.0289C88.1916 19.7894 88.4243 19.7741 88.6158 19.6977C88.8074 19.6212 89.1108 19.6709 89.2201 19.3614L88.5593 19.4773C88.477 19.1818 88.7663 19.1346 88.9566 18.9971C88.6506 18.6888 88.2353 18.9627 87.928 18.7932C87.928 18.7397 87.8817 18.6658 87.9113 18.6289C88.09 18.4442 88.2841 18.271 88.4731 18.0926C88.1877 18.1627 87.9589 18.0748 87.7236 17.9448L88.1414 17.4621L87.685 17.6098C87.4921 17.3194 87.793 17.1945 87.955 16.9907L87.4729 16.8914C87.4459 16.7347 87.4227 16.5971 87.3944 16.4366L87.2119 16.6124C86.9766 16.4098 87.028 16.1755 86.9792 15.9589C86.9303 15.7423 86.8017 15.55 86.677 15.2799C86.6153 15.4073 86.5832 15.4748 86.5562 15.5347C86.4752 15.7322 86.299 15.9436 86.3376 16.127C86.3839 16.3946 86.0805 16.5092 86.0946 16.736C86.0946 16.7971 85.966 16.8633 85.9017 16.9245C85.4903 16.5805 86.0573 16.4239 86.0303 16.1258C85.5846 16.4368 85.0756 16.6473 84.5389 16.7423C84.4811 16.5105 84.7305 16.2927 84.4965 16.057C84.3872 16.299 84.2201 16.536 83.9591 16.4608C83.7212 16.392 83.6633 16.471 83.5515 16.5882C83.4858 16.6319 83.4132 16.6646 83.3368 16.685C83.2892 16.5971 83.2545 16.536 83.2198 16.471C83.0526 16.5984 82.8958 16.7793 82.6657 16.4888L83.2712 16.0137C82.9652 15.9028 82.6605 16.3462 82.4149 15.9691C82.2388 15.699 82.1668 15.4264 82.4355 15.1334H82.8534L83.1259 15.5767C83.3021 15.457 83.2854 15.2532 83.5206 15.2672C83.6708 15.2784 83.8204 15.2393 83.9454 15.1561C84.0703 15.073 84.1635 14.9506 84.2098 14.8086C84.3126 14.5538 84.5132 14.4264 84.7742 14.3398C84.8479 14.3129 84.92 14.2818 84.9902 14.2468C84.9066 13.7182 84.9066 13.7182 85.4453 13.7373C85.2743 13.4456 85.2795 13.3959 85.5032 13.2074C85.813 12.9526 85.813 12.9526 85.4286 12.6978C84.9529 12.8762 84.4939 13.1602 83.8858 13.0621C83.9295 12.8953 83.9681 12.7462 84.0143 12.5526C83.7315 12.7551 83.7058 12.7513 83.4024 12.508C83.1542 12.3093 83.1658 12.2456 83.5219 11.8252L83.0256 11.3768L83.6556 11.215C83.7842 10.9921 83.3689 10.8112 83.6158 10.5679L84.1121 10.6749L83.8253 10.1208H84.7253C84.6392 10.01 84.562 9.90807 84.4386 9.75139L85.1689 9.66476C85.0146 9.53738 84.6829 9.51572 84.8513 9.22656L85.1239 9.27369C85.0069 8.9272 85.4492 8.9221 85.543 8.67498C85.1663 9.00236 84.5081 8.84695 84.2573 9.33611C83.9141 9.10299 83.9089 9.05076 84.1828 8.88134C84.2355 8.84949 84.3332 8.80491 84.3281 8.78453C84.2651 8.56288 84.4502 8.49918 84.6122 8.4202C84.823 8.31957 84.7626 8.15524 84.6932 8.00238L85.0442 7.9769C84.6045 7.82531 84.2728 7.99983 84.0041 8.25842C83.6852 8.59038 83.2784 8.82658 82.8302 8.93994C82.4298 9.00844 82.0259 9.05564 81.6204 9.08134C81.5972 9.08134 81.569 9.04694 81.4918 8.99217C81.6744 8.83039 81.5792 8.61893 81.5612 8.43676L82.3121 8.50428C82.4407 8.20747 82.5371 7.96798 82.6515 7.69156C82.5049 7.73742 82.3532 7.782 82.2015 7.83168C81.8724 7.94123 81.7284 7.88646 81.5998 7.59729L82.6811 7.38838C82.6657 7.23806 82.6528 7.12596 82.6412 7.01641L82.9408 6.95654C82.7621 6.74381 82.6027 6.55655 82.4484 6.37566L82.7377 5.96803L83.5746 5.76676C83.3175 5.63937 83.0076 5.87249 82.8868 5.56804C82.8251 5.54728 82.7579 5.54955 82.6978 5.5744C82.5949 5.64829 82.4947 5.65084 82.4484 5.55402C82.4301 5.47209 82.4443 5.38631 82.4882 5.31454C82.5859 5.09926 82.6978 4.88652 82.8302 4.62156L82.1424 4.69417C82.0268 4.62532 81.9202 4.54276 81.8248 4.44831C81.7662 4.33022 81.723 4.20523 81.6962 4.07635C81.3491 3.85597 81.344 3.82158 81.6654 3.5668C81.4867 3.20121 81.4944 3.18465 81.8865 3.04707C81.9611 3.01904 82.0151 2.94261 82.1167 2.85089C81.9444 2.80631 81.8222 2.73497 81.731 2.75918C81.4288 2.83816 81.4327 2.85089 81.2334 2.59612C81.326 2.58466 81.4391 2.59612 81.4635 2.56173C81.5918 2.36728 81.7094 2.16615 81.8158 1.95919C81.8248 1.94391 81.7605 1.88149 81.722 1.87257C81.6983 1.86988 81.6743 1.87274 81.652 1.88093C81.6297 1.88912 81.6096 1.9024 81.5934 1.9197C81.5747 1.97699 81.5643 2.0366 81.5625 2.09677L80.7255 1.99868C80.7718 1.77958 80.8014 1.56939 80.4941 1.43946C80.3655 1.38596 80.4157 1.23055 80.5468 1.13501C80.5893 1.10316 80.5995 1.03565 80.6201 0.991062L80.21 0.806352C80.2318 0.199996 80.1791 0.0891701 79.8191 0C79.6751 0.295535 79.4424 0.585975 79.409 0.891701C79.3668 1.21865 79.2958 1.54132 79.1968 1.85601C78.8459 1.78977 78.9127 1.56557 78.8999 1.3401C78.806 1.57194 78.6003 1.72226 78.7456 1.97703C78.7893 2.05473 78.6594 2.2318 78.5746 2.33753C78.4601 2.48402 78.3406 2.32097 78.2249 2.3197C78.1003 2.33525 77.9789 2.36962 77.8649 2.4216C77.9253 2.71841 78.2351 2.74771 78.4486 2.85854L78.2969 3.12605L78.518 3.29675C78.3997 3.38082 78.3123 3.44324 78.2789 3.4649L77.6437 3.19102C77.6784 3.32732 77.7852 3.37827 77.8456 3.45598C77.8884 3.5325 77.918 3.61561 77.933 3.70183L78.3534 3.82158C78.2776 3.92985 78.2467 4.03686 78.176 4.06361C77.9521 4.16045 77.7052 4.1927 77.4637 4.15665C77.2221 4.12059 76.9957 4.01769 76.8106 3.85979C76.8106 3.97444 76.8312 4.11456 76.8736 4.11456C77.1565 4.15278 77.1423 4.55532 77.4984 4.49672C77.5216 4.49672 77.5614 4.59481 77.6039 4.63812C77.6491 4.68632 77.7038 4.72489 77.7646 4.75149C77.8153 4.7652 77.8624 4.78948 77.9028 4.82269C77.9433 4.8559 77.9761 4.89728 77.9991 4.94407C78.0221 4.99086 78.0348 5.04198 78.0362 5.094C78.0377 5.14603 78.0279 5.19776 78.0076 5.24575C77.9484 5.42027 77.7993 5.48396 77.555 5.39479C77.408 5.32553 77.2412 5.30887 77.0832 5.34766C76.9006 5.38969 76.6705 5.2725 76.4596 5.22664C76.2179 5.17441 76.0983 5.0241 76.0829 4.76168C75.9389 4.95021 75.8438 5.07378 75.7409 5.21135C75.8438 5.31326 75.9428 5.4139 76.034 5.50689L76.4982 5.35785C76.4172 5.53109 76.3696 5.61262 76.3387 5.70561C76.3337 5.7453 76.3367 5.7856 76.3477 5.82408L76.709 5.75911C76.8376 5.84828 76.7257 6.10688 77.0112 6.05465C77.0202 6.05465 77.087 6.16547 77.0677 6.19732C77.0343 6.25337 76.9469 6.32471 76.8955 6.32471C76.7103 6.29796 76.5316 6.24063 76.3516 6.19732C76.196 6.16038 76.0392 6.12726 75.8708 6.09032C75.8425 6.48649 76.268 6.37821 76.3927 6.55273C76.5457 6.76546 76.9327 6.57566 76.9829 6.82279L77.3454 6.75527L77.4059 6.83935L77.1256 7.17947C76.6614 7.02978 76.1775 6.94823 75.6895 6.93743C75.665 7.02278 75.6419 7.10813 75.6136 7.21004L75.8708 7.34507L76.1472 7.15908C76.1652 7.35908 76.1767 7.50048 76.1909 7.64442C76.5432 7.58073 76.5432 7.58073 76.763 7.82022C76.3118 7.90037 75.8471 7.85631 75.4195 7.69283C74.9769 7.49948 74.5024 7.38809 74.0194 7.36418C74.1016 7.4805 74.1734 7.60367 74.2341 7.73232C74.2761 7.87506 74.3075 8.02067 74.3279 8.16798C74.7393 7.98709 74.9232 8.29537 75.1611 8.47243L75.5468 8.34505C75.53 8.51574 75.5185 8.63676 75.5005 8.83421C75.2935 8.74122 75.1675 8.67498 75.0351 8.62784C74.9264 8.589 74.8132 8.56375 74.6982 8.55268C74.6776 8.55268 74.6468 8.66478 74.6159 8.73739L74.9515 8.79217C75.0096 8.92117 75.0835 9.04266 75.1713 9.15395C75.2751 9.238 75.3881 9.31022 75.5082 9.36923C75.6779 9.71444 75.2806 9.85075 75.1675 10.1539C75.602 10.0138 75.8283 10.2622 76.1125 10.3858C76.4365 10.5272 76.448 10.8138 76.6036 11.0494C76.1228 11.1157 75.3102 10.8418 72.7941 9.69916L72.6732 9.9361C72.9304 10.1641 73.2608 10.3488 73.3277 10.6915C73.4105 10.6172 73.5035 10.555 73.6041 10.5068C73.7468 10.4609 73.8998 10.5068 73.9216 10.6533C73.9551 10.8826 73.9512 11.117 73.9679 11.4252C74.0776 11.2918 74.1943 11.1643 74.3176 11.0431C74.3453 11.0273 74.3761 11.0178 74.4078 11.0151C74.4396 11.0125 74.4716 11.0168 74.5015 11.0278C74.5452 11.052 74.5915 11.1399 74.5748 11.1768C74.5229 11.2876 74.453 11.3892 74.3678 11.4775C74.2388 11.5908 74.104 11.6975 73.9641 11.7972C74.2829 11.9017 74.4141 11.7335 74.5465 11.5883C74.6789 11.4431 74.7792 11.2928 74.9103 11.1565C74.9304 11.1303 74.9562 11.1091 74.9859 11.0945C75.0156 11.08 75.0482 11.0724 75.0813 11.0724C75.1145 11.0724 75.1471 11.08 75.1768 11.0945C75.2065 11.1091 75.2323 11.1303 75.2523 11.1565C75.1996 11.6431 75.1996 11.6431 75.6059 11.7743C75.6959 11.5743 75.7808 11.3603 76.0366 11.2647C76.1055 11.3866 76.1931 11.497 76.2963 11.5921C76.5792 11.7768 76.5252 12.0214 76.4789 12.2571C76.4326 12.4927 76.1768 12.4609 75.9839 12.5004C75.9672 12.5004 75.9582 12.5399 75.9466 12.5615C76.1536 12.6405 76.3143 12.8163 76.5895 12.6953C76.6161 12.6839 76.6455 12.6801 76.6742 12.6842C76.703 12.6884 76.73 12.7004 76.7523 12.7189C76.7745 12.7374 76.7912 12.7617 76.8003 12.789C76.8095 12.8163 76.8108 12.8456 76.8042 12.8736C76.7769 12.9656 76.7399 13.0544 76.6936 13.1386C76.0405 13.1386 75.4195 13.122 74.8563 12.7985C74.6607 12.6731 74.4424 12.5866 74.2135 12.5437C74.1332 12.5398 74.0545 12.5199 73.9821 12.4853C73.9096 12.4508 73.8449 12.4022 73.7918 12.3424C73.5765 12.1186 73.29 11.9751 72.9805 11.9361C73.3444 12.3513 73.5012 12.8838 73.9834 13.1972C73.9272 13.267 73.8749 13.3397 73.8265 13.415C73.6709 13.6774 73.6118 13.694 73.3264 13.5335C73.1978 13.4609 73.0692 13.3781 72.9407 13.3182C72.9047 13.3016 72.8121 13.3424 72.7774 13.3781C72.7568 13.3946 72.7774 13.4889 72.7992 13.4965C73.0371 13.5666 73.0409 13.8328 73.4099 13.9054L72.8198 14.1729C72.8262 14.2876 72.8352 14.4277 72.8417 14.5398C72.9921 14.5564 73.1772 14.5296 73.2865 14.5984C73.4832 14.7258 73.5436 14.4876 73.6722 14.522L74.1158 14.8455C74.0194 15.0417 73.8792 15.1003 73.6555 15.0634C73.0667 14.9768 72.4714 14.9169 71.8838 14.8264C71.7154 14.7997 71.6267 14.8264 71.5624 14.9729C71.8401 15.0723 72.1075 15.1869 72.3865 15.2634C72.5588 15.3105 72.7581 15.3424 72.7722 15.508C72.7825 15.6353 72.6642 15.7627 72.6012 15.8901C72.9484 15.8544 73.2518 16.1551 73.7095 16.0379C73.6658 16.2137 73.6375 16.3296 73.6092 16.4442L74.2289 16.5194C73.9409 16.8188 73.6079 16.8391 73.2557 16.8188L73.4549 17.1576H73.0821C73.0487 17.3143 73.0705 17.4926 72.9805 17.5627C72.8391 17.6722 72.5948 17.6773 72.4495 17.7882C72.3042 17.899 72.2811 18.1257 72.0111 18.192C71.8163 18.2424 71.6176 18.2769 71.4171 18.2952C71.406 18.2858 71.398 18.2734 71.394 18.2595C71.3464 18.0238 71.1137 17.9499 70.9543 17.8162L71.5122 17.1971H71.0378C71.0738 17.1576 71.106 17.1181 71.1355 17.0799C71.0618 17.0413 70.9976 16.9869 70.9478 16.9207H70.9401C70.8733 16.8595 70.7447 16.7933 70.7473 16.7321C70.7588 16.5003 70.4567 16.3907 70.503 16.1232C70.5364 15.9398 70.3667 15.7283 70.2844 15.5309C70.2574 15.4659 70.2266 15.4035 70.1636 15.2761C70.035 15.5462 69.9064 15.7436 69.8614 15.9551C69.8164 16.1665 69.8614 16.406 69.6287 16.6086L69.4461 16.4328C69.4179 16.5933 69.3947 16.7309 69.3677 16.8875L68.8856 16.9869C69.0476 17.1907 69.3484 17.3156 69.1556 17.606L68.7004 17.4582C68.8611 17.6455 68.9781 17.7818 69.117 17.941C68.8766 18.0684 68.6529 18.1589 68.3687 18.0888C68.5564 18.2671 68.7544 18.4404 68.9293 18.6251C68.9589 18.6557 68.919 18.7359 68.9139 18.7894C68.6014 18.9588 68.1862 18.685 67.8853 18.9932C68.0743 19.1308 68.3649 19.1779 68.2826 19.4735L67.6205 19.3576C67.731 19.6671 68.0242 19.6123 68.2247 19.6939C68.4253 19.7754 68.6503 19.7856 68.7917 20.0251L67.4495 19.89C67.4405 19.9219 67.4315 19.9537 67.4212 19.9868C67.5497 20.0365 67.7927 20.1002 67.7876 20.1333C67.7503 20.3677 68.0666 20.2238 68.0872 20.4047C67.7567 20.504 67.4443 20.4352 67.1293 20.3219C66.9326 20.2505 66.723 20.2072 66.453 20.1333C66.5508 20.6633 67.0213 20.6913 67.4083 20.876L67.0522 21.1308C67.416 21.5435 67.416 21.5435 67.1807 21.8467C67.8686 22.0709 67.9303 22.1231 67.974 22.5511C67.3903 22.5104 66.9236 22.1549 66.3026 22.0581C66.3283 22.239 66.345 22.3664 66.3695 22.5295C66.6549 22.4632 66.8773 22.7002 67.1332 22.5613C67.2772 22.681 66.9827 22.9116 67.3556 22.9244L67.6282 22.6377C67.756 22.7748 67.8697 22.9241 67.9676 23.0836C68.0717 23.2976 67.9406 23.4263 67.6834 23.504C67.7898 23.5138 67.8951 23.5322 67.9984 23.5587C68.0666 23.5817 68.1772 23.6619 68.1682 23.6861C68.1347 23.7587 68.0679 23.8632 68.001 23.8708C67.8324 23.8976 67.6601 23.8902 67.4945 23.8492C66.9686 23.6925 66.4338 23.5396 66.012 23.1982C65.9928 23.1829 65.9452 23.1982 65.8578 23.188C65.8804 23.2648 65.9087 23.3397 65.9426 23.4122C66.0552 23.5756 66.1574 23.7458 66.2486 23.9218C66.2782 23.9931 66.1946 24.0989 66.1496 24.2262L65.6353 23.9715L65.5762 24.0122L65.8333 24.3664L65.5531 24.6402C65.7986 24.8861 66.2653 24.6211 66.4376 25.0224C65.9079 25.1995 65.4001 24.9613 64.8755 25.0224C65.0221 25.0784 65.1725 25.1294 65.3152 25.1918C65.4579 25.2542 65.6122 25.2861 65.5852 25.4733C65.589 25.5018 65.6006 25.5288 65.6187 25.5512C65.6369 25.5737 65.6608 25.5908 65.6881 25.6007C66.039 25.6377 66.2088 25.8708 66.4248 26.1103L65.5903 26.481L65.7665 26.574C65.5813 26.7816 65.5813 26.7816 65.2908 26.7689C65.24 26.8839 65.1761 26.9929 65.1005 27.0937C65.0683 27.1306 64.9295 27.1268 64.8652 27.0937C64.8266 27.0759 64.8408 26.9663 64.8253 26.872H64.1606C64.3136 26.5969 64.6749 26.667 64.8382 26.4453L64.4692 26.4262C64.4075 26.2529 64.5746 26.2249 64.6711 26.1561C64.7664 26.0954 64.8529 26.0221 64.9282 25.9383C64.6132 26.0351 64.3072 26.1217 63.9922 26.0071C63.8636 25.7332 64.2005 25.695 64.2879 25.5319L63.9434 25.4644C64.0025 25.2211 63.6245 25.0084 63.8984 24.7549C63.7081 24.5816 63.4741 24.4364 63.3519 24.2377C63.2298 24.039 63.2234 23.7829 63.1334 23.4466L62.668 24.5358H62.3478C62.3684 24.7765 62.389 25.03 62.4134 25.3332C62.2848 25.5256 62.1382 25.7778 61.9595 26.0135C61.8736 26.0927 61.7744 26.1565 61.6664 26.202C61.7333 26.2644 61.8284 26.3549 61.9158 26.4351C61.7795 26.8351 61.7795 26.8351 62.2758 27.1103L61.9891 27.3408C62.0585 27.5294 62.4751 27.4338 62.3221 27.7395C61.7435 27.8555 61.3591 27.5141 60.9284 27.2032C60.8281 27.5052 61.2125 27.5395 61.192 27.7395C61.1675 27.7612 61.1495 27.7918 61.1225 27.7981C61.021 27.8198 60.8526 27.723 60.8436 27.895C60.8494 27.9381 60.8666 27.979 60.8934 28.0134C60.9203 28.0479 60.9559 28.0747 60.9965 28.0911C61.4157 28.1828 61.3321 28.5918 61.5854 28.7943C61.669 28.8618 61.6137 29.1217 61.5404 29.2618C61.4457 29.3913 61.3166 29.4922 61.1675 29.5535C61.071 29.58 60.9685 29.576 60.8744 29.5421C60.751 29.5021 60.631 29.4522 60.5157 29.393C60.5414 29.7471 60.8243 29.9293 60.9477 30.1777C61.0028 30.2732 61.0845 30.351 61.183 30.4019C61.3553 30.4949 61.4903 30.6783 61.7667 30.5382C61.9608 30.4414 62.1164 30.5764 62.0315 30.7535C61.9327 30.9195 61.8196 31.0768 61.6934 31.2235C61.5288 31.1942 61.381 31.1637 61.2318 31.142C61.1727 31.1331 61.0763 31.1178 61.0544 31.142C60.8667 31.3586 60.6893 31.1891 60.4591 31.1331C60.5689 31.3109 60.7224 31.4581 60.9053 31.5611C61.066 31.6516 61.1894 31.7637 61.1097 31.9267C61.03 32.0898 60.8526 32.1101 60.6687 32.0936C60.553 32.0834 60.4373 32.077 60.3203 32.0681L60.2496 32.1573L60.6108 32.3191C60.2251 32.4541 60.0683 32.8286 59.653 32.6872L60.0001 33.1598L59.4949 33.2503C59.7404 33.4324 59.7391 33.4286 60.058 33.3776C60.1261 33.3662 60.2033 33.4133 60.2753 33.4108C60.3897 33.4108 60.5041 33.3802 60.6353 33.3624C60.6353 33.4388 60.6173 33.5649 60.6057 33.6936L60.9258 33.7687C60.895 33.9279 60.8667 34.0706 60.8346 34.2464L59.5964 34.6489L60.2483 35.063C60.4488 34.9725 60.6481 34.6744 61.0763 34.8833L60.5118 35.1585C60.769 35.2859 60.9606 35.3763 61.1547 35.4706C60.751 35.598 60.391 35.4502 59.9757 35.3929C60.2457 35.7266 60.5388 35.9024 61.0197 35.7852C61.0375 35.919 61.0349 36.0547 61.012 36.1878C60.9477 36.3814 60.895 36.6273 60.733 36.7343C60.5954 36.8272 60.3126 36.7343 60.1004 36.7648C59.8566 36.8093 59.6157 36.8684 59.3791 36.9419L59.8394 37.2438L60.2123 37.1457C60.2367 37.2209 60.256 37.2731 60.2688 37.3164L60.8024 37.2858L61.0313 37.003C61.0649 37.2512 61.1253 37.495 61.2113 37.7304L61.8348 37.8578C61.9167 37.8891 62.0045 37.9021 62.092 37.896C62.4532 37.7865 62.7348 37.9431 63.0369 38.0922V39.6017L62.6422 39.6425C63.0794 39.9215 63.0639 40.2794 63.0524 40.6437C63.0318 41.231 63.0395 41.1736 63.0215 41.7622C63.0035 42.3507 62.7245 42.6093 62.0688 42.6806C61.8117 42.7086 61.5661 42.7239 61.3141 42.7392C54.4446 42.859 50 43.0157 50 43.0692C50 43.1609 62.7592 43.2348 78.5 43.2348H81.7142L81.7078 43.2373ZM83.0051 12.8163C83.1452 12.6252 83.3291 12.6252 83.5682 12.7857L83.4654 13.2035C83.3543 13.2372 83.2381 13.2514 83.1221 13.2456C82.9678 13.2137 82.9035 12.9551 83.0051 12.8163ZM92.0525 31.5993C92.2814 31.5344 92.5308 31.5471 92.6799 31.3255C92.7134 31.2745 92.8882 31.2949 93.0258 31.2796C92.9165 31.8057 92.3534 31.7624 91.9805 32.007C91.8211 31.7981 91.8764 31.6503 92.0525 31.5993ZM88.5233 26.5294C88.8871 26.2631 89.1661 26.5434 89.4773 26.6211C89.4901 26.6708 89.5145 26.709 89.5017 26.7281C89.215 27.2224 89.2188 27.2134 88.6454 26.9727C88.2597 26.8109 87.847 26.6873 87.5963 26.2657C87.9383 26.3383 88.2944 26.1587 88.5233 26.5294ZM89.0247 30.8936C88.7033 30.9433 88.4449 31.1114 88.1157 31.0121C88.1041 30.7573 88.2983 30.7573 88.4809 30.7153C88.6878 30.6694 88.8704 30.6503 89.0247 30.8936ZM87.784 35.668C88.0849 35.491 88.5644 35.4018 88.5747 34.8591C88.9103 35.2196 89.4426 35.1075 89.6483 35.4871C89.7035 35.5865 89.7768 35.7317 89.7357 35.8043C89.6945 35.8769 89.5094 35.8961 89.3834 35.9062C89.2117 35.91 89.04 35.9032 88.8691 35.8859L89.2548 36.2069C89.0093 36.3699 88.7894 36.5037 88.5863 36.6553C88.3831 36.8069 88.3471 37.0553 88.3291 37.254L88.9463 37.5712L89.2266 37.4209C89.5557 37.6667 89.1828 37.7826 89.107 37.9916C89.5004 38.0616 89.8373 38.2068 90.223 37.9024C90.4888 37.7007 90.8243 37.6114 91.1564 37.654C91.1924 37.7814 91.2284 37.9088 91.285 38.0909C91.4032 38.0107 91.5035 37.947 91.5999 37.8807C91.6976 37.8002 91.8012 37.727 91.9098 37.6616C92.0608 37.5736 92.2373 37.5383 92.4109 37.5614C92.5846 37.5845 92.7454 37.6647 92.8676 37.789C92.9962 37.9088 93.2791 37.9164 93.2534 38.1572C93.2276 38.3979 93.3189 38.6552 93.0515 38.7801C93.1158 38.9724 93.2225 39.1469 93.2225 39.3215C93.2225 40.3597 93.1878 40.7533 93.1916 41.794C93.1916 42.0997 93.0052 42.3036 92.8059 42.4959C92.7098 42.5612 92.5943 42.5921 92.4781 42.5838C91.2232 42.5583 89.9671 42.5405 88.7136 42.487C88.4366 42.4864 88.1685 42.3902 87.9554 42.2149C87.7423 42.0396 87.5976 41.7962 87.5462 41.5265C87.5282 41.4386 87.5256 41.3456 87.4999 41.259C87.361 40.7953 87.4999 41.0463 87.8727 40.7227C87.8496 40.5737 87.8303 40.4399 87.8084 40.2883L87.4459 40.203C87.4239 40.0765 87.4093 39.9489 87.4022 39.8208C87.4022 38.6157 87.4022 37.4107 87.3944 36.2069C87.388 35.9432 87.5166 35.8298 87.784 35.668ZM84.3666 17.7194C84.4103 17.4964 84.5839 17.4735 84.7729 17.4035C85.1676 17.2544 85.174 17.2187 85.2113 16.7818C85.5315 16.7729 85.606 16.992 85.7937 17.1958H85.3168L85.8747 17.8149C85.7166 17.9487 85.4826 18.0225 85.435 18.2582C85.4209 18.3308 85.2216 18.3856 85.0956 18.4238C84.924 18.4665 84.7502 18.4997 84.5749 18.5232C84.5642 18.4784 84.5447 18.4362 84.5173 18.399C84.4899 18.3619 84.4554 18.3305 84.4156 18.3068C84.3758 18.2831 84.3317 18.2674 84.2857 18.2608C84.2398 18.2542 84.193 18.2568 84.1481 18.2684C84.0838 18.0225 84.3319 17.9015 84.3666 17.7245V17.7194ZM84.814 32.7764C84.5711 33.1802 84.2098 32.5624 83.9282 32.9866V32.4643L84.2921 32.607L84.5891 32.3598C84.6713 32.5165 84.7433 32.649 84.814 32.7815V32.7764ZM84.1571 22.3651C84.0491 22.5231 83.9693 22.6517 83.8755 22.7715C83.8326 22.8346 83.7711 22.8831 83.6993 22.9103C83.4229 22.9893 83.1426 23.0505 82.8636 23.1193C82.9819 22.4798 83.4435 22.1995 84.1571 22.3702V22.3651ZM82.9549 26.4415C83.0411 26.43 83.1336 26.3943 83.1619 26.4185C83.3238 26.543 83.4713 26.6848 83.6016 26.8415C83.6904 26.9587 83.6081 27.0848 83.4576 27.1243C83.3347 27.1696 83.2013 27.1792 83.073 27.1519C82.9447 27.1246 82.8271 27.0615 82.7338 26.9701L83.0925 26.7306C83.0526 26.6517 83.0089 26.5599 82.9549 26.444V26.4415ZM82.4818 20.7244C82.6952 20.6149 82.9164 20.6773 83.1246 20.732C83.2725 20.7715 83.3406 20.9002 83.1658 20.9868C82.9318 21.104 83.2686 21.1231 83.1388 21.2696H82.1565C82.3687 21.1193 82.2337 20.8531 82.4818 20.727V20.7244ZM81.7927 10.4061C81.8762 10.4444 81.9829 10.4597 81.9997 10.5042C82.0897 10.7182 82.0318 10.9042 81.8287 11.108L81.56 10.8851C81.6371 10.7323 81.7091 10.587 81.7927 10.4138V10.4061ZM81.3118 24.546C81.4427 24.5672 81.5656 24.622 81.6685 24.7049C81.7713 24.7878 81.8505 24.896 81.8981 25.0186C81.641 25.1116 81.407 25.109 81.2308 24.9307C81.0855 24.7957 81.2102 24.6734 81.3105 24.5574L81.3118 24.546ZM80.138 31.593C80.1477 31.5464 80.1628 31.5011 80.183 31.4579L80.7615 31.528C80.8553 31.4084 80.9599 31.2976 81.074 31.1968C81.1858 31.1153 81.2977 31.1344 81.4417 31.2121C81.6242 31.2955 81.8209 31.3443 82.0215 31.356C82.1784 31.3739 82.3005 31.356 82.3905 31.5267C82.4574 31.6477 82.7068 31.5955 82.8097 31.4121C82.8226 31.3773 82.8442 31.3464 82.8724 31.3221C82.9006 31.2978 82.9345 31.281 82.971 31.2731C83.0075 31.2652 83.0455 31.2666 83.0813 31.2771C83.1171 31.2876 83.1497 31.3068 83.1761 31.3331C83.3496 31.4605 83.1761 31.5318 83.0706 31.5968C83.1992 31.9547 83.8035 31.7866 83.9269 32.1968L82.3455 32.0082C82.6914 32.5445 83.0706 32.6936 83.7084 32.5012C83.7263 32.7891 83.9321 33.0439 83.5618 33.2541C83.4885 33.2961 83.5245 33.4961 83.5232 33.6222C83.5232 33.8592 83.2802 34.0834 83.1375 33.9662C82.8405 33.728 82.5512 33.9254 82.2761 33.9178C82.0009 33.9101 81.722 34.0834 81.4082 34.1904L82.1077 34.5661L82.6759 34.426V34.9266C82.9331 34.5598 83.2056 34.6247 83.4615 34.7903C83.6544 34.6311 83.5001 34.3139 83.9076 34.2744C83.8382 34.6566 83.8125 35.0387 84.1532 35.3903C84.2149 35.2872 84.2548 35.2171 84.3191 35.1075C84.5016 35.2426 84.6559 35.4094 84.8552 35.4897C85.0275 35.5598 85.2756 35.4897 85.3412 35.7445L85.939 35.64C86.0895 35.7368 86.2347 35.8209 86.3646 35.9203C86.4739 36.0056 86.641 36.1062 86.6513 36.2081C86.7033 36.7845 86.6599 37.3654 86.5227 37.9279L86.0239 37.775C86.092 37.947 86.1023 38.0705 86.1782 38.1444C86.3291 38.287 86.4435 38.4632 86.5119 38.6584C86.5803 38.8536 86.6008 39.0621 86.5716 39.2667C86.488 40.2272 86.425 40.5405 86.3659 41.5049C86.3427 41.8959 86.0239 42.1252 85.7436 42.3507C85.6086 42.459 85.3348 42.4628 85.1226 42.4653C84.3512 42.4768 83.5734 42.4437 82.8007 42.4653C82.2864 42.4845 81.8171 42.3685 81.3285 42.2997C81.2612 42.296 81.1965 42.273 81.1421 42.2335C80.6278 41.6972 80.0955 41.8513 80.1547 41.0399C80.2293 40.0348 80.1547 39.0234 80.1393 38.0145C80.1393 37.8654 80.1393 37.7164 80.1393 37.5584C80.3745 37.4463 80.5828 37.3444 80.7898 37.2438C80.8996 37.2083 81.0026 37.155 81.0945 37.0858C81.1845 36.9903 81.3041 36.8387 81.272 36.7483C81.238 36.6804 81.19 36.6204 81.1311 36.5721C81.0721 36.5238 81.0036 36.4884 80.93 36.468C80.6749 36.4279 80.4167 36.4113 80.1585 36.4183C80.1138 36.2837 80.0824 36.145 80.0647 36.0043C80.0025 34.5375 80.0269 33.0684 80.138 31.6044V31.593ZM78.3894 9.88769C78.3071 10.2571 78.1876 10.3628 77.7569 10.4163C77.924 9.92463 78.0076 9.85966 78.3894 9.88769ZM76.2719 9.00873C76.259 8.84822 76.3657 8.69026 76.5123 8.81383C76.6589 8.93739 76.8016 8.91319 76.9597 8.91828C76.9945 8.91828 77.0266 8.97561 77.0587 9.00618C76.7553 9.24184 76.7553 9.24184 76.2719 9.00873ZM76.8222 13.8698C76.9842 13.7831 77.141 13.7182 77.2734 13.8698C77.33 13.9322 77.357 14.0965 77.3094 14.1373C77.1475 14.2529 76.9754 14.354 76.7952 14.4392C76.6756 14.3513 76.538 14.3029 76.52 14.2277C76.4647 14.0226 76.6589 13.9564 76.8222 13.8698ZM76.682 17.0047C76.6717 17.2022 76.6653 17.3232 76.6602 17.4519C76.9289 17.3245 76.9289 17.3245 77.3223 17.3996V16.9334C77.6514 16.9334 77.9934 17.0824 78.257 16.7117L78.446 17.0098C78.3727 17.0684 78.2891 17.1372 78.2004 17.2022C78.1516 17.2379 78.0462 17.2621 78.0462 17.2926C78.0462 17.606 77.789 17.634 77.5319 17.6812C77.2243 17.7317 76.9333 17.8545 76.6833 18.0391C76.4262 18.2366 76.169 18.2289 75.7833 18.2009L75.9608 17.6098L75.5686 17.7512L75.44 17.5054L76.682 17.0047ZM77.3416 24.3931C76.9083 24.1116 76.9083 24.1116 76.4609 24.1842C76.349 23.881 76.5162 23.6632 76.8466 23.7269C77.1306 23.7975 77.4097 23.886 77.6823 23.9918C77.7106 24.2441 77.5087 24.3052 77.3403 24.388L77.3416 24.3931ZM74.9926 17.5729L75.3783 17.955C75.0646 18.1907 74.7882 18.2837 74.3948 18.113L74.9926 17.5729ZM74.4128 25.1727C74.3819 25.3969 74.3279 25.5612 74.0965 25.6046C73.8921 25.6453 73.6735 25.6606 73.5964 25.3205L74.4128 25.1727ZM72.4842 21.4976L73.2261 21.6441C73.1528 21.7944 73.0975 21.8989 73.0487 22.0021L73.4344 22.1702C73.3521 22.2581 73.3058 22.346 73.2505 22.3575C72.9278 22.4123 72.6347 22.6033 72.2991 22.597C72.2698 22.4371 72.2526 22.2753 72.2477 22.1129C72.3757 21.9281 72.4564 21.7152 72.4829 21.4925L72.4842 21.4976ZM72.2438 32.37L72.5408 32.6171L72.9047 32.4745V32.9929C72.6231 32.5687 72.2618 33.1866 72.0188 32.7827C72.0882 32.649 72.1602 32.5165 72.2425 32.3649L72.2438 32.37ZM70.1867 36.2273C70.1957 36.1254 70.3628 36.0247 70.4734 35.9394C70.584 35.854 70.7485 35.7559 70.8977 35.6591L71.4955 35.7636C71.5611 35.5088 71.8092 35.5763 71.9815 35.5088C72.1808 35.4286 72.3351 35.2617 72.5177 35.1266C72.5819 35.2349 72.6231 35.3063 72.6835 35.4094C73.0242 35.0579 72.9985 34.677 72.9291 34.2935C73.3366 34.333 73.1862 34.6502 73.3765 34.8095C73.6336 34.6439 73.9011 34.5789 74.1608 34.9458V34.4451L74.7291 34.5853L75.4298 34.2095C75.1161 34.1025 74.8345 33.9292 74.5606 33.9369C74.2868 33.9445 73.9962 33.7471 73.6992 33.9853C73.5526 34.1025 73.3135 33.8783 73.3135 33.6413C73.3135 33.5139 73.3482 33.3152 73.2749 33.2732C72.9047 33.063 73.1104 32.8082 73.1284 32.5203C73.7712 32.7127 74.1466 32.5636 74.4912 32.0273L72.9098 32.2159C73.0384 31.8057 73.6426 31.9738 73.7661 31.6159C73.6606 31.5509 73.4884 31.4796 73.6606 31.3522C73.6871 31.326 73.7198 31.3067 73.7557 31.2963C73.7917 31.2858 73.8297 31.2844 73.8662 31.2923C73.9028 31.3002 73.9369 31.317 73.9652 31.3413C73.9935 31.3655 74.0152 31.3964 74.0284 31.4312C74.0587 31.4845 74.1031 31.5285 74.1569 31.5586C74.1569 31.5509 74.1569 31.542 74.1569 31.5318C74.1601 31.5234 74.1654 31.5159 74.1723 31.5102C74.2637 31.3452 74.3453 31.175 74.4166 31.0006L74.4411 31.0401C73.9949 31.8465 73.9949 31.8465 74.0412 32.0312C74.2096 31.928 74.3716 31.7764 74.5671 31.7216C75.0543 31.5942 75.3063 31.2758 75.5339 30.9216C75.566 30.872 75.611 30.8286 75.6625 30.7637C76.034 30.8478 76.376 30.863 76.5933 30.5089C76.6141 30.4817 76.6409 30.4597 76.6717 30.4445C76.7024 30.4293 76.7364 30.4214 76.7707 30.4214C76.8051 30.4214 76.839 30.4293 76.8698 30.4445C76.9006 30.4597 76.9274 30.4817 76.9482 30.5089C77.0767 30.6771 77.2452 30.7191 77.4624 30.7408C77.6099 30.765 77.7436 30.8409 77.8392 30.9548C77.9094 31.0532 78.0006 31.1352 78.1064 31.1948C78.2121 31.2545 78.3298 31.2904 78.4511 31.3C78.7597 31.3267 78.8291 31.4197 78.8369 31.6821C78.8536 32.0732 78.8561 32.4656 78.851 32.8579C78.8287 32.9712 78.792 33.0812 78.7417 33.1853L77.5949 32.6439C77.7029 32.8987 77.7389 33.0808 77.8443 33.2235C78.0319 33.4763 78.2415 33.7124 78.4704 33.9292C78.7276 34.1751 78.8677 34.4298 78.8561 34.7763C78.7636 36.9865 78.6903 39.2004 78.6093 41.4119C78.6093 41.4424 78.6093 40.8272 78.6093 40.8577C78.599 41.4832 77.978 41.7787 77.6399 42.2259C77.6132 42.2464 77.581 42.2588 77.5473 42.2615C77.1282 42.3367 76.7129 42.4641 76.2937 42.473C75.1032 42.4959 73.9126 42.5813 72.7221 42.5405C71.988 42.515 70.5364 42.5507 70.4734 41.5214C70.4143 40.5597 70.3526 40.2476 70.2677 39.2832C70.2388 39.0787 70.2594 38.8702 70.3278 38.6751C70.3962 38.48 70.5105 38.3038 70.6611 38.161C70.737 38.0871 70.7473 37.9635 70.8154 37.7916L70.3166 37.9444C70.1782 37.3813 70.1339 36.7995 70.1854 36.2222L70.1867 36.2273ZM67.3582 26.6262C67.668 26.5485 67.9483 26.2682 68.3122 26.5345C68.541 26.1638 68.8971 26.3434 69.2404 26.2708C68.9833 26.6924 68.577 26.816 68.19 26.9778C67.6179 27.2185 67.6204 27.2325 67.3337 26.7332C67.317 26.709 67.3427 26.6708 67.3543 26.6236L67.3582 26.6262ZM68.7223 31.0172C68.3932 31.1165 68.1347 30.9484 67.8146 30.8987C67.965 30.6554 68.1489 30.6745 68.3584 30.7204C68.5359 30.7535 68.73 30.7611 68.7184 31.0121L68.7223 31.0172ZM64.1555 31.3305C64.3059 31.5522 64.5541 31.5395 64.7829 31.6044C64.9603 31.6554 65.0143 31.8031 64.8549 32.0121C64.4821 31.7675 63.9189 31.8108 63.8096 31.2847C63.9434 31.2949 64.1182 31.2745 64.1516 31.3255L64.1555 31.3305ZM63.9652 37.8043C64.0875 37.6799 64.2483 37.5998 64.4219 37.5767C64.5956 37.5536 64.772 37.5889 64.9231 37.6769C65.0317 37.7423 65.1352 37.8155 65.2329 37.896C65.3306 37.9623 65.4296 38.0234 65.5479 38.1062C65.6006 37.9228 65.6366 37.7979 65.6765 37.6693C66.0085 37.6267 66.3441 37.716 66.6099 37.9177C66.9956 38.2221 67.3325 38.0769 67.7272 38.0068C67.65 37.7979 67.2772 37.682 67.6076 37.4361L67.8866 37.5865L68.5037 37.2693C68.4883 37.0706 68.4652 36.8336 68.2466 36.6706C68.028 36.5075 67.8236 36.3852 67.578 36.2222L67.9637 35.9011C67.7929 35.9184 67.6211 35.9252 67.4495 35.9215C67.3209 35.9113 67.1396 35.8897 67.0985 35.8196C67.0573 35.7496 67.1306 35.6018 67.1846 35.5024C67.3903 35.1203 67.9226 35.2349 68.2582 34.8744C68.2697 35.4171 68.748 35.5113 69.0489 35.6833C69.3163 35.84 69.4461 35.9534 69.4436 36.226C69.4346 37.4298 69.4436 38.6348 69.4359 39.8399C69.4294 39.9681 69.4148 40.0957 69.3921 40.2221L69.0296 40.3074C69.0077 40.459 68.9884 40.5928 68.9666 40.7418C69.3356 41.0654 69.4809 40.8144 69.3394 41.2781C69.3124 41.3647 69.3111 41.4577 69.2919 41.5456C69.2404 41.8151 69.0959 42.0583 68.8831 42.2336C68.6703 42.4089 68.4025 42.5053 68.1257 42.5061C66.8722 42.5596 65.6161 42.5774 64.3599 42.6029C64.2438 42.6113 64.1282 42.5803 64.0321 42.515C63.8315 42.3176 63.6464 42.1189 63.6464 41.8131C63.6464 40.7724 63.6142 40.3788 63.6142 39.3406C63.6142 39.166 63.7222 38.9915 63.7852 38.7992C63.5191 38.6718 63.6117 38.4056 63.5834 38.1763C63.5551 37.947 63.8251 37.9189 63.9614 37.7992L63.9652 37.8043Z" fill="#FDBA61"/>
<path d="M9.63474 52.1777C9.63748 52.4816 9.59803 52.7844 9.51746 53.0778C9.26507 53.1343 9.04278 53.28 8.8931 53.4872C8.63686 53.869 8.4064 54.2669 8.2032 54.6782L5.48499 60.0007C5.20084 60.643 4.77286 61.2143 4.23282 61.6722C3.79881 62.0056 3.26283 62.1856 2.71159 62.1831C2.39264 62.1894 2.07574 62.1318 1.78022 62.014C1.54549 61.9271 1.33591 61.7854 1.16966 61.6012C1.13955 61.4518 1.12452 61.3 1.12481 61.1477C1.1169 60.8424 1.16241 60.538 1.25934 60.2477C1.7369 60.3833 2.23167 60.4516 2.72883 60.4507C3.11124 60.4746 3.49354 60.4024 3.83957 60.2409C4.13376 60.0496 4.37165 59.7859 4.52947 59.4762C3.73609 58.1025 2.79667 56.537 1.71123 54.7797C1.43542 54.3291 1.12887 53.8973 0.793661 53.4872C0.619855 53.2755 0.375613 53.1305 0.103761 53.0778C0.0312773 52.7831 -0.00348564 52.4808 0.000275496 52.1777C0.446411 52.2071 1.15816 52.2217 2.13552 52.2217C3.07378 52.2217 3.79933 52.2071 4.31215 52.1777C4.3208 52.4801 4.29184 52.7823 4.22592 53.0778C4.0405 53.0913 3.85922 53.1383 3.69124 53.2165C3.6412 53.2423 3.5995 53.2814 3.57086 53.3292C3.54221 53.377 3.52775 53.4318 3.52912 53.4872C3.5791 53.7633 3.68975 54.0254 3.85337 54.2553C4.66515 55.5749 5.29296 56.6329 5.7368 57.4291C6.28182 56.4682 6.7958 55.479 7.27873 54.4617C7.40445 54.2217 7.47953 53.9593 7.4995 53.6902C7.50453 53.6148 7.49121 53.5392 7.46062 53.4698C7.43003 53.4004 7.38306 53.3391 7.32357 53.291C7.14935 53.1778 6.95119 53.1049 6.74405 53.0778C6.67209 52.7831 6.63734 52.4808 6.64057 52.1777C7.02691 52.2082 7.52364 52.2217 8.13765 52.2217C8.75167 52.2217 9.27944 52.2082 9.63474 52.1777Z" fill="#FDBA61"/>
<path d="M12.3257 61.5299C11.5894 61.0982 10.9918 60.4721 10.601 59.7231C10.1746 58.9024 9.96132 57.9912 9.98005 57.0703C9.95007 56.1228 10.1889 55.1856 10.67 54.3634C11.1082 53.6385 11.7485 53.0515 12.5154 52.6716C13.289 52.2867 14.1455 52.0894 15.0129 52.0964C16.1438 52.1047 17.2582 52.3638 18.2727 52.8543C18.153 53.5995 18.0988 54.3535 18.1105 55.1078C17.7426 55.2466 17.3483 55.3055 16.9549 55.2804C16.9342 54.448 16.7652 53.857 16.4479 53.5073C16.2739 53.3273 16.0616 53.1869 15.8261 53.0963C15.5907 53.0057 15.3377 52.9669 15.0853 52.9829C14.6743 52.9574 14.264 53.0431 13.8991 53.2304C13.5342 53.4177 13.2286 53.6996 13.0156 54.0453C12.5432 54.8542 12.3114 55.7767 12.3464 56.7083C12.2953 57.8132 12.5941 58.9065 13.2019 59.8381C13.4702 60.2294 13.8369 60.5462 14.2666 60.7578C14.6962 60.9694 15.1743 61.0687 15.6545 61.0461C16.0712 61.0439 16.4852 60.98 16.8825 60.8566C17.3184 60.7277 17.7366 60.547 18.1278 60.3186C18.2174 60.3995 18.291 60.4958 18.3451 60.6028C18.4022 60.7094 18.444 60.8233 18.4693 60.9412C17.4679 61.7702 16.1917 62.2108 14.8818 62.1796C13.9855 62.1941 13.1021 61.9695 12.3257 61.5299Z" fill="#FDBA61"/>
<path d="M29.128 62.0947C28.6543 62.0631 27.9724 62.0485 27.0825 62.0507C26.066 62.0507 25.3347 62.0654 24.8886 62.0947C24.878 61.7902 24.9129 61.4859 24.9921 61.1913C25.1753 61.1628 25.3518 61.102 25.5129 61.0119C25.5648 60.9772 25.6069 60.9301 25.6353 60.875C25.6636 60.82 25.6773 60.7589 25.6751 60.6973C25.6456 60.4808 25.5803 60.2705 25.4819 60.0747L25.137 59.2863C23.8215 59.2863 22.6165 59.3212 21.5219 59.3912L21.3287 59.8683C21.2443 60.0721 21.1942 60.2881 21.1804 60.5078C21.1804 60.9071 21.4184 61.1338 21.891 61.1845C21.9675 61.4796 22.0023 61.7836 21.9945 62.088C21.6495 62.0575 21.1286 62.044 20.4077 62.044C19.7971 62.044 19.3521 62.044 19.0762 62.088C19.0683 61.7827 19.1078 61.4781 19.1935 61.1845C19.3116 61.1716 19.4258 61.1356 19.5295 61.0786C19.6332 61.0217 19.7242 60.9449 19.7971 60.8529C20.0358 60.4897 20.2325 60.1016 20.3835 59.6957L23.4881 52.2245C23.6275 52.1933 23.7695 52.174 23.9124 52.167C24.0538 52.167 24.209 52.167 24.3781 52.167L27.7724 59.6111C27.9793 60.0645 28.1449 60.3995 28.2691 60.6262C28.3543 60.7941 28.4714 60.9446 28.6141 61.0695C28.7257 61.1547 28.8596 61.2075 29.0004 61.2217C29.0838 61.5056 29.1268 61.7993 29.128 62.0947ZM24.7713 58.4843L23.971 56.6504C23.7023 56.0445 23.4719 55.423 23.2811 54.7893C23.081 55.4322 22.8637 56.0447 22.6292 56.6368L21.8806 58.4843H24.7713Z" fill="#FDBA61"/>
<path d="M39.8762 64.5076C39.6463 64.583 39.4045 64.6174 39.1622 64.6092C38.9065 64.6134 38.6518 64.5792 38.4067 64.5076C38.4263 63.6852 38.3674 62.8628 38.2308 62.0511H31.5008C31.3615 62.8625 31.3014 63.6851 31.3214 64.5076C31.0767 64.5805 30.8217 64.6148 30.566 64.6092C30.325 64.6145 30.0848 64.5801 29.8554 64.5076C29.8694 63.6751 29.8094 62.843 29.676 62.0207C29.6627 61.7218 29.7581 61.428 29.9451 61.1917H30.2383C31.0213 61.1917 31.6181 60.515 32.0044 59.1954C32.4269 57.6796 32.6654 56.1203 32.715 54.5497C32.715 54.4515 32.715 54.3162 32.715 54.1402C32.727 53.9273 32.6941 53.7142 32.6185 53.5143C32.585 53.4451 32.5369 53.3837 32.4774 53.3342C32.418 53.2846 32.3485 53.248 32.2735 53.2267C32.0304 53.15 31.7793 53.1001 31.525 53.0778C31.4547 52.7828 31.42 52.4807 31.4215 52.1777C31.8814 52.2071 33.1715 52.2217 35.2918 52.2217C37.2902 52.2217 38.57 52.2071 39.1311 52.1777C39.1311 52.3435 39.1311 52.5161 39.1311 52.6582C39.1227 52.8017 39.0925 52.9431 39.0414 53.0778C38.8246 53.0922 38.6127 53.1473 38.4171 53.2402C38.3438 53.2853 38.2806 53.3446 38.2314 53.4144C38.1822 53.4842 38.1479 53.5631 38.1308 53.6462C38.0655 53.9372 38.0377 54.235 38.048 54.5327V59.7401C38.0378 60.0524 38.0656 60.3648 38.1308 60.6706C38.1454 60.7556 38.1786 60.8364 38.228 60.9077C38.2774 60.9789 38.3419 61.0389 38.4171 61.0834C38.6135 61.1674 38.8275 61.2045 39.0414 61.1917H39.7831C39.9675 61.4292 40.0615 61.7224 40.0487 62.0207C39.916 62.843 39.8583 63.6753 39.8762 64.5076ZM35.7989 54.5327C35.8058 54.2409 35.7885 53.9489 35.7472 53.6598C35.7361 53.5795 35.7087 53.5021 35.6667 53.4324C35.6246 53.3626 35.5687 53.3019 35.5022 53.2537C35.2762 53.1172 35.0113 53.0555 34.7468 53.0778C34.4655 53.044 34.1812 53.1113 33.9465 53.2673C33.8493 53.3498 33.7856 53.4639 33.7671 53.5887C33.7346 53.7562 33.715 53.9259 33.7085 54.0963C33.7085 54.2925 33.6982 54.438 33.6775 54.5327C33.6103 55.9248 33.4548 57.3114 33.2118 58.6844C32.9979 59.8123 32.6691 60.639 32.2252 61.1646H34.4501C34.7482 61.1784 35.0465 61.1441 35.3332 61.0631C35.4221 61.0293 35.5018 60.9756 35.5658 60.9063C35.6299 60.8369 35.6766 60.754 35.7023 60.6639C35.7802 60.3518 35.8127 60.0306 35.7989 59.7097V54.5327Z" fill="#FDBA61"/>
<path d="M48.9041 57.0705C49.6147 57.5138 49.97 58.2209 49.97 59.2022C49.9858 59.6028 49.9032 60.0013 49.7291 60.3641C49.555 60.7268 49.2945 61.0432 48.9696 61.2865C48.3039 61.7974 47.2449 62.0512 45.8202 62.0512C43.9391 62.0512 42.4121 62.0659 41.2393 62.0952C41.2289 61.7915 41.259 61.4878 41.329 61.1918C41.5475 61.1898 41.7625 61.1376 41.9568 61.0395C42.0342 60.9907 42.1005 60.9267 42.1515 60.8516C42.2026 60.7765 42.2373 60.6919 42.2535 60.603C42.3191 60.2904 42.3469 59.9712 42.3363 59.6522V54.5328C42.3469 54.2373 42.319 53.9416 42.2535 53.653C42.2153 53.4882 42.1156 53.3433 41.9741 53.247C41.7781 53.1477 41.563 53.09 41.3428 53.0778C41.2708 52.7831 41.2361 52.4808 41.2393 52.1777C41.9292 52.2071 42.7835 52.2217 43.8023 52.2217C44.8716 52.2217 45.665 52.2217 46.1893 52.1777C46.2026 52.4812 46.1676 52.7848 46.0859 53.0778C45.779 53.0882 45.4769 53.156 45.1959 53.2774C44.9855 53.3815 44.8238 53.5607 44.744 53.7782C44.637 54.0966 44.5891 54.4312 44.6026 54.7662V56.4581C44.9665 56.4143 45.333 56.3951 45.6995 56.4005C47.1242 56.4107 48.19 56.6306 48.9041 57.0705ZM46.9896 60.7147C47.2947 60.3514 47.4487 59.8886 47.4208 59.4187C47.4208 58.6811 47.2253 58.1555 46.8344 57.842C46.4107 57.5156 45.8825 57.3477 45.3442 57.3683C45.0964 57.3706 44.8489 57.3853 44.6026 57.4122V59.7233C44.5595 60.1267 44.6516 60.5329 44.8647 60.8805C44.9755 60.9887 45.1094 61.0716 45.2567 61.1231C45.404 61.1746 45.5611 61.1934 45.7168 61.1782C45.9504 61.1947 46.1849 61.1618 46.4044 61.0819C46.624 61.0019 46.8236 60.8767 46.9896 60.7147Z" fill="#FDBA61"/>
<path d="M58.6425 57.0773C59.3324 57.5284 59.6773 58.2367 59.6773 59.2022C59.6933 59.6015 59.6122 59.9988 59.4406 60.3612C59.2691 60.7237 59.012 61.0408 58.6907 61.2865C58.0353 61.7986 57.0005 62.0535 55.5862 62.0512C53.7189 62.0512 52.1965 62.0659 51.019 62.0952C51.0104 61.7916 51.0405 61.4881 51.1087 61.1918C51.3283 61.1893 51.5443 61.1372 51.74 61.0395C51.8174 60.9907 51.8837 60.9267 51.9347 60.8516C51.9857 60.7765 52.0204 60.6919 52.0366 60.603C52.1004 60.2901 52.1281 59.9712 52.1194 59.6522V54.5328C52.1283 54.2373 52.1005 53.9419 52.0366 53.653C51.9976 53.4877 51.8966 53.3427 51.7538 53.247C51.5591 53.1476 51.3451 53.0899 51.126 53.0778C51.0511 52.7835 51.0151 52.481 51.019 52.1777C51.7227 52.2071 52.8346 52.2217 54.3547 52.2217C56.4244 52.2217 57.8042 52.2071 58.4941 52.1777C58.5285 53.0036 58.6323 53.8252 58.8046 54.6343C58.4521 54.7956 58.0652 54.8711 57.6766 54.8542C57.6316 54.3654 57.423 53.905 57.0833 53.5447C56.7694 53.2368 56.2312 53.0778 55.4689 53.0778H54.372V56.4614C54.7312 56.4179 55.0931 56.3986 55.4551 56.4039C56.8798 56.4107 57.925 56.6306 58.6425 57.0773ZM56.7659 60.7079C57.0656 60.3397 57.2156 59.8756 57.1868 59.4052C57.1868 58.6879 56.997 58.1702 56.6107 57.8487C56.2137 57.5243 55.7095 57.3534 55.1929 57.3683C54.9653 57.3683 54.7031 57.3852 54.4065 57.4122V59.7233C54.3921 60.036 54.4342 60.3487 54.5306 60.647C54.562 60.7387 54.6118 60.8234 54.6769 60.896C54.7421 60.9686 54.8213 61.0278 54.9101 61.07C55.1304 61.1509 55.365 61.1877 55.6 61.1782C55.8155 61.1878 56.0305 61.1506 56.2296 61.0693C56.4288 60.988 56.6072 60.8646 56.7521 60.7079H56.7659Z" fill="#FDBA61"/>
<path d="M70.4112 62.0947C69.9375 62.0631 69.2557 62.0485 68.3657 62.0507C67.3492 62.0507 66.6179 62.0654 66.1718 62.0947C66.1612 61.7902 66.1961 61.4859 66.2753 61.1913C66.4576 61.1635 66.6331 61.1027 66.7927 61.0119C66.8457 60.978 66.8888 60.9312 66.9178 60.876C66.9469 60.8209 66.9608 60.7593 66.9583 60.6972C66.9288 60.4808 66.8636 60.2705 66.7651 60.0746L66.4202 59.2862C65.1059 59.2862 63.902 59.32 62.8016 59.3911L62.6085 59.8682C62.5264 60.0726 62.4775 60.2884 62.4636 60.5077C62.4636 60.907 62.6981 61.1337 63.1742 61.1845C63.2507 61.4796 63.2855 61.7836 63.2777 62.088C62.9327 62.0575 62.4118 62.044 61.6909 62.044C61.0769 62.044 60.6353 62.044 60.3594 62.088C60.3515 61.7827 60.3911 61.4781 60.4767 61.1845C60.5957 61.1673 60.7101 61.127 60.8132 61.066C60.9162 61.005 61.0059 60.9245 61.0769 60.8292C61.3155 60.466 61.5122 60.0779 61.6633 59.6719L64.7678 52.2006C64.9073 52.1694 65.0493 52.1501 65.1921 52.1431C65.3336 52.1431 65.4888 52.1431 65.6578 52.1431L69.0521 59.5874C69.2591 60.0408 69.4247 60.3758 69.5489 60.6025C69.6341 60.7704 69.7511 60.9209 69.8938 61.0458C70.0042 61.1311 70.1369 61.1839 70.2767 61.198C70.3664 61.4888 70.4118 61.7909 70.4112 62.0947ZM66.0511 58.4842L65.2542 56.6502C64.9855 56.0444 64.7551 55.4228 64.5643 54.7892C64.3643 55.4321 64.1469 56.0445 63.9124 56.6367L63.1638 58.4842H66.0511Z" fill="#FDBA61"/>
<path d="M76.4966 61.5299C75.7603 61.0982 75.1627 60.4721 74.7719 59.7231C74.3455 58.9024 74.1322 57.9912 74.1509 57.0703C74.121 56.1227 74.3598 55.1856 74.8409 54.3634C75.28 53.6392 75.9201 53.0524 76.6863 52.6716C77.4599 52.2867 78.3164 52.0894 79.1838 52.0964C80.3148 52.1047 81.4292 52.3638 82.4436 52.8543C82.3257 53.5997 82.2715 54.3535 82.2815 55.1078C81.9135 55.2466 81.5193 55.3055 81.1259 55.2804C81.1052 54.448 80.9361 53.857 80.6188 53.5073C80.4429 53.325 80.2278 53.1833 79.9891 53.0926C79.7505 53.0019 79.4942 52.9644 79.239 52.9829C78.8279 52.9574 78.4177 53.043 78.0527 53.2304C77.6878 53.4177 77.3823 53.6996 77.1693 54.0453C76.6969 54.8542 76.4651 55.7767 76.5001 56.7083C76.4541 57.815 76.759 58.9084 77.3728 59.8381C77.6411 60.2294 78.0078 60.5462 78.4375 60.7578C78.8671 60.9694 79.3452 61.0687 79.8254 61.0461C80.2458 61.0438 80.6634 60.9788 81.0638 60.8532C81.4997 60.7243 81.9178 60.5436 82.3091 60.3152C82.3986 60.3961 82.4723 60.4924 82.5264 60.5994C82.5835 60.706 82.6253 60.8199 82.6506 60.9378C81.6492 61.7668 80.373 62.2073 79.0631 62.1762C78.1636 62.1935 77.2763 61.9701 76.4966 61.5299Z" fill="#FDBA61"/>
<path d="M93.0165 52.1781C93.0192 52.482 92.9798 52.7848 92.8992 53.0782C92.6468 53.1346 92.4245 53.2804 92.2748 53.4876C92.0186 53.8694 91.7881 54.2672 91.5849 54.6786L88.8736 60.0008C88.5895 60.6431 88.1615 61.2144 87.6214 61.6722C87.188 62.0066 86.6516 62.1867 86.1002 62.1831C85.7813 62.1894 85.4644 62.1318 85.1689 62.014C84.9351 61.9271 84.7266 61.7854 84.5617 61.6012C84.5299 61.4521 84.5149 61.3001 84.5169 61.1478C84.5097 60.8428 84.554 60.5386 84.648 60.2478C85.1255 60.3834 85.6203 60.4517 86.1175 60.4508C86.4999 60.4747 86.8822 60.4025 87.2282 60.241C87.5224 60.0497 87.7603 59.786 87.9181 59.4763C87.127 58.1026 86.1876 56.5372 85.0999 54.7801C84.8241 54.3294 84.5175 53.8976 84.1823 53.4876C84.0091 53.2752 83.7646 53.1301 83.4924 53.0782C83.4246 52.783 83.3944 52.4806 83.4027 52.1781C83.8465 52.2075 84.5583 52.2221 85.538 52.2221C86.4762 52.2221 87.2018 52.2075 87.7146 52.1781C87.7193 52.4786 87.6868 52.7786 87.618 53.0714C87.4326 53.0849 87.2513 53.1319 87.0833 53.2101C87.0333 53.2359 86.9916 53.275 86.9629 53.3228C86.9343 53.3706 86.9198 53.4253 86.9212 53.4808C86.9712 53.7569 87.0818 54.019 87.2455 54.2489C88.0572 55.5684 88.685 56.6263 89.1289 57.4226C89.6739 56.4617 90.1879 55.4725 90.6708 54.4552C90.7965 54.2153 90.8716 53.9529 90.8916 53.6838C90.8966 53.6083 90.8833 53.5328 90.8527 53.4634C90.8221 53.394 90.7751 53.3327 90.7157 53.2846C90.5414 53.1714 90.3433 53.0985 90.1361 53.0714C90.0642 52.7767 90.0294 52.4744 90.0326 52.1714C90.419 52.2018 90.9157 52.2154 91.5297 52.2154C92.1437 52.2154 92.6612 52.2086 93.0165 52.1781Z" fill="#FDBA61"/>
<path d="M103.203 62.0952C102.775 62.0648 101.995 62.0512 100.857 62.0512C99.9509 62.0512 99.2 62.0614 98.6044 62.0817C98.5995 61.7827 98.6296 61.4841 98.6941 61.1918C98.8425 61.177 98.9879 61.1405 99.1253 61.0835C99.169 61.0608 99.2049 61.0258 99.2283 60.983C99.2516 60.9402 99.2614 60.8916 99.2563 60.8433C99.2397 60.6551 99.1846 60.4721 99.0942 60.3053C98.9873 60.0752 98.8114 59.7605 98.5768 59.3612L97.8869 58.2142L97.0107 59.4627C96.5968 60.0752 96.3898 60.4778 96.3898 60.7147C96.3859 60.7744 96.3983 60.834 96.4255 60.8875C96.4528 60.941 96.494 60.9864 96.545 61.0192C96.6989 61.1052 96.8671 61.1636 97.0418 61.1918C97.1077 61.4884 97.1378 61.7917 97.1315 62.0952C96.6244 62.0648 96.038 62.0512 95.3653 62.0512C94.634 62.0512 94.0648 62.0512 93.6612 62.0952C93.6413 61.7806 93.6811 61.4651 93.7785 61.1647C94.1574 61.0759 94.511 60.9048 94.8134 60.6639C95.2092 60.325 95.5573 59.9359 95.8482 59.5067L97.3764 57.3852C96.8934 56.6272 96.3185 55.7497 95.6516 54.7527C95.3274 54.2553 95.0755 53.9034 94.9031 53.6902C94.781 53.5253 94.6331 53.3803 94.465 53.2605C94.3233 53.1789 94.168 53.1227 94.0062 53.0947C93.9185 52.7969 93.879 52.4875 93.8889 52.1777C94.404 52.2071 95.2388 52.2217 96.3933 52.2217C97.1246 52.2217 97.7972 52.2116 98.4112 52.1913C98.4091 52.4888 98.3791 52.7856 98.3215 53.0778C98.1601 53.1013 98.0045 53.1541 97.8628 53.2334C97.8158 53.2608 97.7772 53.3001 97.7511 53.3471C97.725 53.3941 97.7123 53.4472 97.7144 53.5007C97.7979 53.8806 97.9638 54.2383 98.2008 54.5497L99.1356 55.9573L99.9221 54.7527C100.191 54.3945 100.373 53.9817 100.457 53.5447C100.46 53.4849 100.448 53.4253 100.422 53.3711C100.396 53.3169 100.357 53.2696 100.308 53.2334C100.17 53.1466 100.013 53.0933 99.8497 53.0778C99.7795 52.783 99.7493 52.4803 99.76 52.1777C100.243 52.2082 100.795 52.2217 101.447 52.2217C102.099 52.2217 102.668 52.2217 103.034 52.1777C103.042 52.4802 103.012 52.7826 102.944 53.0778C102.724 53.1331 102.513 53.2174 102.316 53.3282C102.121 53.451 101.946 53.6028 101.799 53.7782C101.547 54.0725 101.317 54.3834 101.109 54.7087L99.6979 56.8167C100.015 57.3107 100.491 58.0687 101.123 59.0838C101.488 59.686 101.777 60.1271 101.988 60.4068C102.141 60.6271 102.33 60.8214 102.547 60.982C102.722 61.0911 102.918 61.1626 103.123 61.1918C103.202 61.4863 103.229 61.7918 103.203 62.0952Z" fill="#FDBA61"/>
<path d="M113.934 62.0947C113.46 62.0631 112.778 62.0485 111.888 62.0507C110.872 62.0507 110.14 62.0654 109.694 62.0947C109.684 61.7902 109.719 61.4859 109.798 61.1913C109.98 61.1635 110.156 61.1027 110.315 61.0119C110.368 60.978 110.411 60.9312 110.44 60.876C110.469 60.8209 110.483 60.7593 110.481 60.6972C110.451 60.4808 110.386 60.2705 110.288 60.0746L109.943 59.2862C108.627 59.2862 107.421 59.3212 106.324 59.3911L106.131 59.8682C106.049 60.0726 106 60.2884 105.986 60.5077C105.986 60.907 106.221 61.1337 106.697 61.1845C106.773 61.4796 106.808 61.7836 106.8 62.088C106.455 62.0575 105.934 62.044 105.213 62.044C104.599 62.044 104.158 62.044 103.882 62.088C103.874 61.7827 103.914 61.4781 103.999 61.1845C104.118 61.1673 104.233 61.127 104.336 61.066C104.439 61.005 104.528 60.9245 104.599 60.8292C104.838 60.466 105.035 60.0779 105.186 59.6719L108.29 52.2006C108.43 52.1694 108.572 52.1501 108.715 52.1431C108.856 52.1431 109.011 52.1431 109.18 52.1431L112.575 59.5874C112.782 60.0408 112.947 60.3758 113.071 60.6025C113.155 60.7711 113.273 60.9218 113.416 61.0458C113.526 61.1316 113.659 61.1844 113.799 61.198C113.887 61.4891 113.933 61.7911 113.934 62.0947ZM109.574 58.4842L108.773 56.6502C108.506 56.0438 108.276 55.4223 108.083 54.7892C107.883 55.4321 107.666 56.0445 107.428 56.6367L106.686 58.4842H109.574Z" fill="#FDBA61"/>
<path d="M124.11 60.6199C124.148 60.7913 124.251 60.9417 124.4 61.0395C124.591 61.1381 124.804 61.1904 125.021 61.1918C125.102 61.4859 125.137 61.7906 125.124 62.0952C124.609 62.0636 123.908 62.049 123.02 62.0512C122.061 62.0512 121.276 62.0659 120.664 62.0952C120.655 61.7899 120.694 61.4851 120.781 61.1918C120.996 61.1916 121.207 61.1393 121.395 61.0395C121.541 60.9405 121.642 60.7903 121.678 60.6199C121.743 60.3255 121.771 60.0244 121.761 59.7233V57.4427C120.553 57.4232 119.345 57.4661 118.142 57.5713V59.7233C118.132 60.0247 118.162 60.3262 118.232 60.6199C118.271 60.7924 118.378 60.943 118.529 61.0395C118.721 61.1385 118.936 61.1908 119.153 61.1918C119.221 61.4881 119.25 61.7917 119.239 62.0952C118.736 62.0636 118.034 62.049 117.135 62.0512C116.188 62.0512 115.407 62.0659 114.793 62.0952C114.788 61.791 114.822 61.4873 114.896 61.1918C115.114 61.19 115.328 61.1378 115.521 61.0395C115.594 60.9916 115.658 60.9298 115.707 60.8578C115.756 60.7858 115.79 60.705 115.807 60.6199C115.872 60.3255 115.9 60.0244 115.89 59.7233V54.5328C115.9 54.2373 115.873 53.9416 115.807 53.653C115.771 53.4874 115.671 53.3419 115.528 53.247C115.332 53.1477 115.117 53.09 114.896 53.0778C114.817 52.7844 114.782 52.4811 114.793 52.1777C115.297 52.2071 116.053 52.2217 117.063 52.2217C117.923 52.2217 118.648 52.2071 119.239 52.1777C119.239 52.3435 119.239 52.5161 119.239 52.6582C119.232 52.8019 119.202 52.9435 119.15 53.0778C118.934 53.0916 118.723 53.1468 118.529 53.2402C118.455 53.2851 118.391 53.3443 118.341 53.4141C118.292 53.4839 118.257 53.5629 118.239 53.6462C118.174 53.9372 118.146 54.235 118.156 54.5328V56.5257H121.768V54.5328C121.778 54.2373 121.751 53.9416 121.685 53.653C121.646 53.4877 121.545 53.3427 121.402 53.247C121.208 53.1471 120.994 53.0894 120.774 53.0778C120.695 52.7844 120.66 52.4811 120.671 52.1777C121.195 52.2071 121.951 52.2217 122.937 52.2217C123.806 52.2217 124.538 52.2071 125.131 52.1777C125.144 52.4821 125.104 52.7864 125.014 53.0778C124.8 53.0905 124.591 53.1458 124.4 53.2402C124.255 53.3337 124.153 53.4796 124.117 53.6462C124.052 53.9372 124.024 54.235 124.034 54.5328V59.7233C124.022 60.0241 124.047 60.3252 124.11 60.6199Z" fill="#FDBA61"/>
<path d="M128.615 61.5295C127.867 61.1052 127.26 60.4777 126.866 59.7227C126.445 58.9065 126.234 58.0015 126.252 57.0869C126.231 56.1695 126.454 55.2624 126.897 54.4545C127.309 53.7144 127.93 53.106 128.684 52.7018C129.474 52.2813 130.362 52.068 131.261 52.0826C132.175 52.0643 133.078 52.2751 133.886 52.6951C134.634 53.092 135.251 53.6893 135.666 54.4173C136.101 55.2036 136.32 56.0876 136.301 56.982C136.317 57.911 136.102 58.8299 135.673 59.6584C135.269 60.4263 134.652 61.0666 133.893 61.5058C133.095 61.9635 132.185 62.1976 131.261 62.1826C130.335 62.201 129.422 61.9755 128.615 61.5295ZM133.286 60.1761C133.752 59.3034 133.975 58.3251 133.931 57.3407C133.94 56.5992 133.818 55.8619 133.569 55.1617C133.364 54.563 133.008 54.025 132.534 53.5985C132.12 53.2273 131.58 53.022 131.02 53.0233C130.664 53.0215 130.315 53.1127 130.007 53.2876C129.7 53.4624 129.446 53.7146 129.271 54.018C128.794 54.8479 128.568 55.7939 128.619 56.7452C128.612 57.5082 128.722 58.268 128.946 58.9986C129.122 59.6185 129.456 60.1843 129.916 60.643C130.125 60.8422 130.372 60.9987 130.643 61.1032C130.914 61.2078 131.204 61.2584 131.496 61.2521C131.867 61.2546 132.231 61.1552 132.547 60.965C132.864 60.7748 133.12 60.5015 133.286 60.1761Z" fill="#FDBA61"/>
<path d="M146.186 59.2157C146.202 59.6151 146.118 60.0121 145.943 60.3728C145.767 60.7335 145.505 61.047 145.179 61.2865C144.51 61.7974 143.454 62.0512 142.009 62.0512C140.139 62.0512 138.617 62.0659 137.442 62.0952C137.433 61.7916 137.463 61.4881 137.532 61.1918C137.751 61.1893 137.967 61.1372 138.163 61.0395C138.239 60.9898 138.305 60.9256 138.356 60.8506C138.407 60.7757 138.442 60.6915 138.459 60.603C138.522 60.2899 138.548 59.9711 138.539 59.6522V54.5328C138.548 54.2375 138.522 53.9421 138.459 53.653C138.419 53.4866 138.315 53.3415 138.17 53.247C137.971 53.1483 137.754 53.0907 137.532 53.0778C137.465 52.7823 137.435 52.4802 137.442 52.1777C137.828 52.2082 138.353 52.2217 139.015 52.2217C139.598 52.2217 140.05 52.2217 140.395 52.2217L141.833 52.2048C143.116 52.2048 144.055 52.3774 144.648 52.7225C144.943 52.8947 145.182 53.1445 145.34 53.4436C145.497 53.7426 145.566 54.0789 145.538 54.4143C145.551 54.9818 145.336 55.5315 144.938 55.9437C144.49 56.3835 143.899 56.6553 143.268 56.7118C145.216 56.8021 146.189 57.6367 146.186 59.2157ZM142.72 53.5244C142.456 53.3152 142.141 53.1762 141.806 53.1211C141.471 53.066 141.128 53.0965 140.809 53.2098V56.5257H141.312C141.575 56.5475 141.839 56.5178 142.089 56.4382C142.34 56.3586 142.572 56.2307 142.771 56.0622C142.931 55.8923 143.055 55.6929 143.135 55.4756C143.215 55.2583 143.249 55.0274 143.237 54.7967C143.254 54.5601 143.217 54.3226 143.127 54.1023C143.038 53.8819 142.898 53.6844 142.72 53.5244ZM143.223 60.7079C143.538 60.3414 143.698 59.8702 143.668 59.3917C143.668 58.6631 143.438 58.151 142.978 57.8555C142.427 57.534 141.791 57.3797 141.15 57.4122H140.805V59.7233C140.791 60.036 140.833 60.3487 140.929 60.647C140.961 60.7387 141.01 60.8234 141.076 60.896C141.141 60.9686 141.22 61.0278 141.309 61.07C141.529 61.1511 141.764 61.1879 141.999 61.1782C142.225 61.19 142.452 61.1542 142.663 61.0731C142.874 60.9919 143.065 60.8674 143.223 60.7079Z" fill="#FDBA61"/>
<path d="M149.681 61.5295C148.932 61.1064 148.324 60.4786 147.932 59.7227C147.51 58.9068 147.298 58.0018 147.315 57.0869C147.295 56.1696 147.518 55.263 147.96 54.4545C148.372 53.7144 148.992 53.106 149.747 52.7018C150.538 52.2818 151.427 52.0685 152.327 52.0826C153.24 52.0643 154.142 52.2751 154.948 52.6951C155.698 53.0894 156.316 53.6874 156.728 54.4173C157.164 55.2034 157.384 56.0873 157.366 56.982C157.383 57.9115 157.167 58.8307 156.735 59.6584C156.331 60.4253 155.716 61.0654 154.959 61.5058C154.161 61.9627 153.251 62.1967 152.327 62.1825C151.401 62.201 150.487 61.9755 149.681 61.5295ZM154.348 60.1761C154.816 59.304 155.039 58.3253 154.993 57.3407C155.002 56.5992 154.88 55.8619 154.631 55.1617C154.428 54.5622 154.072 54.0238 153.596 53.5985C153.184 53.2278 152.645 53.0225 152.085 53.0233C151.73 53.0211 151.38 53.1122 151.073 53.2871C150.765 53.462 150.511 53.7144 150.336 54.018C149.86 54.8479 149.633 55.7939 149.684 56.7452C149.676 57.5081 149.785 58.2678 150.009 58.9986C150.184 59.6193 150.519 60.1855 150.981 60.643C151.19 60.8421 151.437 60.9985 151.707 61.1031C151.978 61.2077 152.267 61.2583 152.558 61.2521C152.929 61.255 153.294 61.1557 153.61 60.9655C153.927 60.7753 154.182 60.5018 154.348 60.1761Z" fill="#FDBA61"/>
</svg>
