<svg width="20" height="20" viewBox="0 0 20 20" fill="none" xmlns="http://www.w3.org/2000/svg">
<path d="M10.8336 14.9998C10.8336 15.46 10.4605 15.8331 10.0003 15.8331C9.54007 15.8331 9.16699 15.46 9.16699 14.9998C9.16699 14.5396 9.54007 14.1665 10.0003 14.1665C10.4605 14.1665 10.8336 14.5396 10.8336 14.9998Z" fill="#FDBA61"/>
<path d="M10 20C4.48578 20 0 15.5142 0 10C0 4.48578 4.48578 0 10 0C15.5142 0 20 4.48578 20 10C20 15.5142 15.5142 20 10 20ZM10 1.25C5.17502 1.25 1.25 5.17502 1.25 10C1.25 14.825 5.17502 18.75 10 18.75C14.825 18.75 18.75 14.825 18.75 10C18.75 5.17502 14.825 1.25 10 1.25Z" fill="#FDBA61"/>
<path d="M9.99973 12.2919C9.65472 12.2919 9.37473 12.0119 9.37473 11.6669V10.8253C9.37473 10.032 9.87811 9.32104 10.6264 9.05692C11.6222 8.70612 12.2914 7.64517 12.2914 6.87521C12.2914 5.61102 11.2639 4.5835 9.99973 4.5835C8.73553 4.5835 7.70801 5.61102 7.70801 6.87521C7.70801 7.22021 7.42801 7.50021 7.08301 7.50021C6.73801 7.50021 6.45801 7.22021 6.45801 6.87521C6.45801 4.9227 8.04645 3.3335 9.99973 3.3335C11.953 3.3335 13.5414 4.9227 13.5414 6.87521C13.5414 8.26529 12.4439 9.74112 11.0422 10.2361C10.7923 10.3235 10.6247 10.561 10.6247 10.826V11.6669C10.6247 12.0119 10.3447 12.2919 9.99973 12.2919Z" fill="#FDBA61"/>
</svg>
