<svg width="14" height="14" viewBox="0 0 14 14" fill="none" xmlns="http://www.w3.org/2000/svg">
<path d="M13.2222 9.72223C12.2539 9.72223 11.3167 9.56667 10.4456 9.2789C10.1772 9.19333 9.87 9.25557 9.65614 9.46947L7.94504 11.1845C5.74004 10.0645 3.93947 8.2639 2.81947 6.0628L4.53057 4.3439C4.74447 4.13 4.80667 3.8228 4.72114 3.55447C4.43337 2.68337 4.2778 1.74614 4.2778 0.777802C4.27777 0.346099 3.93167 0 3.5 0H0.777766C0.35 0 0 0.346099 0 0.777766C0 8.0811 5.9189 14 13.2222 14C13.6539 14 14 13.6539 14 13.2222V10.5C14 10.0683 13.6539 9.72223 13.2222 9.72223Z" fill="#FDBA61"/>
</svg>
