<svg width="209" height="44" viewBox="0 0 209 44" fill="none" xmlns="http://www.w3.org/2000/svg">
<g clip-path="url(#clip0)">
<path d="M61.2671 21.0986C61.2698 21.4078 61.2304 21.716 61.1498 22.0146C60.8974 22.072 60.6751 22.2204 60.5254 22.4312C60.2692 22.8198 60.0387 23.2246 59.8355 23.6433L57.1173 29.0596C56.8332 29.7133 56.4052 30.2947 55.8651 30.7607C55.4311 31.0999 54.8952 31.2831 54.3439 31.2806C54.025 31.2869 53.7081 31.2284 53.4125 31.1084C53.1778 31.0201 52.9682 30.8759 52.802 30.6883C52.7719 30.5364 52.7568 30.3818 52.7571 30.2269C52.7492 29.9162 52.7947 29.6064 52.8917 29.311C53.3692 29.449 53.864 29.5185 54.3612 29.5176C54.7436 29.5419 55.1259 29.4684 55.4719 29.3041C55.7661 29.1094 56.004 28.8411 56.1618 28.5259C55.3684 27.1279 54.429 25.5348 53.3436 23.7466C53.0677 23.288 52.7612 22.8485 52.426 22.4312C52.2522 22.2158 52.0079 22.0682 51.7361 22.0146C51.6636 21.7147 51.6288 21.407 51.6326 21.0986C52.0787 21.1285 52.7905 21.1434 53.7678 21.1434C54.7061 21.1434 55.4317 21.1285 55.9445 21.0986C55.9531 21.4063 55.9242 21.7139 55.8582 22.0146C55.6728 22.0283 55.4915 22.0762 55.3236 22.1557C55.2735 22.182 55.2318 22.2217 55.2032 22.2704C55.1745 22.3191 55.1601 22.3748 55.1614 22.4312C55.2114 22.7122 55.3221 22.9789 55.4857 23.2128C56.2975 24.5558 56.9253 25.6324 57.3691 26.4427C57.9141 25.4648 58.4281 24.4582 58.9111 23.4229C59.0368 23.1787 59.1119 22.9117 59.1318 22.6378C59.1369 22.561 59.1235 22.4841 59.0929 22.4135C59.0624 22.3428 59.0154 22.2805 58.9559 22.2315C58.7817 22.1163 58.5835 22.0421 58.3764 22.0146C58.3044 21.7146 58.2697 21.407 58.2729 21.0986C58.6592 21.1296 59.156 21.1434 59.77 21.1434C60.384 21.1434 60.9118 21.1296 61.2671 21.0986Z" fill="#FDBA61"/>
<path d="M63.9575 30.6158C63.2213 30.1765 62.6236 29.5393 62.2328 28.7771C61.8064 27.942 61.5932 27.0147 61.6119 26.0775C61.5819 25.1132 61.8207 24.1596 62.3018 23.3228C62.74 22.5851 63.3803 21.9878 64.1473 21.6012C64.9209 21.2095 65.7773 21.0087 66.6447 21.0158C67.7757 21.0242 68.8901 21.2879 69.9045 21.7871C69.7849 22.5455 69.7306 23.3127 69.7424 24.0804C69.3744 24.2217 68.9802 24.2816 68.5868 24.256C68.5661 23.4089 68.3971 22.8075 68.0797 22.4517C67.9057 22.2684 67.6934 22.1256 67.458 22.0334C67.2225 21.9411 66.9696 21.9017 66.7171 21.918C66.3061 21.8921 65.8958 21.9792 65.5309 22.1698C65.166 22.3604 64.8604 22.6473 64.6474 22.9992C64.1751 23.8223 63.9432 24.7611 63.9782 25.7091C63.9271 26.8335 64.226 27.9461 64.8337 28.8942C65.102 29.2924 65.4688 29.6148 65.8984 29.8301C66.3281 30.0454 66.8061 30.1465 67.2863 30.1234C67.703 30.1212 68.1171 30.0562 68.5143 29.9306C68.9502 29.7994 69.3684 29.6156 69.7596 29.3831C69.8492 29.4654 69.9229 29.5635 69.9769 29.6724C70.0341 29.7809 70.0759 29.8967 70.1011 30.0167C69.0998 30.8604 67.8236 31.3087 66.5136 31.277C65.6174 31.2917 64.7339 31.0632 63.9575 30.6158Z" fill="#FDBA61"/>
<path d="M80.7603 31.1897C80.2866 31.1575 79.6048 31.1426 78.7148 31.1449C77.6983 31.1449 76.967 31.1598 76.5209 31.1897C76.5103 30.8798 76.5452 30.5701 76.6244 30.2703C76.8076 30.2413 76.9841 30.1795 77.1453 30.0878C77.1972 30.0524 77.2392 30.0045 77.2676 29.9485C77.2959 29.8925 77.3096 29.8303 77.3074 29.7676C77.2779 29.5473 77.2127 29.3333 77.1142 29.134L76.7693 28.3317C75.4539 28.3317 74.2488 28.3673 73.1542 28.4384L72.961 28.9239C72.8766 29.1314 72.8265 29.3512 72.8127 29.5747C72.8127 29.981 73.0507 30.2118 73.5233 30.2634C73.5998 30.5637 73.6346 30.873 73.6268 31.1828C73.2818 31.1518 72.761 31.138 72.04 31.138C71.4294 31.138 70.9845 31.138 70.7085 31.1828C70.7006 30.8721 70.7402 30.5621 70.8258 30.2634C70.9439 30.2502 71.0581 30.2136 71.1618 30.1556C71.2655 30.0977 71.3565 30.0196 71.4294 29.926C71.6681 29.5564 71.8648 29.1614 72.0159 28.7483L75.1204 21.1455C75.2599 21.1137 75.4018 21.0941 75.5447 21.0869C75.6861 21.0869 75.8414 21.0869 76.0104 21.0869L79.4047 28.6622C79.6117 29.1237 79.7772 29.4645 79.9014 29.6952C79.9866 29.8661 80.1037 30.0192 80.2464 30.1463C80.3581 30.2331 80.4919 30.2868 80.6327 30.3013C80.7161 30.5901 80.7591 30.8891 80.7603 31.1897ZM76.4036 27.5156L75.6033 25.6493C75.3346 25.0328 75.1042 24.4003 74.9134 23.7555C74.7134 24.4097 74.4961 25.033 74.2615 25.6356L73.5129 27.5156H76.4036Z" fill="#FDBA61"/>
<path d="M91.509 33.6461C91.2791 33.7228 91.0373 33.7578 90.795 33.7494C90.5394 33.7538 90.2846 33.7189 90.0395 33.6461C90.0591 32.8092 90.0002 31.9723 89.8636 31.1463H83.1336C82.9943 31.972 82.9342 32.8091 82.9543 33.6461C82.7095 33.7203 82.4545 33.7552 82.1988 33.7494C81.9578 33.7548 81.7176 33.7199 81.4882 33.6461C81.5022 32.7989 81.4422 31.9521 81.3088 31.1153C81.2955 30.8112 81.3909 30.5122 81.5779 30.2717H81.8711C82.6542 30.2717 83.2509 29.583 83.6373 28.2401C84.0597 26.6976 84.2982 25.1107 84.3479 23.5124C84.3479 23.4126 84.3479 23.2748 84.3479 23.0958C84.3598 22.8791 84.3269 22.6622 84.2513 22.4588C84.2178 22.3884 84.1697 22.3259 84.1102 22.2755C84.0508 22.225 83.9813 22.1877 83.9063 22.1661C83.6632 22.0881 83.4121 22.0372 83.1578 22.0146C83.0875 21.7143 83.0528 21.4069 83.0543 21.0986C83.5142 21.1285 84.8043 21.1434 86.9246 21.1434C88.9231 21.1434 90.2028 21.1285 90.7639 21.0986C90.7639 21.2674 90.7639 21.443 90.7639 21.5876C90.7555 21.7336 90.7253 21.8775 90.6743 22.0146C90.4575 22.0292 90.2455 22.0854 90.0499 22.1798C89.9766 22.2257 89.9134 22.286 89.8642 22.3571C89.815 22.4281 89.7808 22.5084 89.7636 22.593C89.6983 22.8891 89.6705 23.1922 89.6808 23.4952V28.7945C89.6706 29.1123 89.6984 29.4302 89.7636 29.7414C89.7782 29.8279 89.8114 29.9102 89.8608 29.9827C89.9102 30.0552 89.9747 30.1161 90.0499 30.1615C90.2464 30.247 90.4603 30.2847 90.6743 30.2717H91.4159C91.6004 30.5133 91.6943 30.8118 91.6815 31.1153C91.5488 31.9521 91.4911 32.7991 91.509 33.6461ZM87.4317 23.4952C87.4386 23.1982 87.4213 22.901 87.38 22.6068C87.3689 22.5251 87.3415 22.4464 87.2995 22.3754C87.2574 22.3045 87.2015 22.2426 87.1351 22.1936C86.909 22.0546 86.6442 21.9919 86.3796 22.0146C86.0983 21.9802 85.814 22.0487 85.5793 22.2074C85.4821 22.2913 85.4184 22.4075 85.4 22.5345C85.3674 22.705 85.3478 22.8776 85.3413 23.051C85.3413 23.2507 85.331 23.3988 85.3103 23.4952C85.2431 24.9118 85.0876 26.3229 84.8446 27.7202C84.6307 28.8679 84.3019 29.7093 83.858 30.2441H86.083C86.381 30.2581 86.6793 30.2232 86.966 30.1408C87.0549 30.1064 87.1346 30.0517 87.1987 29.9812C87.2627 29.9107 87.3094 29.8262 87.3351 29.7345C87.413 29.417 87.4455 29.0901 87.4317 28.7635V23.4952Z" fill="#FDBA61"/>
<path d="M100.536 26.0777C101.247 26.5288 101.602 27.2484 101.602 28.247C101.618 28.6547 101.535 29.0603 101.361 29.4294C101.187 29.7986 100.926 30.1205 100.601 30.3681C99.9357 30.8881 98.8767 31.1463 97.4521 31.1463C95.571 31.1463 94.044 31.1612 92.8712 31.1911C92.8607 30.882 92.8909 30.5729 92.9608 30.2717C93.1793 30.2696 93.3944 30.2166 93.5886 30.1167C93.666 30.067 93.7323 30.002 93.7834 29.9255C93.8344 29.8491 93.8691 29.763 93.8853 29.6726C93.9509 29.3544 93.9787 29.0296 93.9681 28.705V23.4952C93.9787 23.1945 93.9509 22.8936 93.8853 22.5999C93.8471 22.4322 93.7475 22.2848 93.6059 22.1867C93.4099 22.0857 93.1948 22.027 92.9746 22.0146C92.9027 21.7146 92.8679 21.407 92.8712 21.0986C93.5611 21.1285 94.4154 21.1434 95.4341 21.1434C96.5035 21.1434 97.2969 21.1434 97.8212 21.0986C97.8344 21.4074 97.7995 21.7164 97.7177 22.0146C97.4108 22.0252 97.1087 22.0941 96.8277 22.2177C96.6173 22.3236 96.4556 22.506 96.3758 22.7273C96.2688 23.0513 96.2209 23.3919 96.2344 23.7328V25.4545C96.5983 25.41 96.9648 25.3904 97.3314 25.3959C98.756 25.4063 99.8219 25.6301 100.536 26.0777ZM98.6215 29.7862C98.9265 29.4165 99.0805 28.9455 99.0527 28.4674C99.0527 27.7167 98.8572 27.1819 98.4662 26.8628C98.0426 26.5307 97.5144 26.3598 96.9761 26.3807C96.7282 26.3831 96.4807 26.3981 96.2344 26.4255V28.7773C96.1914 29.1878 96.2834 29.6012 96.4966 29.9549C96.6074 30.0651 96.7412 30.1494 96.8885 30.2018C97.0359 30.2542 97.193 30.2733 97.3486 30.2579C97.5822 30.2747 97.8167 30.2412 98.0363 30.1599C98.2559 30.0785 98.4554 29.9511 98.6215 29.7862Z" fill="#FDBA61"/>
<path d="M110.274 26.0846C110.964 26.5437 111.309 27.2645 111.309 28.247C111.325 28.6533 111.244 29.0577 111.072 29.4265C110.901 29.7953 110.644 30.1181 110.323 30.3681C109.667 30.8892 108.632 31.1486 107.218 31.1463C105.351 31.1463 103.828 31.1612 102.651 31.1911C102.642 30.8821 102.672 30.5732 102.741 30.2717C102.96 30.2692 103.176 30.2162 103.372 30.1167C103.449 30.067 103.515 30.002 103.567 29.9255C103.618 29.8491 103.652 29.763 103.668 29.6726C103.732 29.3541 103.76 29.0296 103.751 28.705V23.4952C103.76 23.1945 103.732 22.8939 103.668 22.5999C103.629 22.4317 103.528 22.2842 103.386 22.1867C103.191 22.0856 102.977 22.0269 102.758 22.0146C102.683 21.7151 102.647 21.4073 102.651 21.0986C103.355 21.1285 104.466 21.1434 105.987 21.1434C108.056 21.1434 109.436 21.1285 110.126 21.0986C110.16 21.939 110.264 22.7752 110.436 23.5985C110.084 23.7627 109.697 23.8395 109.308 23.8223C109.263 23.3249 109.055 22.8564 108.715 22.4897C108.401 22.1764 107.863 22.0146 107.101 22.0146H106.004V25.4579C106.363 25.4136 106.725 25.394 107.087 25.3994C108.512 25.4063 109.557 25.6301 110.274 26.0846ZM108.398 29.7793C108.697 29.4046 108.847 28.9323 108.819 28.4536C108.819 27.7236 108.629 27.1968 108.243 26.8697C107.846 26.5395 107.341 26.3656 106.825 26.3807C106.597 26.3807 106.335 26.3979 106.038 26.4255V28.7773C106.024 29.0955 106.066 29.4137 106.162 29.7173C106.194 29.8107 106.244 29.8968 106.309 29.9707C106.374 30.0446 106.453 30.1048 106.542 30.1477C106.762 30.2301 106.997 30.2675 107.232 30.2579C107.447 30.2677 107.662 30.2298 107.861 30.1471C108.061 30.0644 108.239 29.9388 108.384 29.7793H108.398Z" fill="#FDBA61"/>
<path d="M122.044 31.1903C121.57 31.1582 120.888 31.1433 119.998 31.1456C118.982 31.1456 118.251 31.1605 117.805 31.1903C117.794 30.8805 117.829 30.5707 117.908 30.271C118.09 30.2427 118.266 30.1808 118.426 30.0885C118.479 30.0539 118.522 30.0063 118.551 29.9502C118.58 29.894 118.594 29.8313 118.591 29.7682C118.562 29.548 118.496 29.334 118.398 29.1347L118.053 28.3324C116.739 28.3324 115.535 28.3668 114.434 28.4391L114.241 28.9246C114.159 29.1326 114.11 29.3522 114.096 29.5754C114.096 29.9817 114.331 30.2124 114.807 30.2641C114.884 30.5643 114.918 30.8737 114.91 31.1834C114.566 31.1524 114.045 31.1387 113.324 31.1387C112.71 31.1387 112.268 31.1387 111.992 31.1834C111.984 30.8728 112.024 30.5628 112.109 30.2641C112.229 30.2466 112.343 30.2056 112.446 30.1435C112.549 30.0814 112.639 29.9995 112.71 29.9025C112.948 29.5329 113.145 29.138 113.296 28.7249L116.401 21.122C116.54 21.0902 116.682 21.0707 116.825 21.0635C116.966 21.0635 117.122 21.0635 117.291 21.0635L120.685 28.6388C120.892 29.1002 121.057 29.4411 121.182 29.6718C121.267 29.8427 121.384 29.9958 121.527 30.1229C121.637 30.2097 121.77 30.2634 121.91 30.2778C121.999 30.5737 122.045 30.8812 122.044 31.1903ZM117.684 27.5163L116.887 25.65C116.618 25.0335 116.388 24.401 116.197 23.7562C115.997 24.4104 115.78 25.0336 115.545 25.6362L114.797 27.5163H117.684Z" fill="#FDBA61"/>
<path d="M128.129 30.6158C127.393 30.1765 126.795 29.5393 126.404 28.7771C125.978 27.9419 125.765 27.0147 125.783 26.0775C125.753 25.1132 125.992 24.1596 126.473 23.3228C126.912 22.5859 127.552 21.9888 128.319 21.6012C129.092 21.2095 129.949 21.0087 130.816 21.0158C131.947 21.0242 133.061 21.2879 134.076 21.7871C133.958 22.5457 133.904 23.3128 133.914 24.0804C133.546 24.2217 133.152 24.2816 132.758 24.256C132.737 23.4089 132.568 22.8075 132.251 22.4517C132.075 22.2661 131.86 22.1219 131.621 22.0296C131.383 21.9373 131.127 21.8992 130.871 21.918C130.46 21.8921 130.05 21.9792 129.685 22.1698C129.32 22.3604 129.015 22.6473 128.802 22.9992C128.329 23.8223 128.097 24.7611 128.132 25.7091C128.086 26.8353 128.391 27.9481 129.005 28.8942C129.273 29.2924 129.64 29.6147 130.07 29.8301C130.499 30.0454 130.978 30.1465 131.458 30.1234C131.878 30.1212 132.296 30.055 132.696 29.9272C133.132 29.796 133.55 29.6121 133.941 29.3797C134.031 29.462 134.105 29.56 134.159 29.6689C134.216 29.7774 134.258 29.8933 134.283 30.0133C133.282 30.8569 132.005 31.3052 130.695 31.2735C129.796 31.2912 128.909 31.0638 128.129 30.6158Z" fill="#FDBA61"/>
<path d="M144.648 21.0977C144.651 21.4069 144.612 21.7151 144.531 22.0136C144.279 22.0711 144.056 22.2195 143.907 22.4303C143.65 22.8188 143.42 23.2237 143.217 23.6423L140.505 29.0587C140.221 29.7124 139.793 30.2938 139.253 30.7597C138.82 31.1 138.283 31.2833 137.732 31.2797C137.413 31.286 137.096 31.2274 136.801 31.1075C136.567 31.0192 136.358 30.8749 136.194 30.6874C136.162 30.5357 136.147 30.381 136.149 30.226C136.142 29.9156 136.186 29.6061 136.28 29.3101C136.757 29.4481 137.252 29.5176 137.749 29.5167C138.132 29.541 138.514 29.4675 138.86 29.3032C139.154 29.1085 139.392 28.8402 139.55 28.525C138.759 27.127 137.819 25.5339 136.732 23.7456C136.456 23.287 136.149 22.8476 135.814 22.4303C135.641 22.2142 135.396 22.0665 135.124 22.0136C135.056 21.7132 135.026 21.4055 135.035 21.0977C135.478 21.1275 136.19 21.1425 137.17 21.1425C138.108 21.1425 138.834 21.1275 139.346 21.0977C139.351 21.4035 139.319 21.7087 139.25 22.0068C139.064 22.0205 138.883 22.0684 138.715 22.1479C138.665 22.1742 138.623 22.2139 138.595 22.2626C138.566 22.3113 138.552 22.367 138.553 22.4234C138.603 22.7043 138.714 22.9711 138.877 23.205C139.689 24.5479 140.317 25.6246 140.761 26.4349C141.306 25.457 141.82 24.4504 142.303 23.4151C142.428 23.1709 142.503 22.9038 142.523 22.63C142.528 22.5532 142.515 22.4763 142.485 22.4057C142.454 22.335 142.407 22.2726 142.347 22.2237C142.173 22.1085 141.975 22.0343 141.768 22.0068C141.696 21.7068 141.661 21.3992 141.664 21.0908C142.051 21.1218 142.548 21.1356 143.162 21.1356C143.776 21.1356 144.293 21.1287 144.648 21.0977Z" fill="#FDBA61"/>
<path d="M154.835 31.1911C154.407 31.1601 153.628 31.1463 152.489 31.1463C151.583 31.1463 150.832 31.1566 150.237 31.1773C150.232 30.873 150.262 30.5692 150.326 30.2717C150.475 30.2567 150.62 30.2195 150.758 30.1615C150.801 30.1384 150.837 30.1028 150.861 30.0593C150.884 30.0157 150.894 29.9662 150.889 29.917C150.872 29.7255 150.817 29.5393 150.727 29.3695C150.62 29.1354 150.444 28.8152 150.209 28.4089L149.519 27.2416L148.643 28.5122C148.229 29.1354 148.022 29.5452 148.022 29.7862C148.018 29.8469 148.031 29.9076 148.058 29.962C148.085 30.0165 148.126 30.0627 148.177 30.0961C148.331 30.1835 148.499 30.243 148.674 30.2717C148.74 30.5736 148.77 30.8822 148.764 31.1911C148.257 31.1601 147.67 31.1463 146.998 31.1463C146.266 31.1463 145.697 31.1463 145.294 31.1911C145.274 30.8709 145.313 30.5498 145.411 30.2442C145.79 30.1538 146.143 29.9796 146.446 29.7345C146.842 29.3897 147.19 28.9936 147.481 28.5569L149.009 26.3979C148.526 25.6266 147.951 24.7337 147.284 23.719C146.96 23.2129 146.708 22.8547 146.535 22.6378C146.413 22.47 146.265 22.3224 146.097 22.2005C145.956 22.1175 145.8 22.0603 145.639 22.0318C145.551 21.7288 145.511 21.4139 145.521 21.0986C146.036 21.1285 146.871 21.1434 148.026 21.1434C148.757 21.1434 149.43 21.1331 150.044 21.1124C150.041 21.4152 150.011 21.7172 149.954 22.0146C149.792 22.0385 149.637 22.0922 149.495 22.173C149.448 22.2008 149.41 22.2408 149.383 22.2886C149.357 22.3365 149.345 22.3905 149.347 22.445C149.43 22.8315 149.596 23.1956 149.833 23.5124L150.768 24.9448L151.554 23.719C151.823 23.3545 152.006 22.9344 152.089 22.4897C152.092 22.4289 152.08 22.3683 152.054 22.3131C152.028 22.2579 151.989 22.2098 151.941 22.173C151.803 22.0846 151.645 22.0303 151.482 22.0146C151.412 21.7145 151.382 21.4066 151.392 21.0986C151.875 21.1296 152.427 21.1434 153.079 21.1434C153.731 21.1434 154.3 21.1434 154.666 21.0986C154.674 21.4065 154.644 21.7141 154.576 22.0146C154.356 22.0709 154.145 22.1566 153.948 22.2694C153.753 22.3943 153.579 22.5488 153.431 22.7273C153.18 23.0268 152.949 23.3432 152.741 23.6743L151.33 25.8195C151.648 26.3222 152.124 27.0935 152.755 28.1265C153.12 28.7394 153.409 29.1882 153.621 29.4728C153.774 29.6971 153.962 29.8948 154.179 30.0582C154.354 30.1692 154.551 30.242 154.756 30.2717C154.834 30.5714 154.861 30.8823 154.835 31.1911Z" fill="#FDBA61"/>
<path d="M165.566 31.1903C165.092 31.1582 164.41 31.1433 163.52 31.1456C162.504 31.1456 161.773 31.1605 161.327 31.1903C161.316 30.8805 161.351 30.5707 161.43 30.271C161.612 30.2427 161.788 30.1808 161.947 30.0885C162 30.0539 162.044 30.0063 162.073 29.9502C162.102 29.894 162.116 29.8313 162.113 29.7682C162.084 29.548 162.018 29.334 161.92 29.1347L161.575 28.3324C160.26 28.3324 159.053 28.3679 157.956 28.4391L157.763 28.9246C157.681 29.1326 157.632 29.3522 157.618 29.5754C157.618 29.9817 157.853 30.2124 158.329 30.2641C158.405 30.5643 158.44 30.8737 158.432 31.1834C158.087 31.1524 157.567 31.1387 156.846 31.1387C156.232 31.1387 155.79 31.1387 155.514 31.1834C155.506 30.8728 155.546 30.5628 155.631 30.2641C155.751 30.2466 155.865 30.2056 155.968 30.1435C156.071 30.0814 156.161 29.9995 156.232 29.9025C156.47 29.5329 156.667 29.138 156.818 28.7249L159.923 21.122C160.062 21.0902 160.204 21.0707 160.347 21.0635C160.488 21.0635 160.644 21.0635 160.813 21.0635L164.207 28.6388C164.414 29.1002 164.579 29.4411 164.704 29.6718C164.788 29.8434 164.905 29.9967 165.049 30.1229C165.159 30.2102 165.292 30.264 165.431 30.2778C165.52 30.5741 165.565 30.8813 165.566 31.1903ZM161.206 27.5163L160.406 25.65C160.138 25.0329 159.908 24.4005 159.716 23.7562C159.516 24.4104 159.298 25.0336 159.06 25.6362L158.319 27.5163H161.206Z" fill="#FDBA61"/>
<path d="M175.742 29.6898C175.78 29.8642 175.884 30.0173 176.032 30.1167C176.224 30.2171 176.437 30.2703 176.653 30.2717C176.735 30.571 176.77 30.8811 176.757 31.1911C176.241 31.1589 175.54 31.144 174.652 31.1463C173.693 31.1463 172.908 31.1612 172.296 31.1911C172.287 30.8804 172.327 30.5701 172.414 30.2717C172.628 30.2715 172.839 30.2182 173.028 30.1167C173.173 30.016 173.275 29.8631 173.31 29.6898C173.375 29.3902 173.403 29.0837 173.393 28.7773V26.4565C172.186 26.4366 170.978 26.4803 169.775 26.5873V28.7773C169.765 29.0841 169.795 29.3908 169.864 29.6898C169.904 29.8653 170.01 30.0185 170.161 30.1167C170.354 30.2175 170.568 30.2707 170.785 30.2717C170.853 30.5733 170.882 30.8822 170.872 31.1911C170.368 31.1589 169.667 31.144 168.767 31.1463C167.82 31.1463 167.039 31.1612 166.425 31.1911C166.42 30.8815 166.455 30.5724 166.529 30.2717C166.746 30.2699 166.96 30.2168 167.153 30.1167C167.227 30.068 167.29 30.0051 167.339 29.9318C167.388 29.8586 167.422 29.7763 167.439 29.6898C167.504 29.3902 167.532 29.0837 167.522 28.7773V23.4952C167.533 23.1945 167.505 22.8936 167.439 22.5999C167.403 22.4314 167.303 22.2833 167.16 22.1867C166.964 22.0857 166.749 22.027 166.529 22.0146C166.449 21.716 166.414 21.4074 166.425 21.0986C166.929 21.1285 167.685 21.1434 168.695 21.1434C169.555 21.1434 170.281 21.1285 170.872 21.0986C170.872 21.2674 170.872 21.443 170.872 21.5876C170.865 21.7338 170.834 21.8779 170.782 22.0146C170.566 22.0287 170.355 22.0848 170.161 22.1798C170.087 22.2256 170.024 22.2857 169.974 22.3568C169.924 22.4278 169.889 22.5082 169.871 22.5931C169.806 22.8891 169.778 23.1922 169.789 23.4952V25.5233H173.4V23.4952C173.411 23.1945 173.383 22.8936 173.317 22.5999C173.278 22.4317 173.177 22.2842 173.035 22.1867C172.84 22.0851 172.626 22.0264 172.407 22.0146C172.327 21.716 172.292 21.4074 172.303 21.0986C172.828 21.1285 173.583 21.1434 174.57 21.1434C175.439 21.1434 176.17 21.1285 176.763 21.0986C176.776 21.4084 176.737 21.718 176.646 22.0146C176.432 22.0275 176.223 22.0838 176.032 22.1798C175.887 22.275 175.785 22.4235 175.749 22.5931C175.684 22.8891 175.656 23.1922 175.666 23.4952V28.7773C175.654 29.0834 175.68 29.3899 175.742 29.6898Z" fill="#FDBA61"/>
<path d="M180.248 30.6149C179.499 30.1831 178.892 29.5445 178.499 28.7762C178.077 27.9456 177.867 27.0246 177.885 26.0938C177.864 25.1602 178.086 24.2371 178.53 23.4149C178.942 22.6617 179.562 22.0425 180.317 21.6313C181.107 21.2033 181.994 20.9863 182.893 21.0011C183.807 20.9825 184.711 21.197 185.518 21.6244C186.266 22.0283 186.883 22.6362 187.298 23.377C187.733 24.1772 187.952 25.0768 187.933 25.9871C187.949 26.9325 187.734 27.8676 187.305 28.7108C186.901 29.4922 186.284 30.1438 185.525 30.5908C184.728 31.0566 183.817 31.2948 182.893 31.2795C181.968 31.2982 181.054 31.0687 180.248 30.6149ZM184.918 29.2376C185.385 28.3495 185.607 27.3539 185.563 26.3521C185.572 25.5975 185.45 24.8471 185.201 24.1346C184.997 23.5253 184.641 22.9778 184.166 22.5437C183.753 22.166 183.212 21.9571 182.652 21.9584C182.296 21.9565 181.947 22.0494 181.64 22.2273C181.332 22.4053 181.078 22.6619 180.903 22.9707C180.426 23.8153 180.2 24.7779 180.251 25.746C180.244 26.5226 180.354 27.2957 180.579 28.0393C180.755 28.6701 181.088 29.246 181.548 29.7128C181.757 29.9155 182.004 30.0747 182.276 30.1811C182.547 30.2875 182.837 30.339 183.128 30.3326C183.499 30.3352 183.863 30.234 184.18 30.0404C184.496 29.8469 184.752 29.5688 184.918 29.2376Z" fill="#FDBA61"/>
<path d="M197.819 28.2608C197.835 28.6672 197.751 29.0712 197.576 29.4383C197.4 29.8053 197.138 30.1244 196.812 30.3681C196.143 30.8881 195.087 31.1463 193.642 31.1463C191.772 31.1463 190.25 31.1612 189.075 31.1911C189.066 30.8821 189.096 30.5732 189.164 30.2717C189.384 30.2692 189.6 30.2162 189.796 30.1167C189.872 30.0661 189.938 30.0008 189.989 29.9245C190.04 29.8482 190.075 29.7626 190.092 29.6726C190.155 29.354 190.181 29.0294 190.172 28.705V23.4952C190.181 23.1947 190.155 22.8941 190.092 22.5999C190.052 22.4306 189.948 22.2829 189.803 22.1867C189.604 22.0863 189.387 22.0277 189.164 22.0146C189.098 21.7139 189.068 21.4064 189.075 21.0986C189.461 21.1296 189.985 21.1434 190.648 21.1434C191.231 21.1434 191.683 21.1434 192.027 21.1434L193.466 21.1262C194.749 21.1262 195.687 21.3018 196.281 21.653C196.575 21.8283 196.815 22.0825 196.972 22.3868C197.13 22.6911 197.198 23.0334 197.171 23.3747C197.184 23.9522 196.968 24.5116 196.571 24.9311C196.123 25.3786 195.532 25.6552 194.901 25.7127C196.849 25.8045 197.822 26.6539 197.819 28.2608ZM194.352 22.4691C194.088 22.2561 193.774 22.1148 193.439 22.0587C193.104 22.0026 192.761 22.0336 192.441 22.1489V25.5233H192.945C193.207 25.5455 193.472 25.5152 193.722 25.4342C193.973 25.3532 194.205 25.2231 194.404 25.0516C194.564 24.8788 194.687 24.6758 194.767 24.4547C194.847 24.2335 194.882 23.9986 194.87 23.7638C194.887 23.523 194.85 23.2814 194.76 23.0571C194.67 22.8329 194.531 22.6318 194.352 22.4691ZM194.856 29.7793C195.171 29.4064 195.33 28.9268 195.301 28.4398C195.301 27.6984 195.071 27.1773 194.611 26.8766C194.06 26.5494 193.424 26.3924 192.783 26.4255H192.438V28.7773C192.424 29.0955 192.466 29.4137 192.562 29.7173C192.594 29.8107 192.643 29.8968 192.708 29.9707C192.774 30.0446 192.853 30.1048 192.942 30.1477C193.162 30.2303 193.396 30.2678 193.632 30.2579C193.858 30.2699 194.084 30.2334 194.296 30.1509C194.507 30.0683 194.698 29.9416 194.856 29.7793Z" fill="#FDBA61"/>
<path d="M201.314 30.6149C200.565 30.1843 199.957 29.5454 199.565 28.7762C199.142 27.9459 198.93 27.0249 198.947 26.0938C198.928 25.1603 199.15 24.2377 199.593 23.4149C200.005 22.6617 200.625 22.0425 201.379 21.6313C202.171 21.2038 203.06 20.9868 203.96 21.0011C204.872 20.9825 205.775 21.197 206.581 21.6244C207.331 22.0257 207.949 22.6342 208.361 23.377C208.797 24.177 209.017 25.0765 208.999 25.9871C209.016 26.9329 208.799 27.8684 208.368 28.7107C207.964 29.4911 207.348 30.1426 206.592 30.5908C205.794 31.0557 204.883 31.2939 203.96 31.2795C203.034 31.2982 202.12 31.0687 201.314 30.6149ZM205.981 29.2376C206.449 28.3501 206.672 27.354 206.626 26.3521C206.635 25.5975 206.513 24.8471 206.264 24.1346C206.061 23.5244 205.705 22.9766 205.229 22.5437C204.817 22.1665 204.277 21.9576 203.718 21.9584C203.363 21.9562 203.013 22.0489 202.706 22.2269C202.398 22.4049 202.144 22.6617 201.969 22.9707C201.492 23.8153 201.266 24.7779 201.317 25.746C201.309 26.5224 201.418 27.2955 201.642 28.0393C201.817 28.671 202.152 29.2472 202.614 29.7128C202.823 29.9154 203.069 30.0745 203.34 30.181C203.611 30.2874 203.9 30.3389 204.191 30.3326C204.562 30.3355 204.926 30.2345 205.243 30.0409C205.559 29.8473 205.815 29.569 205.981 29.2376Z" fill="#FDBA61"/>
<path d="M31.7078 44C45.9366 43.9909 57 43.9196 57 43.8328C57 43.777 52.4602 43.615 45.4583 43.4918C45.2282 43.4776 44.9968 43.4633 44.7679 43.4374C44.1122 43.3648 43.8319 43.09 43.8152 42.5027C43.7985 41.9155 43.8049 41.9622 43.7843 41.3646C43.7728 40.9925 43.7573 40.6295 44.1958 40.3456L43.7998 40.3042V38.768C44.1045 38.6163 44.3835 38.4569 44.7448 38.5684C44.8301 38.5736 44.9156 38.5604 44.9955 38.5295L45.6203 38.3999C45.7053 38.1601 45.7651 37.912 45.799 37.6597L46.0292 37.9474L46.5614 37.9786C46.5756 37.9384 46.5923 37.8813 46.618 37.8048L46.9909 37.9047L47.4524 37.6026C47.2165 37.5245 46.976 37.4609 46.7324 37.4121C46.5203 37.3809 46.2362 37.4756 46.0986 37.3809C45.9379 37.2721 45.8839 37.0219 45.8196 36.8248C45.7974 36.6894 45.7948 36.5514 45.8119 36.4152C46.2927 36.5331 46.5833 36.3555 46.8559 36.0159C46.4406 36.0742 46.0844 36.2207 45.6769 36.095C45.871 35.9991 46.0626 35.9018 46.3197 35.7774L45.7553 35.4987C46.1834 35.2861 46.3827 35.5894 46.5846 35.6815L47.2351 35.2602L46.0022 34.8531C45.9687 34.6742 45.9405 34.529 45.9109 34.367L46.231 34.2905C46.2194 34.1609 46.2079 34.0312 46.2002 33.9535C46.3287 33.9716 46.4457 33.9962 46.5602 34.0027C46.6322 34.0027 46.7106 33.9573 46.7774 33.969C47.0976 34.0222 47.0963 34.026 47.3406 33.8394L46.8353 33.7473L47.1824 33.2664C46.7672 33.4142 46.6142 33.0292 46.2259 32.8918L46.582 32.7271C46.5589 32.696 46.5357 32.6675 46.5113 32.6364C46.3956 32.6455 46.2786 32.6519 46.1629 32.6623C45.979 32.6792 45.7965 32.6519 45.7219 32.4925C45.6473 32.333 45.7669 32.2125 45.9263 32.1204C46.1092 32.0156 46.2627 31.8658 46.3724 31.6849C46.1423 31.7419 45.9649 31.9143 45.7772 31.6939C45.7553 31.6693 45.6589 31.6849 45.5997 31.6939C45.4506 31.716 45.3027 31.7471 45.1382 31.7769C45.012 31.6279 44.8992 31.4678 44.8013 31.2986C44.7152 31.1184 44.8708 30.981 45.0649 31.0795C45.3426 31.2221 45.4763 31.0354 45.6486 30.9408C45.7471 30.889 45.8287 30.8098 45.8839 30.7126C46.0125 30.4534 46.2914 30.2745 46.3159 29.9141C46.201 29.9743 46.0815 30.025 45.9585 30.0658C45.8643 30.1003 45.7618 30.1044 45.6653 30.0774C45.5153 30.016 45.3857 29.9131 45.2912 29.7806C45.2179 29.638 45.1626 29.3735 45.2449 29.3048C45.502 29.0987 45.4159 28.6826 45.835 28.5892C45.875 28.5717 45.91 28.5441 45.9365 28.5092C45.963 28.4743 45.9803 28.4331 45.9867 28.3896C45.9765 28.2146 45.808 28.3131 45.7065 28.2911C45.6807 28.2846 45.6615 28.2535 45.6383 28.2315C45.6165 28.0279 46.0009 27.9929 45.9019 27.6857C45.4699 28.002 45.0868 28.3494 44.5069 28.2315C44.3539 27.9203 44.7718 28.0176 44.8399 27.8257L44.5532 27.5885C45.0482 27.3085 45.0482 27.3085 44.9132 26.9014L45.1626 26.6642C45.0542 26.6179 44.9546 26.553 44.8682 26.4723C44.6895 26.2325 44.539 25.9758 44.4143 25.7801C44.4388 25.4716 44.4606 25.2136 44.4812 24.9686H44.1675C44.0248 24.6251 43.8898 24.301 43.7098 23.8706C43.6223 24.2128 43.6121 24.4708 43.4899 24.6756C43.3678 24.8804 43.1338 25.0256 42.9435 25.2019C43.2174 25.4612 42.8394 25.6764 42.8985 25.924L42.5539 25.9927C42.6426 26.1586 42.9756 26.1975 42.8496 26.4762C42.5346 26.5929 42.2287 26.5047 41.9137 26.4062C41.991 26.4919 42.0797 26.5665 42.1772 26.6279C42.2724 26.6979 42.4344 26.7264 42.3778 26.9027L42.0101 26.9222C42.1734 27.1477 42.5334 27.0764 42.6876 27.3564H42.0217C42.0062 27.4588 42.0217 27.5638 41.9818 27.582C41.9188 27.6131 41.7787 27.617 41.7465 27.582C41.6709 27.4794 41.607 27.3685 41.5562 27.2514C41.2657 27.2644 41.2657 27.2644 41.0805 27.0531L41.2579 26.9585L40.4171 26.5747C40.6318 26.3297 40.8028 26.0925 41.1538 26.0562C41.1809 26.046 41.2046 26.0285 41.2225 26.0057C41.2405 25.9828 41.2518 25.9555 41.2554 25.9266C41.2284 25.736 41.3942 25.6997 41.5254 25.6401C41.6565 25.5805 41.8185 25.5247 41.9651 25.4677C41.4405 25.4042 40.9365 25.6466 40.403 25.4677C40.5752 25.0567 41.0458 25.3264 41.2875 25.0788C41.1872 24.979 41.096 24.8895 41.0085 24.8001C41.1062 24.664 41.186 24.5512 41.2657 24.4397L41.2078 24.3982L40.6935 24.6575C40.6485 24.5278 40.565 24.4202 40.5945 24.3477C40.6858 24.1686 40.7879 23.9954 40.9005 23.8291C40.935 23.7556 40.9634 23.6792 40.9854 23.601C40.898 23.601 40.8568 23.601 40.8324 23.6113C40.4094 23.9588 39.8745 24.1143 39.3487 24.2738C39.1831 24.3156 39.0107 24.3231 38.8421 24.2958C38.7753 24.288 38.7136 24.1817 38.675 24.1078C38.666 24.0884 38.7766 24.0067 38.846 23.9782C38.9489 23.9509 39.0538 23.9323 39.1597 23.9225C38.9026 23.8434 38.774 23.7125 38.8768 23.4947C38.9742 23.3324 39.0875 23.1804 39.215 23.041L39.4876 23.3326C39.8604 23.3197 39.566 23.085 39.71 22.9632C39.9671 23.1045 40.1895 22.8634 40.475 22.9308C40.4981 22.7648 40.5148 22.6352 40.5405 22.4511C39.9208 22.5496 39.4541 22.9113 38.8691 22.9528C38.9116 22.5172 38.9733 22.4641 39.6611 22.2359C39.4194 21.9274 39.4194 21.9274 39.7897 21.5074L39.4323 21.2481C39.818 21.0602 40.2898 21.0316 40.3875 20.4924C40.1188 20.5676 39.908 20.6116 39.7125 20.6842C39.3963 20.7996 39.0838 20.8696 38.7534 20.7685C38.774 20.5844 39.0903 20.7309 39.053 20.4924C39.053 20.4587 39.2908 20.3938 39.4194 20.3433C39.4091 20.3096 39.4001 20.2772 39.3924 20.2448L38.0489 20.3822C38.1916 20.1385 38.4243 20.1229 38.6158 20.0451C38.8074 19.9674 39.1108 20.0179 39.2201 19.7029L38.5593 19.8209C38.477 19.5201 38.7663 19.4722 38.9566 19.3322C38.6506 19.0184 38.2353 19.2972 37.928 19.1247C37.928 19.0703 37.8817 18.9951 37.9113 18.9575C38.09 18.7695 38.2841 18.5932 38.4731 18.4118C38.1877 18.4831 37.9589 18.3936 37.7236 18.2614L38.1414 17.7701L37.685 17.9205C37.4921 17.6249 37.793 17.4979 37.955 17.2904L37.4729 17.1893C37.4459 17.0299 37.4227 16.8899 37.3944 16.7265L37.2119 16.9054C36.9766 16.6993 37.028 16.4608 36.9792 16.2404C36.9303 16.02 36.8017 15.8243 36.677 15.5495C36.6153 15.6791 36.5832 15.7478 36.5562 15.8087C36.4752 16.0097 36.299 16.2249 36.3376 16.4115C36.3839 16.6838 36.0805 16.8004 36.0946 17.0312C36.0946 17.0934 35.966 17.1608 35.9017 17.223C35.4903 16.873 36.0573 16.7136 36.0303 16.4102C35.5846 16.7268 35.0756 16.941 34.5389 17.0377C34.4811 16.8017 34.7305 16.58 34.4965 16.3402C34.3872 16.5865 34.2201 16.8276 33.9591 16.7512C33.7212 16.6812 33.6633 16.7615 33.5515 16.8808C33.4858 16.9253 33.4132 16.9586 33.3368 16.9793C33.2892 16.8899 33.2545 16.8276 33.2198 16.7615C33.0526 16.8912 32.8958 17.0752 32.6657 16.7797L33.2712 16.2962C32.9652 16.1834 32.6605 16.6345 32.4149 16.2508C32.2388 15.976 32.1668 15.6985 32.4355 15.4004H32.8534L33.1259 15.8515C33.3021 15.7297 33.2854 15.5222 33.5206 15.5365C33.6708 15.5479 33.8204 15.5081 33.9454 15.4235C34.0703 15.3388 34.1635 15.2143 34.2098 15.0698C34.3126 14.8106 34.5132 14.6809 34.7742 14.5928C34.8479 14.5653 34.92 14.5337 34.9902 14.4981C34.9066 13.9602 34.9066 13.9602 35.4453 13.9796C35.2743 13.6828 35.2795 13.6322 35.5032 13.4403C35.813 13.1811 35.813 13.1811 35.4286 12.9218C34.9529 13.1033 34.4939 13.3924 33.8858 13.2926C33.9295 13.1227 33.9681 12.9711 34.0143 12.774C33.7315 12.9801 33.7058 12.9763 33.4024 12.7287C33.1542 12.5264 33.1658 12.4616 33.5219 12.0338L33.0256 11.5775L33.6556 11.4129C33.7842 11.186 33.3689 11.0019 33.6158 10.7543L34.1121 10.8632L33.8253 10.2993H34.7253C34.6392 10.1866 34.562 10.0828 34.4386 9.9234L35.1689 9.83525C35.0146 9.70562 34.6829 9.68358 34.8513 9.38931L35.1239 9.43728C35.0069 9.08467 35.4492 9.07949 35.543 8.828C35.1663 9.16116 34.5081 9.00301 34.2573 9.5008C33.9141 9.26357 33.9089 9.21042 34.1828 9.03801C34.2355 9.0056 34.3332 8.96023 34.3281 8.93948C34.2651 8.71392 34.4502 8.64911 34.6122 8.56874C34.823 8.46632 34.7626 8.2991 34.6932 8.14354L35.0442 8.11761C34.6045 7.96335 34.2728 8.14095 34.0041 8.4041C33.6852 8.74191 33.2784 8.98228 32.8302 9.09764C32.4298 9.16734 32.0259 9.21538 31.6204 9.24153C31.5972 9.24153 31.569 9.20653 31.4918 9.15079C31.6744 8.98615 31.5792 8.77096 31.5612 8.58559L32.3121 8.65429C32.4407 8.35225 32.5371 8.10854 32.6515 7.82723C32.5049 7.8739 32.3532 7.91927 32.2015 7.96983C31.8724 8.08132 31.7284 8.02557 31.5998 7.73131L32.6811 7.51871C32.6657 7.36574 32.6528 7.25167 32.6412 7.14018L32.9408 7.07925C32.7621 6.86277 32.6027 6.67221 32.4484 6.48813L32.7377 6.0733L33.5746 5.86848C33.3175 5.73885 33.0076 5.97608 32.8868 5.66625C32.8251 5.64513 32.7579 5.64744 32.6978 5.67274C32.5949 5.74792 32.4947 5.75052 32.4484 5.65199C32.4301 5.56861 32.4443 5.48132 32.4882 5.40829C32.5859 5.18921 32.6978 4.97272 32.8302 4.70308L32.1424 4.77697C32.0268 4.70691 31.9202 4.62289 31.8248 4.52678C31.7662 4.4066 31.723 4.27941 31.6962 4.14825C31.3491 3.92399 31.344 3.88899 31.6654 3.62972C31.4867 3.25767 31.4944 3.24082 31.8865 3.10082C31.9611 3.0723 32.0151 2.99452 32.1167 2.90118C31.9444 2.85581 31.8222 2.78322 31.731 2.80785C31.4288 2.88822 31.4327 2.90118 31.2334 2.64192C31.326 2.63025 31.4391 2.64192 31.4635 2.60692C31.5918 2.40904 31.7094 2.20436 31.8158 1.99375C31.8248 1.9782 31.7605 1.91468 31.722 1.9056C31.6983 1.90286 31.6743 1.90578 31.652 1.91411C31.6297 1.92244 31.6096 1.93596 31.5934 1.95357C31.5747 2.01186 31.5643 2.07253 31.5625 2.13376L30.7255 2.03394C30.7718 1.81097 30.8014 1.59708 30.4941 1.46485C30.3655 1.41041 30.4157 1.25225 30.5468 1.15503C30.5893 1.12262 30.5995 1.05392 30.6201 1.00854L30.21 0.820576C30.2318 0.203524 30.1791 0.090743 29.8191 0C29.6751 0.300748 29.4424 0.596311 29.409 0.90743C29.3668 1.24015 29.2958 1.56851 29.1968 1.88875C28.8459 1.82134 28.9127 1.59319 28.8999 1.36374C28.806 1.59967 28.6003 1.75264 28.7456 2.0119C28.7893 2.09098 28.6594 2.27117 28.5746 2.37876C28.4601 2.52784 28.3406 2.36191 28.2249 2.36062C28.1003 2.37645 27.9789 2.41142 27.8649 2.46432C27.9253 2.76637 28.2351 2.79618 28.4486 2.90896L28.2969 3.18119L28.518 3.3549C28.3997 3.44046 28.3123 3.50398 28.2789 3.52602L27.6437 3.2473C27.6784 3.38601 27.7852 3.43786 27.8456 3.51694C27.8884 3.59481 27.918 3.67939 27.933 3.76713L28.3534 3.88899C28.2776 3.99918 28.2467 4.10807 28.176 4.13529C27.9521 4.23384 27.7052 4.26666 27.4637 4.22997C27.2221 4.19328 26.9957 4.08856 26.8106 3.92788C26.8106 4.04455 26.8312 4.18714 26.8736 4.18714C27.1565 4.22603 27.1423 4.63567 27.4984 4.57604C27.5216 4.57604 27.5614 4.67586 27.6039 4.71993C27.6491 4.76898 27.7038 4.80824 27.7646 4.83531C27.8153 4.84926 27.8624 4.87396 27.9028 4.90776C27.9433 4.94156 27.9761 4.98367 27.9991 5.03128C28.0221 5.0789 28.0348 5.13092 28.0362 5.18386C28.0377 5.2368 28.0279 5.28945 28.0076 5.33828C27.9484 5.51588 27.7993 5.5807 27.555 5.48995C27.408 5.41947 27.2412 5.40252 27.0832 5.44199C26.9006 5.48477 26.6705 5.36551 26.4596 5.31884C26.2179 5.26569 26.0983 5.11272 26.0829 4.84568C25.9389 5.03753 25.8438 5.16328 25.7409 5.30328C25.8438 5.40699 25.9428 5.5094 26.034 5.60403L26.4982 5.45236C26.4172 5.62866 26.3696 5.71163 26.3387 5.80626C26.3337 5.84664 26.3367 5.88765 26.3477 5.92682L26.709 5.8607C26.8376 5.95145 26.7257 6.2146 27.0112 6.16145C27.0202 6.16145 27.087 6.27423 27.0677 6.30664C27.0343 6.36368 26.9469 6.43627 26.8955 6.43627C26.7103 6.40905 26.5316 6.35072 26.3516 6.30664C26.196 6.26905 26.0392 6.23534 25.8708 6.19775C25.8425 6.60091 26.268 6.49072 26.3927 6.66832C26.5457 6.8848 26.9327 6.69165 26.9829 6.94314L27.3454 6.87443L27.4059 6.95999L27.1256 7.30611C26.6614 7.15378 26.1775 7.0708 25.6895 7.05981C25.665 7.14666 25.6419 7.23352 25.6136 7.33722L25.8708 7.47463L26.1472 7.28537C26.1652 7.48889 26.1767 7.63279 26.1909 7.77927C26.5432 7.71445 26.5432 7.71445 26.763 7.95816C26.3118 8.03973 25.8471 7.99489 25.4195 7.82853C24.9769 7.63177 24.5024 7.51842 24.0194 7.49408C24.1016 7.61245 24.1734 7.7378 24.2341 7.86872C24.2761 8.01397 24.3075 8.16216 24.3279 8.31206C24.7393 8.12798 24.9232 8.4417 25.1611 8.62188L25.5468 8.49225C25.53 8.66596 25.5185 8.78911 25.5005 8.99004C25.2935 8.89541 25.1675 8.828 25.0351 8.78004C24.9264 8.74051 24.8132 8.71482 24.6982 8.70355C24.6776 8.70355 24.6468 8.81763 24.6159 8.89152L24.9515 8.94726C25.0096 9.07854 25.0835 9.20217 25.1713 9.31542C25.2751 9.40096 25.3881 9.47445 25.5082 9.5345C25.6779 9.88581 25.2806 10.0245 25.1675 10.333C25.602 10.1904 25.8283 10.4432 26.1125 10.569C26.4365 10.7129 26.448 11.0045 26.6036 11.2444C26.1228 11.3118 25.3102 11.0331 22.7941 9.87025L22.6732 10.1114C22.9304 10.3434 23.2608 10.5314 23.3277 10.8801C23.4105 10.8045 23.5035 10.7412 23.6041 10.6921C23.7468 10.6455 23.8998 10.6921 23.9216 10.8412C23.9551 11.0745 23.9512 11.3131 23.9679 11.6268C24.0776 11.491 24.1943 11.3612 24.3176 11.2379C24.3453 11.2218 24.3761 11.2121 24.4078 11.2094C24.4396 11.2068 24.4716 11.2112 24.5015 11.2223C24.5452 11.247 24.5915 11.3364 24.5748 11.374C24.5229 11.4867 24.453 11.5901 24.3678 11.6799C24.2388 11.7952 24.104 11.9038 23.9641 12.0053C24.2829 12.1116 24.4141 11.9405 24.5465 11.7927C24.6789 11.6449 24.7792 11.492 24.9103 11.3533C24.9304 11.3267 24.9562 11.3051 24.9859 11.2903C25.0156 11.2754 25.0482 11.2677 25.0813 11.2677C25.1145 11.2677 25.1471 11.2754 25.1768 11.2903C25.2065 11.3051 25.2323 11.3267 25.2523 11.3533C25.1996 11.8484 25.1996 11.8484 25.6059 11.982C25.6959 11.7784 25.7808 11.5607 26.0366 11.4634C26.1055 11.5874 26.1931 11.6998 26.2963 11.7966C26.5792 11.9846 26.5252 12.2335 26.4789 12.4733C26.4326 12.7131 26.1768 12.6807 25.9839 12.7209C25.9672 12.7209 25.9582 12.7611 25.9466 12.7831C26.1536 12.8635 26.3143 13.0424 26.5895 12.9192C26.6161 12.9076 26.6455 12.9037 26.6742 12.908C26.703 12.9122 26.73 12.9245 26.7523 12.9433C26.7745 12.9621 26.7912 12.9868 26.8003 13.0146C26.8095 13.0424 26.8108 13.0722 26.8042 13.1007C26.7769 13.1943 26.7399 13.2847 26.6936 13.3703C26.0405 13.3703 25.4195 13.3535 24.8563 13.0242C24.6607 12.8967 24.4424 12.8086 24.2135 12.765C24.1332 12.761 24.0545 12.7408 23.9821 12.7056C23.9096 12.6704 23.8449 12.6209 23.7918 12.5601C23.5765 12.3324 23.29 12.1864 22.9805 12.1466C23.3444 12.5692 23.5012 13.1111 23.9834 13.43C23.9272 13.501 23.8749 13.575 23.8265 13.6516C23.6709 13.9187 23.6118 13.9355 23.3264 13.7722C23.1978 13.6983 23.0692 13.614 22.9407 13.5531C22.9047 13.5363 22.8121 13.5778 22.7774 13.614C22.7568 13.6309 22.7774 13.7268 22.7992 13.7346C23.0371 13.8059 23.0409 14.0768 23.4099 14.1507L22.8198 14.423C22.8262 14.5396 22.8352 14.6822 22.8417 14.7963C22.9921 14.8132 23.1772 14.7859 23.2865 14.8559C23.4832 14.9856 23.5436 14.7432 23.6722 14.7782L24.1158 15.1074C24.0194 15.3071 23.8792 15.3667 23.6555 15.3291C23.0667 15.2409 22.4714 15.18 21.8838 15.088C21.7154 15.0608 21.6267 15.088 21.5624 15.2371C21.8401 15.3382 22.1075 15.4548 22.3865 15.5326C22.5588 15.5806 22.7581 15.613 22.7722 15.7815C22.7825 15.9111 22.6642 16.0408 22.6012 16.1704C22.9484 16.1341 23.2518 16.44 23.7095 16.3208C23.6658 16.4997 23.6375 16.6176 23.6092 16.7343L24.2289 16.8108C23.9409 17.1154 23.6079 17.1362 23.2557 17.1154L23.4549 17.4603H23.0821C23.0487 17.6197 23.0705 17.8012 22.9805 17.8725C22.8391 17.984 22.5948 17.9892 22.4495 18.1019C22.3042 18.2147 22.2811 18.4455 22.0111 18.5129C21.8163 18.5642 21.6176 18.5993 21.4171 18.6179C21.406 18.6083 21.398 18.5957 21.394 18.5816C21.3464 18.3418 21.1137 18.2666 20.9543 18.1305L21.5122 17.5004H21.0378C21.0738 17.4603 21.106 17.4201 21.1355 17.3812C21.0618 17.342 20.9976 17.2866 20.9478 17.2191H20.9401C20.8733 17.1569 20.7447 17.0895 20.7473 17.0273C20.7588 16.7914 20.4567 16.6799 20.503 16.4076C20.5364 16.221 20.3667 16.0058 20.2844 15.8048C20.2574 15.7387 20.2266 15.6752 20.1636 15.5456C20.035 15.8204 19.9064 16.0213 19.8614 16.2365C19.8164 16.4517 19.8614 16.6954 19.6287 16.9015L19.4461 16.7226C19.4179 16.886 19.3947 17.026 19.3677 17.1854L18.8856 17.2865C19.0476 17.494 19.3484 17.621 19.1556 17.9166L18.7004 17.7662C18.8611 17.9568 18.9781 18.0955 19.117 18.2575C18.8766 18.3871 18.6529 18.4792 18.3687 18.4079C18.5564 18.5894 18.7544 18.7657 18.9293 18.9536C18.9589 18.9847 18.919 19.0664 18.9139 19.1209C18.6014 19.2933 18.1862 19.0146 17.8853 19.3283C18.0743 19.4683 18.3649 19.5162 18.2826 19.817L17.6205 19.699C17.731 20.014 18.0242 19.9583 18.2247 20.0412C18.4253 20.1242 18.6503 20.1346 18.7917 20.3783L17.4495 20.2409C17.4405 20.2733 17.4315 20.3057 17.4212 20.3394C17.5497 20.39 17.7927 20.4548 17.7876 20.4885C17.7503 20.727 18.0666 20.5805 18.0872 20.7646C17.7567 20.8657 17.4443 20.7957 17.1293 20.6803C16.9326 20.6077 16.723 20.5637 16.453 20.4885C16.5508 21.0278 17.0213 21.0563 17.4083 21.2442L17.0522 21.5035C17.416 21.9235 17.416 21.9235 17.1807 22.232C17.8686 22.4602 17.9303 22.5133 17.974 22.9489C17.3903 22.9074 16.9236 22.5458 16.3026 22.4472C16.3283 22.6313 16.345 22.7609 16.3695 22.9269C16.6549 22.8595 16.8773 23.1006 17.1332 22.9593C17.2772 23.0811 16.9827 23.3158 17.3556 23.3287L17.6282 23.0371C17.756 23.1765 17.8697 23.3285 17.9676 23.4908C18.0717 23.7086 17.9406 23.8395 17.6834 23.9186C17.7898 23.9286 17.8951 23.9473 17.9984 23.9743C18.0666 23.9976 18.1772 24.0793 18.1682 24.1039C18.1347 24.1778 18.0679 24.2841 18.001 24.2919C17.8324 24.3191 17.6601 24.3116 17.4945 24.2699C16.9686 24.1104 16.4338 23.9549 16.012 23.6074C15.9928 23.5919 15.9452 23.6074 15.8578 23.5971C15.8804 23.6752 15.9087 23.7514 15.9426 23.8252C16.0552 23.9915 16.1574 24.1647 16.2486 24.3438C16.2782 24.4164 16.1946 24.524 16.1496 24.6536L15.6353 24.3943L15.5762 24.4358L15.8333 24.7962L15.5531 25.0749C15.7986 25.3251 16.2653 25.0554 16.4376 25.4638C15.9079 25.644 15.4001 25.4016 14.8755 25.4638C15.0221 25.5208 15.1725 25.5727 15.3152 25.6362C15.4579 25.6997 15.6122 25.7321 15.5852 25.9227C15.589 25.9517 15.6006 25.9791 15.6187 26.0019C15.6369 26.0248 15.6608 26.0422 15.6881 26.0523C16.039 26.0899 16.2088 26.3271 16.4248 26.5709L15.5903 26.9481L15.7665 27.0427C15.5813 27.254 15.5813 27.254 15.2908 27.2411C15.24 27.3582 15.1761 27.4691 15.1005 27.5716C15.0683 27.6092 14.9295 27.6053 14.8652 27.5716C14.8266 27.5535 14.8408 27.442 14.8253 27.3461H14.1606C14.3136 27.0661 14.6749 27.1374 14.8382 26.9118L14.4692 26.8923C14.4075 26.716 14.5746 26.6875 14.6711 26.6175C14.7664 26.5557 14.8529 26.4812 14.9282 26.3959C14.6132 26.4944 14.3072 26.5825 13.9922 26.4659C13.8636 26.1871 14.2005 26.1483 14.2879 25.9823L13.9434 25.9136C14.0025 25.666 13.6245 25.4495 13.8984 25.1916C13.7081 25.0153 13.4741 24.8675 13.3519 24.6653C13.2298 24.463 13.2234 24.2025 13.1334 23.8602L12.668 24.9686H12.3478C12.3684 25.2136 12.389 25.4716 12.4134 25.7801C12.2848 25.9758 12.1382 26.2325 11.9595 26.4723C11.8736 26.553 11.7744 26.6179 11.6664 26.6642C11.7333 26.7277 11.8284 26.8198 11.9158 26.9014C11.7795 27.3085 11.7795 27.3085 12.2758 27.5885L11.9891 27.8231C12.0585 28.015 12.4751 27.9177 12.3221 28.2289C11.7435 28.3468 11.3591 27.9994 10.9284 27.6831C10.8281 27.9903 11.2125 28.0253 11.192 28.2289C11.1675 28.2509 11.1495 28.282 11.1225 28.2885C11.021 28.3105 10.8526 28.212 10.8436 28.387C10.8494 28.4309 10.8666 28.4725 10.8934 28.5076C10.9203 28.5426 10.9559 28.5699 10.9965 28.5866C11.4157 28.68 11.3321 29.0961 11.5854 29.3022C11.669 29.3709 11.6137 29.6354 11.5404 29.778C11.4457 29.9097 11.3166 30.0125 11.1675 30.0748C11.071 30.1018 10.9685 30.0977 10.8744 30.0632C10.751 30.0225 10.631 29.9717 10.5157 29.9115C10.5414 30.2719 10.8243 30.4573 10.9477 30.71C11.0028 30.8072 11.0845 30.8864 11.183 30.9382C11.3553 31.0328 11.4903 31.2195 11.7667 31.0769C11.9608 30.9784 12.1164 31.1158 12.0315 31.296C11.9327 31.465 11.8196 31.625 11.6934 31.7743C11.5288 31.7445 11.381 31.7134 11.2318 31.6914C11.1727 31.6823 11.0763 31.6667 11.0544 31.6914C10.8667 31.9117 10.6893 31.7393 10.4591 31.6823C10.5689 31.8632 10.7224 32.013 10.9053 32.1178C11.066 32.2099 11.1894 32.324 11.1097 32.4899C11.03 32.6558 10.8526 32.6766 10.6687 32.6597C10.553 32.6493 10.4373 32.6429 10.3203 32.6338L10.2496 32.7245L10.6108 32.8892C10.2251 33.0266 10.0683 33.4077 9.653 33.2638L10.0001 33.7447L9.49486 33.8368C9.74043 34.0222 9.73914 34.0183 10.058 33.9664C10.1261 33.9547 10.2033 34.0027 10.2753 34.0001C10.3897 34.0001 10.5041 33.969 10.6353 33.9509C10.6353 34.0286 10.6173 34.157 10.6057 34.2879L10.9258 34.3644C10.895 34.5264 10.8667 34.6716 10.8346 34.8505L9.59643 35.2602L10.2483 35.6815C10.4488 35.5894 10.6481 35.2861 11.0763 35.4987L10.5118 35.7787C10.769 35.9083 10.9606 36.0004 11.1547 36.0963C10.751 36.2259 10.391 36.0755 9.97571 36.0172C10.2457 36.3568 10.5388 36.5357 11.0197 36.4165C11.0375 36.5526 11.0349 36.6907 11.012 36.8261C10.9477 37.0232 10.895 37.2733 10.733 37.3822C10.5954 37.4769 10.3126 37.3822 10.1004 37.4133C9.85659 37.4586 9.61572 37.5188 9.37914 37.5935L9.83942 37.9008L10.2123 37.801C10.2367 37.8774 10.256 37.9306 10.2688 37.9747L10.8024 37.9436L11.0313 37.6558C11.0649 37.9083 11.1253 38.1564 11.2113 38.396L11.8348 38.5256C11.9167 38.5574 12.0045 38.5707 12.092 38.5645C12.4532 38.453 12.7348 38.6125 13.0369 38.7641V40.3003L12.6422 40.3418C13.0794 40.6257 13.0639 40.9899 13.0524 41.3607C13.0318 41.9583 13.0395 41.8999 13.0215 42.4989C13.0035 43.0978 12.7245 43.3609 12.0688 43.4335C11.8117 43.462 11.5661 43.4776 11.3141 43.4931C4.44465 43.615 0 43.7744 0 43.8289C0 43.9222 12.7592 43.9974 28.5 43.9974H31.7142L31.7078 44ZM33.0051 13.0424C33.1452 12.8479 33.3291 12.8479 33.5682 13.0113L33.4654 13.4365C33.3543 13.4707 33.2381 13.4852 33.1221 13.4792C32.9678 13.4468 32.9035 13.1837 33.0051 13.0424ZM42.0525 32.1567C42.2814 32.0906 42.5308 32.1036 42.6799 31.878C42.7134 31.8262 42.8882 31.8469 43.0258 31.8314C42.9165 32.3667 42.3534 32.3227 41.9805 32.5716C41.8211 32.359 41.8764 32.2086 42.0525 32.1567ZM38.5233 26.9973C38.8871 26.7264 39.1661 27.0116 39.4773 27.0907C39.4901 27.1412 39.5145 27.1801 39.5017 27.1996C39.215 27.7026 39.2188 27.6935 38.6454 27.4485C38.2597 27.2838 37.847 27.1581 37.5963 26.729C37.9383 26.8029 38.2944 26.6201 38.5233 26.9973ZM39.0247 31.4386C38.7033 31.4891 38.4449 31.6602 38.1157 31.5591C38.1041 31.2999 38.2983 31.2999 38.4809 31.2571C38.6878 31.2104 38.8704 31.191 39.0247 31.4386ZM37.784 36.2972C38.0849 36.117 38.5644 36.0263 38.5747 35.474C38.9103 35.8409 39.4426 35.7268 39.6483 36.1131C39.7035 36.2142 39.7768 36.362 39.7357 36.4359C39.6945 36.5098 39.5094 36.5293 39.3834 36.5396C39.2117 36.5435 39.04 36.5365 38.8691 36.5189L39.2548 36.8456C39.0093 37.0115 38.7894 37.1476 38.5863 37.3019C38.3831 37.4561 38.3471 37.7089 38.3291 37.9111L38.9463 38.2339L39.2266 38.081C39.5557 38.3312 39.1828 38.4491 39.107 38.6617C39.5004 38.733 39.8373 38.8808 40.223 38.571C40.4888 38.3657 40.8243 38.2749 41.1564 38.3182C41.1924 38.4478 41.2284 38.5775 41.285 38.7628C41.4032 38.6812 41.5035 38.6163 41.5999 38.5489C41.6976 38.467 41.8012 38.3925 41.9098 38.326C42.0608 38.2364 42.2373 38.2005 42.4109 38.224C42.5846 38.2475 42.7454 38.3291 42.8676 38.4556C42.9962 38.5775 43.2791 38.5852 43.2534 38.8302C43.2276 39.0752 43.3189 39.3371 43.0515 39.4641C43.1158 39.6599 43.2225 39.8375 43.2225 40.0151C43.2225 41.0716 43.1878 41.4722 43.1916 42.5313C43.1916 42.8424 43.0052 43.0498 42.8059 43.2455C42.7098 43.3119 42.5943 43.3435 42.4781 43.335C41.2232 43.3091 39.9671 43.2909 38.7136 43.2365C38.4366 43.2359 38.1685 43.138 37.9554 42.9596C37.7423 42.7812 37.5976 42.5334 37.5462 42.259C37.5282 42.1696 37.5256 42.075 37.4999 41.9868C37.361 41.5149 37.4999 41.7703 37.8727 41.441C37.8496 41.2894 37.8303 41.1533 37.8084 40.999L37.4459 40.9121C37.4239 40.7835 37.4093 40.6536 37.4022 40.5232C37.4022 39.2969 37.4022 38.0706 37.3944 36.8456C37.388 36.5772 37.5166 36.4618 37.784 36.2972ZM34.3666 18.0319C34.4103 17.8051 34.5839 17.7817 34.7729 17.7104C35.1676 17.5588 35.174 17.5225 35.2113 17.0778C35.5315 17.0688 35.606 17.2917 35.7937 17.4991H35.3168L35.8747 18.1292C35.7166 18.2653 35.4826 18.3405 35.435 18.5803C35.4209 18.6542 35.2216 18.7099 35.0956 18.7488C34.924 18.7922 34.7502 18.826 34.5749 18.8499C34.5642 18.8044 34.5447 18.7614 34.5173 18.7236C34.4899 18.6858 34.4554 18.6539 34.4156 18.6297C34.3758 18.6056 34.3317 18.5897 34.2857 18.583C34.2398 18.5763 34.193 18.5789 34.1481 18.5907C34.0838 18.3405 34.3319 18.2173 34.3666 18.0371V18.0319ZM34.814 33.3545C34.5711 33.7655 34.2098 33.1368 33.9282 33.5684V33.0369L34.2921 33.1821L34.5891 32.9306C34.6713 33.0901 34.7433 33.2249 34.814 33.3597V33.3545ZM34.1571 22.7596C34.0491 22.9204 33.9693 23.0513 33.8755 23.1732C33.8326 23.2374 33.7711 23.2867 33.6993 23.3145C33.4229 23.3949 33.1426 23.4571 32.8636 23.5271C32.9819 22.8763 33.4435 22.5911 34.1571 22.7648V22.7596ZM32.9549 26.9079C33.0411 26.8962 33.1336 26.8599 33.1619 26.8846C33.3238 27.0112 33.4713 27.1555 33.6016 27.315C33.6904 27.4342 33.6081 27.5625 33.4576 27.6027C33.3347 27.6489 33.2013 27.6587 33.073 27.6309C32.9447 27.6031 32.8271 27.5389 32.7338 27.4459L33.0925 27.2022C33.0526 27.1218 33.0089 27.0285 32.9549 26.9105V26.9079ZM32.4818 21.09C32.6952 20.9785 32.9164 21.042 33.1246 21.0978C33.2725 21.1379 33.3406 21.2689 33.1658 21.357C32.9318 21.4763 33.2686 21.4957 33.1388 21.6448H32.1565C32.3687 21.4918 32.2337 21.2209 32.4818 21.0926V21.09ZM31.7927 10.5897C31.8762 10.6286 31.9829 10.6442 31.9997 10.6895C32.0897 10.9073 32.0318 11.0966 31.8287 11.304L31.56 11.0771C31.6371 10.9216 31.7091 10.7738 31.7927 10.5975V10.5897ZM31.3118 24.979C31.4427 25.0006 31.5656 25.0564 31.6685 25.1407C31.7713 25.2251 31.8505 25.3351 31.8981 25.4599C31.641 25.5545 31.407 25.5519 31.2308 25.3705C31.0855 25.233 31.2102 25.1086 31.3105 24.9906L31.3118 24.979ZM30.138 32.1503C30.1477 32.1029 30.1628 32.0568 30.183 32.0128L30.7615 32.0841C30.8553 31.9625 30.9599 31.8496 31.074 31.7471C31.1858 31.6641 31.2977 31.6836 31.4417 31.7627C31.6242 31.8475 31.8209 31.8972 32.0215 31.9091C32.1784 31.9273 32.3005 31.9091 32.3905 32.0828C32.4574 32.206 32.7068 32.1528 32.8097 31.9662C32.8226 31.9308 32.8442 31.8993 32.8724 31.8746C32.9006 31.8499 32.9345 31.8328 32.971 31.8247C33.0075 31.8167 33.0455 31.8181 33.0813 31.8288C33.1171 31.8395 33.1497 31.8591 33.1761 31.8858C33.3496 32.0154 33.1761 32.088 33.0706 32.1541C33.1992 32.5184 33.8035 32.3473 33.9269 32.7647L32.3455 32.5729C32.6914 33.1186 33.0706 33.2703 33.7084 33.0745C33.7263 33.3675 33.9321 33.6268 33.5618 33.8407C33.4885 33.8834 33.5245 34.087 33.5232 34.2153C33.5232 34.4564 33.2802 34.6846 33.1375 34.5653C32.8405 34.3229 32.5512 34.5238 32.2761 34.5161C32.0009 34.5083 31.722 34.6846 31.4082 34.7935L32.1077 35.1759L32.6759 35.0333V35.5427C32.9331 35.1694 33.2056 35.2355 33.4615 35.404C33.6544 35.242 33.5001 34.9192 33.9076 34.879C33.8382 35.2679 33.8125 35.6568 34.1532 36.0146C34.2149 35.9096 34.2548 35.8383 34.3191 35.7268C34.5016 35.8642 34.6559 36.0341 34.8552 36.1157C35.0275 36.187 35.2756 36.1157 35.3412 36.375L35.939 36.2687C36.0895 36.3672 36.2347 36.4528 36.3646 36.5539C36.4739 36.6407 36.641 36.7431 36.6513 36.8469C36.7033 37.4334 36.6599 38.0245 36.5227 38.5969L36.0239 38.4413C36.092 38.6163 36.1023 38.7421 36.1782 38.8173C36.3291 38.9624 36.4435 39.1417 36.5119 39.3403C36.5803 39.5389 36.6008 39.7512 36.5716 39.9593C36.488 40.9368 36.425 41.2557 36.3659 42.237C36.3427 42.635 36.0239 42.8683 35.7436 43.0978C35.6086 43.2079 35.3348 43.2118 35.1226 43.2144C34.3512 43.2261 33.5734 43.1924 32.8007 43.2144C32.2864 43.2339 31.8171 43.1159 31.3285 43.0459C31.2612 43.0421 31.1965 43.0187 31.1421 42.9785C30.6278 42.4327 30.0955 42.5896 30.1547 41.7638C30.2293 40.741 30.1547 39.7117 30.1393 38.6851C30.1393 38.5334 30.1393 38.3817 30.1393 38.221C30.3745 38.1069 30.5828 38.0032 30.7898 37.9008C30.8996 37.8647 31.0026 37.8104 31.0945 37.74C31.1845 37.6428 31.3041 37.4885 31.272 37.3965C31.238 37.3274 31.19 37.2664 31.1311 37.2172C31.0721 37.1681 31.0036 37.132 30.93 37.1113C30.6749 37.0705 30.4167 37.0536 30.1585 37.0608C30.1138 36.9237 30.0824 36.7826 30.0647 36.6394C30.0025 35.1468 30.0269 33.6517 30.138 32.1619V32.1503ZM28.3894 10.0621C28.3071 10.438 28.1876 10.5456 27.7569 10.6001C27.924 10.0997 28.0076 10.0336 28.3894 10.0621ZM26.2719 9.16764C26.259 9.0043 26.3657 8.84356 26.5123 8.9693C26.6589 9.09505 26.8016 9.07041 26.9597 9.0756C26.9945 9.0756 27.0266 9.13393 27.0587 9.16505C26.7553 9.40487 26.7553 9.40487 26.2719 9.16764ZM26.8222 14.1144C26.9842 14.0263 27.141 13.9602 27.2734 14.1144C27.33 14.178 27.357 14.3452 27.3094 14.3867C27.1475 14.5043 26.9754 14.6072 26.7952 14.6939C26.6756 14.6044 26.538 14.5552 26.52 14.4787C26.4647 14.27 26.6589 14.2026 26.8222 14.1144ZM26.682 17.3047C26.6717 17.5056 26.6653 17.6288 26.6602 17.7597C26.9289 17.6301 26.9289 17.6301 27.3223 17.7066V17.2321C27.6514 17.2321 27.9934 17.3838 28.257 17.0065L28.446 17.3099C28.3727 17.3695 28.2891 17.4395 28.2004 17.5056C28.1516 17.5419 28.0462 17.5666 28.0462 17.5977C28.0462 17.9166 27.789 17.9451 27.5319 17.993C27.2243 18.0445 26.9333 18.1694 26.6833 18.3573C26.4262 18.5582 26.169 18.5505 25.7833 18.5219L25.9608 17.9205L25.5686 18.0643L25.44 17.8142L26.682 17.3047ZM27.3416 24.8234C26.9083 24.5369 26.9083 24.5369 26.4609 24.6108C26.349 24.3023 26.5162 24.0806 26.8466 24.1454C27.1306 24.2172 27.4097 24.3073 27.6823 24.4151C27.7106 24.6717 27.5087 24.734 27.3403 24.8182L27.3416 24.8234ZM24.9926 17.8829L25.3783 18.2718C25.0646 18.5116 24.7882 18.6062 24.3948 18.4325L24.9926 17.8829ZM24.4128 25.6168C24.3819 25.8449 24.3279 26.0121 24.0965 26.0562C23.8921 26.0977 23.6735 26.1133 23.5964 25.7671L24.4128 25.6168ZM22.4842 21.8768L23.2261 22.0259C23.1528 22.1789 23.0975 22.2852 23.0487 22.3902L23.4344 22.5613C23.3521 22.6508 23.3058 22.7402 23.2505 22.7519C22.9278 22.8076 22.6347 23.0021 22.2991 22.9956C22.2698 22.8329 22.2526 22.6682 22.2477 22.503C22.3757 22.3149 22.4564 22.0982 22.4829 21.8717L22.4842 21.8768ZM22.2438 32.941L22.5408 33.1925L22.9047 33.0473V33.5749C22.6231 33.1432 22.2618 33.772 22.0188 33.361C22.0882 33.2249 22.1602 33.0901 22.2425 32.9358L22.2438 32.941ZM20.1867 36.8663C20.1957 36.7626 20.3628 36.6602 20.4734 36.5733C20.584 36.4865 20.7485 36.3867 20.8977 36.2881L21.4955 36.3944C21.5611 36.1352 21.8092 36.2039 21.9815 36.1352C22.1808 36.0535 22.3351 35.8837 22.5177 35.7463C22.5819 35.8565 22.6231 35.9291 22.6835 36.0341C23.0242 35.6763 22.9985 35.2887 22.9291 34.8985C23.3366 34.9387 23.1862 35.2614 23.3765 35.4235C23.6336 35.255 23.9011 35.1889 24.1608 35.5622V35.0527L24.7291 35.1953L25.4298 34.8129C25.1161 34.704 24.8345 34.5277 24.5606 34.5355C24.2868 34.5433 23.9962 34.3424 23.6992 34.5848C23.5526 34.704 23.3135 34.4759 23.3135 34.2348C23.3135 34.1051 23.3482 33.9029 23.2749 33.8601C22.9047 33.6462 23.1104 33.387 23.1284 33.094C23.7712 33.2897 24.1466 33.1381 24.4912 32.5923L22.9098 32.7842C23.0384 32.3667 23.6426 32.5379 23.7661 32.1736C23.6606 32.1075 23.4884 32.0349 23.6606 31.9053C23.6871 31.8786 23.7198 31.859 23.7557 31.8483C23.7917 31.8377 23.8297 31.8363 23.8662 31.8443C23.9028 31.8523 23.9369 31.8694 23.9652 31.8941C23.9935 31.9188 24.0152 31.9503 24.0284 31.9856C24.0587 32.0399 24.1031 32.0847 24.1569 32.1153C24.1569 32.1075 24.1569 32.0984 24.1569 32.088C24.1601 32.0795 24.1654 32.0719 24.1723 32.066C24.2637 31.8981 24.3453 31.725 24.4166 31.5475L24.4411 31.5877C23.9949 32.4082 23.9949 32.4082 24.0412 32.5962C24.2096 32.4912 24.3716 32.3369 24.5671 32.2812C25.0543 32.1516 25.3063 31.8275 25.5339 31.4671C25.566 31.4165 25.611 31.3725 25.6625 31.3063C26.034 31.3919 26.376 31.4075 26.5933 31.0471C26.6141 31.0194 26.6409 30.997 26.6717 30.9815C26.7024 30.9661 26.7364 30.9581 26.7707 30.9581C26.8051 30.9581 26.839 30.9661 26.8698 30.9815C26.9006 30.997 26.9274 31.0194 26.9482 31.0471C27.0767 31.2182 27.2452 31.261 27.4624 31.283C27.6099 31.3076 27.7436 31.3849 27.8392 31.5008C27.9094 31.601 28.0006 31.6844 28.1064 31.7451C28.2121 31.8058 28.3298 31.8423 28.4511 31.8521C28.7597 31.8793 28.8291 31.974 28.8369 32.241C28.8536 32.639 28.8561 33.0382 28.851 33.4375C28.8287 33.5528 28.792 33.6647 28.7417 33.7707L27.5949 33.2197C27.7029 33.479 27.7389 33.6644 27.8443 33.8096C28.0319 34.0668 28.2415 34.3071 28.4704 34.5277C28.7276 34.7779 28.8677 35.0372 28.8561 35.3898C28.7636 37.6389 28.6903 39.8919 28.6093 42.1424C28.6093 42.1735 28.6093 41.5473 28.6093 41.5785C28.599 42.215 27.978 42.5157 27.6399 42.9707C27.6132 42.9916 27.581 43.0043 27.5473 43.007C27.1282 43.0835 26.7129 43.2131 26.2937 43.2222C25.1032 43.2455 23.9126 43.3324 22.7221 43.2909C21.988 43.265 20.5364 43.3013 20.4734 42.2538C20.4143 41.2751 20.3526 40.9575 20.2677 39.9762C20.2388 39.768 20.2594 39.5559 20.3278 39.3573C20.3962 39.1588 20.5105 38.9794 20.6611 38.8341C20.737 38.7589 20.7473 38.6332 20.8154 38.4582L20.3166 38.6138C20.1782 38.0407 20.1339 37.4486 20.1854 36.8611L20.1867 36.8663ZM17.3582 27.0959C17.668 27.0168 17.9483 26.7316 18.3122 27.0025C18.541 26.6253 18.8971 26.8081 19.2404 26.7342C18.9833 27.1633 18.577 27.289 18.19 27.4537C17.6179 27.6987 17.6204 27.7129 17.3337 27.2048C17.317 27.1801 17.3427 27.1412 17.3543 27.0933L17.3582 27.0959ZM18.7223 31.5643C18.3932 31.6654 18.1347 31.4943 17.8146 31.4438C17.965 31.1962 18.1489 31.2156 18.3584 31.2623C18.5359 31.296 18.73 31.3038 18.7184 31.5591L18.7223 31.5643ZM14.1555 31.8832C14.3059 32.1088 14.5541 32.0958 14.7829 32.1619C14.9603 32.2138 15.0143 32.3642 14.8549 32.5767C14.4821 32.3279 13.9189 32.3719 13.8096 31.8365C13.9434 31.8469 14.1182 31.8262 14.1516 31.878L14.1555 31.8832ZM13.9652 38.4712C14.0875 38.3446 14.2483 38.2631 14.4219 38.2396C14.5956 38.2161 14.772 38.252 14.9231 38.3415C15.0317 38.408 15.1352 38.4826 15.2329 38.5645C15.3306 38.6319 15.4296 38.6941 15.5479 38.7784C15.6006 38.5917 15.6366 38.4647 15.6765 38.3337C16.0085 38.2904 16.3441 38.3813 16.6099 38.5865C16.9956 38.8964 17.3325 38.7486 17.7272 38.6773C17.65 38.4647 17.2772 38.3467 17.6076 38.0965L17.8866 38.2495L18.5037 37.9267C18.4883 37.7245 18.4652 37.4834 18.2466 37.3174C18.028 37.1515 17.8236 37.027 17.578 36.8611L17.9637 36.5344C17.7929 36.552 17.6211 36.559 17.4495 36.5552C17.3209 36.5448 17.1396 36.5228 17.0985 36.4515C17.0573 36.3802 17.1306 36.2298 17.1846 36.1287C17.3903 35.7398 17.9226 35.8565 18.2582 35.4896C18.2697 36.0418 18.748 36.1378 19.0489 36.3128C19.3163 36.4722 19.4461 36.5876 19.4436 36.865C19.4346 38.09 19.4436 39.3164 19.4359 40.5427C19.4294 40.6731 19.4148 40.803 19.3921 40.9316L19.0296 41.0184C19.0077 41.1727 18.9884 41.3088 18.9666 41.4605C19.3356 41.7898 19.4809 41.5344 19.3394 42.0062C19.3124 42.0944 19.3111 42.189 19.2919 42.2785C19.2404 42.5527 19.0959 42.8002 18.8831 42.9786C18.6703 43.157 18.4025 43.255 18.1257 43.2559C16.8722 43.3104 15.6161 43.3285 14.3599 43.3544C14.2438 43.3629 14.1282 43.3314 14.0321 43.265C13.8315 43.0641 13.6464 42.8618 13.6464 42.5507C13.6464 41.4916 13.6142 41.091 13.6142 40.0345C13.6142 39.8569 13.7222 39.6793 13.7852 39.4836C13.5191 39.354 13.6117 39.083 13.5834 38.8497C13.5551 38.6163 13.8251 38.5878 13.9614 38.466L13.9652 38.4712Z" fill="#FDBA61"/>
</g>
<defs>
<clipPath id="clip0">
<rect width="209" height="44" fill="white"/>
</clipPath>
</defs>
</svg>
