<svg width="98" height="83" viewBox="0 0 98 83" fill="none" xmlns="http://www.w3.org/2000/svg">
<g clip-path="url(#clip0)">
<path d="M6.00004 75.0605C6.00175 75.2546 5.97718 75.448 5.927 75.6353C5.76983 75.6714 5.6314 75.7645 5.53818 75.8968C5.37861 76.1407 5.23509 76.3947 5.10855 76.6575L3.41578 80.0566C3.23883 80.4668 2.9723 80.8316 2.63599 81.124C2.36571 81.337 2.03193 81.4519 1.68864 81.4503C1.49002 81.4543 1.29267 81.4176 1.10863 81.3423C0.962458 81.2868 0.831941 81.1963 0.728405 81.0787C0.709653 80.9833 0.700299 80.8863 0.700478 80.7891C0.695552 80.5941 0.723889 80.3997 0.784258 80.2143C1.08166 80.3009 1.38978 80.3445 1.69938 80.344C1.93753 80.3592 2.17561 80.3131 2.3911 80.21C2.5743 80.0878 2.72245 79.9194 2.82073 79.7216C2.32665 78.8443 1.74163 77.8445 1.06567 76.7223C0.893911 76.4345 0.703003 76.1587 0.494253 75.8968C0.386015 75.7616 0.233913 75.669 0.064617 75.6353C0.019478 75.4472 -0.00217069 75.2541 0.000171565 75.0605C0.278003 75.0793 0.721244 75.0886 1.3299 75.0886C1.9142 75.0886 2.36603 75.0793 2.6854 75.0605C2.69078 75.2536 2.67274 75.4467 2.63169 75.6353C2.51622 75.644 2.40333 75.674 2.29872 75.7239C2.26756 75.7404 2.24159 75.7654 2.22375 75.7959C2.20591 75.8265 2.19691 75.8614 2.19776 75.8968C2.22889 76.0731 2.29779 76.2405 2.39969 76.3873C2.90523 77.2301 3.2962 77.9057 3.5726 78.4143C3.91201 77.8006 4.23209 77.1689 4.53283 76.5192C4.61112 76.3659 4.65789 76.1983 4.67032 76.0265C4.67345 75.9783 4.66515 75.93 4.64611 75.8857C4.62706 75.8414 4.5978 75.8022 4.56076 75.7715C4.45226 75.6992 4.32886 75.6527 4.19986 75.6353C4.15505 75.4471 4.13341 75.2541 4.13542 75.0605C4.37602 75.08 4.68535 75.0886 5.06773 75.0886C5.45011 75.0886 5.77878 75.08 6.00004 75.0605Z" fill="#FDBA61"/>
<path d="M7.67571 81.0335C7.2172 80.7578 6.845 80.3579 6.60162 79.8796C6.3361 79.3555 6.20328 78.7735 6.21494 78.1854C6.19627 77.5803 6.34501 76.9818 6.64458 76.4567C6.9175 75.9938 7.31624 75.6189 7.79386 75.3763C8.27561 75.1304 8.80896 75.0045 9.34914 75.0089C10.0534 75.0142 10.7474 75.1797 11.3792 75.4929C11.3047 75.9689 11.2709 76.4504 11.2782 76.9321C11.0491 77.0208 10.8035 77.0584 10.5586 77.0423C10.5457 76.5107 10.4404 76.1333 10.2428 75.91C10.1344 75.795 10.0022 75.7054 9.85559 75.6475C9.70895 75.5896 9.55145 75.5649 9.39425 75.5751C9.13827 75.5588 8.88277 75.6135 8.65552 75.7331C8.42828 75.8527 8.23799 76.0328 8.10534 76.2536C7.81116 76.7701 7.66679 77.3593 7.6886 77.9542C7.65676 78.6598 7.84286 79.3581 8.22134 79.953C8.38844 80.2029 8.61681 80.4052 8.88438 80.5404C9.15194 80.6755 9.44965 80.7389 9.7487 80.7245C10.0082 80.7231 10.266 80.6823 10.5135 80.6035C10.7849 80.5211 11.0453 80.4057 11.2889 80.2599C11.3447 80.3115 11.3906 80.3731 11.4243 80.4414C11.4599 80.5095 11.4859 80.5822 11.5016 80.6575C10.878 81.1869 10.0833 81.4683 9.26751 81.4484C8.70935 81.4576 8.15917 81.3142 7.67571 81.0335Z" fill="#FDBA61"/>
<path d="M18.1393 81.3948C17.8443 81.3746 17.4197 81.3652 16.8654 81.3667C16.2324 81.3667 15.777 81.376 15.4992 81.3948C15.4926 81.2003 15.5143 81.0059 15.5636 80.8178C15.6778 80.7996 15.7876 80.7608 15.888 80.7033C15.9203 80.6811 15.9465 80.651 15.9642 80.6158C15.9818 80.5807 15.9904 80.5417 15.989 80.5023C15.9706 80.3641 15.93 80.2298 15.8687 80.1047L15.6539 79.6012C14.8347 79.6012 14.0843 79.6235 13.4026 79.6682L13.2823 79.9729C13.2297 80.1031 13.1985 80.241 13.1899 80.3813C13.1899 80.6363 13.3381 80.7811 13.6324 80.8135C13.6801 81.0019 13.7018 81.1961 13.6969 81.3904C13.4821 81.371 13.1577 81.3623 12.7087 81.3623C12.3285 81.3623 12.0514 81.3623 11.8795 81.3904C11.8746 81.1955 11.8992 81.001 11.9526 80.8135C12.0261 80.8052 12.0973 80.7822 12.1618 80.7458C12.2264 80.7095 12.2831 80.6605 12.3285 80.6017C12.4771 80.3698 12.5996 80.1219 12.6937 79.8627L14.627 75.0914C14.7139 75.0715 14.8023 75.0592 14.8913 75.0547C14.9793 75.0547 15.076 75.0547 15.1813 75.0547L17.2951 79.8087C17.424 80.0982 17.5271 80.3121 17.6044 80.4569C17.6575 80.5642 17.7304 80.6602 17.8192 80.74C17.8888 80.7945 17.9722 80.8281 18.0598 80.8372C18.1118 81.0185 18.1385 81.2061 18.1393 81.3948ZM15.4262 79.0891L14.9278 77.9179C14.7604 77.531 14.617 77.134 14.4981 76.7294C14.3736 77.14 14.2382 77.5311 14.0921 77.9092L13.626 79.0891H15.4262Z" fill="#FDBA61"/>
<path d="M24.8329 82.9349C24.6897 82.983 24.5391 83.0049 24.3882 82.9997C24.2291 83.0024 24.0704 82.9805 23.9178 82.9349C23.93 82.4096 23.8933 81.8844 23.8082 81.366H19.6171C19.5304 81.8842 19.493 82.4095 19.5054 82.9349C19.353 82.9814 19.1942 83.0033 19.035 82.9997C18.8849 83.0031 18.7353 82.9812 18.5925 82.9349C18.6012 82.4032 18.5638 81.8717 18.4807 81.3466C18.4725 81.1557 18.5318 80.9681 18.6483 80.8172H18.8309C19.3185 80.8172 19.6902 80.385 19.9308 79.5422C20.1938 78.5742 20.3424 77.5784 20.3733 76.5753C20.3733 76.5127 20.3733 76.4262 20.3733 76.3139C20.3807 76.1779 20.3603 76.0418 20.3131 75.9141C20.2923 75.87 20.2623 75.8307 20.2253 75.7991C20.1883 75.7674 20.145 75.744 20.0983 75.7304C19.9469 75.6815 19.7906 75.6496 19.6322 75.6353C19.5884 75.4469 19.5668 75.254 19.5677 75.0605C19.8541 75.0793 20.6576 75.0886 21.978 75.0886C23.2225 75.0886 24.0195 75.0793 24.3689 75.0605C24.3689 75.1664 24.3689 75.2766 24.3689 75.3674C24.3637 75.459 24.3448 75.5493 24.3131 75.6353C24.178 75.6446 24.046 75.6798 23.9242 75.7391C23.8786 75.7679 23.8393 75.8057 23.8086 75.8503C23.7779 75.8949 23.7566 75.9453 23.7459 75.9984C23.7053 76.1842 23.6879 76.3744 23.6944 76.5645V79.8902C23.6881 80.0896 23.7054 80.2891 23.7459 80.4844C23.7551 80.5387 23.7757 80.5903 23.8065 80.6358C23.8372 80.6813 23.8774 80.7196 23.9242 80.748C24.0466 80.8017 24.1798 80.8254 24.3131 80.8172H24.7749C24.8898 80.9688 24.9483 81.1561 24.9403 81.3466C24.8577 81.8718 24.8218 82.4033 24.8329 82.9349ZM22.2938 76.5645C22.2981 76.3781 22.2873 76.1917 22.2615 76.007C22.2547 75.9557 22.2376 75.9064 22.2114 75.8618C22.1852 75.8173 22.1504 75.7785 22.109 75.7477C21.9682 75.6605 21.8033 75.6211 21.6386 75.6353C21.4634 75.6138 21.2863 75.6568 21.1402 75.7564C21.0796 75.809 21.04 75.8819 21.0285 75.9616C21.0082 76.0686 20.996 76.177 20.992 76.2858C20.992 76.4111 20.9855 76.504 20.9726 76.5645C20.9308 77.4535 20.834 78.3391 20.6826 79.216C20.5494 79.9363 20.3446 80.4642 20.0683 80.7999H21.4538C21.6394 80.8087 21.8252 80.7868 22.0038 80.7351C22.0591 80.7134 22.1087 80.6791 22.1486 80.6349C22.1885 80.5906 22.2176 80.5376 22.2336 80.4801C22.2821 80.2808 22.3023 80.0757 22.2938 79.8707V76.5645Z" fill="#FDBA61"/>
<path d="M30.4547 78.1852C30.8972 78.4683 31.1185 78.9199 31.1185 79.5466C31.1283 79.8024 31.0769 80.0569 30.9685 80.2886C30.86 80.5203 30.6978 80.7223 30.4955 80.8777C30.0809 81.204 29.4214 81.3661 28.5342 81.3661C27.3627 81.3661 26.4118 81.3754 25.6814 81.3942C25.6749 81.2002 25.6937 81.0062 25.7373 80.8172C25.8734 80.8159 26.0073 80.7826 26.1282 80.72C26.1764 80.6888 26.2177 80.6479 26.2495 80.5999C26.2813 80.552 26.3029 80.4979 26.313 80.4412C26.3538 80.2415 26.3711 80.0377 26.3645 79.834V76.5645C26.3711 76.3758 26.3538 76.187 26.313 76.0027C26.2892 75.8974 26.2271 75.8049 26.139 75.7434C26.017 75.68 25.883 75.6432 25.7459 75.6353C25.7011 75.4471 25.6794 75.2541 25.6814 75.0605C26.1111 75.0793 26.6431 75.0886 27.2775 75.0886C27.9435 75.0886 28.4375 75.0886 28.7641 75.0605C28.7723 75.2543 28.7506 75.4483 28.6996 75.6353C28.5085 75.642 28.3204 75.6853 28.1454 75.7628C28.0144 75.8293 27.9137 75.9438 27.864 76.0827C27.7973 76.286 27.7675 76.4997 27.7759 76.7136V77.7941C28.0025 77.7662 28.2307 77.7539 28.459 77.7574C29.3462 77.7638 30.01 77.9043 30.4547 78.1852ZM29.2624 80.5125C29.4524 80.2805 29.5483 79.9849 29.531 79.6849C29.531 79.2138 29.4092 78.8781 29.1658 78.6779C28.9019 78.4695 28.573 78.3622 28.2378 78.3754C28.0834 78.3769 27.9293 78.3863 27.7759 78.4035V79.8794C27.7491 80.137 27.8064 80.3964 27.9392 80.6184C28.0082 80.6875 28.0915 80.7404 28.1833 80.7733C28.275 80.8062 28.3728 80.8182 28.4698 80.8085C28.6152 80.8191 28.7613 80.7981 28.898 80.747C29.0348 80.6959 29.159 80.616 29.2624 80.5125Z" fill="#FDBA61"/>
<path d="M36.5194 78.1895C36.949 78.4777 37.1638 78.93 37.1638 79.5466C37.1738 79.8016 37.1233 80.0553 37.0165 80.2868C36.9096 80.5182 36.7495 80.7208 36.5495 80.8777C36.1413 81.2047 35.4969 81.3675 34.6161 81.3661C33.4532 81.3661 32.5051 81.3754 31.7719 81.3942C31.7665 81.2002 31.7853 81.0064 31.8278 80.8172C31.9645 80.8156 32.099 80.7823 32.2209 80.72C32.2691 80.6888 32.3103 80.6479 32.3421 80.5999C32.3739 80.552 32.3955 80.4979 32.4056 80.4412C32.4453 80.2414 32.4626 80.0377 32.4572 79.834V76.5645C32.4627 76.3759 32.4454 76.1872 32.4056 76.0027C32.3813 75.8971 32.3184 75.8045 32.2295 75.7434C32.1082 75.6799 31.975 75.6431 31.8385 75.6353C31.7919 75.4474 31.7695 75.2542 31.7719 75.0605C32.2101 75.0793 32.9026 75.0886 33.8492 75.0886C35.1381 75.0886 35.9974 75.0793 36.427 75.0605C36.4484 75.5879 36.5131 76.1127 36.6204 76.6294C36.4009 76.7324 36.1599 76.7806 35.9179 76.7698C35.8899 76.4577 35.76 76.1636 35.5484 75.9336C35.3529 75.7369 35.0178 75.6353 34.5431 75.6353H33.8599V77.7962C34.0837 77.7684 34.3091 77.7562 34.5345 77.7595C35.4217 77.7638 36.0726 77.9043 36.5194 78.1895ZM35.3508 80.5082C35.5374 80.273 35.6308 79.9766 35.6129 79.6762C35.6129 79.2181 35.4947 78.8875 35.2541 78.6822C35.0069 78.475 34.6929 78.3659 34.3712 78.3754C34.2294 78.3754 34.0662 78.3862 33.8814 78.4035V79.8794C33.8725 80.0791 33.8987 80.2788 33.9588 80.4693C33.9783 80.5279 34.0093 80.5819 34.0499 80.6283C34.0904 80.6747 34.1398 80.7124 34.1951 80.7394C34.3322 80.7911 34.4783 80.8146 34.6247 80.8085C34.7589 80.8147 34.8928 80.7909 35.0168 80.739C35.1408 80.6871 35.2519 80.6083 35.3422 80.5082H35.3508Z" fill="#FDBA61"/>
<path d="M43.8488 81.3943C43.5538 81.3741 43.1292 81.3647 42.5749 81.3662C41.9419 81.3662 41.4865 81.3755 41.2087 81.3943C41.2021 81.1998 41.2238 81.0054 41.2731 80.8173C41.3867 80.7996 41.4959 80.7607 41.5954 80.7028C41.6284 80.6811 41.6552 80.6512 41.6733 80.616C41.6914 80.5808 41.7 80.5414 41.6985 80.5018C41.6801 80.3636 41.6395 80.2293 41.5782 80.1042L41.3633 79.6007C40.5449 79.6007 39.7952 79.6223 39.1099 79.6677L38.9896 79.9724C38.9385 80.1029 38.908 80.2408 38.8994 80.3808C38.8994 80.6358 39.0455 80.7806 39.3419 80.813C39.3896 81.0014 39.4113 81.1955 39.4064 81.3899C39.1915 81.3705 38.8672 81.3618 38.4182 81.3618C38.0358 81.3618 37.7608 81.3618 37.589 81.3899C37.5841 81.195 37.6087 81.0005 37.662 80.813C37.7362 80.802 37.8074 80.7763 37.8716 80.7373C37.9358 80.6984 37.9916 80.6469 38.0358 80.5861C38.1844 80.3541 38.3069 80.1063 38.401 79.8471L40.3344 75.0758C40.4212 75.0559 40.5096 75.0436 40.5986 75.0391C40.6867 75.0391 40.7833 75.0391 40.8886 75.0391L43.0024 79.793C43.1313 80.0826 43.2344 80.2965 43.3117 80.4413C43.3648 80.5485 43.4377 80.6446 43.5266 80.7244C43.5953 80.7789 43.678 80.8126 43.765 80.8216C43.8209 81.0073 43.8491 81.2003 43.8488 81.3943ZM41.1335 79.0886L40.6373 77.9174C40.4699 77.5305 40.3264 77.1335 40.2076 76.7289C40.083 77.1394 39.9477 77.5306 39.8016 77.9087L39.3355 79.0886H41.1335Z" fill="#FDBA61"/>
<path d="M47.6381 81.0335C47.1796 80.7578 46.8074 80.3579 46.564 79.8796C46.2985 79.3555 46.1657 78.7735 46.1773 78.1854C46.1587 77.5803 46.3074 76.9818 46.607 76.4567C46.8805 75.9942 47.2791 75.6195 47.7563 75.3763C48.238 75.1304 48.7714 75.0045 49.3115 75.0089C50.0159 75.0142 50.7098 75.1797 51.3416 75.4929C51.2682 75.969 51.2344 76.4504 51.2406 76.9321C51.0115 77.0208 50.766 77.0584 50.521 77.0423C50.5081 76.5107 50.4028 76.1333 50.2052 75.91C50.0956 75.7935 49.9617 75.7031 49.8131 75.6451C49.6645 75.5872 49.5049 75.5633 49.3459 75.5751C49.0899 75.5588 48.8344 75.6135 48.6072 75.7331C48.3799 75.8527 48.1897 76.0328 48.057 76.2536C47.7628 76.7701 47.6185 77.3593 47.6403 77.9542C47.6116 78.661 47.8015 79.3593 48.1837 79.953C48.3508 80.2029 48.5792 80.4052 48.8468 80.5404C49.1143 80.6755 49.4121 80.7389 49.7111 80.7245C49.9729 80.7231 50.233 80.6815 50.4823 80.6013C50.7537 80.519 51.0142 80.4036 51.2578 80.2577C51.3136 80.3094 51.3595 80.3709 51.3931 80.4392C51.4287 80.5073 51.4548 80.5801 51.4705 80.6553C50.8469 81.1848 50.0521 81.4661 49.2364 81.4462C48.6762 81.4573 48.1237 81.3146 47.6381 81.0335Z" fill="#FDBA61"/>
<path d="M57.9258 75.061C57.9275 75.255 57.9029 75.4484 57.8527 75.6358C57.6956 75.6718 57.5571 75.7649 57.4639 75.8972C57.3044 76.1411 57.1608 76.3952 57.0343 76.6579L55.3458 80.057C55.1689 80.4672 54.9024 80.832 54.566 81.1245C54.2961 81.338 53.9621 81.453 53.6187 81.4507C53.4201 81.4547 53.2227 81.418 53.0387 81.3427C52.8931 81.2872 52.7633 81.1967 52.6606 81.0791C52.6408 80.9839 52.6314 80.8868 52.6327 80.7895C52.6282 80.5947 52.6558 80.4005 52.7143 80.2147C53.0117 80.3013 53.3198 80.3449 53.6294 80.3444C53.8676 80.3596 54.1057 80.3135 54.3211 80.2104C54.5044 80.0882 54.6525 79.9198 54.7508 79.722C54.2581 78.8447 53.6731 77.8449 52.9957 76.7227C52.824 76.4349 52.6331 76.1591 52.4243 75.8972C52.3164 75.7616 52.1642 75.6689 51.9947 75.6358C51.9524 75.4472 51.9337 75.2541 51.9388 75.061C52.2152 75.0797 52.6585 75.0891 53.2685 75.0891C53.8528 75.0891 54.3047 75.0797 54.624 75.061C54.627 75.2529 54.6068 75.4444 54.5639 75.6314C54.4484 75.6401 54.3355 75.6701 54.2309 75.72C54.1998 75.7365 54.1738 75.7615 54.156 75.792C54.1381 75.8225 54.1291 75.8575 54.13 75.8929C54.1611 76.0692 54.23 76.2366 54.3319 76.3834C54.8374 77.2262 55.2284 77.9018 55.5048 78.4104C55.8442 77.7967 56.1643 77.165 56.465 76.5152C56.5433 76.362 56.5901 76.1944 56.6025 76.0226C56.6056 75.9744 56.5973 75.9261 56.5783 75.8818C56.5592 75.8374 56.53 75.7983 56.493 75.7676C56.3845 75.6953 56.2611 75.6487 56.1321 75.6314C56.0872 75.4432 56.0656 75.2502 56.0676 75.0566C56.3082 75.0761 56.6175 75.0847 56.9999 75.0847C57.3823 75.0847 57.7045 75.0804 57.9258 75.061Z" fill="#FDBA61"/>
<path d="M64.2692 81.3942C64.0028 81.3747 63.5173 81.3661 62.8084 81.3661C62.2442 81.3661 61.7766 81.3725 61.4057 81.3855C61.4026 81.1945 61.4214 81.0039 61.4615 80.8172C61.554 80.8078 61.6445 80.7845 61.73 80.748C61.7573 80.7336 61.7796 80.7112 61.7942 80.6839C61.8087 80.6565 61.8148 80.6255 61.8117 80.5946C61.8013 80.4744 61.767 80.3576 61.7107 80.251C61.6441 80.1041 61.5346 79.9031 61.3885 79.6481L60.9589 78.9156L60.4132 79.713C60.1554 80.1041 60.0265 80.3612 60.0265 80.5125C60.0241 80.5506 60.0318 80.5887 60.0488 80.6229C60.0658 80.657 60.0915 80.6861 60.1232 80.707C60.219 80.7619 60.3238 80.7992 60.4326 80.8172C60.4736 81.0066 60.4923 81.2003 60.4884 81.3942C60.1726 81.3747 59.8074 81.3661 59.3885 81.3661C58.9331 81.3661 58.5787 81.3661 58.3273 81.3942C58.3149 81.1932 58.3397 80.9917 58.4004 80.7999C58.6363 80.7432 58.8565 80.6339 59.0448 80.4801C59.2913 80.2637 59.5081 80.0151 59.6893 79.7411L60.6409 78.3862C60.3402 77.9021 59.9821 77.3417 59.5668 76.705C59.3649 76.3873 59.2081 76.1626 59.1007 76.0265C59.0246 75.9211 58.9326 75.8285 58.8279 75.752C58.7396 75.6999 58.6429 75.6641 58.5421 75.6462C58.4875 75.456 58.4629 75.2584 58.4691 75.0605C58.7899 75.0793 59.3098 75.0886 60.0287 75.0886C60.4841 75.0886 60.903 75.0822 61.2854 75.0692C61.284 75.2592 61.2653 75.4487 61.2295 75.6353C61.129 75.6503 61.0321 75.6841 60.9438 75.7348C60.9146 75.7522 60.8906 75.7773 60.8743 75.8073C60.8581 75.8374 60.8502 75.8713 60.8514 75.9055C60.9034 76.148 61.0067 76.3765 61.1543 76.5753L61.7365 77.4743L62.2263 76.705C62.3934 76.4763 62.5072 76.2126 62.5592 75.9336C62.561 75.8954 62.5536 75.8573 62.5375 75.8227C62.5214 75.788 62.4972 75.7579 62.4669 75.7348C62.3808 75.6793 62.2829 75.6452 62.1812 75.6353C62.1374 75.4471 62.1187 75.2538 62.1253 75.0605C62.4261 75.08 62.7698 75.0886 63.1758 75.0886C63.5818 75.0886 63.9362 75.0886 64.1639 75.0605C64.1691 75.2537 64.1503 75.4468 64.1081 75.6353C63.9712 75.6707 63.8397 75.7245 63.7171 75.7953C63.5955 75.8737 63.4868 75.9706 63.3949 76.0827C63.2383 76.2706 63.0948 76.4692 62.9653 76.6769L62.0866 78.0231C62.2843 78.3386 62.5807 78.8227 62.9738 79.4709C63.2016 79.8556 63.3813 80.1372 63.513 80.3159C63.6083 80.4566 63.7259 80.5807 63.861 80.6832C63.9699 80.7529 64.0921 80.7985 64.2198 80.8172C64.2689 81.0053 64.2856 81.2004 64.2692 81.3942Z" fill="#FDBA61"/>
<path d="M70.9523 81.3943C70.6573 81.3741 70.2327 81.3647 69.6784 81.3662C69.0454 81.3662 68.59 81.3755 68.3122 81.3943C68.3056 81.1998 68.3273 81.0054 68.3766 80.8173C68.4902 80.7996 68.5994 80.7607 68.6989 80.7028C68.7319 80.6811 68.7587 80.6512 68.7768 80.616C68.7949 80.5808 68.8035 80.5414 68.802 80.5018C68.7836 80.3636 68.743 80.2293 68.6817 80.1042L68.4669 79.6007C67.6477 79.6007 66.8965 79.623 66.2134 79.6677L66.0931 79.9724C66.042 80.1029 66.0116 80.2408 66.0029 80.3808C66.0029 80.6358 66.149 80.7806 66.4454 80.813C66.4931 81.0014 66.5148 81.1955 66.5099 81.3899C66.295 81.3705 65.9707 81.3618 65.5217 81.3618C65.1393 81.3618 64.8644 81.3618 64.6925 81.3899C64.6876 81.195 64.7122 81.0005 64.7655 80.813C64.8397 80.802 64.9109 80.7763 64.9751 80.7373C65.0393 80.6984 65.0951 80.6469 65.1393 80.5861C65.288 80.3541 65.4104 80.1063 65.5045 79.8471L67.4379 75.0758C67.5247 75.0559 67.6131 75.0436 67.7021 75.0391C67.7902 75.0391 67.8869 75.0391 67.9921 75.0391L70.1059 79.793C70.2348 80.0826 70.3379 80.2965 70.4153 80.4413C70.4676 80.549 70.5406 80.6452 70.6301 80.7244C70.6986 80.7792 70.7814 80.8129 70.8685 80.8216C70.9234 81.0075 70.9516 81.2003 70.9523 81.3943ZM68.237 79.0886L67.7386 77.9174C67.5722 77.5301 67.4288 77.1332 67.309 76.7289C67.1844 77.1394 67.0491 77.5306 66.9008 77.9087L66.439 79.0886H68.237Z" fill="#FDBA61"/>
<path d="M77.2898 80.452C77.3131 80.5615 77.3778 80.6575 77.4702 80.72C77.5895 80.7829 77.7221 80.8163 77.8569 80.8172C77.9078 81.005 77.9295 81.1996 77.9213 81.3942C77.6005 81.374 77.1637 81.3646 76.6109 81.3661C76.0137 81.3661 75.5247 81.3754 75.1437 81.3942C75.1379 81.1992 75.1626 81.0045 75.2168 80.8172C75.3503 80.8171 75.4816 80.7836 75.5991 80.72C75.6899 80.6567 75.753 80.5608 75.7753 80.452C75.8158 80.264 75.8331 80.0716 75.8269 79.8794V78.4229C75.0748 78.4105 74.3226 78.4379 73.5734 78.505V79.8794C73.5671 80.0719 73.5859 80.2644 73.6293 80.452C73.6537 80.5622 73.72 80.6583 73.814 80.72C73.934 80.7832 74.0674 80.8165 74.2028 80.8172C74.245 81.0064 74.2631 81.2003 74.2565 81.3942C73.9429 81.374 73.5061 81.3646 72.9461 81.3661C72.3561 81.3661 71.8699 81.3754 71.4875 81.3942C71.4842 81.1998 71.5059 81.0059 71.552 80.8172C71.6874 80.8161 71.8206 80.7827 71.9408 80.72C71.9866 80.6893 72.026 80.6499 72.0566 80.6039C72.0872 80.5579 72.1084 80.5063 72.1191 80.452C72.1596 80.264 72.1769 80.0716 72.1706 79.8794V76.5645C72.1772 76.3758 72.1599 76.187 72.1191 76.0027C72.0965 75.8969 72.0342 75.804 71.9451 75.7434C71.8231 75.68 71.6891 75.6432 71.552 75.6353C71.5025 75.448 71.4808 75.2543 71.4875 75.0605C71.8012 75.0793 72.2723 75.0886 72.901 75.0886C73.4366 75.0886 73.8885 75.0793 74.2565 75.0605C74.2565 75.1664 74.2565 75.2766 74.2565 75.3674C74.2522 75.4591 74.2333 75.5496 74.2007 75.6353C74.0663 75.6442 73.9349 75.6794 73.814 75.7391C73.768 75.7678 73.7284 75.8055 73.6973 75.8501C73.6663 75.8947 73.6446 75.9451 73.6336 75.9984C73.5929 76.1842 73.5756 76.3744 73.582 76.5645V77.8373H75.8311V76.5645C75.8377 76.3758 75.8204 76.187 75.7796 76.0027C75.7553 75.8971 75.6924 75.8045 75.6034 75.7434C75.4823 75.6796 75.349 75.6428 75.2125 75.6353C75.163 75.448 75.1413 75.2543 75.148 75.0605C75.4746 75.0793 75.945 75.0886 76.5594 75.0886C77.1007 75.0886 77.5561 75.0793 77.9256 75.0605C77.9336 75.2549 77.9089 75.4492 77.8526 75.6353C77.7195 75.6435 77.5894 75.6788 77.4702 75.7391C77.3798 75.7988 77.3165 75.892 77.2941 75.9984C77.2534 76.1842 77.2361 76.3744 77.2425 76.5645V79.8794C77.2349 80.0715 77.2507 80.2638 77.2898 80.452Z" fill="#FDBA61"/>
<path d="M80.0949 81.0339C79.6289 80.7629 79.2507 80.3622 79.0058 79.88C78.7435 79.3588 78.6122 78.7808 78.6234 78.1967C78.6103 77.6107 78.7487 77.0314 79.0251 76.5155C79.2817 76.0428 79.6679 75.6542 80.1379 75.3961C80.63 75.1276 81.1827 74.9914 81.7425 75.0007C82.3117 74.989 82.8744 75.1236 83.3773 75.3918C83.843 75.6453 84.2274 76.0268 84.4858 76.4917C84.7567 76.9939 84.893 77.5584 84.881 78.1297C84.8913 78.723 84.7571 79.3098 84.4901 79.839C84.2383 80.3293 83.8541 80.7383 83.3816 81.0188C82.8849 81.3111 82.3179 81.4606 81.7425 81.451C81.1661 81.4627 80.5971 81.3187 80.0949 81.0339ZM83.0035 80.1696C83.294 79.6122 83.4326 78.9874 83.4052 78.3587C83.411 77.8852 83.3346 77.4143 83.1797 76.9671C83.0525 76.5847 82.8307 76.2412 82.5352 75.9688C82.2778 75.7317 81.9412 75.6006 81.5922 75.6014C81.3709 75.6003 81.1533 75.6586 80.9618 75.7702C80.7704 75.8819 80.612 76.0429 80.5031 76.2367C80.2061 76.7668 80.0653 77.3709 80.097 77.9784C80.0926 78.4657 80.1614 78.9509 80.3011 79.4176C80.4106 79.8134 80.6183 80.1748 80.9048 80.4678C81.0349 80.595 81.1889 80.6949 81.3578 80.7617C81.5268 80.8285 81.7072 80.8608 81.8886 80.8567C82.1197 80.8584 82.3466 80.7948 82.5437 80.6734C82.7407 80.5519 82.9 80.3774 83.0035 80.1696Z" fill="#FDBA61"/>
<path d="M91.0379 79.5552C91.0475 79.8103 90.9954 80.0638 90.8861 80.2942C90.7769 80.5245 90.6137 80.7248 90.4106 80.8777C89.9938 81.204 89.3365 81.3661 88.4364 81.3661C87.2721 81.3661 86.324 81.3754 85.5922 81.3942C85.5868 81.2002 85.6056 81.0064 85.6481 80.8172C85.7848 80.8156 85.9193 80.7823 86.0412 80.72C86.0889 80.6882 86.1298 80.6472 86.1615 80.5993C86.1932 80.5514 86.2151 80.4977 86.2259 80.4412C86.2647 80.2413 86.2812 80.0376 86.2753 79.834V76.5645C86.2813 76.3759 86.2647 76.1873 86.2259 76.0027C86.2005 75.8964 86.1361 75.8038 86.0455 75.7434C85.9218 75.6804 85.7865 75.6436 85.6481 75.6353C85.6069 75.4466 85.5881 75.2537 85.5922 75.0605C85.8328 75.08 86.1593 75.0886 86.5718 75.0886C86.9348 75.0886 87.2162 75.0886 87.4311 75.0886L88.3269 75.0778C89.126 75.0778 89.7103 75.188 90.0798 75.4085C90.2633 75.5184 90.4125 75.678 90.5105 75.8689C90.6085 76.0599 90.6513 76.2747 90.634 76.4889C90.6424 76.8513 90.508 77.2024 90.2602 77.4656C89.9814 77.7465 89.6135 77.9201 89.2205 77.9562C90.4335 78.0138 91.0393 78.5468 91.0379 79.5552ZM88.8789 75.9206C88.7145 75.7869 88.5186 75.6982 88.3101 75.663C88.1016 75.6278 87.8876 75.6473 87.6888 75.7196V77.8373H88.0025C88.1659 77.8512 88.3305 77.8322 88.4865 77.7814C88.6425 77.7306 88.7869 77.6489 88.9112 77.5413C89.0106 77.4328 89.0875 77.3054 89.1373 77.1667C89.1871 77.0279 89.2088 76.8804 89.2012 76.7331C89.212 76.582 89.1886 76.4304 89.1328 76.2896C89.077 76.1489 88.9902 76.0227 88.8789 75.9206ZM89.1926 80.5082C89.3888 80.2741 89.488 79.9732 89.4697 79.6676C89.4697 79.2023 89.3265 78.8753 89.0401 78.6865C88.6966 78.4812 88.3005 78.3827 87.9015 78.4035H87.6867V79.8794C87.6778 80.0791 87.7039 80.2788 87.764 80.4693C87.7836 80.5279 87.8146 80.5819 87.8551 80.6283C87.8957 80.6747 87.9451 80.7124 88.0003 80.7394C88.1375 80.7912 88.2836 80.8147 88.43 80.8085C88.571 80.8161 88.7121 80.7932 88.8436 80.7414C88.9751 80.6896 89.0941 80.6101 89.1926 80.5082Z" fill="#FDBA61"/>
<path d="M93.2141 81.0339C92.7475 80.7637 92.3691 80.3628 92.125 79.88C91.8619 79.359 91.7299 78.781 91.7405 78.1967C91.7285 77.6109 91.8668 77.0318 92.1422 76.5155C92.3988 76.0428 92.785 75.6542 93.2549 75.3961C93.748 75.1279 94.3013 74.9917 94.8618 75.0007C95.4302 74.989 95.9922 75.1236 96.4944 75.3918C96.9613 75.6437 97.3461 76.0255 97.6028 76.4917C97.8745 76.9937 98.0114 77.5582 98.0003 78.1297C98.0108 78.7233 97.8758 79.3103 97.6071 79.8389C97.3555 80.3287 96.9722 80.7375 96.5008 81.0188C96.0039 81.3106 95.4371 81.46 94.8618 81.451C94.2853 81.4627 93.7164 81.3187 93.2141 81.0339ZM96.1206 80.1696C96.4122 79.6126 96.5509 78.9875 96.5223 78.3587C96.528 77.8852 96.4517 77.4143 96.2967 76.9671C96.1706 76.5842 95.9487 76.2404 95.6523 75.9688C95.3955 75.7321 95.0597 75.601 94.7114 75.6014C94.49 75.6001 94.2723 75.6582 94.0808 75.7699C93.8894 75.8816 93.731 76.0428 93.6223 76.2367C93.3253 76.7668 93.1845 77.3709 93.2163 77.9784C93.2111 78.4656 93.2792 78.9508 93.4182 79.4176C93.5275 79.814 93.7361 80.1756 94.024 80.4678C94.1537 80.5949 94.3074 80.6948 94.4759 80.7616C94.6445 80.8284 94.8246 80.8607 95.0057 80.8567C95.2368 80.8586 95.4639 80.7952 95.6609 80.6737C95.858 80.5522 96.0173 80.3776 96.1206 80.1696Z" fill="#FDBA61"/>
<path d="M54.5834 73.3451C78.3573 73.33 96.8424 73.2111 96.8424 73.0664C96.8424 72.9734 89.2572 72.7033 77.5582 72.498C77.1737 72.4743 76.787 72.4505 76.4046 72.4073C75.3091 72.2863 74.8408 71.8282 74.8128 70.8493C74.7849 69.8704 74.7956 69.9482 74.7613 68.952C74.7419 68.3318 74.7162 67.7268 75.4487 67.2536L74.7871 67.1844V64.6237C75.2962 64.3709 75.7623 64.1051 76.366 64.291C76.5086 64.2997 76.6515 64.2776 76.7849 64.2261L77.8289 64.01C77.9708 63.6103 78.0709 63.1968 78.1275 62.7762L78.512 63.2559L79.4013 63.3078C79.425 63.2408 79.4529 63.1457 79.4959 63.0182L80.1188 63.1846L80.89 62.6811C80.4958 62.5509 80.0941 62.4448 79.6871 62.3634C79.3326 62.3116 78.8579 62.4693 78.628 62.3116C78.3595 62.1301 78.2693 61.713 78.1618 61.3846C78.1247 61.1588 78.1203 60.9288 78.149 60.7017C78.9524 60.8984 79.4379 60.6023 79.8933 60.0362C79.1994 60.1334 78.6044 60.3776 77.9234 60.168C78.2478 60.0081 78.5678 59.846 78.9975 59.6386L78.0544 59.174C78.7698 58.8196 79.1027 59.3252 79.44 59.4787L80.527 58.7764L78.4669 58.0978C78.411 57.7996 78.3638 57.5576 78.3144 57.2875L78.8493 57.16C78.8299 56.9439 78.8106 56.7278 78.7977 56.5982C79.0125 56.6284 79.208 56.6695 79.3992 56.6803C79.5195 56.6803 79.6505 56.6047 79.7622 56.6241C80.2971 56.7127 80.295 56.7192 80.7031 56.408L79.8589 56.2546L80.4389 55.4529C79.7451 55.6992 79.4894 55.0575 78.8407 54.8284L79.4357 54.554C79.397 54.5021 79.3584 54.4546 79.3176 54.4027C79.1242 54.4178 78.9287 54.4286 78.7354 54.4459C78.4282 54.474 78.1232 54.4286 77.9986 54.1628C77.874 53.8971 78.0738 53.6961 78.3401 53.5427C78.6457 53.368 78.9021 53.1182 79.0856 52.8166C78.701 52.9117 78.4046 53.1991 78.091 52.8317C78.0544 52.7907 77.8933 52.8166 77.7945 52.8317C77.5453 52.8685 77.2983 52.9203 77.0233 52.97C76.8124 52.7217 76.6241 52.4548 76.4605 52.1727C76.3166 51.8723 76.5765 51.6432 76.9009 51.8075C77.3649 52.0452 77.5883 51.734 77.8761 51.5763C78.0407 51.49 78.1771 51.358 78.2693 51.1959C78.4841 50.7638 78.9502 50.4656 78.991 49.8648C78.7991 49.9652 78.5994 50.0497 78.3938 50.1176C78.2366 50.1753 78.0654 50.1821 77.9041 50.1371C77.6535 50.0347 77.4368 49.8632 77.2789 49.6423C77.1565 49.4046 77.0641 48.9637 77.2016 48.8492C77.6312 48.5056 77.4873 47.812 78.1876 47.6564C78.2545 47.6271 78.3128 47.5812 78.3572 47.523C78.4015 47.4648 78.4304 47.3962 78.4411 47.3236C78.4239 47.0319 78.1425 47.1961 77.9728 47.1594C77.9298 47.1486 77.8976 47.0967 77.859 47.06C77.8224 46.7207 78.4647 46.6624 78.2993 46.1502C77.5775 46.6775 76.9374 47.2566 75.9686 47.06C75.7129 46.5414 76.4111 46.7034 76.5249 46.3836L76.0459 45.9882C76.8729 45.5214 76.8729 45.5214 76.6474 44.8429L77.0641 44.4475C76.883 44.3703 76.7165 44.2621 76.5722 44.1277C76.2736 43.7279 76.0223 43.3 75.8139 42.9737C75.8547 42.4594 75.8912 42.0294 75.9256 41.621H75.4014C75.163 41.0484 74.9374 40.5081 74.6367 39.7907C74.4906 40.3612 74.4734 40.7912 74.2693 41.1326C74.0653 41.4741 73.6743 41.7161 73.3564 42.01C73.8139 42.4422 73.1824 42.8009 73.2812 43.2136L72.7055 43.3281C72.8537 43.6047 73.4101 43.6695 73.1995 44.1341C72.6732 44.3286 72.162 44.1817 71.6357 44.0174C71.7649 44.1603 71.9131 44.2847 72.076 44.387C72.235 44.5036 72.5057 44.5512 72.4112 44.8451L71.7968 44.8775C72.0696 45.2535 72.6711 45.1346 72.9289 45.6014H71.8161C71.7903 45.7721 71.8161 45.9471 71.7495 45.9774C71.6443 46.0292 71.4101 46.0357 71.3564 45.9774C71.23 45.8064 71.1233 45.6216 71.0385 45.4263C70.553 45.448 70.553 45.448 70.2437 45.0957L70.5401 44.938L69.1352 44.2984C69.4939 43.8899 69.7796 43.4945 70.3661 43.434C70.4113 43.417 70.451 43.3879 70.4809 43.3498C70.5109 43.3117 70.5298 43.2661 70.5358 43.2179C70.4907 42.9003 70.7678 42.8398 70.9869 42.7404C71.206 42.641 71.4767 42.548 71.7216 42.453C70.8451 42.3471 70.0031 42.7512 69.1116 42.453C69.3994 41.768 70.1857 42.2174 70.5895 41.8047C70.422 41.6383 70.2694 41.4892 70.1234 41.3401C70.2866 41.1132 70.4198 40.9252 70.553 40.7394L70.4563 40.6702L69.5971 41.1024C69.5219 40.8863 69.3822 40.707 69.4316 40.5859C69.5841 40.2874 69.7548 39.9987 69.9429 39.7216C70.0005 39.5989 70.0479 39.4717 70.0847 39.3413C69.9386 39.3413 69.8699 39.3413 69.8291 39.3586C69.1223 39.9377 68.2287 40.197 67.3501 40.4628C67.0733 40.5325 66.7854 40.545 66.5037 40.4995C66.392 40.4865 66.2888 40.3093 66.2244 40.1862C66.2094 40.1538 66.3941 40.0176 66.5101 39.9701C66.682 39.9246 66.8573 39.8935 67.0343 39.8772C66.6046 39.7453 66.3898 39.5271 66.5617 39.1641C66.7244 38.8936 66.9137 38.6402 67.1266 38.4078L67.5821 38.894C68.205 38.8724 67.7131 38.4812 67.9537 38.2781C68.3833 38.5136 68.755 38.1117 69.2319 38.2241C69.2705 37.9475 69.2985 37.7314 69.3414 37.4246C68.306 37.5888 67.5262 38.1917 66.5488 38.2608C66.6197 37.5348 66.7228 37.4462 67.8721 37.0658C67.4682 36.5515 67.4682 36.5516 68.0869 35.8514L67.4897 35.4192C68.1341 35.1059 68.9225 35.0584 69.0858 34.1594C68.6368 34.2848 68.2845 34.3582 67.958 34.4792C67.4295 34.6716 66.9075 34.7883 66.3554 34.6197C66.3898 34.3129 66.9183 34.557 66.856 34.1594C66.856 34.1033 67.2534 33.9952 67.4682 33.9109C67.451 33.8548 67.436 33.8007 67.4231 33.7467L65.1782 33.9758C65.4167 33.5695 65.8055 33.5436 66.1256 33.4139C66.4457 33.2843 66.9526 33.3686 67.1352 32.8435L66.0311 33.0401C65.8936 32.5388 66.3769 32.4588 66.6949 32.2254C66.1836 31.7025 65.4897 32.1671 64.9763 31.8797C64.9763 31.7889 64.899 31.6636 64.9484 31.6009C65.247 31.2876 65.5714 30.9937 65.8871 30.6912C65.4102 30.81 65.0279 30.6609 64.6348 30.4405L65.3329 29.6216L64.5703 29.8722C64.2481 29.3795 64.7508 29.1678 65.0214 28.822L64.2159 28.6535C64.1707 28.3877 64.1321 28.1543 64.0848 27.882L63.7798 28.1802C63.3867 27.8367 63.4726 27.4391 63.391 27.0717C63.3093 26.7043 63.0945 26.3781 62.8861 25.9199C62.783 26.136 62.7293 26.2506 62.6842 26.3521C62.5489 26.6871 62.2546 27.0458 62.319 27.3569C62.3963 27.8107 61.8894 28.0052 61.913 28.3898C61.913 28.4936 61.6982 28.6059 61.5908 28.7097C60.9034 28.1262 61.8507 27.8604 61.8056 27.3548C61.061 27.8825 60.2104 28.2395 59.3137 28.4007C59.217 28.0074 59.6338 27.6379 59.2428 27.2381C59.0602 27.6487 58.781 28.0506 58.3449 27.9231C57.9475 27.8064 57.8508 27.9404 57.6639 28.1392C57.5541 28.2133 57.4329 28.2688 57.3052 28.3034C57.2257 28.1543 57.1677 28.0506 57.1097 27.9404C56.8304 28.1565 56.5683 28.4633 56.1838 27.9706L57.1956 27.1646C56.6843 26.9766 56.1752 27.7286 55.7649 27.089C55.4706 26.6309 55.3503 26.1684 55.7993 25.6714H56.4974L56.9529 26.4234C57.2472 26.2203 57.2192 25.8746 57.6124 25.8983C57.8632 25.9174 58.1131 25.851 58.322 25.7099C58.5308 25.5688 58.6864 25.3612 58.7638 25.1204C58.9356 24.6882 59.2707 24.4721 59.7068 24.3252C59.83 24.2795 59.9505 24.2268 60.0677 24.1675C59.9281 23.2707 59.9281 23.2707 60.8282 23.3031C60.5425 22.8083 60.5511 22.724 60.9248 22.4042C61.4426 21.972 61.4426 21.972 60.8002 21.5398C60.0054 21.8423 59.2385 22.3242 58.2224 22.1578C58.2955 21.8747 58.3599 21.6219 58.4372 21.2935C57.9646 21.637 57.9217 21.6306 57.4147 21.2178C57.0001 20.8807 57.0195 20.7727 57.6145 20.0596L56.7853 19.299L57.8379 19.0245C58.0527 18.6464 57.3589 18.3395 57.7713 17.9268L58.6005 18.1083L58.1215 17.1683H59.6252C59.4813 16.9803 59.3524 16.8074 59.1461 16.5417L60.3663 16.3947C60.1085 16.1786 59.5543 16.1419 59.8357 15.6514L60.2911 15.7313C60.0956 15.1436 60.8346 15.1349 60.9914 14.7157C60.362 15.271 59.2622 15.0074 58.8433 15.8372C58.2697 15.4418 58.2611 15.3532 58.7187 15.0658C58.8067 15.0117 58.97 14.9361 58.9614 14.9015C58.8561 14.5255 59.1655 14.4175 59.4362 14.2835C59.7885 14.1128 59.6875 13.8341 59.5715 13.5747L60.1579 13.5315C59.4233 13.2744 58.869 13.5704 58.4201 14.0091C57.8873 14.5722 57.2076 14.9729 56.4588 15.1652C55.7897 15.2814 55.1149 15.3614 54.4373 15.405C54.3987 15.405 54.3514 15.3467 54.2225 15.2538C54.5276 14.9793 54.3686 14.6206 54.3385 14.3116L55.5931 14.4261C55.8079 13.9227 55.969 13.5164 56.1602 13.0475C55.9153 13.1253 55.6618 13.2009 55.4083 13.2852C54.8584 13.471 54.6178 13.3781 54.403 12.8876L56.2096 12.5332C56.1838 12.2782 56.1623 12.0881 56.143 11.9022L56.6435 11.8007C56.3449 11.4398 56.0785 11.1221 55.8208 10.8153L56.3041 10.1238L57.7026 9.78237C57.2729 9.56629 56.7552 9.96173 56.5533 9.44527C56.4502 9.41007 56.338 9.41391 56.2375 9.45608C56.0657 9.58141 55.8981 9.58573 55.8208 9.4215C55.7902 9.28251 55.814 9.13701 55.8874 9.01526C56.0506 8.65007 56.2375 8.2892 56.4588 7.83973L55.3095 7.9629C55.1164 7.84611 54.9382 7.70606 54.7789 7.54585C54.681 7.34552 54.6088 7.13349 54.5641 6.91487C53.9841 6.54103 53.9755 6.48269 54.5125 6.05051C54.2139 5.43033 54.2268 5.40224 54.882 5.16886C55.0066 5.12132 55.0968 4.99167 55.2665 4.83608C54.9787 4.76045 54.7746 4.63944 54.6221 4.6805C54.1173 4.81448 54.1237 4.83608 53.7907 4.4039C53.9454 4.38446 54.1344 4.40391 54.1753 4.34556C54.3895 4.01571 54.586 3.67452 54.7639 3.32346C54.7789 3.29753 54.6715 3.19164 54.607 3.17652C54.5675 3.17195 54.5275 3.1768 54.4901 3.19069C54.4528 3.20458 54.4193 3.22712 54.3922 3.25647C54.361 3.35364 54.3437 3.45476 54.3407 3.55683L52.9422 3.39045C53.0195 3.01877 53.0689 2.66222 52.5555 2.44181C52.3407 2.35105 52.4245 2.08743 52.6436 1.92536C52.7145 1.87134 52.7317 1.75681 52.7661 1.68118L52.0808 1.36785C52.1173 0.339261 52.0292 0.151263 51.4277 0C51.1871 0.501328 50.7983 0.994012 50.7425 1.51263C50.672 2.06725 50.5534 2.61461 50.388 3.14842C49.8016 3.03606 49.9133 2.65574 49.8918 2.27326C49.735 2.66655 49.3913 2.92153 49.634 3.35371C49.707 3.48552 49.4901 3.78589 49.3483 3.96524C49.1571 4.21375 48.9573 3.93715 48.764 3.93499C48.5559 3.96138 48.353 4.01968 48.1625 4.10786C48.2635 4.61135 48.7812 4.66105 49.1378 4.84905L48.8843 5.30284L49.2538 5.5924C49.0561 5.73502 48.9101 5.8409 48.8542 5.87764L47.793 5.41304C47.851 5.64426 48.0293 5.73069 48.1303 5.86251C48.2019 5.99231 48.2512 6.13329 48.2764 6.27956L48.9788 6.48269C48.8521 6.66636 48.8005 6.84788 48.6824 6.89326C48.3083 7.05754 47.8957 7.11225 47.4921 7.05108C47.0886 6.98992 46.7103 6.81536 46.401 6.54751C46.401 6.74199 46.4354 6.97969 46.5063 6.97969C46.9789 7.04452 46.9552 7.72736 47.5503 7.62796C47.5889 7.62796 47.6555 7.79435 47.7264 7.86782C47.802 7.94958 47.8934 8.01502 47.9949 8.06014C48.0796 8.0834 48.1584 8.12457 48.2259 8.18091C48.2935 8.23725 48.3484 8.30745 48.3868 8.38682C48.4252 8.46619 48.4464 8.5529 48.4488 8.64116C48.4513 8.72941 48.4349 8.81717 48.4009 8.89857C48.3021 9.19461 48.0529 9.30266 47.6448 9.15139C47.3991 9.0339 47.1205 9.00565 46.8564 9.07144C46.5514 9.14275 46.1668 8.94395 45.8145 8.86615C45.4107 8.77756 45.2109 8.52257 45.1851 8.07743C44.9445 8.39724 44.7856 8.60685 44.6137 8.84022C44.7856 9.0131 44.951 9.18381 45.1035 9.34155L45.879 9.08873C45.7437 9.38261 45.6642 9.52091 45.6126 9.67865C45.6041 9.74597 45.6092 9.81433 45.6276 9.87961L46.2313 9.76941C46.4461 9.92067 46.2592 10.3593 46.7361 10.2707C46.7511 10.2707 46.8629 10.4587 46.8306 10.5128C46.7748 10.6078 46.6287 10.7288 46.5428 10.7288C46.2334 10.6835 45.9348 10.5862 45.6341 10.5128C45.3742 10.4501 45.1121 10.3939 44.8307 10.3312C44.7834 11.0033 45.4945 10.8196 45.7028 11.1156C45.9585 11.4765 46.6051 11.1545 46.6889 11.5738L47.2946 11.4592L47.3956 11.6018L46.9273 12.1788C46.1517 11.9249 45.3433 11.7866 44.5278 11.7682C44.487 11.913 44.4483 12.0578 44.401 12.2307L44.8307 12.4597L45.2925 12.1442C45.3226 12.4835 45.3419 12.7234 45.3656 12.9675C45.9542 12.8595 45.9542 12.8595 46.3215 13.2657C45.5677 13.4017 44.7912 13.327 44.0767 13.0496C43.3373 12.7217 42.5444 12.5327 41.7373 12.4921C41.8746 12.6895 41.9947 12.8984 42.096 13.1166C42.1663 13.3588 42.2187 13.6058 42.2529 13.8557C42.9403 13.5488 43.2475 14.0718 43.6449 14.3721L44.2893 14.156C44.2614 14.4456 44.2421 14.6509 44.212 14.9858C43.8661 14.8281 43.6556 14.7157 43.4344 14.6357C43.2528 14.5699 43.0637 14.527 42.8715 14.5083C42.8372 14.5083 42.7856 14.6984 42.734 14.8216L43.2947 14.9145C43.3919 15.1333 43.5153 15.3394 43.6621 15.5282C43.8355 15.6708 44.0242 15.7933 44.2249 15.8934C44.5084 16.479 43.8447 16.7102 43.6556 17.2245C44.3817 16.9868 44.7598 17.4082 45.2345 17.6178C45.7759 17.8576 45.7952 18.3438 46.0551 18.7436C45.2517 18.856 43.8941 18.3914 39.6901 16.4531L39.4881 16.855C39.9178 17.2418 40.4699 17.5551 40.5816 18.1364C40.7199 18.0104 40.8754 17.9049 41.0434 17.8231C41.2819 17.7453 41.5375 17.8231 41.574 18.0716C41.6299 18.4605 41.6234 18.8581 41.6514 19.3811C41.8346 19.1548 42.0297 18.9384 42.2357 18.7328C42.2818 18.7061 42.3333 18.6899 42.3864 18.6854C42.4395 18.6809 42.4929 18.6883 42.5429 18.7069C42.6159 18.7479 42.6932 18.897 42.6653 18.9597C42.5786 19.1476 42.4618 19.3199 42.3195 19.4697C42.1039 19.6619 41.8788 19.8429 41.6449 20.0121C42.1777 20.1892 42.3968 19.904 42.618 19.6577C42.8393 19.4113 43.0069 19.1563 43.226 18.9251C43.2594 18.8808 43.3027 18.8449 43.3522 18.8201C43.4018 18.7954 43.4564 18.7825 43.5117 18.7825C43.567 18.7825 43.6216 18.7954 43.6712 18.8201C43.7207 18.8449 43.7639 18.8808 43.7974 18.9251C43.7093 19.7506 43.7093 19.7506 44.3881 19.9732C44.5385 19.6339 44.6803 19.2709 45.1078 19.1088C45.2228 19.3155 45.3692 19.5029 45.5417 19.6642C46.0143 19.9775 45.9241 20.3924 45.8468 20.7921C45.7694 21.1919 45.3419 21.1379 45.0197 21.2049C44.9918 21.2049 44.9767 21.2719 44.9574 21.3086C45.3033 21.4426 45.5718 21.7408 46.0315 21.5355C46.0761 21.5162 46.1251 21.5097 46.1732 21.5168C46.2212 21.5239 46.2663 21.5442 46.3035 21.5756C46.3407 21.607 46.3685 21.6481 46.3838 21.6944C46.3991 21.7408 46.4014 21.7905 46.3903 21.838C46.3447 21.994 46.2828 22.1447 46.2055 22.2875C45.1142 22.2875 44.0767 22.2594 43.1358 21.7105C42.8089 21.4979 42.4441 21.3511 42.0617 21.2783C41.9275 21.2717 41.796 21.238 41.675 21.1794C41.554 21.1207 41.4459 21.0383 41.3571 20.9369C40.9974 20.5573 40.5187 20.3139 40.0016 20.2476C40.6095 20.952 40.8716 21.8553 41.6771 22.3869C41.5833 22.5053 41.4959 22.6286 41.4151 22.7564C41.1551 23.2015 41.0563 23.2296 40.5794 22.9574C40.3646 22.8342 40.1498 22.6937 39.935 22.5922C39.8748 22.5641 39.7202 22.6332 39.6622 22.6937C39.6278 22.7218 39.6622 22.8817 39.6987 22.8947C40.0961 23.0135 40.1025 23.4652 40.7191 23.5883L39.733 24.0421C39.7438 24.2366 39.7588 24.4743 39.7696 24.6645C40.0209 24.6926 40.3302 24.6472 40.5128 24.7639C40.8415 24.98 40.9425 24.5759 41.1573 24.6342L41.8984 25.1831C41.7373 25.5159 41.5031 25.6153 41.1294 25.5526C40.1455 25.4056 39.1509 25.3041 38.1692 25.1507C37.8878 25.1053 37.7395 25.1507 37.6321 25.3992C38.0961 25.5677 38.5429 25.7622 39.0091 25.8919C39.297 25.9718 39.6299 26.0258 39.6536 26.3067C39.6707 26.5228 39.4731 26.7389 39.3678 26.955C39.9479 26.8945 40.4548 27.4045 41.2196 27.2057C41.1465 27.5039 41.0993 27.7005 41.052 27.895L42.0874 28.0225C41.6063 28.5303 41.0499 28.5649 40.4613 28.5303L40.7942 29.1051H40.1713C40.1154 29.3709 40.1519 29.6734 40.0016 29.7923C39.7653 29.9781 39.3571 29.9867 39.1144 30.1747C38.8716 30.3627 38.833 30.7474 38.3818 30.8597C38.0563 30.9453 37.7244 31.0038 37.3894 31.0348C37.3709 31.0188 37.3574 30.9978 37.3507 30.9743C37.2712 30.5745 36.8824 30.4492 36.616 30.2223L37.5483 29.1721H36.7557C36.8158 29.1051 36.8695 29.0381 36.9189 28.9733C36.7957 28.9079 36.6885 28.8156 36.6053 28.7032H36.5924C36.4807 28.5995 36.2659 28.4871 36.2702 28.3834C36.2895 27.9901 35.7847 27.8042 35.862 27.3505C35.9179 27.0393 35.6343 26.6806 35.4968 26.3456C35.4517 26.2354 35.4002 26.1295 35.2949 25.9135C35.0801 26.3716 34.8653 26.7065 34.7901 27.0652C34.7149 27.4239 34.7901 27.8302 34.4013 28.1738L34.0962 27.8756C34.049 28.1478 34.0103 28.3812 33.9652 28.647L33.1596 28.8155C33.4303 29.1613 33.933 29.3731 33.6107 29.8657L32.8503 29.6151C33.1188 29.9327 33.3143 30.1639 33.5463 30.4341C33.1446 30.6501 32.7708 30.8036 32.296 30.6847C32.6097 30.9872 32.9405 31.2811 33.2326 31.5945C33.2821 31.6463 33.2155 31.7825 33.2069 31.8732C32.6849 32.1606 31.991 31.696 31.4883 32.219C31.8041 32.4523 32.2896 32.5323 32.1521 33.0336L31.0458 32.837C31.2305 33.3621 31.7203 33.2691 32.0554 33.4074C32.3906 33.5457 32.7665 33.563 33.0028 33.9693L30.7601 33.7402C30.7451 33.7942 30.73 33.8483 30.7128 33.9044C30.9276 33.9887 31.3337 34.0968 31.3251 34.153C31.2628 34.5506 31.7912 34.3064 31.8256 34.6132C31.2735 34.7818 30.7515 34.6651 30.2252 34.4728C29.8965 34.3518 29.5464 34.2783 29.0952 34.153C29.2585 35.0519 30.0447 35.0994 30.6913 35.4128L30.0963 35.8449C30.7042 36.5451 30.7042 36.5451 30.3111 37.0594C31.4604 37.4397 31.5635 37.5283 31.6365 38.2543C30.6613 38.1852 29.8815 37.5823 28.8439 37.4181C28.8869 37.7249 28.9148 37.941 28.9556 38.2176C29.4325 38.1052 29.8041 38.5072 30.2316 38.2716C30.4722 38.4747 29.9803 38.8659 30.6033 38.8875L31.0587 38.4013C31.2723 38.6338 31.4623 38.8871 31.6258 39.1576C31.7998 39.5206 31.5807 39.7389 31.1511 39.8707C31.3287 39.8874 31.5047 39.9185 31.6774 39.9636C31.7912 40.0025 31.976 40.1386 31.9609 40.1797C31.9051 40.3029 31.7934 40.4801 31.6817 40.493C31.4 40.5384 31.112 40.5259 30.8353 40.4563C29.9567 40.1905 29.063 39.9312 28.3584 39.3521C28.3262 39.3261 28.2467 39.3521 28.1006 39.3348C28.1384 39.4649 28.1858 39.5921 28.2424 39.7151C28.4305 39.9923 28.6013 40.2809 28.7537 40.5795C28.8031 40.7005 28.6635 40.8798 28.5883 41.0959L27.729 40.6637L27.6302 40.7329L28.0598 41.3336L27.5915 41.7982C28.0018 42.2153 28.7816 41.7658 29.0695 42.4465C28.1844 42.7468 27.3359 42.3427 26.4594 42.4465C26.7043 42.5415 26.9557 42.628 27.1941 42.7339C27.4326 42.8398 27.6903 42.8938 27.6452 43.2114C27.6516 43.2598 27.671 43.3054 27.7013 43.3435C27.7316 43.3816 27.7716 43.4106 27.8171 43.4275C28.4035 43.4902 28.6871 43.8856 29.048 44.2919L27.6538 44.9207L27.9481 45.0784C27.6388 45.4307 27.6388 45.4307 27.1533 45.4091C27.0684 45.6043 26.9618 45.7891 26.8354 45.9601C26.7817 46.0228 26.5497 46.0163 26.4422 45.9601C26.3778 45.9298 26.4014 45.744 26.3757 45.5841H25.265C25.5207 45.1173 26.1243 45.2362 26.3971 44.8602L25.7806 44.8278C25.6775 44.5339 25.9568 44.4864 26.1179 44.3697C26.2771 44.2667 26.4216 44.1424 26.5475 44.0002C26.0212 44.1644 25.5099 44.3113 24.9836 44.1168C24.7688 43.6523 25.3316 43.5874 25.4777 43.3108L24.902 43.1963C25.0008 42.7836 24.3693 42.4227 24.8268 41.9927C24.5089 41.6988 24.1179 41.4525 23.9138 41.1154C23.7098 40.7783 23.699 40.3439 23.5486 39.7734L22.771 41.621H22.2361C22.2705 42.0294 22.3048 42.4594 22.3457 42.9737C22.1308 43.3 21.886 43.7279 21.5874 44.1277C21.4438 44.2621 21.2781 44.3703 21.0976 44.4475C21.2093 44.5533 21.3682 44.7068 21.5143 44.8429C21.2866 45.5214 21.2866 45.5214 22.1158 45.9882L21.6368 46.3793C21.7528 46.6991 22.4488 46.537 22.1931 47.0557C21.2265 47.2523 20.5842 46.6732 19.8645 46.1459C19.697 46.6581 20.3393 46.7164 20.3049 47.0557C20.2641 47.0924 20.234 47.1443 20.1889 47.1551C20.0192 47.1918 19.7378 47.0276 19.7227 47.3193C19.7324 47.3925 19.7612 47.4618 19.8061 47.5203C19.851 47.5787 19.9104 47.6242 19.9784 47.6521C20.6787 47.8077 20.539 48.5013 20.9622 48.8449C21.1019 48.9594 21.0095 49.4002 20.8871 49.6379C20.7288 49.8576 20.5132 50.0288 20.2641 50.1328C20.1028 50.1778 19.9316 50.171 19.7743 50.1133C19.5681 50.0455 19.3676 49.9609 19.175 49.8605C19.2179 50.4612 19.6905 50.7702 19.8967 51.1916C19.9889 51.3536 20.1253 51.4856 20.2899 51.5719C20.5777 51.7297 20.8033 52.0408 21.2651 51.8032C21.5895 51.6389 21.8494 51.868 21.7077 52.1683C21.5425 52.45 21.3535 52.7168 21.1427 52.9657C20.8677 52.916 20.6207 52.8642 20.3715 52.8274C20.2727 52.8123 20.1116 52.7864 20.075 52.8274C19.7614 53.1948 19.465 52.9074 19.0804 52.8123C19.2638 53.1138 19.5203 53.3637 19.8258 53.5383C20.0944 53.6918 20.3006 53.8819 20.1674 54.1585C20.0342 54.4351 19.7378 54.4697 19.4306 54.4416C19.2372 54.4243 19.0439 54.4135 18.8484 54.3984L18.7303 54.5496L19.3339 54.8241C18.6895 55.0531 18.4274 55.6884 17.7335 55.4486L18.3135 56.2503L17.4693 56.4037C17.8796 56.7127 17.8774 56.7062 18.4102 56.6198C18.5241 56.6003 18.6529 56.6803 18.7732 56.676C18.9644 56.676 19.1556 56.6241 19.3747 56.5939C19.3747 56.7235 19.3447 56.9374 19.3253 57.1557L19.8602 57.2832C19.8087 57.5533 19.7614 57.7953 19.7077 58.0935L17.639 58.7764L18.7281 59.4787C19.0632 59.3252 19.3962 58.8196 20.1116 59.174L19.1685 59.6407C19.5981 59.8568 19.9182 60.0102 20.2426 60.1701C19.5681 60.3862 18.9666 60.1356 18.2727 60.0383C18.7238 60.6045 19.2136 60.9027 20.017 60.7039C20.0467 60.9309 20.0424 61.161 20.0041 61.3867C19.8967 61.7152 19.8087 62.1322 19.538 62.3137C19.3081 62.4715 18.8355 62.3137 18.4811 62.3656C18.0737 62.441 17.6712 62.5413 17.276 62.666L18.045 63.1781L18.668 63.0117C18.7088 63.1392 18.741 63.2278 18.7625 63.3013L19.654 63.2494L20.0364 62.7697C20.0926 63.1906 20.1935 63.6042 20.3371 64.0036L21.379 64.2197C21.5157 64.2727 21.6624 64.2948 21.8086 64.2845C22.4123 64.0986 22.8827 64.3644 23.3875 64.6173V67.1779L22.728 67.2471C23.4584 67.7203 23.4326 68.3275 23.4133 68.9455C23.3789 69.9417 23.3918 69.8445 23.3618 70.8428C23.3317 71.8411 22.8655 72.2798 21.77 72.4008C21.3403 72.4483 20.93 72.4743 20.509 72.5002C9.03124 72.7033 1.60498 72.9691 1.60498 73.0599C1.60498 73.2155 22.9235 73.3408 49.2237 73.3408H54.5942L54.5834 73.3451ZM56.7509 21.7408C56.9851 21.4166 57.2923 21.4166 57.6918 21.6889L57.52 22.3977C57.3344 22.4548 57.1403 22.4789 56.9464 22.469C56.6886 22.415 56.5812 21.9763 56.7509 21.7408ZM71.8677 53.6032C72.2501 53.493 72.6668 53.5146 72.916 53.1386C72.9718 53.0522 73.264 53.0867 73.4939 53.0608C73.3113 53.9532 72.3703 53.8798 71.7474 54.2947C71.481 53.9403 71.5734 53.6896 71.8677 53.6032ZM65.9709 45.0028C66.5789 44.5512 67.045 45.0266 67.5649 45.1584C67.5863 45.2427 67.6272 45.3075 67.6057 45.3399C67.1266 46.1783 67.1331 46.1632 66.175 45.7548C65.5305 45.4804 64.841 45.2708 64.4221 44.5555C64.9935 44.6787 65.5885 44.374 65.9709 45.0028ZM66.8087 52.406C66.2717 52.4903 65.8399 52.7756 65.2899 52.607C65.2706 52.1748 65.595 52.1748 65.9 52.1035C66.2459 52.0257 66.5509 51.9933 66.8087 52.406ZM64.7357 60.5051C65.2384 60.2047 66.0397 60.0534 66.0568 59.1329C66.6175 59.7444 67.5069 59.5543 67.8506 60.1982C67.943 60.3668 68.0654 60.6131 67.9967 60.7363C67.9279 60.8595 67.6186 60.8919 67.4081 60.9092C67.1212 60.9156 66.8342 60.904 66.5488 60.8746L67.1932 61.4191C66.7829 61.6957 66.4156 61.9226 66.0762 62.1798C65.7368 62.4369 65.6766 62.8583 65.6465 63.1954L66.6777 63.7335L67.146 63.4785C67.6959 63.8955 67.0729 64.0922 66.9462 64.4465C67.6035 64.5654 68.1664 64.8117 68.8108 64.2953C69.255 63.9532 69.8156 63.8017 70.3704 63.8739C70.4305 64.09 70.4907 64.3061 70.5852 64.6151C70.7828 64.479 70.9504 64.3709 71.1115 64.2586C71.2747 64.122 71.4478 63.9977 71.6292 63.8869C71.8816 63.7376 72.1764 63.6777 72.4665 63.7169C72.7567 63.7561 73.0254 63.892 73.2296 64.103C73.4444 64.3061 73.917 64.3191 73.8741 64.7275C73.8311 65.1359 73.9836 65.5724 73.5368 65.7841C73.6442 66.1104 73.8225 66.4065 73.8225 66.7025C73.8225 68.4637 73.7645 69.1314 73.771 70.8968C73.771 71.4154 73.4595 71.7612 73.1265 72.0875C72.966 72.1982 72.7728 72.2507 72.5787 72.2366C70.4821 72.1934 68.3833 72.1631 66.2888 72.0723C65.8261 72.0714 65.3781 71.9082 65.0221 71.6108C64.6661 71.3134 64.4243 70.9004 64.3383 70.443C64.3082 70.2939 64.3039 70.1362 64.261 69.9893C64.029 69.2027 64.261 69.6284 64.8839 69.0795C64.8453 68.8267 64.8131 68.5998 64.7765 68.3426L64.1707 68.1979C64.134 67.9834 64.1096 67.7669 64.0977 67.5496C64.0977 65.5054 64.0977 63.4612 64.0848 61.4191C64.0741 60.9718 64.2889 60.7795 64.7357 60.5051ZM59.0258 30.0581C59.0989 29.6799 59.3889 29.641 59.7047 29.5222C60.3642 29.2693 60.3749 29.2088 60.4372 28.4676C60.9721 28.4525 61.0967 28.8242 61.4103 29.1699H60.6134L61.5457 30.2201C61.2814 30.447 60.8905 30.5724 60.811 30.9721C60.7874 31.0953 60.4544 31.1882 60.2439 31.253C59.9572 31.3254 59.6668 31.3817 59.3739 31.4216C59.356 31.3456 59.3233 31.2741 59.2776 31.211C59.2319 31.148 59.1741 31.0948 59.1077 31.0545C59.0412 31.0143 58.9675 30.9878 58.8907 30.9766C58.8139 30.9654 58.7357 30.9698 58.6607 30.9894C58.5533 30.5724 58.9678 30.3671 59.0258 30.0667V30.0581ZM59.7734 55.5998C59.3674 56.2848 58.7638 55.2368 58.2933 55.9564V55.0704L58.9013 55.3124L59.3975 54.8932C59.535 55.159 59.6553 55.3838 59.7734 55.6085V55.5998ZM58.6757 37.9388C58.4953 38.2068 58.3621 38.425 58.2052 38.6282C58.1335 38.7352 58.0308 38.8174 57.9109 38.8637C57.4491 38.9977 56.9808 39.1014 56.5146 39.2181C56.7123 38.1333 57.4835 37.6579 58.6757 37.9475V37.9388ZM56.6672 44.8537C56.8111 44.8343 56.9657 44.7738 57.013 44.8148C57.2835 45.0259 57.5299 45.2665 57.7477 45.5322C57.8959 45.731 57.7584 45.945 57.5071 46.0119C57.3017 46.0889 57.0787 46.1052 56.8644 46.0589C56.6501 46.0125 56.4535 45.9055 56.2977 45.7505L56.897 45.3442C56.8304 45.2103 56.7574 45.0547 56.6672 44.858V44.8537ZM55.8766 35.1556C56.2332 34.9698 56.6027 35.0757 56.9507 35.1686C57.1977 35.2356 57.3116 35.4538 57.0195 35.6008C56.6285 35.7996 57.1913 35.832 56.9743 36.0805H55.3331C55.6876 35.8255 55.462 35.3739 55.8766 35.1599V35.1556ZM54.7252 17.6524C54.8648 17.7172 55.0431 17.7431 55.071 17.8187C55.2214 18.1818 55.1248 18.4973 54.7853 18.843L54.3364 18.4649C54.4653 18.2055 54.5856 17.9592 54.7252 17.6653V17.6524ZM53.9218 41.6383C54.1404 41.6743 54.3458 41.7673 54.5177 41.9079C54.6895 42.0486 54.8218 42.232 54.9013 42.44C54.4717 42.5977 54.0807 42.5934 53.7864 42.2909C53.5437 42.0618 53.7521 41.8544 53.9196 41.6577L53.9218 41.6383ZM51.9605 53.5924C51.9767 53.5134 52.0019 53.4365 52.0357 53.3633L53.0024 53.4822C53.159 53.2793 53.3338 53.0913 53.5244 52.9203C53.7113 52.782 53.8981 52.8144 54.1387 52.9463C54.4437 53.0877 54.7723 53.1706 55.1076 53.1904C55.3696 53.2207 55.5737 53.1904 55.7241 53.48C55.8358 53.6853 56.2526 53.5967 56.4244 53.2855C56.446 53.2266 56.4821 53.1741 56.5292 53.1329C56.5763 53.0917 56.633 53.0631 56.694 53.0498C56.755 53.0364 56.8184 53.0387 56.8783 53.0565C56.9382 53.0743 56.9926 53.107 57.0366 53.1516C57.3266 53.3676 57.0366 53.4886 56.8605 53.5989C57.0753 54.2061 58.0849 53.9208 58.2912 54.6166L55.6489 54.2968C56.2268 55.2066 56.8605 55.4594 57.926 55.1331C57.9561 55.6215 58.2998 56.0536 57.6811 56.4102C57.5586 56.4815 57.6188 56.8208 57.6166 57.0347C57.6166 57.4366 57.2106 57.8169 56.9722 57.6181C56.476 57.214 55.9926 57.549 55.5329 57.536C55.0732 57.523 54.607 57.8169 54.0829 57.9984L55.2515 58.6359L56.201 58.3982V59.2474C56.6306 58.6251 57.086 58.7353 57.5135 59.0162C57.8358 58.7461 57.578 58.208 58.259 58.1411C58.143 58.7893 58.1 59.4376 58.6693 60.034C58.7724 59.859 58.839 59.7401 58.9464 59.5543C59.2514 59.7833 59.5092 60.0664 59.8422 60.2026C60.13 60.3214 60.5446 60.2026 60.6542 60.6347L61.6531 60.4575C61.9044 60.6218 62.1472 60.7644 62.3641 60.9329C62.5467 61.0777 62.826 61.2484 62.8432 61.4213C62.9301 62.399 62.8575 63.3844 62.6284 64.3385L61.7949 64.0792C61.9087 64.3709 61.9259 64.5805 62.0526 64.7059C62.3048 64.9478 62.496 65.2466 62.6103 65.5777C62.7246 65.9088 62.7588 66.2626 62.71 66.6096C62.5704 68.2389 62.4651 68.7705 62.3663 70.4063C62.3276 71.0697 61.7949 71.4587 61.3266 71.8411C61.101 72.0248 60.6434 72.0313 60.289 72.0356C59.0001 72.0551 57.7004 71.9989 56.4094 72.0356C55.5501 72.068 54.766 71.8714 53.9497 71.7547C53.8373 71.7483 53.7291 71.7093 53.6382 71.6423C52.7789 70.7326 51.8896 70.9941 51.9884 69.6176C52.113 67.9126 51.9884 66.1969 51.9626 64.4855C51.9626 64.2326 51.9626 63.9798 51.9626 63.7118C52.3558 63.5217 52.7038 63.3488 53.0496 63.1781C53.233 63.118 53.4051 63.0274 53.5587 62.9102C53.7091 62.7481 53.9089 62.4909 53.8552 62.3375C53.7984 62.2224 53.7182 62.1206 53.6197 62.0387C53.5213 61.9568 53.4068 61.8966 53.2838 61.8621C52.8576 61.7941 52.4262 61.7659 51.9949 61.7778C51.9201 61.5494 51.8676 61.3142 51.838 61.0756C51.7341 58.5874 51.775 56.0952 51.9605 53.6118V53.5924ZM49.039 16.7729C48.9015 17.3995 48.7017 17.5789 47.9821 17.6696C48.2613 16.8355 48.4009 16.7253 49.039 16.7729ZM45.5009 15.2819C45.4794 15.0096 45.6577 14.7416 45.9026 14.9512C46.1475 15.1608 46.386 15.1198 46.6502 15.1284C46.7082 15.1284 46.7619 15.2257 46.8156 15.2775C46.3086 15.6773 46.3086 15.6773 45.5009 15.2819ZM46.4203 23.5278C46.691 23.3809 46.9531 23.2707 47.1743 23.5278C47.2689 23.6337 47.314 23.9125 47.2345 23.9816C46.9638 24.1778 46.6763 24.3492 46.3752 24.4938C46.1754 24.3447 45.9456 24.2625 45.9155 24.135C45.8231 23.7871 46.1475 23.6748 46.4203 23.5278ZM46.1862 28.8458C46.169 29.1807 46.1582 29.386 46.1497 29.6043C46.5986 29.3882 46.5986 29.3882 47.256 29.5157V28.7248C47.8059 28.7248 48.3773 28.9776 48.8177 28.3488L49.1335 28.8544C49.011 28.9538 48.8714 29.0705 48.7232 29.1807C48.6415 29.2412 48.4654 29.2823 48.4654 29.3342C48.4654 29.8657 48.0358 29.9133 47.6061 29.9932C47.0922 30.079 46.606 30.2872 46.1883 30.6004C45.7587 30.9354 45.3291 30.9224 44.6846 30.8749L44.981 29.8722L44.3259 30.1121L44.111 29.695L46.1862 28.8458ZM47.2882 41.379C46.5643 40.9014 46.5643 40.9014 45.8167 41.0246C45.6298 40.5103 45.9091 40.1408 46.4611 40.2488C46.9356 40.3686 47.402 40.5187 47.8575 40.6983C47.9047 41.1262 47.5675 41.2299 47.286 41.3703L47.2882 41.379ZM43.3635 29.8096L44.0079 30.4578C43.4838 30.8576 43.0219 31.0153 42.3646 30.7258L43.3635 29.8096ZM42.3946 42.7015C42.3431 43.0818 42.2529 43.3605 41.8662 43.434C41.5246 43.5032 41.1594 43.5291 41.0305 42.9521L42.3946 42.7015ZM39.1724 36.4673L40.4119 36.7158C40.2894 36.9708 40.197 37.148 40.1154 37.323L40.7599 37.6082C40.6224 37.7573 40.5451 37.9064 40.4527 37.9259C39.9135 38.0188 39.4237 38.3429 38.863 38.3321C38.8141 38.0609 38.7854 37.7865 38.7771 37.511C38.991 37.1974 39.1259 36.8363 39.1702 36.4586L39.1724 36.4673ZM38.7707 54.9105L39.2669 55.3297L39.8748 55.0877V55.9672C39.4044 55.2476 38.8007 56.2957 38.3947 55.6106C38.5107 55.3838 38.631 55.159 38.7685 54.9019L38.7707 54.9105ZM35.3336 61.4537C35.3486 61.2808 35.6279 61.1101 35.8126 60.9653C35.9974 60.8206 36.2723 60.6542 36.5215 60.4899L37.5204 60.6671C37.63 60.235 38.0446 60.3495 38.3324 60.235C38.6654 60.0988 38.9232 59.8158 39.2282 59.5867C39.3356 59.7704 39.4044 59.8914 39.5053 60.0664C40.0746 59.47 40.0316 58.8239 39.9156 58.1735C40.5966 58.2405 40.3453 58.7785 40.6632 59.0486C41.0928 58.7677 41.5397 58.6575 41.9736 59.2798V58.4306L42.9231 58.6683L44.0938 58.0308C43.5697 57.8493 43.0992 57.5555 42.6417 57.5684C42.1841 57.5814 41.6986 57.2464 41.2024 57.6505C40.9575 57.8493 40.5579 57.469 40.5579 57.0671C40.5579 56.851 40.6159 56.5139 40.4935 56.4426C39.8748 56.086 40.2185 55.6539 40.2486 55.1655C41.3227 55.4918 41.95 55.239 42.5257 54.3292L39.8834 54.649C40.0982 53.9532 41.1079 54.2385 41.3141 53.6313C41.138 53.5211 40.8501 53.4001 41.138 53.184C41.1822 53.1395 41.2368 53.1068 41.2968 53.0891C41.3568 53.0713 41.4203 53.069 41.4815 53.0823C41.5426 53.0957 41.5995 53.1242 41.6468 53.1654C41.6941 53.2066 41.7304 53.259 41.7523 53.3179C41.803 53.4083 41.8773 53.4831 41.9671 53.534C41.9671 53.5211 41.9671 53.5059 41.9671 53.4886C41.9725 53.4744 41.9813 53.4617 41.9929 53.4519C42.1456 53.172 42.2819 52.8834 42.4011 52.5876L42.4419 52.6545C41.6965 54.0224 41.6965 54.0224 41.7738 54.3357C42.0552 54.1607 42.3259 53.9035 42.6524 53.8106C43.4666 53.5945 43.8876 53.0543 44.2679 52.4536C44.3216 52.3693 44.3967 52.2958 44.4827 52.1856C45.1035 52.3282 45.6749 52.3542 46.0379 51.7534C46.0726 51.7073 46.1174 51.67 46.1688 51.6442C46.2203 51.6185 46.2769 51.6051 46.3344 51.6051C46.3919 51.6051 46.4485 51.6185 46.5 51.6442C46.5514 51.67 46.5962 51.7073 46.6309 51.7534C46.8457 52.0387 47.1271 52.11 47.4901 52.1467C47.7365 52.1878 47.9599 52.3167 48.1195 52.5098C48.2369 52.6768 48.3894 52.8158 48.5661 52.917C48.7427 53.0182 48.9394 53.0791 49.1421 53.0954C49.6576 53.1407 49.7736 53.2985 49.7865 53.7436C49.8145 54.407 49.8187 55.0726 49.8102 55.7381C49.7729 55.9303 49.7116 56.1169 49.6276 56.2935L47.7114 55.3751C47.8918 55.8073 47.952 56.1163 48.1281 56.3583C48.4417 56.7871 48.7917 57.1877 49.1743 57.5555C49.6039 57.9725 49.8381 58.4047 49.8187 58.9925C49.6641 62.7416 49.5416 66.4972 49.4063 70.2486C49.4063 70.3004 49.4063 69.2567 49.4063 69.3086C49.3891 70.3696 48.3515 70.8709 47.7866 71.6294C47.742 71.6643 47.6882 71.6853 47.6319 71.6899C46.9316 71.8174 46.2377 72.0335 45.5374 72.0486C43.5482 72.0875 41.559 72.2323 39.5698 72.1631C38.3432 72.1199 35.9179 72.1804 35.8126 70.4344C35.7138 68.8029 35.6107 68.2735 35.4689 66.6377C35.4206 66.2907 35.4551 65.9371 35.5694 65.6061C35.6837 65.2751 35.8745 64.9762 36.1262 64.7339C36.253 64.6086 36.2702 64.399 36.384 64.1073L35.5505 64.3666C35.3194 63.4113 35.2454 62.4244 35.3314 61.4451L35.3336 61.4537ZM30.6076 45.167C31.1253 45.0352 31.5936 44.5598 32.2015 45.0115C32.5839 44.3826 33.1789 44.6873 33.7525 44.5641C33.3229 45.2794 32.644 45.489 31.9974 45.7634C31.0415 46.1719 31.0458 46.1956 30.5668 45.3486C30.5388 45.3075 30.5818 45.2427 30.6011 45.1627L30.6076 45.167ZM32.8868 52.6157C32.3369 52.7842 31.9051 52.499 31.3702 52.4147C31.6215 52.002 31.9287 52.0344 32.2789 52.1122C32.5753 52.1683 32.8997 52.1813 32.8803 52.607L32.8868 52.6157ZM25.2565 53.1472C25.5078 53.5232 25.9224 53.5016 26.3048 53.6118C26.6012 53.6983 26.6914 53.9489 26.4251 54.3033C25.8021 53.8884 24.8612 53.9619 24.6786 53.0694C24.902 53.0867 25.1942 53.0522 25.25 53.1386L25.2565 53.1472ZM24.9385 64.1289C25.1428 63.918 25.4115 63.782 25.7016 63.7428C25.9918 63.7037 26.2866 63.7635 26.5389 63.9128C26.7204 64.0237 26.8934 64.1479 27.0566 64.2845C27.2199 64.3969 27.3853 64.5006 27.5829 64.641C27.671 64.3299 27.7312 64.1181 27.7977 63.8998C28.3525 63.8276 28.9132 63.9791 29.3573 64.3212C30.0018 64.8377 30.5646 64.5913 31.2241 64.4725C31.0952 64.1181 30.4722 63.9215 31.0243 63.5044L31.4905 63.7594L32.5216 63.2213C32.4958 62.8842 32.4572 62.4823 32.092 62.2057C31.7268 61.9291 31.3852 61.7217 30.9749 61.4451L31.6194 60.9005C31.3339 60.9298 31.0469 60.9414 30.7601 60.9351C30.5453 60.9178 30.2424 60.8811 30.1736 60.7622C30.1049 60.6434 30.2273 60.3927 30.3176 60.2242C30.6613 59.5759 31.5506 59.7704 32.1113 59.1588C32.1306 60.0794 32.9298 60.2393 33.4324 60.531C33.8792 60.7968 34.0962 60.9891 34.0919 61.4515C34.0769 63.4936 34.0919 65.5378 34.079 67.582C34.0682 67.7994 34.0438 68.0159 34.006 68.2303L33.4002 68.3751C33.3637 68.6322 33.3315 68.8591 33.2949 69.1119C33.9115 69.6608 34.1542 69.2351 33.9179 70.0217C33.8728 70.1686 33.8707 70.3263 33.8384 70.4755C33.7525 70.9325 33.5111 71.3452 33.1555 71.6425C32.7999 71.9399 32.3524 72.1033 31.89 72.1048C29.7956 72.1955 27.6968 72.2258 25.598 72.269C25.4039 72.2831 25.2108 72.2306 25.0502 72.1199C24.7151 71.785 24.4058 71.4479 24.4058 70.9292C24.4058 69.1638 24.3521 68.4961 24.3521 66.7349C24.3521 66.4389 24.5325 66.1429 24.6378 65.8166C24.1931 65.6005 24.3478 65.1488 24.3005 64.7599C24.2533 64.3709 24.7044 64.3234 24.9321 64.1203L24.9385 64.1289Z" fill="#FDBA61"/>
</g>
<defs>
<clipPath id="clip0">
<rect width="98" height="83" fill="white"/>
</clipPath>
</defs>
</svg>
