<svg width="60" height="60" viewBox="0 0 60 60" fill="none" xmlns="http://www.w3.org/2000/svg">
<circle cx="30" cy="30" r="30" fill="#FDBA61"/>
<g clip-path="url(#clip0)">
<path d="M41.0483 26.1997H27.103C26.8603 26.1997 26.6636 26.3965 26.6636 26.6392C26.6636 26.8819 26.8603 27.0786 27.103 27.0786H41.0483C41.291 27.0786 41.4878 26.8819 41.4878 26.6392C41.4878 26.3965 41.291 26.1997 41.0483 26.1997Z" fill="#333333"/>
<path d="M41.0483 29.5591H27.103C26.8603 29.5591 26.6636 29.7558 26.6636 29.9985C26.6636 30.2412 26.8603 30.438 27.103 30.438H41.0483C41.291 30.438 41.4878 30.2412 41.4878 29.9985C41.4878 29.7558 41.291 29.5591 41.0483 29.5591Z" fill="#333333"/>
<path d="M41.0483 32.9184H27.103C26.8603 32.9184 26.6636 33.1152 26.6636 33.3578C26.6636 33.6005 26.8603 33.7973 27.103 33.7973H41.0483C41.291 33.7973 41.4878 33.6005 41.4878 33.3578C41.4878 33.1152 41.291 32.9184 41.0483 32.9184Z" fill="#333333"/>
<path d="M42.4439 22.3564H25.7069C24.2975 22.3564 23.1509 23.503 23.1509 24.9124V35.4369C23.1509 36.8462 24.2974 37.9928 25.7069 37.9928H37.438C37.5634 37.9928 37.68 38.0493 37.7578 38.1478L41.5462 42.9438C41.6954 43.1329 41.9133 43.2359 42.1414 43.2359C42.2262 43.2359 42.3124 43.2216 42.3971 43.1922C42.7092 43.0838 42.9109 42.8003 42.9109 42.4699V37.9492C44.0959 37.7278 44.9999 36.6801 44.9999 35.4369V24.9124C44.9999 23.503 43.8533 22.3564 42.4439 22.3564ZM44.121 35.4369C44.121 36.3496 43.3784 37.1016 42.4657 37.1132C42.2253 37.1163 42.0319 37.3121 42.0319 37.5527V42.1409L38.4475 37.603C38.202 37.2921 37.8341 37.1139 37.438 37.1139H25.7069C24.7821 37.1139 24.0298 36.3615 24.0298 35.4368V24.9124C24.0298 23.9876 24.7821 23.2353 25.7069 23.2353H42.4439C43.3687 23.2353 44.121 23.9876 44.121 24.9124V35.4369Z" fill="#333333"/>
<path d="M21.4743 29.6227C21.1737 29.6654 20.9045 29.8201 20.7163 30.0584L17.6975 33.8802V30.0499C17.6975 29.8094 17.5041 29.6135 17.2637 29.6104C16.5001 29.6007 15.8789 28.9716 15.8789 28.208V19.0462C15.8789 18.2726 16.5083 17.6432 17.2819 17.6432H31.852C32.6256 17.6432 33.2551 18.2726 33.2551 19.0462V20.7415C33.2551 20.9841 33.4518 21.1809 33.6945 21.1809C33.9372 21.1809 34.134 20.9841 34.134 20.7415V19.0462C34.134 17.788 33.1103 16.7643 31.852 16.7643H17.2819C16.0237 16.7643 15 17.788 15 19.0462V28.208C15 29.3018 15.7835 30.2258 16.8186 30.4418V34.3305C16.8186 34.6426 17.0092 34.9106 17.3041 35.013C17.3841 35.0408 17.4656 35.0543 17.5457 35.0543C17.7612 35.0543 17.9671 34.9569 18.1082 34.7783L21.4061 30.6032C21.4536 30.5429 21.5218 30.5038 21.5978 30.4929C21.8381 30.4588 22.0053 30.2363 21.9711 29.996C21.937 29.7557 21.7149 29.5885 21.4743 29.6227V29.6227Z" fill="#333333"/>
</g>
<defs>
<clipPath id="clip0">
<rect width="30" height="30" fill="white" transform="translate(15 15)"/>
</clipPath>
</defs>
</svg>
