<svg width="40" height="40" viewBox="0 0 40 40" fill="none" xmlns="http://www.w3.org/2000/svg">
<circle cx="20" cy="20" r="20" fill="#5D5D5D"/>
<path d="M11.1111 23.8889C12.4944 23.8889 13.8333 23.6667 15.0778 23.2556C15.4611 23.1333 15.9 23.2222 16.2055 23.5278L18.6499 25.9778C21.7999 24.3778 24.3722 21.8056 25.9722 18.6611L23.5278 16.2056C23.2222 15.9 23.1333 15.4611 23.2555 15.0778C23.6666 13.8334 23.8889 12.4945 23.8889 11.1111C23.8889 10.4944 24.3833 10 25 10H28.8889C29.5 10 30 10.4944 30 11.1111C30 21.5444 21.5444 30 11.1111 30C10.4944 30 10 29.5056 10 28.8889V25C10 24.3833 10.4944 23.8889 11.1111 23.8889Z" fill="white"/>
</svg>
