<svg width="40" height="40" viewBox="0 0 40 40" fill="none" xmlns="http://www.w3.org/2000/svg">
<circle cx="20" cy="20" r="20" fill="#5D5D5D"/>
<g clip-path="url(#clip0)">
<path d="M29.6902 11.9868C29.4459 11.688 29.08 11.5235 28.6598 11.5235C28.4314 11.5235 28.1894 11.5716 27.9406 11.6666L11.011 18.1292C10.1126 18.472 9.99158 18.9866 9.99936 19.2628C10.0071 19.5389 10.1571 20.0458 11.0736 20.3374C11.0791 20.3391 11.0846 20.3408 11.0901 20.3423L14.6017 21.3473L16.5008 26.7779C16.7598 27.5182 17.341 27.9781 18.0179 27.9781C18.4446 27.9781 18.8644 27.7993 19.2318 27.4612L21.4039 25.4612L24.5544 27.998C24.5547 27.9983 24.5552 27.9984 24.5555 27.9987L24.5854 28.0228C24.5881 28.025 24.591 28.0273 24.5938 28.0294C24.944 28.301 25.3262 28.4444 25.6996 28.4446H25.6997C26.4293 28.4446 27.0102 27.9046 27.1794 27.069L29.9533 13.3721C30.0647 12.8223 29.9713 12.3304 29.6902 11.9868ZM15.7765 21.1564L22.5515 17.6952L18.3329 22.1778C18.2638 22.2512 18.2148 22.3411 18.1907 22.4389L17.3773 25.7339L15.7765 21.1564ZM18.4379 26.599C18.4099 26.6248 18.3816 26.6479 18.3534 26.6691L19.1081 23.6124L20.4809 24.7179L18.4379 26.599ZM28.8047 13.1394L26.0309 26.8365C26.0042 26.9675 25.9189 27.2726 25.6996 27.2726C25.5912 27.2726 25.4551 27.2135 25.3158 27.1062L21.7459 24.2318C21.7454 24.2313 21.7448 24.2309 21.7442 24.2306L19.62 22.5201L25.7206 16.0377C25.916 15.8301 25.9337 15.5123 25.7626 15.2843C25.5914 15.0564 25.2812 14.9846 25.0274 15.1143L14.9936 20.2404L11.4341 19.222L28.3586 12.7614C28.5016 12.7068 28.6013 12.6954 28.6598 12.6954C28.6956 12.6954 28.7594 12.6996 28.7831 12.7288C28.8142 12.7668 28.8539 12.8963 28.8047 13.1394Z" fill="white"/>
</g>
<defs>
<clipPath id="clip0">
<rect width="20" height="20" fill="white" transform="translate(10 10)"/>
</clipPath>
</defs>
</svg>
