<svg width="40" height="40" viewBox="0 0 40 40" fill="none" xmlns="http://www.w3.org/2000/svg">
<circle cx="20" cy="20" r="20" fill="#FDBA61"/>
<g clip-path="url(#clip0)">
<path d="M24.5893 21.9219L24.5818 21.9844C22.7493 21.0711 22.5576 20.9494 22.3209 21.3044C22.1568 21.5503 21.6784 22.1078 21.5343 22.2728C21.3884 22.4353 21.2434 22.4478 20.9959 22.3353C20.7459 22.2103 19.9434 21.9478 18.9934 21.0978C18.2534 20.4353 17.7568 19.6228 17.6101 19.3728C17.3659 18.9511 17.8768 18.8911 18.3418 18.0111C18.4251 17.8361 18.3826 17.6986 18.3209 17.5744C18.2584 17.4494 17.7609 16.2244 17.5526 15.7361C17.3526 15.2494 17.1468 15.3111 16.9926 15.3111C16.5126 15.2694 16.1618 15.2761 15.8526 15.5978C14.5076 17.0761 14.8468 18.6011 15.9976 20.2228C18.2593 23.1828 19.4643 23.7278 21.6676 24.4844C22.2626 24.6736 22.8051 24.6469 23.2343 24.5853C23.7126 24.5094 24.7068 23.9844 24.9143 23.3969C25.1268 22.8094 25.1268 22.3219 25.0643 22.2094C25.0026 22.0969 24.8393 22.0344 24.5893 21.9219Z" fill="#333333"/>
<path d="M27.1 12.8736C20.6925 6.67941 10.0883 11.1719 10.0842 19.9102C10.0842 21.6569 10.5417 23.3602 11.4133 24.8644L10 29.9994L15.2792 28.6227C21.8667 32.1811 29.9967 27.4561 30 19.9152C30 17.2686 28.9667 14.7777 27.0875 12.9061L27.1 12.8736ZM28.335 19.8877C28.33 26.2486 21.3475 30.2211 15.825 26.9744L15.525 26.7961L12.4 27.6086L13.2375 24.5711L13.0383 24.2586C9.60167 18.7877 13.55 11.6377 20.06 11.6377C22.2717 11.6377 24.3475 12.5002 25.9108 14.0627C27.4733 15.6119 28.335 17.6877 28.335 19.8877Z" fill="#333333"/>
</g>
<defs>
<clipPath id="clip0">
<rect width="20" height="20" fill="white" transform="translate(10 10)"/>
</clipPath>
</defs>
</svg>
